<svg xmlns="http://www.w3.org/2000/svg">
  <symbol id="roadmap-icon-0" viewBox="0 0 120.83 82.27">
    <g>
      <path d="M94,50.65v-.07c-.44-2.31-1.48-3.55-3.48-4.16l-.27-.09-.55-.23c-1.17-.49-7.86-3-8.19-3.08a1.22,1.22,0,0,1-.83-.74,4.8,4.8,0,0,1-.2-1.68A23.89,23.89,0,0,0,82.56,39a8.78,8.78,0,0,0,2.64-4.13c.1-.39.14-.54.34-.69a6.31,6.31,0,0,1,.57-.35,2.81,2.81,0,0,0,1.27-1.17,19.53,19.53,0,0,0,1.32-5.17l0-.18a.41.41,0,0,0,0-.22,2.56,2.56,0,0,0-2.42-1.87h-.25a39.75,39.75,0,0,0,0-7.32,2.68,2.68,0,0,0,.38-1.38A2.57,2.57,0,0,0,84.59,14a2.72,2.72,0,0,0-1-1.4,2.93,2.93,0,0,0-.89-2.06,2.86,2.86,0,0,0-2.05-.82,2.31,2.31,0,0,0-.46,0,3,3,0,0,0-3.54-.73,3,3,0,0,0-1.52-.4,2.82,2.82,0,0,0-1.59.5,2.8,2.8,0,0,0-1.21-.26A2.72,2.72,0,0,0,70.18,10a2,2,0,0,0-.65-.08,2.31,2.31,0,0,0-2.23,1.9,2.77,2.77,0,0,0-1.78,1.66,2.54,2.54,0,0,0-2.27,2.58,2.49,2.49,0,0,0,.52,1.52,37.22,37.22,0,0,0,.12,7.59h-.5A2.57,2.57,0,0,0,61,27a.41.41,0,0,0,0,.22l0,.18a20,20,0,0,0,1.32,5.17,2.91,2.91,0,0,0,1.27,1.17,4.38,4.38,0,0,1,.57.35c.2.15.25.3.35.71A8.67,8.67,0,0,0,67.15,39a19.55,19.55,0,0,0,2,1.52A16,16,0,0,1,69,42.35a1.17,1.17,0,0,1-.88.69l-6.63,2.4a8.17,8.17,0,0,0-2.2.91,6,6,0,0,0-3.07,3.83l-2.3-.84a1.41,1.41,0,0,1-.9-.81,5,5,0,0,1-.21-1.81c1.07-.78,2-1.51,2.23-1.76a9.28,9.28,0,0,0,2.8-4.38c.1-.42.15-.58.37-.75a6,6,0,0,1,.61-.38,3,3,0,0,0,1.34-1.22,16,16,0,0,0,1.44-5.44.45.45,0,0,0,0-.11,2.71,2.71,0,0,0-2.54-2h-.51c.09-.83.16-1.64.19-2.17a18.2,18.2,0,0,0,.06-2.94c.91-.31,2.26-1.25,2.28-4.08a.51.51,0,0,0-.95-.24,1.8,1.8,0,0,1-.57.63,2.9,2.9,0,0,0,.31-1.83,2.87,2.87,0,0,0-1.17-1.9,2.83,2.83,0,0,0-1.59-.55,2.74,2.74,0,0,0,0-.5,3.61,3.61,0,0,0-4.13-3l-.36.08a4.12,4.12,0,0,0-1.64-2.26,4.53,4.53,0,0,0-6.14,1,5.85,5.85,0,0,0-6.21,1.55,4.08,4.08,0,0,0-1,3.33,2.84,2.84,0,0,0-1,1.72,2.78,2.78,0,0,0,0,.65A10.42,10.42,0,0,0,35,28.5c0,.5.11,1.31.22,2.19h-.6a2.71,2.71,0,0,0-2.54,2,.45.45,0,0,0,0,.11,16.09,16.09,0,0,0,1.44,5.44,3,3,0,0,0,1.34,1.22c.19.11.4.23.61.38s.27.33.38.77A9.22,9.22,0,0,0,38.67,45a23.28,23.28,0,0,0,2.1,1.61,19.66,19.66,0,0,1-.15,2,1.27,1.27,0,0,1-1,.75l-7,2.56a8.36,8.36,0,0,0-2.33,1,6.46,6.46,0,0,0-3.37,4.43c-.48,1.78-.55,6.3-.58,8.48,0,.52,0,.87,0,1a.51.51,0,0,0,.22.46c6.83,4.62,12.54,6.39,21.41,6.39,1.1,0,2.25,0,3.46-.08,4.73-.2,12-2.52,16-4.56a.49.49,0,0,0,.27-.46c0-1-.11-2.18-.16-3.37a40.06,40.06,0,0,0,8.35.78c1,0,2.13,0,3.27-.07,4.45-.2,11.29-2.38,15.08-4.29a.51.51,0,0,0,.27-.47C94.32,57.13,94,50.65,94,50.65ZM86,26.16h.3a1.62,1.62,0,0,1,1.48,1,.52.52,0,0,1,0,.11,18,18,0,0,1-1.21,4.86,2,2,0,0,1-.88.77q-.23.12-.45.27L85,25.79a.46.46,0,0,0,.12.23.54.54,0,0,0,.41.15ZM65.74,14.46h.12a.5.5,0,0,0,.52-.39,1.78,1.78,0,0,1,1.39-1.36.93.93,0,0,0,.41-.33.43.43,0,0,0,.08-.24,1.32,1.32,0,0,1,1.29-1.24,1.19,1.19,0,0,1,.6.15.51.51,0,0,0,.67-.21,1.74,1.74,0,0,1,1.51-.95,2,2,0,0,1,1,.28.51.51,0,0,0,.6,0,1.82,1.82,0,0,1,1.22-.48,1.72,1.72,0,0,1,1.17.38.5.5,0,0,0,.57,0,2.05,2.05,0,0,1,1-.3,2,2,0,0,1,1.69.87.49.49,0,0,0,.55.18,1.93,1.93,0,0,1,.52-.08,2,2,0,0,1,1.34.54,1.9,1.9,0,0,1,.59,1.39,1.08,1.08,0,0,1,0,.18.48.48,0,0,0,.25.47,1.75,1.75,0,0,1,.87,1.22.49.49,0,0,0,.43.4,1.56,1.56,0,0,1,1.34,1.53,1.62,1.62,0,0,1-.3,1,.45.45,0,0,0-.09.35,39.23,39.23,0,0,1,0,7.67v-.52s0,0,0-.06c-.15-2-.65-5.47-2.23-6.75A2.18,2.18,0,0,0,81,17.64a43.66,43.66,0,0,1-6.23.59,43.4,43.4,0,0,1-6.24-.42,2.12,2.12,0,0,0-1.74.52c-1.36,1.17-1.83,4-2,6.06a33.91,33.91,0,0,1,0-6.9.51.51,0,0,0-.13-.41,1.57,1.57,0,0,1,1.08-2.62ZM64.08,32.91a2,2,0,0,1-.88-.77A18.4,18.4,0,0,1,62,27.28l0-.11a1.64,1.64,0,0,1,1.48-1h.33a3.25,3.25,0,0,1,.6,0,.5.5,0,0,0,.42-.14s0,0,0,0l-.14,7.24A6.49,6.49,0,0,0,64.08,32.91Zm3.76,5.33a8,8,0,0,1-2.37-3.66,2.56,2.56,0,0,0-.3-.79l.19-9.62s0,0,0,0c.17-1.84.61-4.42,1.79-5.43a1.65,1.65,0,0,1,1.34-.41,43.13,43.13,0,0,0,6.31.43,43.14,43.14,0,0,0,6.3-.6,1.64,1.64,0,0,1,1.36.37c1.61,1.3,2,5.42,2.09,6.88l.15,8.2a2.16,2.16,0,0,0-.45,1,7.93,7.93,0,0,1-2.37,3.64,26.4,26.4,0,0,1-2.18,1.7.37.37,0,0,0-.13.15,13.75,13.75,0,0,1-4.42,2c-1.49.17-4.38-1.68-5.06-2.13a.45.45,0,0,0-.16-.2A25.79,25.79,0,0,1,67.84,38.24ZM68.38,44A2.05,2.05,0,0,0,70,42.54a16.08,16.08,0,0,0,.16-1.92c1,.63,3.3,2,4.83,2l.25,0a12.55,12.55,0,0,0,4.28-1.89,5.08,5.08,0,0,0,.29,2A2.19,2.19,0,0,0,81.2,44l4.26,1.59c-1,.74-6.34,4.56-9.82,5s-9.77-4.09-11.2-5.15Zm-15,6.2-3.28,5.06-3-3.77.19-.24a.25.25,0,0,0,.06-.14c1.38-.41,3.83-1.23,4.75-2.15h0A2.45,2.45,0,0,0,53.33,50.19ZM48,56.76l.9,11.82L47.1,70.79l-2.28-2.27,1-11.76a2.65,2.65,0,0,1,.25-.35,2.4,2.4,0,0,0,.71.12,2.17,2.17,0,0,0,.94-.23A2.52,2.52,0,0,1,48,56.76ZM46.74,56a1.83,1.83,0,0,1-1.6-1l-.32-.72,1.93-2.45,1.91,2.43-.32.73A1.84,1.84,0,0,1,46.74,56ZM37.47,20.61a.48.48,0,0,0,.07-.35,1.56,1.56,0,0,1,0-.53,1.93,1.93,0,0,1,.83-1.28.56.56,0,0,0,.18-.56c0-.06,0-.13,0-.2a3,3,0,0,1,.8-2.51A4.85,4.85,0,0,1,44.75,14a.51.51,0,0,0,.64-.2,3.38,3.38,0,0,1,2.43-1.63,3.43,3.43,0,0,1,2.52.55,3.07,3.07,0,0,1,1.32,2.06l.45-.07h0l-.44.17a.48.48,0,0,0,.25.38.51.51,0,0,0,.45,0,3,3,0,0,1,.69-.21,2.63,2.63,0,0,1,3,3,.49.49,0,0,0,.15.43.52.52,0,0,0,.45.13,1.9,1.9,0,0,1,1.42.35,1.9,1.9,0,0,1,.41,2.69.51.51,0,0,0,0,.57,1.75,1.75,0,0,1,.23.5.48.48,0,0,0,.24.3.46.46,0,0,0,.38,0,3,3,0,0,0,.58-.24,2.28,2.28,0,0,1-1.55,1.83.74.74,0,0,0-.27.16l-.13.08a.51.51,0,0,0-.2.44,17.93,17.93,0,0,1,0,3.1c0,.28,0,.64-.08,1A31.64,31.64,0,0,0,56,24.11c-.07-.18-.11-.29-.13-.33a.25.25,0,0,0-.2-.18,2.21,2.21,0,0,1-1.09-.47.25.25,0,0,0-.26,0,3,3,0,0,1-3.53-.88.25.25,0,0,0-.34-.06,6,6,0,0,1-2.5.94c-2.26.33-4.48-.58-5.28-2.16a.25.25,0,0,0-.33-.11,3.64,3.64,0,0,1-3.09,0,.26.26,0,0,0-.27,0,.24.24,0,0,1-.08.06l-.15.13,0,.06a22.8,22.8,0,0,0-2.53,8.77c-.06-.57-.11-1.09-.14-1.49A9.55,9.55,0,0,1,37.47,20.61Zm1.9,23.64a8.38,8.38,0,0,1-2.53-3.91A2,2,0,0,0,36.09,39a6.39,6.39,0,0,0-.71-.45,2,2,0,0,1-1-.82,15.52,15.52,0,0,1-1.32-4.91,1.73,1.73,0,0,1,1.61-1.15h.36a3.14,3.14,0,0,1,.68,0,.51.51,0,0,0,.42-.14s0,0,0,0l0,0h0a.26.26,0,0,0,.25-.22c0-.21,0-.44.06-.7a22.89,22.89,0,0,1,2.51-9.33l0,0a4.36,4.36,0,0,0,1.1.31,4,4,0,0,0,2.07-.24A5.6,5.6,0,0,0,48,23.59a6.55,6.55,0,0,0,2.52-.9,3.43,3.43,0,0,0,3.09,1.11,3.33,3.33,0,0,0,.75-.2,2.6,2.6,0,0,0,1.07.47l.08.22c.44,1.13,1.77,4.57,1.8,6.82a.23.23,0,0,0,.17.22.47.47,0,0,0,.55.39,3.28,3.28,0,0,1,.6,0H59a1.74,1.74,0,0,1,1.62,1.15,14.88,14.88,0,0,1-1.32,4.91,2.06,2.06,0,0,1-1,.82,6.48,6.48,0,0,0-.72.45,2.09,2.09,0,0,0-.75,1.33,8.33,8.33,0,0,1-2.52,3.88A25.94,25.94,0,0,1,52,46.05a.49.49,0,0,0-.21.4,8.87,8.87,0,0,0,.12,1.86c-.22.74-3,1.8-5.15,2.4-2-.56-4.63-1.54-5.1-2.27,0-.43.09-1.12.13-2.09a.5.5,0,0,0-.21-.44C40.44,45.12,39.57,44.44,39.37,44.25Zm2.15,4.8c1.11,1,3.9,1.84,5.09,2.18l-3.17,4-3.25-5A2.19,2.19,0,0,0,41.52,49.05Zm9.85,23.48c-10.57.47-16.67-1-24-6,0-.18,0-.44,0-.75,0-2,.1-6.57.54-8.22a5.52,5.52,0,0,1,2.93-3.85,7.93,7.93,0,0,1,2.11-.86l6.76-2.45,3.52,5.43a.24.24,0,0,0,.21.12h0a.25.25,0,0,0,.21-.1l.84-1.06.22.5v0a2.37,2.37,0,0,0,.86.89,2.81,2.81,0,0,0-.24.36.17.17,0,0,0,0,.1l-1,11.92a.27.27,0,0,0,.07.2l2.56,2.55a.22.22,0,0,0,.17.07h0a.23.23,0,0,0,.18-.09l2.07-2.5a.28.28,0,0,0,.06-.18l-.91-12a.3.3,0,0,0,0-.1,3,3,0,0,0-.36-.53,2.59,2.59,0,0,0,.65-.74l.23-.52.86,1.08a.23.23,0,0,0,.2.1h0a.25.25,0,0,0,.21-.12l3.54-5.46c1.24.46,7.27,2.69,8.38,3.16l.58.23.38.14c1.74.52,2.58,1.53,3,3.58,0,.52.34,6.69.54,10.74C62.7,70.17,55.85,72.34,51.37,72.53Zm27.74-7.68a44.76,44.76,0,0,1-11.62-.73c-.17-3.42-.34-6.71-.34-6.71s0,0,0-.07c-.46-2.44-1.56-3.75-3.67-4.39l-.29-.1-.59-.24c-.7-.3-3.29-1.27-5.46-2.08a5,5,0,0,1,2.66-3.33,7.21,7.21,0,0,1,2-.81l2.12-.76c.55.42,7.26,5.47,11.28,5.47a4.63,4.63,0,0,0,.54,0c4-.52,10-5.06,10.24-5.25,0,0,0,0,0-.07,1.49.56,2.87,1.09,3.33,1.28l.55.22.36.13c1.63.49,2.41,1.43,2.78,3.35,0,.5.32,6.28.5,10.08C89.75,62.64,83.32,64.67,79.11,64.85Z"/>
    </g>
  </symbol>
</svg>