<svg xmlns="http://www.w3.org/2000/svg" viewBox="838.47 4067.822 57.331 58.418">
  <defs>
    <style>
      .cls-2 {
        fill: #65667c;
      }
    </style>
  </defs>
  <g id="steemit-vector-logo" class="cls-1" transform="translate(838.47 4067.822)">
    <g id="Group_1043" data-name="Group 1043" transform="translate(0 0)">
      <path id="Path_796" data-name="Path 796" class="cls-2" d="M50.633,17.64a23.511,23.511,0,0,0-8.276-5.36c1.755-5.162,7.976-7.041,7.976-7.041S35.816-2.3,19.784.711C14.44,1.561,9.315,4.844,5.566,9.176a22.277,22.277,0,0,0,2.413,31.6c1.456,1.246,4.706,3.184,4.766,3.283-2.134,5.419-8.954,6.9-8.954,6.9a56.8,56.8,0,0,0,21.118,7.1,44.438,44.438,0,0,0,10.15.119c5.6-.455,11.187-3.422,15.434-7.595A23.184,23.184,0,0,0,50.633,17.64ZM46.485,46.99a21.629,21.629,0,0,1-12.5,5.795,39.587,39.587,0,0,1-8.654-.04,41.133,41.133,0,0,1-10.27-2.808,15.279,15.279,0,0,0,3.649-5.221,4.021,4.021,0,0,0-.12-3.184,17.027,17.027,0,0,1,3.47-19.659,17.672,17.672,0,0,1,24.727.138A17.826,17.826,0,0,1,46.485,46.99Z" transform="translate(-0.105 -0.002)"/>
    </g>
  </g>
</svg>
