<svg xmlns="http://www.w3.org/2000/svg" viewBox="1018.864 4070.554 52.83 52.83">
  <defs>
    <style>
      .cls-2 {
        fill: #65667c;
      }
    </style>
  </defs>
  <g id="facebook-icon" class="cls-1" transform="translate(1018.864 4070.554)">
    <path id="Subtraction_2" data-name="Subtraction 2" class="cls-2" d="M49.914,52.83H36.452V32.371h6.867L44.347,24.4h-7.9V19.308a4.181,4.181,0,0,1,.734-2.806,2.665,2.665,0,0,1,1.2-.793,6.125,6.125,0,0,1,2.014-.282l4.222,0V8.293a56.749,56.749,0,0,0-6.152-.314c-6.325,0-10.255,4.038-10.255,10.539V24.4H21.333v7.973h6.885V52.83H2.916A2.915,2.915,0,0,1,0,49.914v-47A2.916,2.916,0,0,1,2.916,0h47A2.916,2.916,0,0,1,52.83,2.916v47a2.916,2.916,0,0,1-2.915,2.916Z" transform="translate(0 0)"/>
  </g>
</svg>
