<svg xmlns="http://www.w3.org/2000/svg" viewBox="744.73 4069.643 65.45 54.058">
  <defs>
    <style>
      .cls-2 {
        fill: #65667c;
      }
    </style>
  </defs>
  <g id="Medium_logo_Wordmark_Black_1_" data-name="Medium_logo_Wordmark_Black (1)" class="cls-1" transform="translate(744.73 4069.643)">
    <g id="Wordmark_Black" transform="translate(0 0)">
      <path id="Shape" class="cls-2" d="M60.5,49.951l4.952,4.78v.159H40.332v-.159l5.041-4.78a1.937,1.937,0,0,0,.672-1.835V17.553a32.1,32.1,0,0,1,.224-4.531L29.33,55.5h-.2L11.584,16.42c-.381-.974-.493-1.042-.739-1.7V40.345a8.992,8.992,0,0,0,.829,5.007l7.058,9.38v.159H0v-.159l7.058-9.4a9.015,9.015,0,0,0,.829-4.984V12.024A5.525,5.525,0,0,0,6.722,8.15l-5-6.548V1.444H19.651l15.012,33.1,13.22-33.1H65.427V1.6L60.5,7.153a1.959,1.959,0,0,0-.762,1.9V48.116A1.822,1.822,0,0,0,60.5,49.951Z" transform="translate(0 -1.444)"/>
    </g>
  </g>
</svg>
