<svg xmlns="http://www.w3.org/2000/svg" viewBox="1102.567 4066 62.858 61.306">
  <defs>
    <style>
      .cls-1 {
        fill: #65667c;
      }
    </style>
  </defs>
  <path id="Path_802" data-name="Path 802" class="cls-1" d="M31.429,0a31.432,31.432,0,0,0-9.936,61.252c1.571.291,2.147-.682,2.147-1.512,0-.749-.029-3.225-.043-5.851-8.744,1.9-10.589-3.708-10.589-3.708-1.43-3.633-3.49-4.6-3.49-4.6-2.851-1.951.215-1.911.215-1.911,3.156.222,4.818,3.239,4.818,3.239,2.8,4.8,7.352,3.416,9.146,2.613a6.693,6.693,0,0,1,2-4.2c-6.981-.795-14.319-3.49-14.319-15.532a12.163,12.163,0,0,1,3.238-8.436,11.293,11.293,0,0,1,.3-8.317s2.639-.845,8.645,3.222a29.815,29.815,0,0,1,15.74,0c6-4.066,8.634-3.222,8.634-3.222a11.279,11.279,0,0,1,.308,8.317,12.139,12.139,0,0,1,3.234,8.436c0,12.071-7.352,14.729-14.351,15.507,1.127.975,2.132,2.888,2.132,5.82,0,4.205-.036,7.59-.036,8.625,0,.836.566,1.816,2.159,1.508A31.433,31.433,0,0,0,31.429,0" transform="translate(1102.567 4066)"/>
</svg>
