<svg xmlns="http://www.w3.org/2000/svg" viewBox="929.503 4067.822 58.295 58.295">
  <defs>
    <style>
      .cls-2 {
        fill: #65667c;
      }
    </style>
  </defs>
  <g id="twitter-3" class="cls-1" transform="translate(929.503 4067.822)">
    <path id="Subtraction_1" data-name="Subtraction 1" class="cls-2" d="M29.147,58.3a29.155,29.155,0,0,1-11.345-56A29.155,29.155,0,0,1,40.493,56,28.967,28.967,0,0,1,29.147,58.3ZM10.459,40.889h0a21.742,21.742,0,0,0,11.754,3.446c13.656,0,21.816-11.092,21.816-21.816,0-.334-.008-.668-.023-.992a15.587,15.587,0,0,0,3.831-3.974,15.342,15.342,0,0,1-4.4,1.208A7.677,7.677,0,0,0,46.8,14.519a15.27,15.27,0,0,1-4.87,1.861A7.671,7.671,0,0,0,28.67,21.627a7.786,7.786,0,0,0,.2,1.748,21.594,21.594,0,0,1-8.874-2.386,21.765,21.765,0,0,1-6.931-5.625A7.675,7.675,0,0,0,15.436,25.6a7.661,7.661,0,0,1-3.474-.958v.1a7.686,7.686,0,0,0,6.151,7.518,7.638,7.638,0,0,1-2.02.269,7.836,7.836,0,0,1-1.444-.135,7.667,7.667,0,0,0,7.162,5.325,15.435,15.435,0,0,1-11.352,3.174Z" transform="translate(0 0)"/>
  </g>
</svg>
