<svg xmlns="http://www.w3.org/2000/svg" xmlns:xlink="http://www.w3.org/1999/xlink" viewBox="880.286 3565.301 159.714 154.699">
  <defs>
    <style>
      .cls-2 {
        fill: #2f3057;
      }

      .cls-3 {
        fill: url(#linear-gradient);
      }
    </style>
    <linearGradient id="linear-gradient" x1="-0.389" y1="-0.511" x2="0.5" y2="1" gradientUnits="objectBoundingBox">
      <stop offset="0" stop-color="#9149ef"/>
      <stop offset="1" stop-color="#7d70ff"/>
    </linearGradient>
  </defs>
  <g id="Group_1034" data-name="Group 1034" transform="translate(880.201 3565.224)">
    <g id="Group_1032" data-name="Group 1032" class="cls-1" transform="translate(5.069 16.327)">
      <path id="Path_791" data-name="Path 791" class="cls-2" d="M-2015.218-2073.751a6.545,6.545,0,0,1-3.467-1.083l-39-26.433-20.8,14.95a6.13,6.13,0,0,1-8.45-1.3,3.9,3.9,0,0,1-.866-1.95l-10.4-39.65-37.483-14.3a6.065,6.065,0,0,1-3.467-8.017,6.768,6.768,0,0,1,3.467-3.467l142.566-56.766a6.318,6.318,0,0,1,1.95-.433h.65a5.427,5.427,0,0,1,3.9,1.733c.217.217.217.217.217.433a7.041,7.041,0,0,1,1.517,3.683v1.733l-24.05,126.1a6.764,6.764,0,0,1-6.283,4.767Z" transform="translate(2139.615 2212.2)"/>
    </g>
    <g id="Group_1033" data-name="Group 1033" transform="translate(0.086 0.077)">
      <path id="Path_792" data-name="Path 792" class="cls-3" d="M-2017.518-2081.251a6.546,6.546,0,0,1-3.467-1.083l-39-26.433-20.8,14.95a6.131,6.131,0,0,1-8.45-1.3,3.9,3.9,0,0,1-.866-1.95l-10.4-39.649-37.483-14.3a6.066,6.066,0,0,1-3.467-8.017,6.769,6.769,0,0,1,3.467-3.467l142.566-56.766a6.319,6.319,0,0,1,1.95-.434h.65a5.426,5.426,0,0,1,3.9,1.733c.217.217.217.217.217.434a7.04,7.04,0,0,1,1.516,3.683v1.733l-24.05,126.1a6.557,6.557,0,0,1-6.283,4.767Zm-38.783-40.083,34.666,23.617,18.633-98.15-67.6,65,14.3,9.533Zm-29.034-5.2,4.55,17.55,9.967-7.15-13-8.883A9.95,9.95,0,0,1-2085.334-2126.534Zm-33.8-30.55,25.783,9.75a5.468,5.468,0,0,1,3.684,4.117l3.25,12.35a5.607,5.607,0,0,1,1.949-3.683l64.35-61.967Z" transform="translate(2141.915 2219.7)"/>
    </g>
  </g>
</svg>
