<?xml version="1.0" encoding="utf-8"?>
<!-- Generator: Adobe Illustrator 16.0.0, SVG Export Plug-In . SVG Version: 6.00 Build 0)  -->
<!DOCTYPE svg PUBLIC "-//W3C//DTD SVG 1.1//EN" "http://www.w3.org/Graphics/SVG/1.1/DTD/svg11.dtd">
<svg version="1.1" id="Layer_1" xmlns="http://www.w3.org/2000/svg" xmlns:xlink="http://www.w3.org/1999/xlink" x="0px" y="0px"
	 width="106.021px" height="39.175px" viewBox="0 0 106.021 39.175" enable-background="new 0 0 106.021 39.175"
	 xml:space="preserve">
<path fill-rule="evenodd" clip-rule="evenodd" fill="#F8F9FE" d="M33.997,39.175c-4.915-0.025-9.83-0.049-14.746-0.078
	C8.189,39.033-0.011,30.668,0,19.462C0.011,8.476,8.286,0.119,19.253,0.085C35.502,0.036,51.751,0.026,67.999,0
	c6.164,0.027,12.328,0.06,18.494,0.082c11.291,0.041,19.535,8.314,19.527,19.607c-0.008,11.103-8.301,19.392-19.475,19.403
	c-16.52,0.018-33.037-0.004-49.555-0.003C35.993,39.089,34.995,39.146,33.997,39.175z M71.999,2.175
	c-17.986-0.023-35.976-0.198-53.96-0.007C8.857,2.266,1.969,10.177,2.006,19.821c0.036,9.377,7.096,16.989,16.26,17.205
	c7.239,0.171,14.487-0.006,21.731-0.029c3.76,0.43,7.522-0.06,11.291,0.01c11.573,0.214,23.151,0.073,34.728,0.066
	c11.141-0.006,18.594-7.906,17.963-19.039c-0.424-7.467-6.678-14.749-13.35-15.5C84.433,1.836,78.214,2.059,71.999,2.175z"/>
</svg>
