<?xml version="1.0" encoding="utf-8"?>
<!-- Generator: Adobe Illustrator 21.0.2, SVG Export Plug-In . SVG Version: 6.00 Build 0)  -->
<svg version="1.2" baseProfile="tiny" xmlns="http://www.w3.org/2000/svg" xmlns:xlink="http://www.w3.org/1999/xlink" x="0px"
	 y="0px" viewBox="0 0 64 102.7" overflow="auto" xml:space="preserve">
<g id="Proximo">
</g>
<g id="Layer_4">
	<g id="XMLID_562_">
		<circle id="XMLID_629_" fill="#7D70FF" cx="32" cy="73.2" r="11"/>
		<circle id="XMLID_628_" fill="#7D70FF" cx="52" cy="53.2" r="11"/>
		<circle id="XMLID_627_" fill="#7D70FF" cx="12" cy="60.2" r="11"/>
		
			<circle id="XMLID_626_" fill="none" stroke="#1D1B4C" stroke-width="2" stroke-linecap="round" stroke-linejoin="round" stroke-miterlimit="10" cx="32" cy="76.2" r="11"/>
		
			<path id="XMLID_625_" fill="none" stroke="#1D1B4C" stroke-width="2" stroke-linecap="round" stroke-linejoin="round" stroke-miterlimit="10" d="
			M35.8,72c-0.7-1.8-2.4-1.8-4-1.8c-1.9,0-3.7,0.8-3.7,3l0,0l0,0c0,1.2,0.8,2.4,1.9,2.8c0.7,0.2,1.4,0.2,2.1,0.2
			c0.6,0,1.3-0.1,1.9,0.1c1.2,0.4,2.1,1.6,2.1,2.9l0,0l0,0c0,2.2-1.8,3-3.7,3c-1.6,0-3.3-0.1-4-1.8"/>
		
			<line id="XMLID_624_" fill="none" stroke="#1D1B4C" stroke-width="2" stroke-linecap="round" stroke-linejoin="round" stroke-miterlimit="10" x1="32" y1="69.2" x2="32" y2="83.2"/>
		
			<circle id="XMLID_623_" fill="none" stroke="#1D1B4C" stroke-width="2" stroke-linecap="round" stroke-linejoin="round" stroke-miterlimit="10" cx="52" cy="49.2" r="11"/>
		
			<path id="XMLID_622_" fill="none" stroke="#1D1B4C" stroke-width="2" stroke-linecap="round" stroke-linejoin="round" stroke-miterlimit="10" d="
			M55.8,45c-0.7-1.8-2.4-1.8-4-1.8c-1.9,0-3.7,0.8-3.7,3l0,0l0,0c0,1.2,0.8,2.4,1.9,2.8c0.7,0.2,1.4,0.2,2.1,0.2
			c0.6,0,1.3-0.1,1.9,0.1c1.2,0.4,2.1,1.6,2.1,2.9l0,0l0,0c0,2.2-1.8,3-3.7,3c-1.6,0-3.3-0.1-4-1.8"/>
		
			<line id="XMLID_620_" fill="none" stroke="#1D1B4C" stroke-width="2" stroke-linecap="round" stroke-linejoin="round" stroke-miterlimit="10" x1="52" y1="42.2" x2="52" y2="56.2"/>
		
			<circle id="XMLID_619_" fill="none" stroke="#1D1B4C" stroke-width="2" stroke-linecap="round" stroke-linejoin="round" stroke-miterlimit="10" cx="12" cy="56.2" r="11"/>
		
			<path id="XMLID_618_" fill="none" stroke="#1D1B4C" stroke-width="2" stroke-linecap="round" stroke-linejoin="round" stroke-miterlimit="10" d="
			M15.8,52c-0.7-1.8-2.4-1.8-4-1.8c-1.9,0-3.7,0.8-3.7,3l0,0l0,0c0,1.2,0.8,2.4,1.9,2.8c0.7,0.2,1.4,0.2,2.1,0.2
			c0.6,0,1.3-0.1,1.9,0.1c1.2,0.4,2.1,1.6,2.1,2.9l0,0l0,0c0,2.2-1.8,3-3.7,3c-1.6,0-3.3-0.1-4-1.8"/>
		
			<line id="XMLID_615_" fill="none" stroke="#1D1B4C" stroke-width="2" stroke-linecap="round" stroke-linejoin="round" stroke-miterlimit="10" x1="12" y1="49.2" x2="12" y2="63.2"/>
		
			<line id="XMLID_614_" fill="none" stroke="#1D1B4C" stroke-width="2" stroke-linecap="round" stroke-linejoin="round" stroke-miterlimit="10" x1="32" y1="31.2" x2="32" y2="47.2"/>
		
			<line id="XMLID_599_" fill="none" stroke="#1D1B4C" stroke-width="2" stroke-linecap="round" stroke-linejoin="round" stroke-miterlimit="10" x1="12" y1="27.2" x2="12" y2="37.2"/>
		
			<line id="XMLID_598_" fill="none" stroke="#1D1B4C" stroke-width="2" stroke-linecap="round" stroke-linejoin="round" stroke-miterlimit="10" x1="52" y1="27.2" x2="52" y2="30.2"/>
		
			<line id="XMLID_597_" fill="none" stroke="#1D1B4C" stroke-width="2" stroke-linecap="round" stroke-linejoin="round" stroke-miterlimit="10" x1="32" y1="50.2" x2="32" y2="50.2"/>
		
			<line id="XMLID_595_" fill="none" stroke="#1D1B4C" stroke-width="2" stroke-linecap="round" stroke-linejoin="round" stroke-miterlimit="10" x1="12" y1="40.2" x2="12" y2="40.2"/>
		
			<line id="XMLID_594_" fill="none" stroke="#1D1B4C" stroke-width="2" stroke-linecap="round" stroke-linejoin="round" stroke-miterlimit="10" x1="52" y1="33.2" x2="52" y2="33.2"/>
		
			<line id="XMLID_593_" fill="none" stroke="#1D1B4C" stroke-width="2" stroke-linecap="round" stroke-linejoin="round" stroke-miterlimit="10" x1="56" y1="27.2" x2="56" y2="29.2"/>
		
			<line id="XMLID_592_" fill="none" stroke="#1D1B4C" stroke-width="2" stroke-linecap="round" stroke-linejoin="round" stroke-miterlimit="10" x1="48" y1="27.2" x2="48" y2="29.2"/>
		
			<line id="XMLID_590_" fill="none" stroke="#1D1B4C" stroke-width="2" stroke-linecap="round" stroke-linejoin="round" stroke-miterlimit="10" x1="36" y1="31.2" x2="36" y2="45.2"/>
		
			<line id="XMLID_572_" fill="none" stroke="#1D1B4C" stroke-width="2" stroke-linecap="round" stroke-linejoin="round" stroke-miterlimit="10" x1="28" y1="31.2" x2="28" y2="45.2"/>
		
			<line id="XMLID_571_" fill="none" stroke="#1D1B4C" stroke-width="2" stroke-linecap="round" stroke-linejoin="round" stroke-miterlimit="10" x1="16" y1="27.2" x2="16" y2="35.2"/>
		
			<line id="XMLID_566_" fill="none" stroke="#1D1B4C" stroke-width="2" stroke-linecap="round" stroke-linejoin="round" stroke-miterlimit="10" x1="8" y1="27.2" x2="8" y2="35.2"/>
	</g>
</g>
<g id="Layer_5">
</g>
<g id="Layer_3">
</g>
<g id="Layer_2">
</g>
</svg>
