<?xml version="1.0" encoding="utf-8"?>
<!-- Generator: Adobe Illustrator 21.0.2, SVG Export Plug-In . SVG Version: 6.00 Build 0)  -->
<svg version="1.2" baseProfile="tiny" xmlns="http://www.w3.org/2000/svg" xmlns:xlink="http://www.w3.org/1999/xlink" x="0px"
	 y="0px" viewBox="0 0 68.6 102.7" overflow="auto" xml:space="preserve">
<g id="Proximo">
</g>
<g id="Layer_4">
</g>
<g id="Layer_5">
</g>
<g id="Layer_3">
	<g>
		<path fill="#1D1B4C" d="M33.8,32.2c-0.3,0-0.5-0.1-0.7-0.3c-0.2-0.2-0.3-0.4-0.3-0.7c0-0.1,0-0.3,0.1-0.4c0-0.1,0.1-0.2,0.2-0.3
			c0.1-0.1,0.2-0.2,0.3-0.2c0.4-0.2,0.8-0.1,1.1,0.2c0.1,0.1,0.2,0.2,0.2,0.3c0,0.1,0.1,0.2,0.1,0.4c0,0.3-0.1,0.5-0.3,0.7
			C34.3,32.1,34.1,32.2,33.8,32.2z"/>
		<path fill="#1D1B4C" d="M33.8,28.2c-0.1,0-0.3,0-0.4-0.1c-0.1,0-0.2-0.1-0.3-0.2c0,0-0.1-0.1-0.1-0.1c0-0.1-0.1-0.1-0.1-0.2
			c0-0.1,0-0.1-0.1-0.2c0-0.1,0-0.1,0-0.2c0-0.1,0-0.1,0-0.2c0-0.1,0-0.1,0.1-0.2c0-0.1,0.1-0.1,0.1-0.2c0,0,0.1-0.1,0.1-0.1
			c0.1-0.1,0.2-0.2,0.3-0.2c0.4-0.1,0.8-0.1,1.1,0.2c0,0,0.1,0.1,0.1,0.1c0,0.1,0.1,0.1,0.1,0.2c0,0.1,0,0.1,0,0.2
			c0,0.1,0,0.1,0,0.2c0,0.1,0,0.1,0,0.2c0,0.1,0,0.1,0,0.2c0,0.1-0.1,0.1-0.1,0.2c0,0-0.1,0.1-0.1,0.1
			C34.3,28.1,34.1,28.2,33.8,28.2z"/>
		<path fill="#1D1B4C" d="M39.8,32.2c-0.1,0-0.1,0-0.2,0c-0.1,0-0.1,0-0.2-0.1c-0.1,0-0.1,0-0.2-0.1c-0.1,0-0.1-0.1-0.1-0.1
			c-0.2-0.2-0.3-0.4-0.3-0.7c0-0.1,0-0.3,0.1-0.4c0-0.1,0.1-0.2,0.2-0.3c0,0,0.1-0.1,0.1-0.1c0,0,0.1-0.1,0.2-0.1
			c0.1,0,0.1,0,0.2-0.1c0.3-0.1,0.7,0,0.9,0.3c0.1,0.1,0.2,0.2,0.2,0.3c0,0.1,0.1,0.2,0.1,0.4c0,0.3-0.1,0.5-0.3,0.7
			C40.3,32.1,40,32.2,39.8,32.2z"/>
		<path fill="#1D1B4C" d="M39.8,28.2c-0.3,0-0.5-0.1-0.7-0.3c0,0-0.1-0.1-0.1-0.1c0-0.1-0.1-0.1-0.1-0.2c0-0.1,0-0.1-0.1-0.2
			c0-0.1,0-0.1,0-0.2c0-0.1,0-0.1,0-0.2c0-0.1,0-0.1,0.1-0.2c0-0.1,0.1-0.1,0.1-0.2c0,0,0.1-0.1,0.1-0.1c0.3-0.3,0.7-0.4,1.1-0.2
			c0.1,0,0.2,0.1,0.3,0.2c0,0,0.1,0.1,0.1,0.1c0,0.1,0.1,0.1,0.1,0.2c0,0.1,0,0.1,0,0.2c0,0.1,0,0.1,0,0.2c0,0.1,0,0.1,0,0.2
			c0,0.1,0,0.1,0,0.2c0,0.1-0.1,0.1-0.1,0.2c0,0-0.1,0.1-0.1,0.1c-0.1,0.1-0.2,0.2-0.3,0.2C40,28.2,39.9,28.2,39.8,28.2z"/>
		<path fill="#1D1B4C" d="M43.7,28.2c-0.3,0-0.5-0.1-0.7-0.3c0,0-0.1-0.1-0.1-0.1c0-0.1-0.1-0.1-0.1-0.2c0-0.1,0-0.1-0.1-0.2
			c0-0.1,0-0.1,0-0.2c0-0.1,0-0.1,0-0.2c0-0.1,0-0.1,0.1-0.2c0-0.1,0.1-0.1,0.1-0.2c0,0,0.1-0.1,0.1-0.1c0.4-0.4,1-0.4,1.4,0
			c0,0,0.1,0.1,0.1,0.1c0,0.1,0.1,0.1,0.1,0.2c0,0.1,0,0.1,0,0.2c0,0.1,0,0.1,0,0.2c0,0.1,0,0.1,0,0.2c0,0.1,0,0.1,0,0.2
			c0,0.1-0.1,0.1-0.1,0.2c0,0-0.1,0.1-0.1,0.1C44.3,28.1,44,28.2,43.7,28.2z"/>
		<path fill="#1D1B4C" d="M47.7,28.2c-0.1,0-0.3,0-0.4-0.1c-0.1,0-0.2-0.1-0.3-0.2c0,0-0.1-0.1-0.1-0.1c0-0.1-0.1-0.1-0.1-0.2
			c0-0.1,0-0.1-0.1-0.2c0-0.1,0-0.1,0-0.2c0-0.1,0-0.1,0-0.2c0-0.1,0-0.1,0.1-0.2c0-0.1,0.1-0.1,0.1-0.2c0,0,0.1-0.1,0.1-0.1
			c0.1-0.1,0.2-0.2,0.3-0.2c0.4-0.1,0.8-0.1,1.1,0.2c0,0,0.1,0.1,0.1,0.1c0,0.1,0.1,0.1,0.1,0.2c0,0.1,0,0.1,0,0.2
			c0,0.1,0,0.1,0,0.2c0,0.1,0,0.1,0,0.2c0,0.1,0,0.1,0,0.2c0,0.1-0.1,0.1-0.1,0.2c0,0-0.1,0.1-0.1,0.1C48.2,28.1,48,28.2,47.7,28.2z
			"/>
		<path fill="#1D1B4C" d="M33.8,36.1c-0.3,0-0.5-0.1-0.7-0.3c-0.2-0.2-0.3-0.4-0.3-0.7c0-0.1,0-0.3,0.1-0.4c0-0.1,0.1-0.2,0.2-0.3
			c0.4-0.4,1-0.4,1.4,0c0.2,0.2,0.3,0.4,0.3,0.7c0,0.3-0.1,0.5-0.3,0.7C34.3,36,34.1,36.1,33.8,36.1z"/>
		<path fill="#1D1B4C" d="M33.8,40.1c-0.3,0-0.5-0.1-0.7-0.3c-0.2-0.2-0.3-0.4-0.3-0.7c0-0.3,0.1-0.5,0.3-0.7
			c0.3-0.3,0.7-0.4,1.1-0.2c0.1,0,0.2,0.1,0.3,0.2c0.2,0.2,0.3,0.4,0.3,0.7c0,0.3-0.1,0.5-0.3,0.7C34.3,40,34.1,40.1,33.8,40.1z"/>
		<path fill="#1D1B4C" d="M33.8,44.1c-0.3,0-0.5-0.1-0.7-0.3c-0.2-0.2-0.3-0.4-0.3-0.7c0-0.3,0.1-0.5,0.3-0.7c0.4-0.4,1-0.4,1.4,0
			c0.2,0.2,0.3,0.4,0.3,0.7c0,0.3-0.1,0.5-0.3,0.7C34.3,44,34.1,44.1,33.8,44.1z"/>
		<path fill="#1D1B4C" d="M27.8,32.2c-0.3,0-0.5-0.1-0.7-0.3c-0.2-0.2-0.3-0.4-0.3-0.7c0-0.1,0-0.3,0.1-0.4c0-0.1,0.1-0.2,0.2-0.3
			c0.3-0.3,0.7-0.4,1.1-0.2c0.1,0,0.2,0.1,0.3,0.2c0.2,0.2,0.3,0.4,0.3,0.7c0,0.3-0.1,0.5-0.3,0.7C28.4,32.1,28.1,32.2,27.8,32.2z"
			/>
		<path fill="#1D1B4C" d="M27.8,28.2c-0.1,0-0.3,0-0.4-0.1c-0.1,0-0.2-0.1-0.3-0.2c0,0-0.1-0.1-0.1-0.1c0-0.1-0.1-0.1-0.1-0.2
			c0-0.1,0-0.1-0.1-0.2c0-0.1,0-0.1,0-0.2c0-0.1,0-0.1,0-0.2c0-0.1,0-0.1,0.1-0.2c0-0.1,0.1-0.1,0.1-0.2c0,0,0.1-0.1,0.1-0.1
			c0.1-0.1,0.2-0.2,0.3-0.2c0.4-0.1,0.8-0.1,1.1,0.2c0,0,0.1,0.1,0.1,0.1c0,0.1,0.1,0.1,0.1,0.2c0,0.1,0,0.1,0,0.2
			c0,0.1,0,0.1,0,0.2c0,0.1,0,0.1,0,0.2c0,0.1,0,0.1,0,0.2c0,0.1-0.1,0.1-0.1,0.2c0,0-0.1,0.1-0.1,0.1
			C28.4,28.1,28.1,28.2,27.8,28.2z"/>
		<path fill="#1D1B4C" d="M23.9,28.2c-0.3,0-0.5-0.1-0.7-0.3c0,0-0.1-0.1-0.1-0.1c0-0.1-0.1-0.1-0.1-0.2c0-0.1,0-0.1-0.1-0.2
			c0-0.1,0-0.1,0-0.2c0-0.1,0-0.1,0-0.2c0-0.1,0-0.1,0.1-0.2c0-0.1,0.1-0.1,0.1-0.2c0,0,0.1-0.1,0.1-0.1c0.3-0.3,0.7-0.4,1.1-0.2
			c0.1,0,0.2,0.1,0.3,0.2c0,0,0.1,0.1,0.1,0.1c0,0.1,0.1,0.1,0.1,0.2c0,0.1,0,0.1,0,0.2c0,0.1,0,0.1,0,0.2c0,0.1,0,0.1,0,0.2
			c0,0.1,0,0.1,0,0.2c0,0.1-0.1,0.1-0.1,0.2c0,0-0.1,0.1-0.1,0.1c-0.1,0.1-0.2,0.2-0.3,0.2C24.1,28.2,24,28.2,23.9,28.2z"/>
		<path fill="#1D1B4C" d="M19.9,28.2c-0.1,0-0.3,0-0.4-0.1c-0.1,0-0.2-0.1-0.3-0.2c0,0-0.1-0.1-0.1-0.1c0-0.1-0.1-0.1-0.1-0.2
			c0-0.1,0-0.1-0.1-0.2c0-0.1,0-0.1,0-0.2c0-0.1,0-0.1,0-0.2c0-0.1,0-0.1,0.1-0.2c0-0.1,0.1-0.1,0.1-0.2c0,0,0.1-0.1,0.1-0.1
			c0.1-0.1,0.2-0.2,0.3-0.2c0.4-0.1,0.8-0.1,1.1,0.2c0,0,0.1,0.1,0.1,0.1c0,0.1,0.1,0.1,0.1,0.2c0,0.1,0,0.1,0,0.2
			c0,0.1,0,0.1,0,0.2c0,0.1,0,0.1,0,0.2c0,0.1,0,0.1,0,0.2c0,0.1-0.1,0.1-0.1,0.2c0,0-0.1,0.1-0.1,0.1
			C20.4,28.1,20.2,28.2,19.9,28.2z"/>
		<path fill="#1D1B4C" d="M34.1,23.2c-1.6,0-3.9,0-4.9-2.4c-0.2-0.5,0-1.1,0.5-1.3c0.5-0.2,1.1,0,1.3,0.5c0.4,1,1.3,1.2,3.1,1.2
			c1.2,0,2.7-0.3,2.7-2c0-0.8-0.6-1.6-1.4-1.9c-0.3-0.1-0.8-0.1-1.2-0.1l-0.7,0c-0.6,0-1.4,0-2.1-0.3c-1.5-0.6-2.6-2.1-2.6-3.7
			c0-2.4,1.8-4,4.7-4c1.6,0,3.9,0,4.9,2.4c0.2,0.5,0,1.1-0.5,1.3c-0.5,0.2-1.1,0-1.3-0.5c-0.4-1-1.3-1.2-3.1-1.2c-1,0-2.7,0.3-2.7,2
			c0,0.8,0.5,1.6,1.3,1.9c0.4,0.1,0.8,0.1,1.3,0.1l0.7,0c0.6,0,1.2,0,1.9,0.2c1.6,0.5,2.7,2.1,2.7,3.8
			C38.7,21.7,36.9,23.2,34.1,23.2z"/>
		<path fill="#1D1B4C" d="M33.8,24.2c-0.5,0-1-0.4-1-1V9.3c0-0.5,0.4-1,1-1s1,0.4,1,1v13.9C34.8,23.8,34.4,24.2,33.8,24.2z"/>
		<path fill="#1D1B4C" d="M15.6,35.2c-1.6,0-3.2-0.6-4.6-1.7c-1.9-1.5-3-3.9-3-6.3s1.1-4.8,3-6.3c1.8-1.4,4-2,6.1-1.5
			c0.5,0.1,0.9,0.6,0.8,1.2c-0.1,0.5-0.6,0.9-1.2,0.8c-1.6-0.3-3.2,0.1-4.5,1.1c-1.4,1.1-2.3,2.9-2.3,4.7c0,1.8,0.8,3.6,2.3,4.7
			c1.3,1.1,2.9,1.4,4.5,1.1c0.5-0.1,1.1,0.2,1.2,0.8s-0.2,1.1-0.8,1.2C16.6,35.1,16.1,35.2,15.6,35.2z"/>
		<path fill="#1D1B4C" d="M60.2,35.2c-0.7,0-1.4-0.2-2.1-0.3c-1.2-0.3-2-0.5-2.7,0.1c-0.4,0.3-0.9,0.3-1.3,0
			c-0.4-0.3-0.4-0.9-0.2-1.3c1.2-1.9,1.4-3.6,0.7-5.1c-0.2-0.4-0.5-0.8-0.7-1.2c-0.7-1.1-1.6-2.4-1.2-4.3c0.4-2,2-3.5,4.1-3.7
			c1.9-0.2,4.2,0.7,4.8,2.8c0.2,0.5-0.1,1.1-0.7,1.2c-0.5,0.2-1.1-0.1-1.2-0.7c-0.3-1-1.6-1.5-2.8-1.4c-1.2,0.1-2.1,1-2.3,2.1
			c-0.2,1.1,0.2,1.8,0.9,2.9c0.3,0.4,0.6,0.9,0.8,1.4c0.8,1.6,0.9,3.2,0.3,5c0.7,0,1.3,0.2,1.9,0.3c1.1,0.3,1.8,0.4,2.4,0
			c0.4-0.3,1.1-0.2,1.4,0.2c0.3,0.4,0.2,1.1-0.2,1.4C61.5,35.1,60.9,35.2,60.2,35.2z"/>
		<path fill="#1D1B4C" d="M14.9,28.2H7c-0.5,0-1-0.4-1-1c0-0.5,0.4-1,1-1h7.9c0.5,0,1,0.4,1,1C15.9,27.8,15.4,28.2,14.9,28.2z"/>
		<path fill="#1D1B4C" d="M58.6,28.2h-6c-0.5,0-1-0.4-1-1c0-0.5,0.4-1,1-1h6c0.5,0,1,0.4,1,1C59.6,27.8,59.2,28.2,58.6,28.2z"/>
		<path id="XMLID_787_" fill="#7D70FF" d="M32.7,72.4V55.9c0-0.5,0.4-0.8,0.8-0.8H50c0.5,0,0.8,0.4,0.8,0.8v16.5
			c0,0.5-0.4,0.8-0.8,0.8H33.5C33,73.2,32.7,72.9,32.7,72.4z"/>
		<rect id="XMLID_786_" x="17" y="54.3" fill="#7D70FF" width="11.5" height="14.8"/>
		
			<path id="XMLID_754_" fill="none" stroke="#1D1B4C" stroke-width="2" stroke-linecap="round" stroke-linejoin="round" stroke-miterlimit="10" d="
			M44.2,92.2H24.4v-2.9c0-1.1,0.9-2,2-2h15.8c1.1,0,2,0.9,2,2V92.2z"/>
		
			<rect id="XMLID_751_" x="28.5" y="82.3" fill="none" stroke="#1D1B4C" stroke-width="2" stroke-linecap="round" stroke-linejoin="round" stroke-miterlimit="10" width="3.3" height="4.9"/>
		
			<rect id="XMLID_750_" x="36.8" y="82.3" fill="none" stroke="#1D1B4C" stroke-width="2" stroke-linecap="round" stroke-linejoin="round" stroke-miterlimit="10" width="3.3" height="4.9"/>
		
			<path id="XMLID_749_" fill="none" stroke="#1D1B4C" stroke-width="2" stroke-linecap="round" stroke-linejoin="round" stroke-miterlimit="10" d="
			M54.2,82.3H14.4c-2.2,0-4-1.8-4-4V51.7c0-2.2,1.8-4,4-4h39.8c2.2,0,4,1.8,4,4v26.6C58.2,80.5,56.4,82.3,54.2,82.3z"/>
		
			<path id="XMLID_746_" fill="none" stroke="#1D1B4C" stroke-width="2" stroke-linecap="round" stroke-linejoin="round" stroke-miterlimit="10" d="
			M30.2,51v21.4c0,1.8,1.5,3.3,3.3,3.3h21.4c1.8,0,3.3-1.5,3.3-3.3V51c0-1.8-1.5-3.3-3.3-3.3H33.5C31.7,47.7,30.2,49.1,30.2,51z"/>
		
			<path id="XMLID_745_" fill="none" stroke="#1D1B4C" stroke-width="2" stroke-linecap="round" stroke-linejoin="round" stroke-miterlimit="10" d="
			M35.1,69.9V53.4c0-0.5,0.4-0.8,0.8-0.8h16.5c0.5,0,0.8,0.4,0.8,0.8v16.5c0,0.5-0.4,0.8-0.8,0.8H36C35.5,70.8,35.1,70.4,35.1,69.9z
			"/>
		
			<circle id="XMLID_744_" fill="none" stroke="#1D1B4C" stroke-width="2" stroke-linecap="round" stroke-linejoin="round" stroke-miterlimit="10" cx="44.2" cy="61.7" r="6.6"/>
		
			<circle id="XMLID_743_" fill="none" stroke="#1D1B4C" stroke-width="2" stroke-linecap="round" stroke-linejoin="round" stroke-miterlimit="10" cx="44.2" cy="61.7" r="3.3"/>
		
			<line id="XMLID_742_" fill="none" stroke="#1D1B4C" stroke-width="2" stroke-linecap="round" stroke-linejoin="round" stroke-miterlimit="10" x1="55.8" y1="50.1" x2="55.8" y2="50.1"/>
		
			<line id="XMLID_741_" fill="none" stroke="#1D1B4C" stroke-width="2" stroke-linecap="round" stroke-linejoin="round" stroke-miterlimit="10" x1="32.7" y1="50.1" x2="32.7" y2="50.1"/>
		
			<line id="XMLID_739_" fill="none" stroke="#1D1B4C" stroke-width="2" stroke-linecap="round" stroke-linejoin="round" stroke-miterlimit="10" x1="32.7" y1="73.2" x2="32.7" y2="73.2"/>
		
			<line id="XMLID_738_" fill="none" stroke="#1D1B4C" stroke-width="2" stroke-linecap="round" stroke-linejoin="round" stroke-miterlimit="10" x1="55.8" y1="73.2" x2="55.8" y2="73.2"/>
		
			<line id="XMLID_737_" fill="none" stroke="#1D1B4C" stroke-width="2" stroke-linecap="round" stroke-linejoin="round" stroke-miterlimit="10" x1="44.2" y1="73.2" x2="44.2" y2="73.2"/>
		
			<line id="XMLID_736_" fill="none" stroke="#1D1B4C" stroke-width="2" stroke-linecap="round" stroke-linejoin="round" stroke-miterlimit="10" x1="44.2" y1="50.1" x2="44.2" y2="50.1"/>
		
			<line id="XMLID_735_" fill="none" stroke="#1D1B4C" stroke-width="2" stroke-linecap="round" stroke-linejoin="round" stroke-miterlimit="10" x1="55.8" y1="62.5" x2="55.8" y2="62.5"/>
		
			<line id="XMLID_734_" fill="none" stroke="#1D1B4C" stroke-width="2" stroke-linecap="round" stroke-linejoin="round" stroke-miterlimit="10" x1="32.7" y1="62.5" x2="32.7" y2="62.5"/>
		
			<rect id="XMLID_730_" x="14.5" y="51.8" fill="none" stroke="#1D1B4C" stroke-width="2" stroke-linecap="round" stroke-linejoin="round" stroke-miterlimit="10" width="11.5" height="14.8"/>
		
			<circle id="XMLID_729_" fill="none" stroke="#1D1B4C" stroke-width="2" stroke-linecap="round" stroke-linejoin="round" stroke-miterlimit="10" cx="20.3" cy="72.4" r="2.5"/>
		
			<line id="XMLID_718_" fill="none" stroke="#1D1B4C" stroke-width="2" stroke-linecap="round" stroke-linejoin="round" stroke-miterlimit="10" x1="29.4" y1="79" x2="29.4" y2="79"/>
		
			<line id="XMLID_680_" fill="none" stroke="#1D1B4C" stroke-width="2" stroke-linecap="round" stroke-linejoin="round" stroke-miterlimit="10" x1="32.7" y1="79" x2="32.7" y2="79"/>
		
			<line id="XMLID_675_" fill="none" stroke="#1D1B4C" stroke-width="2" stroke-linecap="round" stroke-linejoin="round" stroke-miterlimit="10" x1="36" y1="79" x2="36" y2="79"/>
		
			<line id="XMLID_674_" fill="none" stroke="#1D1B4C" stroke-width="2" stroke-linecap="round" stroke-linejoin="round" stroke-miterlimit="10" x1="39.3" y1="79" x2="39.3" y2="79"/>
		
			<line id="XMLID_673_" fill="none" stroke="#1D1B4C" stroke-width="2" stroke-linecap="round" stroke-linejoin="round" stroke-miterlimit="10" x1="42.6" y1="79" x2="42.6" y2="79"/>
		
			<line id="XMLID_672_" fill="none" stroke="#1D1B4C" stroke-width="2" stroke-linecap="round" stroke-linejoin="round" stroke-miterlimit="10" x1="26.1" y1="79" x2="26.1" y2="79"/>
		
			<line id="XMLID_671_" fill="none" stroke="#1D1B4C" stroke-width="2" stroke-linecap="round" stroke-linejoin="round" stroke-miterlimit="10" x1="17.8" y1="55.1" x2="22.8" y2="55.1"/>
		
			<line id="XMLID_670_" fill="none" stroke="#1D1B4C" stroke-width="2" stroke-linecap="round" stroke-linejoin="round" stroke-miterlimit="10" x1="17.8" y1="58.4" x2="20.3" y2="58.4"/>
		
			<path id="XMLID_669_" fill="none" stroke="#1D1B4C" stroke-width="2" stroke-linecap="round" stroke-linejoin="round" stroke-miterlimit="10" d="
			M10.4,75.7H8.1c-0.6,0-1-0.4-1-1v-4.6c0-0.6,0.4-1,1-1h2.3V75.7z"/>
	</g>
</g>
<g id="Layer_2">
</g>
</svg>
