<svg xmlns="http://www.w3.org/2000/svg" viewBox="0 0 120.83 82.27"><defs><style>.cls-1{fill:#6812d8;}</style></defs><title>icon9Paratii_</title><g id="Warstwa_2" data-name="Warstwa 2"><rect class="cls-1" x="104.4" y="48.14" width="0.36" height="0.5"/><path class="cls-1" d="M98.57,49.51l.36.35a4.1,4.1,0,0,1,.73-.59l-.26-.42A4.38,4.38,0,0,0,98.57,49.51Z"/><rect class="cls-1" x="97.24" y="58.34" width="0.5" height="1"/><rect class="cls-1" x="102.4" y="48.14" width="1" height="0.5"/><path class="cls-1" d="M100.35,48.39l.16.48a3.69,3.69,0,0,1,.92-.2l-.05-.5A4.5,4.5,0,0,0,100.35,48.39Z"/><path class="cls-1" d="M97.47,51.29l.48.16a3.68,3.68,0,0,1,.4-.85l-.43-.26A4.88,4.88,0,0,0,97.47,51.29Z"/><rect class="cls-1" x="97.24" y="54.34" width="0.5" height="1"/><rect class="cls-1" x="97.24" y="56.34" width="0.5" height="1"/><path class="cls-1" d="M97.24,52.76v.58h.5v-.58c0-.13,0-.26,0-.39l-.49,0A3.24,3.24,0,0,0,97.24,52.76Z"/><path class="cls-1" d="M97.24,67.56a4.57,4.57,0,0,1-4.57,4.56H69.86a2.66,2.66,0,0,0,0-.28A2.9,2.9,0,0,0,67.29,69V61.57a2,2,0,0,0,1.73-2V58.29H88.16A4.26,4.26,0,0,0,92.42,54V11.79a4.27,4.27,0,0,0-4.26-4.27H45.92a4.27,4.27,0,0,0-4.27,4.27V54a4.27,4.27,0,0,0,4.27,4.26h19v1.27a2,2,0,0,0,1.8,2V69a2.91,2.91,0,0,0-2.66,2.89,2.66,2.66,0,0,0,0,.28H39.4a6.36,6.36,0,0,1-6.35-6.34V22.71a7.78,7.78,0,0,0-7.76-7.77H21.85a3.32,3.32,0,1,0,.12.5h3.32a7.27,7.27,0,0,1,7.26,7.27V65.78a6.85,6.85,0,0,0,6.85,6.84H64.19a2.89,2.89,0,0,0,5.58,0h22.9a5.07,5.07,0,0,0,5.07-5.06V60.67h-.5ZM21.51,15.87a2.5,2.5,0,1,1-.05-.48v0h0A3,3,0,0,1,21.51,15.87ZM42.65,16H91.42v36.1H42.65Zm3.27-7.43H88.16a3.26,3.26,0,0,1,3.26,3.27v3.66H42.65V11.79A3.27,3.27,0,0,1,45.92,8.52ZM42.65,54V52.55H91.42V54a3.26,3.26,0,0,1-3.26,3.26H45.92A3.27,3.27,0,0,1,42.65,54Zm22.78,5.53V58.29h3.09v1.27a1.55,1.55,0,0,1-3.09,0ZM67,74.25a2.41,2.41,0,1,1,2.41-2.41A2.41,2.41,0,0,1,67,74.25Z"/><path class="cls-1" d="M48.37,13.76A1.72,1.72,0,1,0,46.66,12,1.72,1.72,0,0,0,48.37,13.76Zm0-2.93A1.22,1.22,0,1,1,47.16,12,1.22,1.22,0,0,1,48.37,10.83Z"/><path class="cls-1" d="M53.5,13.76A1.72,1.72,0,1,0,51.78,12,1.72,1.72,0,0,0,53.5,13.76Zm0-2.93A1.22,1.22,0,1,1,52.28,12,1.21,1.21,0,0,1,53.5,10.83Z"/><path class="cls-1" d="M58.62,13.76A1.72,1.72,0,1,0,56.91,12,1.72,1.72,0,0,0,58.62,13.76Zm0-2.93A1.22,1.22,0,1,1,57.41,12,1.21,1.21,0,0,1,58.62,10.83Z"/><polygon class="cls-1" points="59.83 19.48 59.83 30.22 64.77 30.22 64.77 29.72 60.33 29.72 60.33 19.98 87.73 19.98 87.73 29.72 66.65 29.72 66.65 30.22 88.23 30.22 88.23 19.48 59.83 19.48"/><rect class="cls-1" x="46.27" y="29.72" width="5.76" height="0.5"/><rect class="cls-1" x="46.27" y="24.6" width="5.76" height="0.5"/><rect class="cls-1" x="46.27" y="19.47" width="5.76" height="0.5"/><rect class="cls-1" x="55.4" y="18.99" width="0.5" height="30"/></g></svg>