<svg xmlns="http://www.w3.org/2000/svg" viewBox="0 0 120.83 82.27"><defs><style>.cls-1{fill:#6812d8;}</style></defs><title>icon7Paratii_</title><g id="Warstwa_2" data-name="Warstwa 2"><path class="cls-1" d="M20.16,30.73a.25.25,0,0,0,.25-.25V27a.25.25,0,0,0-.5,0v3.5A.25.25,0,0,0,20.16,30.73Z"/><path class="cls-1" d="M20.16,33a.25.25,0,0,0,.25-.25v-.84a.25.25,0,0,0-.5,0v.84A.25.25,0,0,0,20.16,33Z"/><path class="cls-1" d="M47.31,44.46a.89.89,0,0,0,.4-.11l10.18-6.12A1.56,1.56,0,0,0,58.6,37V31.54a.66.66,0,0,0-.3-.6.66.66,0,0,0-.67,0L47.45,37.1a1.59,1.59,0,0,0-.71,1.25V43.8a.66.66,0,0,0,.3.6A.6.6,0,0,0,47.31,44.46Zm-.07-6.11a1.09,1.09,0,0,1,.47-.82l10.18-6.11a.26.26,0,0,1,.14-.05h0s.05.06.05.16V37a1.07,1.07,0,0,1-.47.81L47.45,43.92c-.09,0-.15,0-.16,0s0-.06,0-.16Z"/><path class="cls-1" d="M47.29,33.5a1.05,1.05,0,0,0,.49.13,1,1,0,0,0,.51-.14l3.19-1.92a.75.75,0,0,0,0-1.39l-3.47-2a.82.82,0,0,0-.84,0,.81.81,0,0,0-.37.75v3.71A1,1,0,0,0,47.29,33.5Zm0-4.58c0-.16,0-.28.12-.32a.17.17,0,0,1,.1,0,.52.52,0,0,1,.24.08l3.48,2c.14.08.22.17.22.26s-.08.19-.22.27L48,33.06a.5.5,0,0,1-.5,0,.48.48,0,0,1-.25-.43Z"/><path class="cls-1" d="M104.39,63.32c0-1.47-.07-2.84-.13-4.07-.12-5-.17-7.28-3.79-8.39l-.27-.09-.55-.23c-1.16-.5-8.46-3-8.81-3.11a1.27,1.27,0,0,1-.82-.74l0-.11c0-.13,0-.27-.06-.44,2.83-.2,6.24-.64,7.45-1.6,1.59-1.26,2.13-9.6,2.3-16.36,0-.4,0-.83,0-1.34v-.45a.4.4,0,0,0,0-.15c-.31-11.36-9.28-14.4-14.55-14.4a16.76,16.76,0,0,0-3.8.47l0,0H19.73a3.3,3.3,0,0,0-3.3,3.3V63.08a3.3,3.3,0,0,0,3.3,3.3H64.84v2.48a.5.5,0,0,0,.5.5H71a.5.5,0,0,0,.5-.5v-.6a24.29,24.29,0,0,0,5.34,1.41,36.14,36.14,0,0,0,7.34.76,35.21,35.21,0,0,0,5-.36h.15a25.57,25.57,0,0,0,7.22-1.84,36,36,0,0,0,7.63-3.88.5.5,0,0,0,.22-.43ZM92.33,49c-.36,3.75-3.84,5.09-6.9,5.09h-.2c-3.64-.07-7.36-2-7.65-5.14l1.64-.55a2.05,2.05,0,0,0,1.56-1.46,10.52,10.52,0,0,0,.11-1.24.49.49,0,0,0,0-.25,8.12,8.12,0,0,0,0-1.09,11.77,11.77,0,0,0,4.41,1.53h.21a10.69,10.69,0,0,0,3.33-1.09,7,7,0,0,0,.24,2.35,2.08,2.08,0,0,0,1,1.06l.24.1h0a2.18,2.18,0,0,0,.23.09Zm-2.81-5.13h0a12.92,12.92,0,0,1-4.06,1.51c-1.52.13-4.53-1.57-4.82-1.74a22.15,22.15,0,0,1-5.25-4.31,4.13,4.13,0,0,1-.74-2.51c0-.82,0-1.65,0-2.37a.24.24,0,0,0-.23-.25,1.14,1.14,0,0,1-1.12-1c-.18-.58-.71-2.42-1-3.37,4,.06,14.75-4.36,18.26-7.3v0a16.41,16.41,0,0,0,1.71,4.13c1.92,2.81,3.74,3.33,4.79,3.36,0,.08,0,.19-.08.34-.16.7-.46,2-.71,2.82-.18.59-.47.87-1,.94a.26.26,0,0,0-.21.25v.31c0,.83,0,1.66,0,2.49a3.42,3.42,0,0,1-.4,1.46A21.4,21.4,0,0,1,89.52,43.87Zm-17.71-14c.23.93.83,3,1,3.55a1.62,1.62,0,0,0,1.34,1.29c0,.66,0,1.41,0,2.13A4.55,4.55,0,0,0,75,39.6c.8,1.2,3.26,3.09,5.37,4.46h0a5.46,5.46,0,0,1,0,1.09c-3.61-.24-6.25-.76-7.06-1.4-.65-.52-1.51-4.53-1.86-14ZM96.75,43.76c-.82.65-3.58,1.18-7.4,1.41l0,0v-.56A22.4,22.4,0,0,0,95.16,39a4,4,0,0,0,.47-1.72c0-.83,0-1.66,0-2.49v-.11a1.65,1.65,0,0,0,1.15-1.25c.25-.83.56-2.14.72-2.85,0-.24.09-.41.11-.47h0A1.72,1.72,0,0,0,98,30a1.25,1.25,0,0,0,.66-.35C98.31,39.17,97.43,43.22,96.75,43.76ZM98.69,26.4a.49.49,0,0,0,0,.12v.32c0,.49,0,.9,0,1.3,0,.19,0,.37,0,.56-.31.72-.75.78-.76.78l-.07,0c-.1,0-2.46.8-5.09-3.06a15.86,15.86,0,0,1-1.65-4L91,22.05a.28.28,0,0,0-.18-.17.24.24,0,0,0-.23.06c-3.94,3.65-16.86,8.26-19.07,7.3l-.07,0,0-1c0-.4,0-.85,0-1.4v-.29a.5.5,0,0,0,0-.12c.24-10.71,8.77-13.56,13.77-13.56S98.45,15.69,98.69,26.4Zm-79,39a2.3,2.3,0,0,1-2.3-2.3V15.59a2.31,2.31,0,0,1,2.3-2.3H78.44a13.91,13.91,0,0,0-3.89,2.61H22.72a2.81,2.81,0,0,0-2.81,2.81V23.5a.25.25,0,0,0,.5,0V18.71a2.31,2.31,0,0,1,2.31-2.31H74.06a14.4,14.4,0,0,0-3.7,9.83.88.88,0,0,0,0,.16v.45c0,.55,0,1,0,1.42.19,6.75.75,15.06,2.29,16.28,1.2,1,4.47,1.39,7.19,1.59,0,.39,0,.56-.06.63a1.14,1.14,0,0,1-.86.68l-7.27,2.43a8.65,8.65,0,0,0-1.92.78l-.3-.41a1.45,1.45,0,0,0-1.27-.73,1.43,1.43,0,0,0-1.25.69l-2.86,4H20.41V36.53a.25.25,0,0,0-.5,0V60a2.81,2.81,0,0,0,2.81,2.81H64.84v2.61Zm41.15-6.83H42.5a1.27,1.27,0,0,0,.06-.28A1.5,1.5,0,0,0,42.5,58H61.3Zm-21,0H24.47a.19.19,0,0,1-.19-.18v-.2a.2.2,0,0,1,.19-.19H39.93a1.5,1.5,0,0,0-.06.29A1.27,1.27,0,0,0,39.93,58.55Zm1.29-1.28a1,1,0,1,1-1,1A1,1,0,0,1,41.22,57.27Zm20.33.36H42.38a1.35,1.35,0,0,0-1.16-.71,1.32,1.32,0,0,0-1.16.71H24.47a.54.54,0,0,0-.54.54v.2a.54.54,0,0,0,.54.53H40.06a1.31,1.31,0,0,0,1.16.71,1.33,1.33,0,0,0,1.16-.71H60.74a1.15,1.15,0,0,0,.12.81,1.13,1.13,0,0,0,1,.56h3v2H22.72A2.31,2.31,0,0,1,20.41,60v-5.3h43.3Zm9,2.14v8.59H65.84V59.77a.5.5,0,0,0-.5-.5h-3.5a.12.12,0,0,1-.11-.06.23.23,0,0,1,0-.09l6.07-8.38a.46.46,0,0,1,.41-.23.49.49,0,0,1,.43.28l5.81,7.94a.37.37,0,0,1,0,.35.36.36,0,0,1-.32.19H71A.5.5,0,0,0,70.51,59.77Zm25.68,7.51h0a24.85,24.85,0,0,1-7,1.78H89.1A34.62,34.62,0,0,1,77,68.69a23.19,23.19,0,0,1-5.51-1.51V60.27h2.58a1.37,1.37,0,0,0,1.19-2.06l0,0-4.91-6.7A7.72,7.72,0,0,1,72,50.83l5.15-1.72c.38,3.47,4.35,5.41,8.12,5.48h.24c4.67,0,7-2.62,7.36-5.42,2.33.8,5.72,2,6.45,2.3l.55.22.36.13c2.81.86,2.95,2.26,3.08,7.47.06,1.23.09,2.59.13,4.05v.32A34.51,34.51,0,0,1,96.19,67.28Z"/></g></svg>