<svg xmlns="http://www.w3.org/2000/svg" viewBox="0 0 120.8 82.3">
<style type="text/css">
	.st0{fill:#6812D8;}
</style>
<g>
	<path class="st0" d="M97.7,11.2H23.2c-1.8,0-3.3,1.5-3.3,3.3v53.3c0,1.8,1.5,3.3,3.3,3.3h74.5c1.8,0,3.3-1.5,3.3-3.3V14.5
		C101,12.7,99.5,11.2,97.7,11.2z M100,67.8c0,1.3-1,2.3-2.3,2.3H23.2c-1.3,0-2.3-1-2.3-2.3V14.5c0-1.3,1-2.3,2.3-2.3h74.5
		c1.3,0,2.3,1,2.3,2.3V67.8z"/>
	<path class="st0" d="M94,15.2H26.8c-1.7,0-3.1,1.4-3.1,3.1v5.3c0,0.1,0.1,0.2,0.2,0.2s0.2-0.1,0.2-0.2v-5.3c0-1.4,1.2-2.6,2.6-2.6
		H94c1.4,0,2.6,1.2,2.6,2.6v39.3H24.2V38c0-0.1-0.1-0.2-0.2-0.2s-0.2,0.1-0.2,0.2v26c0,1.7,1.4,3.1,3.1,3.1H94
		c1.7,0,3.1-1.4,3.1-3.1V18.3C97.1,16.6,95.7,15.2,94,15.2z M94,66.6H26.8c-1.4,0-2.6-1.2-2.6-2.6v-5.9h72.4V64
		C96.6,65.4,95.5,66.6,94,66.6z"/>
	<path class="st0" d="M24,31.6c0.1,0,0.2-0.1,0.2-0.2v-3.9c0-0.1-0.1-0.2-0.2-0.2s-0.2,0.1-0.2,0.2v3.9C23.7,31.5,23.8,31.6,24,31.6
		z"/>
	<path class="st0" d="M24,34.1c0.1,0,0.2-0.1,0.2-0.2v-0.9c0-0.1-0.1-0.2-0.2-0.2s-0.2,0.1-0.2,0.2v0.9C23.7,34,23.8,34.1,24,34.1z"
		/>
	<path class="st0" d="M91.9,61.4H48.6c-0.2-0.5-0.7-0.8-1.3-0.8s-1,0.3-1.3,0.8H28.7c-0.3,0-0.5,0.2-0.5,0.5v0.3
		c0,0.3,0.2,0.5,0.5,0.5H46c0.2,0.5,0.7,0.8,1.3,0.8s1-0.3,1.3-0.8h43.3c0.3,0,0.5-0.2,0.5-0.5V62C92.5,61.7,92.2,61.4,91.9,61.4z
		 M28.7,62.5c-0.1,0-0.2-0.1-0.2-0.2V62c0-0.1,0.1-0.2,0.2-0.2h17.2c0,0.1,0,0.2,0,0.3s0,0.2,0,0.3H28.7z M47.3,63.2
		c-0.6,0-1.1-0.5-1.1-1.1s0.5-1.1,1.1-1.1s1.1,0.5,1.1,1.1S47.9,63.2,47.3,63.2z M92.1,62.3c0,0.1-0.1,0.2-0.2,0.2H48.7
		c0-0.1,0-0.2,0-0.3s0-0.2,0-0.3h43.2c0.1,0,0.2,0.1,0.2,0.2V62.3z"/>
	<path class="st0" d="M53.5,46.1c0,0.3,0.1,0.5,0.3,0.6c0.1,0,0.2,0.1,0.3,0.1c0.1,0,0.3,0,0.4-0.1l11.3-6.8
		c0.4-0.3,0.8-0.9,0.8-1.4v-6c0-0.3-0.1-0.5-0.3-0.6c-0.2-0.1-0.5-0.1-0.7,0.1l-11.3,6.8c-0.4,0.3-0.8,0.9-0.8,1.4V46.1z M54,40
		c0-0.3,0.2-0.8,0.5-0.9l11.3-6.8c0.1,0,0.1-0.1,0.2-0.1c0,0,0,0,0,0c0,0,0.1,0.1,0.1,0.2v6c0,0.3-0.2,0.8-0.5,0.9l-11.3,6.8
		c-0.1,0.1-0.2,0.1-0.2,0c0,0-0.1-0.1-0.1-0.2V40z"/>
	<path class="st0" d="M54.6,34.8c0.2,0,0.4-0.1,0.6-0.2l3.5-2.1c0.3-0.2,0.5-0.5,0.5-0.8c0-0.3-0.2-0.6-0.5-0.7l-3.9-2.2h0
		c-0.3-0.2-0.7-0.2-0.9-0.1c-0.3,0.1-0.4,0.4-0.4,0.8v4.1c0,0.4,0.2,0.7,0.5,0.9C54.2,34.7,54.4,34.8,54.6,34.8z M54,29.6
		c0-0.2,0.1-0.3,0.1-0.4c0,0,0.1,0,0.1,0c0.1,0,0.2,0,0.3,0.1l3.9,2.2c0.2,0.1,0.3,0.2,0.3,0.3s-0.1,0.2-0.3,0.3l-3.5,2.1
		c-0.2,0.1-0.4,0.1-0.6,0c-0.2-0.1-0.3-0.3-0.3-0.5V29.6z"/>
</g>
</svg>
