<svg xmlns="http://www.w3.org/2000/svg">
  <symbol id="roadmap-icon-0" viewBox="0 0 120.83 82.27">
    <g>
      <path d="M94,50.65v-.07c-.44-2.31-1.48-3.55-3.48-4.16l-.27-.09-.55-.23c-1.17-.49-7.86-3-8.19-3.08a1.22,1.22,0,0,1-.83-.74,4.8,4.8,0,0,1-.2-1.68A23.89,23.89,0,0,0,82.56,39a8.78,8.78,0,0,0,2.64-4.13c.1-.39.14-.54.34-.69a6.31,6.31,0,0,1,.57-.35,2.81,2.81,0,0,0,1.27-1.17,19.53,19.53,0,0,0,1.32-5.17l0-.18a.41.41,0,0,0,0-.22,2.56,2.56,0,0,0-2.42-1.87h-.25a39.75,39.75,0,0,0,0-7.32,2.68,2.68,0,0,0,.38-1.38A2.57,2.57,0,0,0,84.59,14a2.72,2.72,0,0,0-1-1.4,2.93,2.93,0,0,0-.89-2.06,2.86,2.86,0,0,0-2.05-.82,2.31,2.31,0,0,0-.46,0,3,3,0,0,0-3.54-.73,3,3,0,0,0-1.52-.4,2.82,2.82,0,0,0-1.59.5,2.8,2.8,0,0,0-1.21-.26A2.72,2.72,0,0,0,70.18,10a2,2,0,0,0-.65-.08,2.31,2.31,0,0,0-2.23,1.9,2.77,2.77,0,0,0-1.78,1.66,2.54,2.54,0,0,0-2.27,2.58,2.49,2.49,0,0,0,.52,1.52,37.22,37.22,0,0,0,.12,7.59h-.5A2.57,2.57,0,0,0,61,27a.41.41,0,0,0,0,.22l0,.18a20,20,0,0,0,1.32,5.17,2.91,2.91,0,0,0,1.27,1.17,4.38,4.38,0,0,1,.57.35c.2.15.25.3.35.71A8.67,8.67,0,0,0,67.15,39a19.55,19.55,0,0,0,2,1.52A16,16,0,0,1,69,42.35a1.17,1.17,0,0,1-.88.69l-6.63,2.4a8.17,8.17,0,0,0-2.2.91,6,6,0,0,0-3.07,3.83l-2.3-.84a1.41,1.41,0,0,1-.9-.81,5,5,0,0,1-.21-1.81c1.07-.78,2-1.51,2.23-1.76a9.28,9.28,0,0,0,2.8-4.38c.1-.42.15-.58.37-.75a6,6,0,0,1,.61-.38,3,3,0,0,0,1.34-1.22,16,16,0,0,0,1.44-5.44.45.45,0,0,0,0-.11,2.71,2.71,0,0,0-2.54-2h-.51c.09-.83.16-1.64.19-2.17a18.2,18.2,0,0,0,.06-2.94c.91-.31,2.26-1.25,2.28-4.08a.51.51,0,0,0-.95-.24,1.8,1.8,0,0,1-.57.63,2.9,2.9,0,0,0,.31-1.83,2.87,2.87,0,0,0-1.17-1.9,2.83,2.83,0,0,0-1.59-.55,2.74,2.74,0,0,0,0-.5,3.61,3.61,0,0,0-4.13-3l-.36.08a4.12,4.12,0,0,0-1.64-2.26,4.53,4.53,0,0,0-6.14,1,5.85,5.85,0,0,0-6.21,1.55,4.08,4.08,0,0,0-1,3.33,2.84,2.84,0,0,0-1,1.72,2.78,2.78,0,0,0,0,.65A10.42,10.42,0,0,0,35,28.5c0,.5.11,1.31.22,2.19h-.6a2.71,2.71,0,0,0-2.54,2,.45.45,0,0,0,0,.11,16.09,16.09,0,0,0,1.44,5.44,3,3,0,0,0,1.34,1.22c.19.11.4.23.61.38s.27.33.38.77A9.22,9.22,0,0,0,38.67,45a23.28,23.28,0,0,0,2.1,1.61,19.66,19.66,0,0,1-.15,2,1.27,1.27,0,0,1-1,.75l-7,2.56a8.36,8.36,0,0,0-2.33,1,6.46,6.46,0,0,0-3.37,4.43c-.48,1.78-.55,6.3-.58,8.48,0,.52,0,.87,0,1a.51.51,0,0,0,.22.46c6.83,4.62,12.54,6.39,21.41,6.39,1.1,0,2.25,0,3.46-.08,4.73-.2,12-2.52,16-4.56a.49.49,0,0,0,.27-.46c0-1-.11-2.18-.16-3.37a40.06,40.06,0,0,0,8.35.78c1,0,2.13,0,3.27-.07,4.45-.2,11.29-2.38,15.08-4.29a.51.51,0,0,0,.27-.47C94.32,57.13,94,50.65,94,50.65ZM86,26.16h.3a1.62,1.62,0,0,1,1.48,1,.52.52,0,0,1,0,.11,18,18,0,0,1-1.21,4.86,2,2,0,0,1-.88.77q-.23.12-.45.27L85,25.79a.46.46,0,0,0,.12.23.54.54,0,0,0,.41.15ZM65.74,14.46h.12a.5.5,0,0,0,.52-.39,1.78,1.78,0,0,1,1.39-1.36.93.93,0,0,0,.41-.33.43.43,0,0,0,.08-.24,1.32,1.32,0,0,1,1.29-1.24,1.19,1.19,0,0,1,.6.15.51.51,0,0,0,.67-.21,1.74,1.74,0,0,1,1.51-.95,2,2,0,0,1,1,.28.51.51,0,0,0,.6,0,1.82,1.82,0,0,1,1.22-.48,1.72,1.72,0,0,1,1.17.38.5.5,0,0,0,.57,0,2.05,2.05,0,0,1,1-.3,2,2,0,0,1,1.69.87.49.49,0,0,0,.55.18,1.93,1.93,0,0,1,.52-.08,2,2,0,0,1,1.34.54,1.9,1.9,0,0,1,.59,1.39,1.08,1.08,0,0,1,0,.18.48.48,0,0,0,.25.47,1.75,1.75,0,0,1,.87,1.22.49.49,0,0,0,.43.4,1.56,1.56,0,0,1,1.34,1.53,1.62,1.62,0,0,1-.3,1,.45.45,0,0,0-.09.35,39.23,39.23,0,0,1,0,7.67v-.52s0,0,0-.06c-.15-2-.65-5.47-2.23-6.75A2.18,2.18,0,0,0,81,17.64a43.66,43.66,0,0,1-6.23.59,43.4,43.4,0,0,1-6.24-.42,2.12,2.12,0,0,0-1.74.52c-1.36,1.17-1.83,4-2,6.06a33.91,33.91,0,0,1,0-6.9.51.51,0,0,0-.13-.41,1.57,1.57,0,0,1,1.08-2.62ZM64.08,32.91a2,2,0,0,1-.88-.77A18.4,18.4,0,0,1,62,27.28l0-.11a1.64,1.64,0,0,1,1.48-1h.33a3.25,3.25,0,0,1,.6,0,.5.5,0,0,0,.42-.14s0,0,0,0l-.14,7.24A6.49,6.49,0,0,0,64.08,32.91Zm3.76,5.33a8,8,0,0,1-2.37-3.66,2.56,2.56,0,0,0-.3-.79l.19-9.62s0,0,0,0c.17-1.84.61-4.42,1.79-5.43a1.65,1.65,0,0,1,1.34-.41,43.13,43.13,0,0,0,6.31.43,43.14,43.14,0,0,0,6.3-.6,1.64,1.64,0,0,1,1.36.37c1.61,1.3,2,5.42,2.09,6.88l.15,8.2a2.16,2.16,0,0,0-.45,1,7.93,7.93,0,0,1-2.37,3.64,26.4,26.4,0,0,1-2.18,1.7.37.37,0,0,0-.13.15,13.75,13.75,0,0,1-4.42,2c-1.49.17-4.38-1.68-5.06-2.13a.45.45,0,0,0-.16-.2A25.79,25.79,0,0,1,67.84,38.24ZM68.38,44A2.05,2.05,0,0,0,70,42.54a16.08,16.08,0,0,0,.16-1.92c1,.63,3.3,2,4.83,2l.25,0a12.55,12.55,0,0,0,4.28-1.89,5.08,5.08,0,0,0,.29,2A2.19,2.19,0,0,0,81.2,44l4.26,1.59c-1,.74-6.34,4.56-9.82,5s-9.77-4.09-11.2-5.15Zm-15,6.2-3.28,5.06-3-3.77.19-.24a.25.25,0,0,0,.06-.14c1.38-.41,3.83-1.23,4.75-2.15h0A2.45,2.45,0,0,0,53.33,50.19ZM48,56.76l.9,11.82L47.1,70.79l-2.28-2.27,1-11.76a2.65,2.65,0,0,1,.25-.35,2.4,2.4,0,0,0,.71.12,2.17,2.17,0,0,0,.94-.23A2.52,2.52,0,0,1,48,56.76ZM46.74,56a1.83,1.83,0,0,1-1.6-1l-.32-.72,1.93-2.45,1.91,2.43-.32.73A1.84,1.84,0,0,1,46.74,56ZM37.47,20.61a.48.48,0,0,0,.07-.35,1.56,1.56,0,0,1,0-.53,1.93,1.93,0,0,1,.83-1.28.56.56,0,0,0,.18-.56c0-.06,0-.13,0-.2a3,3,0,0,1,.8-2.51A4.85,4.85,0,0,1,44.75,14a.51.51,0,0,0,.64-.2,3.38,3.38,0,0,1,2.43-1.63,3.43,3.43,0,0,1,2.52.55,3.07,3.07,0,0,1,1.32,2.06l.45-.07h0l-.44.17a.48.48,0,0,0,.25.38.51.51,0,0,0,.45,0,3,3,0,0,1,.69-.21,2.63,2.63,0,0,1,3,3,.49.49,0,0,0,.15.43.52.52,0,0,0,.45.13,1.9,1.9,0,0,1,1.42.35,1.9,1.9,0,0,1,.41,2.69.51.51,0,0,0,0,.57,1.75,1.75,0,0,1,.23.5.48.48,0,0,0,.24.3.46.46,0,0,0,.38,0,3,3,0,0,0,.58-.24,2.28,2.28,0,0,1-1.55,1.83.74.74,0,0,0-.27.16l-.13.08a.51.51,0,0,0-.2.44,17.93,17.93,0,0,1,0,3.1c0,.28,0,.64-.08,1A31.64,31.64,0,0,0,56,24.11c-.07-.18-.11-.29-.13-.33a.25.25,0,0,0-.2-.18,2.21,2.21,0,0,1-1.09-.47.25.25,0,0,0-.26,0,3,3,0,0,1-3.53-.88.25.25,0,0,0-.34-.06,6,6,0,0,1-2.5.94c-2.26.33-4.48-.58-5.28-2.16a.25.25,0,0,0-.33-.11,3.64,3.64,0,0,1-3.09,0,.26.26,0,0,0-.27,0,.24.24,0,0,1-.08.06l-.15.13,0,.06a22.8,22.8,0,0,0-2.53,8.77c-.06-.57-.11-1.09-.14-1.49A9.55,9.55,0,0,1,37.47,20.61Zm1.9,23.64a8.38,8.38,0,0,1-2.53-3.91A2,2,0,0,0,36.09,39a6.39,6.39,0,0,0-.71-.45,2,2,0,0,1-1-.82,15.52,15.52,0,0,1-1.32-4.91,1.73,1.73,0,0,1,1.61-1.15h.36a3.14,3.14,0,0,1,.68,0,.51.51,0,0,0,.42-.14s0,0,0,0l0,0h0a.26.26,0,0,0,.25-.22c0-.21,0-.44.06-.7a22.89,22.89,0,0,1,2.51-9.33l0,0a4.36,4.36,0,0,0,1.1.31,4,4,0,0,0,2.07-.24A5.6,5.6,0,0,0,48,23.59a6.55,6.55,0,0,0,2.52-.9,3.43,3.43,0,0,0,3.09,1.11,3.33,3.33,0,0,0,.75-.2,2.6,2.6,0,0,0,1.07.47l.08.22c.44,1.13,1.77,4.57,1.8,6.82a.23.23,0,0,0,.17.22.47.47,0,0,0,.55.39,3.28,3.28,0,0,1,.6,0H59a1.74,1.74,0,0,1,1.62,1.15,14.88,14.88,0,0,1-1.32,4.91,2.06,2.06,0,0,1-1,.82,6.48,6.48,0,0,0-.72.45,2.09,2.09,0,0,0-.75,1.33,8.33,8.33,0,0,1-2.52,3.88A25.94,25.94,0,0,1,52,46.05a.49.49,0,0,0-.21.4,8.87,8.87,0,0,0,.12,1.86c-.22.74-3,1.8-5.15,2.4-2-.56-4.63-1.54-5.1-2.27,0-.43.09-1.12.13-2.09a.5.5,0,0,0-.21-.44C40.44,45.12,39.57,44.44,39.37,44.25Zm2.15,4.8c1.11,1,3.9,1.84,5.09,2.18l-3.17,4-3.25-5A2.19,2.19,0,0,0,41.52,49.05Zm9.85,23.48c-10.57.47-16.67-1-24-6,0-.18,0-.44,0-.75,0-2,.1-6.57.54-8.22a5.52,5.52,0,0,1,2.93-3.85,7.93,7.93,0,0,1,2.11-.86l6.76-2.45,3.52,5.43a.24.24,0,0,0,.21.12h0a.25.25,0,0,0,.21-.1l.84-1.06.22.5v0a2.37,2.37,0,0,0,.86.89,2.81,2.81,0,0,0-.24.36.17.17,0,0,0,0,.1l-1,11.92a.27.27,0,0,0,.07.2l2.56,2.55a.22.22,0,0,0,.17.07h0a.23.23,0,0,0,.18-.09l2.07-2.5a.28.28,0,0,0,.06-.18l-.91-12a.3.3,0,0,0,0-.1,3,3,0,0,0-.36-.53,2.59,2.59,0,0,0,.65-.74l.23-.52.86,1.08a.23.23,0,0,0,.2.1h0a.25.25,0,0,0,.21-.12l3.54-5.46c1.24.46,7.27,2.69,8.38,3.16l.58.23.38.14c1.74.52,2.58,1.53,3,3.58,0,.52.34,6.69.54,10.74C62.7,70.17,55.85,72.34,51.37,72.53Zm27.74-7.68a44.76,44.76,0,0,1-11.62-.73c-.17-3.42-.34-6.71-.34-6.71s0,0,0-.07c-.46-2.44-1.56-3.75-3.67-4.39l-.29-.1-.59-.24c-.7-.3-3.29-1.27-5.46-2.08a5,5,0,0,1,2.66-3.33,7.21,7.21,0,0,1,2-.81l2.12-.76c.55.42,7.26,5.47,11.28,5.47a4.63,4.63,0,0,0,.54,0c4-.52,10-5.06,10.24-5.25,0,0,0,0,0-.07,1.49.56,2.87,1.09,3.33,1.28l.55.22.36.13c1.63.49,2.41,1.43,2.78,3.35,0,.5.32,6.28.5,10.08C89.75,62.64,83.32,64.67,79.11,64.85Z"/>
    </g>
  </symbol>

  <symbol id="roadmap-icon-1" viewBox="0 0 120.83 82.27">
    <g>
      <path d="M97.35,12.27,36.25,2.94a.71.71,0,0,0-.8.59l-3.21,21A9.88,9.88,0,0,0,24,27.48,3.6,3.6,0,0,0,23,31l5.62,17.23L26.13,64.62a.69.69,0,0,0,.58.8l7.94,1.21.41,1.27c.39,1.19,3.1,4.23,6.61,8.09,1.16,1.27,2.16,2.37,2.62,2.94a1.08,1.08,0,0,0,.85.4,1,1,0,0,0,.34,0l.39-.13A1.27,1.27,0,0,0,46.76,78c0-.87.21-2.44.41-4.26s.38-3.63.51-5.12l40.13,6.13h.11a.7.7,0,0,0,.69-.6l9.33-61.1A.7.7,0,0,0,97.35,12.27ZM24.79,28.15a8.2,8.2,0,0,1,3.58-2.22,8.21,8.21,0,0,1,4.2-.32,2.65,2.65,0,0,1,2.14,1.54l.81,2.49L34.37,30a.26.26,0,0,0-.16.32.27.27,0,0,0,.24.17h.08l1.15-.38.48,1.48-10.74,3.5-.48-1.47,8.29-2.7a.26.26,0,0,0,.16-.32.25.25,0,0,0-.31-.16l-8.3,2.7L24,30.65A2.65,2.65,0,0,1,24.79,28.15ZM41.44,44.57,52,46.18l-2.43,16a.24.24,0,0,0,0,.14l-2.55-.39ZM50.1,62.23l2.44-16,16.34,2.5-2.44,16a.37.37,0,0,0,0,.14L50,62.35A.37.37,0,0,0,50.1,62.23Zm2.51-16.46,2.5-16.35,16.34,2.5L69,48.26Zm14.33,19,2.43-16,16.1,2.46L83,67.38l-6.1-.93-10-1.53A.37.37,0,0,0,66.94,64.8Zm18.6-14L75,49.18h0l-5.48-.84L72,32l16,2.43h0s.07,0,.1,0ZM88.1,34a.24.24,0,0,0-.12-.07L72,31.5l2.44-16a.23.23,0,0,0,0-.14l16.15,2.47ZM74,15.46l-2.43,16-16.35-2.5,2.44-16a.23.23,0,0,0,0-.14L74,15.34S74,15.41,74,15.46ZM57.12,12.89l-2.43,16-16-2.44a.22.22,0,0,0-.14,0l2.46-16.14L57.2,12.77S57.13,12.84,57.12,12.89Zm-18.59,14a.19.19,0,0,0,.12.07l16,2.44L52.12,45.69,41.27,44l-3.65-11.2Zm-1.34,7.9-10.74,3.5-.88-2.68,10.74-3.5Zm-9.57,29.4,2-13,4.56,14Zm-1-25.23,10.74-3.5L46.73,64,36,67.52Zm19.1,39a.28.28,0,0,1-.2.25l-.49.1c-.48-.59-1.48-1.69-2.64-3l3.69-1.2C45.94,75.76,45.8,77.14,45.76,78Zm.42-4.36-4.12,1.34a77,77,0,0,1-5.75-6.78l10.53-3.43A81.28,81.28,0,0,1,46.18,73.59Zm41.15-.33-39.55-6a11.49,11.49,0,0,0-.08-3.44l-.43-1.35,29.57,4.51,6.34,1h0a.26.26,0,0,0,.25-.22L86,51.12h0l5.1-33.43a.24.24,0,0,0,0-.18.23.23,0,0,0-.16-.1l-50-7.63a.25.25,0,0,0-.28.2l-3.33,21.8-1.61-4.94a3.19,3.19,0,0,0-2-1.95L36.73,4.43l59.72,9.11Z"/>
    </g>
  </symbol>

  <symbol id="roadmap-icon-2" viewBox="0 0 120.83 82.27">
    <g>
      <path d="M30.12,55a6.72,6.72,0,0,1-1.75-1.48,6.39,6.39,0,0,0-2.52-1.77,2.78,2.78,0,0,0-1.08-.22,2.4,2.4,0,0,0-1.75.75,1.8,1.8,0,0,0-.6-.1h-.1a2.42,2.42,0,0,0-.2-.33,1.74,1.74,0,0,0-1.39-.75,1.37,1.37,0,0,0-1.26.78h0a1.62,1.62,0,0,0-.5.21l-.46.15a7,7,0,0,1-1.11.31,2,2,0,0,0-1.49.78h-.08a1.61,1.61,0,0,0-1.09.52l-.06.06c-.22.22-.47.47-.71.76l-.05-.09a1.59,1.59,0,0,0-1.37-.84,1.65,1.65,0,0,0-.92.3,2.34,2.34,0,0,0-.53.46l-.15,0-.26,0h-.31a1,1,0,0,0-.74.34,1,1,0,0,0-.27.77v0a1.54,1.54,0,0,0,.2.89c.18.28.37.55.56.82l.37.54.26.39.37.54a1.31,1.31,0,0,0-1.2,1A1.65,1.65,0,0,0,9.13,62a2.75,2.75,0,0,0,2.56,1.9v0a2.63,2.63,0,0,0,1.65,2A2.22,2.22,0,0,0,12,67.53a2,2,0,0,1-.66,1,2,2,0,0,0-.58.91,4.09,4.09,0,0,0,.34,2.89,1.54,1.54,0,0,0,1.37.87,1.77,1.77,0,0,0,.95-.3,2.43,2.43,0,0,0,.58-.58.94.94,0,0,1,.09-.12l.22-.29.13-.17a3.73,3.73,0,0,0,2-2.78,1.44,1.44,0,0,0,.07-.23,8.15,8.15,0,0,1,.35-1,5,5,0,0,0,.5-2.89,7.22,7.22,0,0,0,.92-.17,3.63,3.63,0,0,1,.45-.1h.33l.17,0a3.53,3.53,0,0,0,.52,0,1.69,1.69,0,0,0,.56-.09.22.22,0,0,1,.11,0,2.4,2.4,0,0,1,.38.06,4.79,4.79,0,0,0,1.16.16,3.33,3.33,0,0,0,.56,0,1.54,1.54,0,0,0,1.16-.86,1.42,1.42,0,0,0,.12-.65,2.44,2.44,0,0,0,1.16-.8,1.93,1.93,0,0,0,1.81-1.65l.62,0a1.49,1.49,0,0,0,1.52-1.69c0-.1.08-.22.27-.41l.22.08h.06a2.39,2.39,0,0,0,.69.12,1.53,1.53,0,0,0,1.24-.63,1.76,1.76,0,0,0-.08-2.2A4.25,4.25,0,0,0,30.12,55Zm.46,2.69a.49.49,0,0,1-.4.2,2,2,0,0,1-.47-.09,2.56,2.56,0,0,0-.63-.2.44.44,0,0,0-.33.14,1.86,1.86,0,0,0-.86,1.47c0,.44-.17.56-.54.58l-1.45.09c0,.19-.06.4-.09.61-.12.72-.34.92-1.06,1a.68.68,0,0,0-.47.22,1.76,1.76,0,0,1-1.56.74l-.33,0,.26.46c.25.4.17.78-.29.86a1.5,1.5,0,0,1-.37,0,4.07,4.07,0,0,1-.92-.12,2.81,2.81,0,0,0-.62-.09,1.28,1.28,0,0,0-.46.08.71.71,0,0,1-.21,0c-.2,0-.42-.07-.62-.08l-.39,0-.18,0c-.45.07-.88.23-1.33.26-.67.05-.9.23-.93.9,0,0,0,.09,0,.13.37,1.34-.5,2.42-.79,3.61,0,.1-.08.19-.09.29a2.73,2.73,0,0,1-1.58,2.09,2.92,2.92,0,0,0-.58.67,2.4,2.4,0,0,1-.45.5.68.68,0,0,1-.37.12.48.48,0,0,1-.44-.3,3,3,0,0,1-.25-2.16.81.81,0,0,1,.26-.38,3.1,3.1,0,0,0,1-1.53,1.17,1.17,0,0,1,1-1,1.18,1.18,0,0,0,.91-1.24.48.48,0,0,0-.24-.3,6.28,6.28,0,0,0-.76-.29,1.6,1.6,0,0,1-1.16-1.31c-.15-.81-.21-.81-.91-.88a1.77,1.77,0,0,1-1.68-1.19c-.2-.61-.1-.85.49-1.06.22-.07.31-.16.27-.4s.08-.37.34-.37l.34,0c.68-.05.95-.41.67-1a11.57,11.57,0,0,0-.93-1.49c-.3-.45-.63-.88-.92-1.34-.06-.11,0-.28,0-.43h.4a.75.75,0,0,1,.28.11.54.54,0,0,0,.27.09c.15,0,.27-.11.38-.3a1.3,1.3,0,0,1,.46-.5.7.7,0,0,1,.35-.12.57.57,0,0,1,.48.33L14.11,57a3.14,3.14,0,0,1,1.32-2.41.56.56,0,0,1,.35-.22c.12,0,.2.13.28.4s.07.72.6,1a10,10,0,0,0,0-1.11c-.08-.78.09-.93.85-1a12.56,12.56,0,0,0,1.79-.51,3.78,3.78,0,0,1,.35-.17.89.89,0,0,0,.76-.55.34.34,0,0,1,.33-.22.7.7,0,0,1,.54.32,3.39,3.39,0,0,1,.29.53l.25.5a.91.91,0,0,1,.61-.27,1.08,1.08,0,0,1,.47.13.79.79,0,0,0,.32.08.54.54,0,0,0,.44-.28,1.34,1.34,0,0,1,1.12-.58,1.88,1.88,0,0,1,.68.14,5.46,5.46,0,0,1,2.12,1.49,7.73,7.73,0,0,0,2,1.7,3.63,3.63,0,0,1,.93.86A.74.74,0,0,1,30.58,57.66Z"/><path class="cls-1" d="M16.61,41.84a4.14,4.14,0,0,0,1.33-.23.39.39,0,0,1,0,.14,2.3,2.3,0,0,0,.16,1.89.93.93,0,0,1,.05.13c0,.2,0,.41,0,.62s0,.53,0,.79a1.77,1.77,0,0,0,1.38,1.69,6.2,6.2,0,0,0,1.26.13h.39a2.36,2.36,0,0,0,2.44-1.83L24,43.83a.55.55,0,0,1,.27-.41,1.8,1.8,0,0,1,.94-.3h.26a2.48,2.48,0,0,1,1.08.17,1.83,1.83,0,0,0,.79.17,1.92,1.92,0,0,0,1.16-.35c.65-.47.76-1.2.34-2.14q-.18-.4-.33-.78c-.09-.22-.18-.44-.28-.65l-.06-.16a3.39,3.39,0,0,0-.46-.84c-.19-.24-.18-.33-.17-.4a1.46,1.46,0,0,0-1.37-1.63h-.05l-.21,0a4,4,0,0,0-1.67-.62,2.44,2.44,0,0,0-1.6-2,2.47,2.47,0,0,0-1-.3c-1.11,0-1.26,1.09-1.33,1.61v0a1.91,1.91,0,0,0-1.29,1.23,1.83,1.83,0,0,0-.7.85h-.11a2.23,2.23,0,0,0-.92.17,2.22,2.22,0,0,1-.87.22,1.18,1.18,0,0,1-.77-.3A1.69,1.69,0,0,0,14.51,37a2,2,0,0,0-1.61.82,1.89,1.89,0,0,0,.37,2.44A5,5,0,0,0,16.61,41.84Zm-2.84-3.43a.94.94,0,0,1,.74-.37.7.7,0,0,1,.42.13,2.19,2.19,0,0,0,1.41.52,3.31,3.31,0,0,0,1.29-.3,1.17,1.17,0,0,1,.5-.08h.36a.6.6,0,0,0,.62-.4c.12-.3.2-.64.62-.69.06,0,.13-.18.15-.28a.91.91,0,0,1,.71-.78c.49-.11.62-.44.67-.86s.11-.72.3-.72a1.93,1.93,0,0,1,.63.22,1.41,1.41,0,0,1,1,1.51c-.1.39.14.56.53.57a3,3,0,0,1,1.66.51,1.57,1.57,0,0,0,.66.17c.31,0,.48.18.45.5a1.55,1.55,0,0,0,.39,1.14,3.41,3.41,0,0,1,.39.76c.2.47.39.95.6,1.42.13.31.31.68,0,.9a.91.91,0,0,1-.54.15.79.79,0,0,1-.32-.06,3.89,3.89,0,0,0-1.71-.29h-.1a2.78,2.78,0,0,0-1.48.46,1.61,1.61,0,0,0-.76,1.1c-.08.43-.17.87-.26,1.3-.14.64-.56,1-1.5,1h-.31a5.27,5.27,0,0,1-1.05-.11.76.76,0,0,1-.55-.75c0-.46,0-.94,0-1.4a1.37,1.37,0,0,0-.16-.52A1.24,1.24,0,0,1,19,42.07a1.56,1.56,0,0,0-.53-1.52.7.7,0,0,0-.33-.07.88.88,0,0,0-.29.05,3,3,0,0,1-1.21.27A3.93,3.93,0,0,1,14,39.5.85.85,0,0,1,13.77,38.41Z"/><path class="cls-1" d="M35.51,51.89a4.53,4.53,0,0,1-.26-.91,1.91,1.91,0,0,0-1.07-1.57l-.55-.29c-.3-.17-.6-.33-.9-.47A1.78,1.78,0,0,0,32,48.5a2,2,0,0,0-.42,0A1.55,1.55,0,0,0,30.26,50a1.89,1.89,0,0,0-1,.82,1.66,1.66,0,0,0,.77,2.26l.05,0,.24.17a1.5,1.5,0,0,0,1.45,1.13l.39,0h.85l.52,0h.1a2.31,2.31,0,0,0,.37,0,1.63,1.63,0,0,0,1.35-.66,1.8,1.8,0,0,0,.14-1.8Zm-.95,1.25a.57.57,0,0,1-.51.23l-.38,0-.61,0h-.91l-.33,0c-.3,0-.33-.13-.52-.58-.1-.25-.41-.43-.66-.59s-.59-.57-.42-.87a.81.81,0,0,1,.5-.38c.49,0,.56-.33.56-.7s.11-.61.47-.68l.24,0a.73.73,0,0,1,.3.06c.48.22.94.5,1.42.74a.9.9,0,0,1,.51.77,5.66,5.66,0,0,0,.31,1.14C34.64,52.55,34.78,52.84,34.56,53.14Z"/><path class="cls-1" d="M30.21,39.56a6.11,6.11,0,0,0,.22.71,1.54,1.54,0,0,0,1.43,1,1.43,1.43,0,0,0,.29,0,1.35,1.35,0,0,0,2.08-.36l0-.06a1.6,1.6,0,0,0,.79-1.91,1.69,1.69,0,0,0-1.68-1.34h-.06l-.28,0h-.11a1.78,1.78,0,0,0-1.1-.44,1.42,1.42,0,0,0-.67.17,2.06,2.06,0,0,0-1,1.68,1.15,1.15,0,0,0,0,.41Zm1.44-1.34a.41.41,0,0,1,.18,0,.87.87,0,0,1,.51.28.94.94,0,0,0,.47.16h.12l.39,0h0a.67.67,0,0,1,.7.55c.1.4,0,.57-.36.8a1.16,1.16,0,0,0-.32.34c-.11.15-.21.24-.32.24a.41.41,0,0,1-.26-.12.82.82,0,0,0-.55-.25.75.75,0,0,0-.24,0l-.14,0a.5.5,0,0,1-.46-.34c-.11-.27-.17-.57-.24-.79A1.05,1.05,0,0,1,31.65,38.22Z"/><path class="cls-1" d="M102.88,20.22,111.74,8a.46.46,0,0,0,0-.49.47.47,0,0,0-.42-.26H84.94L84.1,3.05a.48.48,0,0,0-.47-.38H62.86a.47.47,0,0,0-.47.48V23.94a7.9,7.9,0,0,0-1-.26l-.26,0a1.71,1.71,0,0,0-1.46.74l0,0-.1,0a2,2,0,0,0-.35,0l-.28,0h-.14v0a2.53,2.53,0,0,0-2.27-1.32,1.72,1.72,0,0,0-1.29.64,2.06,2.06,0,0,0-.35,1.4h-.13a1.36,1.36,0,0,0-1.24.82,2.52,2.52,0,0,1-1.11-.32,3.12,3.12,0,0,0-1.47-.44,2.42,2.42,0,0,0-2.07,1.66s0,0,0,0a2.17,2.17,0,0,0-1.14,1,1.66,1.66,0,0,0-.83-.22,1.62,1.62,0,0,0-1,.34A1.71,1.71,0,0,0,45.1,30a2.15,2.15,0,0,0,.15.38,2.86,2.86,0,0,0-.58.13l-.16,0-.42-.06a7.58,7.58,0,0,0-1-.09H43a2.28,2.28,0,0,0-2,1.1h-.2a2.15,2.15,0,0,0-1,.25l-.11.05a14.18,14.18,0,0,1-1.52.61,1.6,1.6,0,0,0-1.18,2.14c.09.32.21.62.32.91s.16.43.23.65l0,.06-.07,0a2.94,2.94,0,0,0-1.06,3.77,3.48,3.48,0,0,0,.3.5,2.09,2.09,0,0,0-.24.28,2,2,0,0,0-.27,1.76A6.22,6.22,0,0,0,37,44a7.27,7.27,0,0,0-.44.63l-.08.13a1.37,1.37,0,0,0-.14,1.32,1.3,1.3,0,0,0,.72.69.27.27,0,0,0-.07.08,2.12,2.12,0,0,0-.16,2.27c.27.53.26.77.16,1a1.84,1.84,0,0,0,1,2.44L39,53a11.86,11.86,0,0,0,.18,3,3.51,3.51,0,0,0,2.67,2.91,12.54,12.54,0,0,0,1.58.23l.18,0c.23,0,.24.06.28.2a6.36,6.36,0,0,0,.44,1.06A2,2,0,0,0,46,61.54,2,2,0,0,0,47.43,61a.77.77,0,0,1,.52-.23,2,2,0,0,0,1.92-2.15c0-.19,0-.39,0-.58s0-.2,0-.3l.61-.18c.32.2.63.39.91.59l0,.11c0,.07-.08.21-.28.4a4.68,4.68,0,0,0-1.45,4A7.09,7.09,0,0,1,49,66.07a8.37,8.37,0,0,0-.71,3.63,1.38,1.38,0,0,0,1.43,1.42h.12a2.5,2.5,0,0,0,2-1.23,3,3,0,0,1,.4-.45l.21-.22c.18-.2.35-.37.51-.53a2.19,2.19,0,0,0,.36,0,2.88,2.88,0,0,0,1.71-.66,2.06,2.06,0,0,1,1.1-.37,2.91,2.91,0,0,0,1.52-.61c.14-.1.17-.1.2-.1h.13a2,2,0,0,0,1.87-1.14.53.53,0,0,1,.4-.32,5,5,0,0,0,0,.55,1.58,1.58,0,0,0,1.57,1.49,1.72,1.72,0,0,0,.94-.28,2.1,2.1,0,0,0,.7-.69,2.71,2.71,0,0,0,.77.78,2.08,2.08,0,0,1,.73.65,2.84,2.84,0,0,0,2.43,1.64,1.14,1.14,0,0,1,1,.49,3.16,3.16,0,0,0,2.49,1.19l.46,0a2.93,2.93,0,0,0,1.82,2.22,3.44,3.44,0,0,0,.93,1.81c.15.17.14.22.13.27a1.84,1.84,0,0,0,1.12,2.09,13.12,13.12,0,0,0,1.42.56,1.8,1.8,0,0,1,1,.6,1.83,1.83,0,0,0,1.28.61h.77a5,5,0,0,0,.5,0,1.93,1.93,0,0,0,1.72-1c.26-.41.37-.5.46-.5a4.11,4.11,0,0,0,2.55-1h0l0,0a2.17,2.17,0,0,1,.57.56,2.78,2.78,0,0,0,1.59,1.26c.73.21,1.49.43,2.26.63a2.42,2.42,0,0,0,.67.1,1.87,1.87,0,0,0,1.68-1.22c.13-.25.26-.49.4-.73s.33-.59.48-.89a3.82,3.82,0,0,0,.35-1.22,2.69,2.69,0,0,0,0-.77l.35,0a2.77,2.77,0,0,0,.42,0,1.77,1.77,0,0,0,1.35-1A1.81,1.81,0,0,0,95,72.08l-.2-.27-.09-.12a.45.45,0,0,1,0-.45.32.32,0,0,1,.26-.19h.18a4.6,4.6,0,0,1,.71.07l.41,0h.18a2.53,2.53,0,0,0,2-1.21,2.29,2.29,0,0,0,.37-2.13,2.39,2.39,0,0,0-.49-.77,3.19,3.19,0,0,0-.68-.53.56.56,0,0,1-.33-.41,2.38,2.38,0,0,0-.64-1.19,7.75,7.75,0,0,0-.8-.66l-.39-.3,0,0-.33-.67a12.69,12.69,0,0,1-1.57-4.61,1.8,1.8,0,0,0-.11-.48l0-.05c0-.11,0-.24-.08-.37A4.31,4.31,0,0,1,93.2,57a3,3,0,0,0-2.35-2.93l-.15,0,0-.18c0-.18,0-.36-.08-.54s-.09-.54-.13-.82-.08-.62-.11-.93-.1-.86-.16-1.28a4.34,4.34,0,0,0-.17-.67c0-.08,0-.17-.07-.26-.07-.31-.15-.62-.22-.93-.14-.62-.28-1.26-.46-1.89a4.09,4.09,0,0,0-1.69-2.36,8.93,8.93,0,0,1-.87-.71.66.66,0,0,1-.24-.57,2.87,2.87,0,0,1,1.22-2.4,6,6,0,0,1,2.53-1,15,15,0,0,1,2.62-.29,6.22,6.22,0,0,1,2.08.32,2,2,0,0,0,.65.12c.72,0,1.23-.44,1.51-1.31.15-.45.28-.91.41-1.37a15.43,15.43,0,0,1,1-2.82,2.8,2.8,0,0,0,.27-1h12.58a.47.47,0,0,0,.42-.26.46.46,0,0,0,0-.49ZM84.09,7.85a.46.46,0,0,0,.46.38h25.88l-4.87,6.7H87.63a.23.23,0,0,0-.23.23.23.23,0,0,0,.23.24h17.59l-3.31,4.54a.48.48,0,0,0,0,.56L104.42,24H83V15.4h2.2a.24.24,0,0,0,.24-.24.23.23,0,0,0-.24-.23H83V3.62h.29ZM82.23,32.21l-.87-4.36a.46.46,0,0,0-.46-.38h0l-12.72.09h0V20.73H82.47V32.21Zm-14.3-3.67V56.11a2.31,2.31,0,0,1-3.06,2.17A2.36,2.36,0,0,1,63.34,56V28.54ZM63.34,11.48H67.7v8.78H63.34ZM82.47,11H68.18V3.62H82.47Zm0,.47v8.78H68.18V11.48ZM67.7,20.73v6.82h0l-4.37,0V20.73Zm0-17.11V11H63.34V3.62ZM97.59,33.68A26.83,26.83,0,0,0,96.09,38c-.13.41-.27.6-.52.6a.8.8,0,0,1-.31-.07,7.51,7.51,0,0,0-2.42-.38,15,15,0,0,0-2.81.32,6.93,6.93,0,0,0-3,1.2,4,4,0,0,0-1.64,3.22A1.68,1.68,0,0,0,86,44.28a10.45,10.45,0,0,0,1,.79,3.15,3.15,0,0,1,1.28,1.78c.25.92.44,1.86.67,2.79.06.27.17.54.21.82.11.74.18,1.48.28,2.21.06.46.14.92.21,1.38,0,.29.08.59.13.91.25,0,.53.08.81.15a2,2,0,0,1,1.58,2,7.87,7.87,0,0,0,.24,1.25c0,.12.09.25.1.37a15.62,15.62,0,0,0,2,5.7,1,1,0,0,0,.3.36c.37.3.78.57,1.13.9a1.38,1.38,0,0,1,.34.67,1.65,1.65,0,0,0,.83,1.09,2.07,2.07,0,0,1,.44.34,1.23,1.23,0,0,1,.28.43,1.7,1.7,0,0,1-1.4,1.91h-.08c-.4,0-.81-.12-1.22-.12a1.62,1.62,0,0,0-.31,0,1.43,1.43,0,0,0-1,2.23c.08.14.19.26.27.39a.67.67,0,0,1-.48,1.09l-.24,0a3.42,3.42,0,0,1-.44,0l-.26,0c-.51,0-.75.31-.72.92a3.73,3.73,0,0,1,.06.81,2.81,2.81,0,0,1-.25.9c-.27.54-.6,1.06-.87,1.61s-.41.63-.75.63a1.69,1.69,0,0,1-.41-.06c-.75-.19-1.49-.41-2.23-.62a1.71,1.71,0,0,1-1-.83,3.44,3.44,0,0,0-.83-.83,1,1,0,0,0-1.35.05,3,3,0,0,1-1.92.74,1.68,1.68,0,0,0-1.27,1,.91.91,0,0,1-.84.48l-.34,0H79.2c-.21,0-.49-.06-.59-.2a2.86,2.86,0,0,0-1.49-1,12.41,12.41,0,0,1-1.32-.51.8.8,0,0,1-.51-.94,1.29,1.29,0,0,0-.39-1.17,2.47,2.47,0,0,1-.7-1.49.73.73,0,0,0-.43-.51,2,2,0,0,1-1.41-1.77c0-.52-.13-.69-.45-.69a2.23,2.23,0,0,0-.45.06,3.29,3.29,0,0,1-.54,0,2.09,2.09,0,0,1-1.69-.83,2.19,2.19,0,0,0-1.74-.86h0c-.77,0-1.19-.56-1.55-1.14a3.08,3.08,0,0,0-1.05-1,1.75,1.75,0,0,1-.6-.74,1.43,1.43,0,0,0-1.11-.81h0c-.33,0-.37.23-.35.48a1,1,0,0,1-.49,1,.79.79,0,0,1-.39.12.55.55,0,0,1-.53-.55,6.44,6.44,0,0,1,0-1c0-.43-.1-.6-.48-.6h-.1a1.89,1.89,0,0,0-1.85,1,.94.94,0,0,1-.93.54h-.13a1.28,1.28,0,0,0-.84.32,1.89,1.89,0,0,1-1,.39,3.12,3.12,0,0,0-1.64.57,1.92,1.92,0,0,1-1.09.46,1.16,1.16,0,0,1-.5-.11h0a.81.81,0,0,0-.37.22,8.27,8.27,0,0,0-.72.73,5.64,5.64,0,0,0-.73.82,1.46,1.46,0,0,1-1.23.75h-.06c-.27,0-.37-.12-.39-.42A7.27,7.27,0,0,1,50,66.48a8.06,8.06,0,0,0,.67-3.94,3.68,3.68,0,0,1,1.12-3.17,1.42,1.42,0,0,0,.57-1.45,1.14,1.14,0,0,0-.32-.58,14,14,0,0,0-1.37-.89.32.32,0,0,0-.14,0,.58.58,0,0,0-.19,0c-.39.1-.77.21-1.15.34a.71.71,0,0,0-.44.77c0,.34.07.68.07,1a1,1,0,0,1-1,1.1,1.79,1.79,0,0,0-1.15.51,1,1,0,0,1-.68.31,1,1,0,0,1-.8-.58,4.79,4.79,0,0,1-.36-.88,1.23,1.23,0,0,0-1.16-.92c-.56-.06-1.12-.12-1.66-.23a2.53,2.53,0,0,1-1.87-2.12,10.74,10.74,0,0,1-.14-2.94.59.59,0,0,0-.39-.64c-.39-.17-.78-.36-1.17-.54S37.76,51,38,50.54a2.2,2.2,0,0,0-.2-1.89,1.07,1.07,0,0,1,.07-1.18,1.83,1.83,0,0,1,.57-.4c.13-.07.35-.06.42-.16a1.46,1.46,0,0,1,1.33-.56c.22,0,.46,0,.68,0,.5,0,.68-.26.66-.8,0,0-.05,0-.07,0h0l-3.35.36-.28,0-.19,0c-.31-.05-.42-.24-.24-.52a5,5,0,0,1,.63-.87c.28-.28.27-.46,0-.79a5.13,5.13,0,0,1-.75-1.52,1,1,0,0,1,1-1.3h.78a.93.93,0,0,0,.77-1.27l-.57.39a1.36,1.36,0,0,1-.78.27,1.18,1.18,0,0,1-1.06-.77A1.9,1.9,0,0,1,38.12,37c.67-.44.72-.55.48-1.3-.17-.52-.4-1-.55-1.54s0-.69.5-.85a15.15,15.15,0,0,0,1.62-.64,1.69,1.69,0,0,1,.64-.22.58.58,0,0,1,.41.18,1.65,1.65,0,0,0,.19.1,7.66,7.66,0,0,0,.44-.67,1.23,1.23,0,0,1,1.19-.7h0c.44,0,.88.1,1.31.15.12,0,.25,0,.36,0l.15,0a1.75,1.75,0,0,1,.77-.16,4.94,4.94,0,0,1,.92.12l.34,0c-.17-.38-.29-.68-.43-1s-.31-.58-.41-.89a.74.74,0,0,1,.37-.81.54.54,0,0,1,.33-.12.8.8,0,0,1,.42.15,3.88,3.88,0,0,0,.48.3.75.75,0,0,0,.36.11c.25,0,.42-.18.43-.5a1,1,0,0,1,.73-1,1.11,1.11,0,0,0,.54-.55c.32-.71.65-1.05,1.12-1.05a2.18,2.18,0,0,1,1,.32,3.67,3.67,0,0,0,1.68.45h0a.72.72,0,0,0,.78-.49c.09-.23.21-.34.35-.34a.61.61,0,0,1,.35.15,2.63,2.63,0,0,0,.33.2,1.3,1.3,0,0,0,.47.18.34.34,0,0,0,.29-.19c.17-.27.32-.57-.05-.87A1.24,1.24,0,0,1,56,24.35a.68.68,0,0,1,.46-.23h0a1.46,1.46,0,0,1,1.36.76,1,1,0,0,0,.95.58h.14l.26,0,.13,0a2.35,2.35,0,0,0,.35,0,1,1,0,0,0,.9-.57.72.72,0,0,1,.55-.22h.09a10.22,10.22,0,0,1,1.21.31V56a3.32,3.32,0,0,0,2.18,3.17,3.24,3.24,0,0,0,4.3-3.07V28.5l11.64-.08.87,4.36a.48.48,0,0,0,.47.38H97.74A1.83,1.83,0,0,1,97.59,33.68ZM83,32.21V24.42h21.82l5.66,7.79Z"/>
    </g>
  </symbol>

  <symbol id="roadmap-icon-3" viewBox="0 0 120.8 82.3">
    <g>
      <path class="st0" d="M97.7,11.2H23.2c-1.8,0-3.3,1.5-3.3,3.3v53.3c0,1.8,1.5,3.3,3.3,3.3h74.5c1.8,0,3.3-1.5,3.3-3.3V14.5
        C101,12.7,99.5,11.2,97.7,11.2z M100,67.8c0,1.3-1,2.3-2.3,2.3H23.2c-1.3,0-2.3-1-2.3-2.3V14.5c0-1.3,1-2.3,2.3-2.3h74.5
        c1.3,0,2.3,1,2.3,2.3V67.8z"/>
      <path class="st0" d="M94,15.2H26.8c-1.7,0-3.1,1.4-3.1,3.1v5.3c0,0.1,0.1,0.2,0.2,0.2s0.2-0.1,0.2-0.2v-5.3c0-1.4,1.2-2.6,2.6-2.6
        H94c1.4,0,2.6,1.2,2.6,2.6v39.3H24.2V38c0-0.1-0.1-0.2-0.2-0.2s-0.2,0.1-0.2,0.2v26c0,1.7,1.4,3.1,3.1,3.1H94
        c1.7,0,3.1-1.4,3.1-3.1V18.3C97.1,16.6,95.7,15.2,94,15.2z M94,66.6H26.8c-1.4,0-2.6-1.2-2.6-2.6v-5.9h72.4V64
        C96.6,65.4,95.5,66.6,94,66.6z"/>
      <path class="st0" d="M24,31.6c0.1,0,0.2-0.1,0.2-0.2v-3.9c0-0.1-0.1-0.2-0.2-0.2s-0.2,0.1-0.2,0.2v3.9C23.7,31.5,23.8,31.6,24,31.6
        z"/>
      <path class="st0" d="M24,34.1c0.1,0,0.2-0.1,0.2-0.2v-0.9c0-0.1-0.1-0.2-0.2-0.2s-0.2,0.1-0.2,0.2v0.9C23.7,34,23.8,34.1,24,34.1z"
        />
      <path class="st0" d="M91.9,61.4H48.6c-0.2-0.5-0.7-0.8-1.3-0.8s-1,0.3-1.3,0.8H28.7c-0.3,0-0.5,0.2-0.5,0.5v0.3
        c0,0.3,0.2,0.5,0.5,0.5H46c0.2,0.5,0.7,0.8,1.3,0.8s1-0.3,1.3-0.8h43.3c0.3,0,0.5-0.2,0.5-0.5V62C92.5,61.7,92.2,61.4,91.9,61.4z
         M28.7,62.5c-0.1,0-0.2-0.1-0.2-0.2V62c0-0.1,0.1-0.2,0.2-0.2h17.2c0,0.1,0,0.2,0,0.3s0,0.2,0,0.3H28.7z M47.3,63.2
        c-0.6,0-1.1-0.5-1.1-1.1s0.5-1.1,1.1-1.1s1.1,0.5,1.1,1.1S47.9,63.2,47.3,63.2z M92.1,62.3c0,0.1-0.1,0.2-0.2,0.2H48.7
        c0-0.1,0-0.2,0-0.3s0-0.2,0-0.3h43.2c0.1,0,0.2,0.1,0.2,0.2V62.3z"/>
      <path class="st0" d="M53.5,46.1c0,0.3,0.1,0.5,0.3,0.6c0.1,0,0.2,0.1,0.3,0.1c0.1,0,0.3,0,0.4-0.1l11.3-6.8
        c0.4-0.3,0.8-0.9,0.8-1.4v-6c0-0.3-0.1-0.5-0.3-0.6c-0.2-0.1-0.5-0.1-0.7,0.1l-11.3,6.8c-0.4,0.3-0.8,0.9-0.8,1.4V46.1z M54,40
        c0-0.3,0.2-0.8,0.5-0.9l11.3-6.8c0.1,0,0.1-0.1,0.2-0.1c0,0,0,0,0,0c0,0,0.1,0.1,0.1,0.2v6c0,0.3-0.2,0.8-0.5,0.9l-11.3,6.8
        c-0.1,0.1-0.2,0.1-0.2,0c0,0-0.1-0.1-0.1-0.2V40z"/>
      <path class="st0" d="M54.6,34.8c0.2,0,0.4-0.1,0.6-0.2l3.5-2.1c0.3-0.2,0.5-0.5,0.5-0.8c0-0.3-0.2-0.6-0.5-0.7l-3.9-2.2h0
        c-0.3-0.2-0.7-0.2-0.9-0.1c-0.3,0.1-0.4,0.4-0.4,0.8v4.1c0,0.4,0.2,0.7,0.5,0.9C54.2,34.7,54.4,34.8,54.6,34.8z M54,29.6
        c0-0.2,0.1-0.3,0.1-0.4c0,0,0.1,0,0.1,0c0.1,0,0.2,0,0.3,0.1l3.9,2.2c0.2,0.1,0.3,0.2,0.3,0.3s-0.1,0.2-0.3,0.3l-3.5,2.1
        c-0.2,0.1-0.4,0.1-0.6,0c-0.2-0.1-0.3-0.3-0.3-0.5V29.6z"/>
    </g>
  </symbol>

  <symbol id="roadmap-icon-4" viewBox="0 0 120.83 82.27">
    <g>
      <path class="cls-1" d="M96.55,39.1l-5.33-8.86V24.55a3.63,3.63,0,0,0-3.63-3.62h-2l-1.87-3.1a.5.5,0,0,0-.43-.24H44.89a.51.51,0,0,0-.43.24l-1.86,3.1h-2A3.62,3.62,0,0,0,37,24.55v5.69L31.65,39.1a.56.56,0,0,0-.07.26V44c-.3.16-.59.32-.88.5a.5.5,0,0,0-.19.64,2.89,2.89,0,0,1-3.92,4,.51.51,0,0,0-.64.2,14.36,14.36,0,0,0-1.73,4.26.5.5,0,0,0,.32.58,2.89,2.89,0,0,1,0,5.55.5.5,0,0,0-.3.59,14.48,14.48,0,0,0,1.78,4.22.51.51,0,0,0,.63.19,2.9,2.9,0,0,1,3.94,3.89.49.49,0,0,0,.2.62,14.09,14.09,0,0,0,4.24,1.73l.1,0a.56.56,0,0,0,.47-.3l.06-.12a2.88,2.88,0,0,1,2.63-2,2.82,2.82,0,0,1,2.77,1.88.65.65,0,0,0,.84.41,14.22,14.22,0,0,0,3.86-1.59l.2-.13a.49.49,0,0,0,.18-.62,2.78,2.78,0,0,1,.34-3.19,2.81,2.81,0,0,1,3.59-.71.5.5,0,0,0,.62-.2c.13-.2.24-.41.35-.61H91.36a5.37,5.37,0,0,0,5.26-5.45v-19A.46.46,0,0,0,96.55,39.1Zm-1.31-.24h-4V32.18Zm-42.55,0H37.49V33.79a3.12,3.12,0,0,1,3.12-3.12h47a3.13,3.13,0,0,1,3.13,3.12v5.07H75.52a.5.5,0,0,0-.5.5v5.3a4.71,4.71,0,0,1-4.57,4.83H57.75a4.71,4.71,0,0,1-4.56-4.83v-5.3A.5.5,0,0,0,52.69,38.86Zm38-6.87a3.61,3.61,0,0,0-3.13-1.82h-47A3.58,3.58,0,0,0,37.49,32V29.17a3.12,3.12,0,0,1,3.12-3.12h47a3.13,3.13,0,0,1,3.13,3.12ZM45.17,18.59H83l1.41,2.34H43.76Zm-7.68,6a3.12,3.12,0,0,1,3.12-3.12h47a3.13,3.13,0,0,1,3.13,3.12v2.82a3.61,3.61,0,0,0-3.13-1.82h-47a3.58,3.58,0,0,0-3.12,1.82ZM37,32.18v6.68H33ZM50.08,63.52a3.73,3.73,0,0,0-4.33,1.14,3.68,3.68,0,0,0-.65,3.84,13.76,13.76,0,0,1-3.19,1.32,3.84,3.84,0,0,0-3.6-2.27,3.9,3.9,0,0,0-3.42,2.28,13,13,0,0,1-3.19-1.3,3.87,3.87,0,0,0-5-5,13.25,13.25,0,0,1-1.33-3.16,3.86,3.86,0,0,0-.05-7.08,13.11,13.11,0,0,1,1.29-3.18,3.86,3.86,0,0,0,5-5,13.28,13.28,0,0,1,3.17-1.33,3.72,3.72,0,0,0,3.89,2.35,3.68,3.68,0,0,0,3.24-2.37,13.19,13.19,0,0,1,3.18,1.32,3.86,3.86,0,0,0,5,5,14.18,14.18,0,0,1,1.31,3.18,3.85,3.85,0,0,0,0,7.07A13.15,13.15,0,0,1,50.08,63.52Zm45.23-5.18A4.37,4.37,0,0,1,91,62.79H51.58a14.65,14.65,0,0,0,.9-2.61.5.5,0,0,0-.3-.59,2.89,2.89,0,0,1,0-5.54.52.52,0,0,0,.32-.52,12.58,12.58,0,0,0-1.82-4.38.51.51,0,0,0-.59-.12,2.89,2.89,0,0,1-3.91-4,.51.51,0,0,0-.2-.64,14.54,14.54,0,0,0-4.26-1.76.51.51,0,0,0-.59.33,2.77,2.77,0,0,1-2.53,2.12A2.8,2.8,0,0,1,35.54,43,.5.5,0,0,0,35,42.7a14,14,0,0,0-2.05.67V39.86H52.19v4.8a5.7,5.7,0,0,0,5.56,5.83h12.7A5.71,5.71,0,0,0,76,44.66v-4.8H95.31Z"/><path class="cls-1" d="M38.39,53.9h0a2.92,2.92,0,0,0-2,.84,2.87,2.87,0,0,0-.85,2,2.83,2.83,0,0,0,.84,2,2.9,2.9,0,0,0,2.05.86h0a2.9,2.9,0,0,0,2.9-2.81,2.9,2.9,0,0,0-2.86-3Zm0,4.79A1.9,1.9,0,0,1,37,58.13a1.9,1.9,0,0,1,1.35-3.23h0a1.88,1.88,0,0,1,1.34.58,1.85,1.85,0,0,1,.53,1.37A1.9,1.9,0,0,1,38.35,58.69Z"/><path class="cls-1" d="M38.35,48.86a7.94,7.94,0,1,0,7.94,7.93A7.94,7.94,0,0,0,38.35,48.86Zm0,15.37a7.44,7.44,0,1,1,7.44-7.44A7.45,7.45,0,0,1,38.35,64.23Z"/>
    </g>
  </symbol>

  <symbol id="roadmap-icon-5" viewBox="0 0 120.83 82.27">
    <g>
      <path class="cls-1" d="M20.16,30.73a.25.25,0,0,0,.25-.25V27a.25.25,0,0,0-.5,0v3.5A.25.25,0,0,0,20.16,30.73Z"/><path class="cls-1" d="M20.16,33a.25.25,0,0,0,.25-.25v-.84a.25.25,0,0,0-.5,0v.84A.25.25,0,0,0,20.16,33Z"/><path class="cls-1" d="M47.31,44.46a.89.89,0,0,0,.4-.11l10.18-6.12A1.56,1.56,0,0,0,58.6,37V31.54a.66.66,0,0,0-.3-.6.66.66,0,0,0-.67,0L47.45,37.1a1.59,1.59,0,0,0-.71,1.25V43.8a.66.66,0,0,0,.3.6A.6.6,0,0,0,47.31,44.46Zm-.07-6.11a1.09,1.09,0,0,1,.47-.82l10.18-6.11a.26.26,0,0,1,.14-.05h0s.05.06.05.16V37a1.07,1.07,0,0,1-.47.81L47.45,43.92c-.09,0-.15,0-.16,0s0-.06,0-.16Z"/><path class="cls-1" d="M47.29,33.5a1.05,1.05,0,0,0,.49.13,1,1,0,0,0,.51-.14l3.19-1.92a.75.75,0,0,0,0-1.39l-3.47-2a.82.82,0,0,0-.84,0,.81.81,0,0,0-.37.75v3.71A1,1,0,0,0,47.29,33.5Zm0-4.58c0-.16,0-.28.12-.32a.17.17,0,0,1,.1,0,.52.52,0,0,1,.24.08l3.48,2c.14.08.22.17.22.26s-.08.19-.22.27L48,33.06a.5.5,0,0,1-.5,0,.48.48,0,0,1-.25-.43Z"/><path class="cls-1" d="M104.39,63.32c0-1.47-.07-2.84-.13-4.07-.12-5-.17-7.28-3.79-8.39l-.27-.09-.55-.23c-1.16-.5-8.46-3-8.81-3.11a1.27,1.27,0,0,1-.82-.74l0-.11c0-.13,0-.27-.06-.44,2.83-.2,6.24-.64,7.45-1.6,1.59-1.26,2.13-9.6,2.3-16.36,0-.4,0-.83,0-1.34v-.45a.4.4,0,0,0,0-.15c-.31-11.36-9.28-14.4-14.55-14.4a16.76,16.76,0,0,0-3.8.47l0,0H19.73a3.3,3.3,0,0,0-3.3,3.3V63.08a3.3,3.3,0,0,0,3.3,3.3H64.84v2.48a.5.5,0,0,0,.5.5H71a.5.5,0,0,0,.5-.5v-.6a24.29,24.29,0,0,0,5.34,1.41,36.14,36.14,0,0,0,7.34.76,35.21,35.21,0,0,0,5-.36h.15a25.57,25.57,0,0,0,7.22-1.84,36,36,0,0,0,7.63-3.88.5.5,0,0,0,.22-.43ZM92.33,49c-.36,3.75-3.84,5.09-6.9,5.09h-.2c-3.64-.07-7.36-2-7.65-5.14l1.64-.55a2.05,2.05,0,0,0,1.56-1.46,10.52,10.52,0,0,0,.11-1.24.49.49,0,0,0,0-.25,8.12,8.12,0,0,0,0-1.09,11.77,11.77,0,0,0,4.41,1.53h.21a10.69,10.69,0,0,0,3.33-1.09,7,7,0,0,0,.24,2.35,2.08,2.08,0,0,0,1,1.06l.24.1h0a2.18,2.18,0,0,0,.23.09Zm-2.81-5.13h0a12.92,12.92,0,0,1-4.06,1.51c-1.52.13-4.53-1.57-4.82-1.74a22.15,22.15,0,0,1-5.25-4.31,4.13,4.13,0,0,1-.74-2.51c0-.82,0-1.65,0-2.37a.24.24,0,0,0-.23-.25,1.14,1.14,0,0,1-1.12-1c-.18-.58-.71-2.42-1-3.37,4,.06,14.75-4.36,18.26-7.3v0a16.41,16.41,0,0,0,1.71,4.13c1.92,2.81,3.74,3.33,4.79,3.36,0,.08,0,.19-.08.34-.16.7-.46,2-.71,2.82-.18.59-.47.87-1,.94a.26.26,0,0,0-.21.25v.31c0,.83,0,1.66,0,2.49a3.42,3.42,0,0,1-.4,1.46A21.4,21.4,0,0,1,89.52,43.87Zm-17.71-14c.23.93.83,3,1,3.55a1.62,1.62,0,0,0,1.34,1.29c0,.66,0,1.41,0,2.13A4.55,4.55,0,0,0,75,39.6c.8,1.2,3.26,3.09,5.37,4.46h0a5.46,5.46,0,0,1,0,1.09c-3.61-.24-6.25-.76-7.06-1.4-.65-.52-1.51-4.53-1.86-14ZM96.75,43.76c-.82.65-3.58,1.18-7.4,1.41l0,0v-.56A22.4,22.4,0,0,0,95.16,39a4,4,0,0,0,.47-1.72c0-.83,0-1.66,0-2.49v-.11a1.65,1.65,0,0,0,1.15-1.25c.25-.83.56-2.14.72-2.85,0-.24.09-.41.11-.47h0A1.72,1.72,0,0,0,98,30a1.25,1.25,0,0,0,.66-.35C98.31,39.17,97.43,43.22,96.75,43.76ZM98.69,26.4a.49.49,0,0,0,0,.12v.32c0,.49,0,.9,0,1.3,0,.19,0,.37,0,.56-.31.72-.75.78-.76.78l-.07,0c-.1,0-2.46.8-5.09-3.06a15.86,15.86,0,0,1-1.65-4L91,22.05a.28.28,0,0,0-.18-.17.24.24,0,0,0-.23.06c-3.94,3.65-16.86,8.26-19.07,7.3l-.07,0,0-1c0-.4,0-.85,0-1.4v-.29a.5.5,0,0,0,0-.12c.24-10.71,8.77-13.56,13.77-13.56S98.45,15.69,98.69,26.4Zm-79,39a2.3,2.3,0,0,1-2.3-2.3V15.59a2.31,2.31,0,0,1,2.3-2.3H78.44a13.91,13.91,0,0,0-3.89,2.61H22.72a2.81,2.81,0,0,0-2.81,2.81V23.5a.25.25,0,0,0,.5,0V18.71a2.31,2.31,0,0,1,2.31-2.31H74.06a14.4,14.4,0,0,0-3.7,9.83.88.88,0,0,0,0,.16v.45c0,.55,0,1,0,1.42.19,6.75.75,15.06,2.29,16.28,1.2,1,4.47,1.39,7.19,1.59,0,.39,0,.56-.06.63a1.14,1.14,0,0,1-.86.68l-7.27,2.43a8.65,8.65,0,0,0-1.92.78l-.3-.41a1.45,1.45,0,0,0-1.27-.73,1.43,1.43,0,0,0-1.25.69l-2.86,4H20.41V36.53a.25.25,0,0,0-.5,0V60a2.81,2.81,0,0,0,2.81,2.81H64.84v2.61Zm41.15-6.83H42.5a1.27,1.27,0,0,0,.06-.28A1.5,1.5,0,0,0,42.5,58H61.3Zm-21,0H24.47a.19.19,0,0,1-.19-.18v-.2a.2.2,0,0,1,.19-.19H39.93a1.5,1.5,0,0,0-.06.29A1.27,1.27,0,0,0,39.93,58.55Zm1.29-1.28a1,1,0,1,1-1,1A1,1,0,0,1,41.22,57.27Zm20.33.36H42.38a1.35,1.35,0,0,0-1.16-.71,1.32,1.32,0,0,0-1.16.71H24.47a.54.54,0,0,0-.54.54v.2a.54.54,0,0,0,.54.53H40.06a1.31,1.31,0,0,0,1.16.71,1.33,1.33,0,0,0,1.16-.71H60.74a1.15,1.15,0,0,0,.12.81,1.13,1.13,0,0,0,1,.56h3v2H22.72A2.31,2.31,0,0,1,20.41,60v-5.3h43.3Zm9,2.14v8.59H65.84V59.77a.5.5,0,0,0-.5-.5h-3.5a.12.12,0,0,1-.11-.06.23.23,0,0,1,0-.09l6.07-8.38a.46.46,0,0,1,.41-.23.49.49,0,0,1,.43.28l5.81,7.94a.37.37,0,0,1,0,.35.36.36,0,0,1-.32.19H71A.5.5,0,0,0,70.51,59.77Zm25.68,7.51h0a24.85,24.85,0,0,1-7,1.78H89.1A34.62,34.62,0,0,1,77,68.69a23.19,23.19,0,0,1-5.51-1.51V60.27h2.58a1.37,1.37,0,0,0,1.19-2.06l0,0-4.91-6.7A7.72,7.72,0,0,1,72,50.83l5.15-1.72c.38,3.47,4.35,5.41,8.12,5.48h.24c4.67,0,7-2.62,7.36-5.42,2.33.8,5.72,2,6.45,2.3l.55.22.36.13c2.81.86,2.95,2.26,3.08,7.47.06,1.23.09,2.59.13,4.05v.32A34.51,34.51,0,0,1,96.19,67.28Z"/>
    </g>
  </symbol>

  <symbol id="roadmap-icon-6" viewBox="0 0 120.83 82.27">
    <g>
      <path class="cls-1" d="M102.33,28.85a.51.51,0,0,0-.29-.13L77.59,26.55h0L54.78,14.64l-.18-1.43a3.66,3.66,0,0,0-7.32,0V30.77C45.4,31,44,35,44,40s1.45,9,3.33,9.26V69.06a3.66,3.66,0,0,0,7.32,0l.19-2.47L77.56,55.36h0l2.55-.23a5.76,5.76,0,0,0,4.42,5.25l-2.42,6c-1,2.51-.14,5.2,1.88,6a3.32,3.32,0,0,0,1.2.23A4.91,4.91,0,0,0,89.5,69.3l6.14-15.61,6.2-.57c3.22,0,5.75-5.35,5.75-12.16C107.59,34.57,105.31,29.37,102.33,28.85ZM44.45,40c0-5,1.43-8.48,2.83-8.75v17.5C45.88,48.51,44.45,45.07,44.45,40Zm33,14.3v-22h-.5V54.55L54.2,65.81V61.25h-.5v5.06h.11l-.21,2.75a2.66,2.66,0,0,1-5.32,0V13.21a2.65,2.65,0,0,1,2.66-2.65,2.68,2.68,0,0,1,2.67,2.71l.18,1.56H53.7V59.19h.5V15.47L76.93,27.34v3h.5V27.57a.43.43,0,0,0,.25,0l24,2.13h0l-.09,22.44-23.86,2.2A.44.44,0,0,0,77.43,54.33Zm3.21.74,6.28-.58L84.75,59.9A5.19,5.19,0,0,1,80.64,55.07ZM89,69.12c-.89,2.26-3,3.52-4.82,2.83s-2.49-3.1-1.61-5.36l4.88-12.15,7.6-.7Zm13.06-17,.09-22.23c2.45.43,4.41,5.3,4.41,11.11S104.58,51.71,102.09,52.08Z"/><path class="cls-1" d="M14.31,34.36,14,34.29l-.18,1,.35.06C14.19,35,14.25,34.68,14.31,34.36Z"/><path class="cls-1" d="M14.36,48.2l-.34.07.21,1,.34-.08Z"/><path class="cls-1" d="M14.75,32.42l-.34-.09-.24,1,.35.07C14.59,33.06,14.67,32.74,14.75,32.42Z"/><path class="cls-1" d="M15.3,30.51,15,30.4c-.11.32-.2.64-.3,1l.34.1C15.1,31.14,15.2,30.82,15.3,30.51Z"/><path class="cls-1" d="M14,46.24l-.35,0c.05.33.1.66.16,1l.34-.06C14.13,46.9,14.07,46.57,14,46.24Z"/><path class="cls-1" d="M13.8,44.26l-.35,0c0,.34.06.67.1,1l.35,0C13.86,44.92,13.83,44.59,13.8,44.26Z"/><path class="cls-1" d="M13.68,42.28h-.35c0,.33,0,.67.05,1l.35,0C13.71,42.94,13.69,42.61,13.68,42.28Z"/><path class="cls-1" d="M13.67,41.13v-.84h-.34c0,.28,0,.57,0,.86v.14h.35Z"/><path class="cls-1" d="M14,36.32l-.35,0-.12,1,.35,0Q13.92,36.82,14,36.32Z"/><path class="cls-1" d="M27.08,15.07l-.17-.3-.87.51.19.3C26.51,15.4,26.79,15.23,27.08,15.07Z"/><path class="cls-1" d="M30.72,13.51l-.11-.33-.95.32.12.33Z"/><path class="cls-1" d="M32.64,13.05l-.06-.35-1,.21.08.34Z"/><path class="cls-1" d="M25.4,16.12l-.2-.28c-.27.19-.55.39-.81.59l.21.28Z"/><path class="cls-1" d="M14.81,50.14l-.34.09.27,1,.34-.1Q14.93,50.62,14.81,50.14Z"/><path class="cls-1" d="M13.36,39.27l.35,0c0-.33,0-.66.07-1l-.35,0C13.4,38.6,13.38,38.94,13.36,39.27Z"/><path class="cls-1" d="M34.6,12.82l0-.35-1,.09,0,.34Z"/><path class="cls-1" d="M28.86,14.2l-.14-.33-.92.43.16.31C28.25,14.46,28.55,14.33,28.86,14.2Z"/><path class="cls-1" d="M26.86,67.91c.29.17.59.33.88.48l.16-.31L27,67.61Z"/><path class="cls-1" d="M25.17,66.81c.27.2.55.39.83.57l.19-.29c-.28-.18-.55-.37-.82-.56Z"/><path class="cls-1" d="M28.65,68.83q.47.21.93.39l.13-.32c-.31-.12-.61-.25-.92-.39Z"/><path class="cls-1" d="M23.59,65.56c.25.22.51.44.77.64l.22-.27-.76-.63Z"/><path class="cls-1" d="M15,52.16l.33,1,.33-.12c-.11-.31-.22-.62-.32-.94Z"/><path class="cls-1" d="M30.53,69.56l1,.28.09-.34c-.32-.08-.64-.17-.95-.28Z"/><path class="cls-1" d="M32.49,70.06c.33.06.66.12,1,.16l.05-.35c-.33,0-.65-.09-1-.15Z"/><path class="cls-1" d="M34.49,70.32c.33,0,.67,0,1,0V70q-.49,0-1,0Z"/><path class="cls-1" d="M22.12,64.18l.72.71.24-.26c-.24-.22-.48-.45-.71-.69Z"/><path class="cls-1" d="M17.39,57.7c.16.3.33.59.49.88l.31-.18c-.17-.28-.33-.57-.49-.87Z"/><path class="cls-1" d="M15.71,54.05c.12.32.25.62.38.93l.32-.13c-.13-.31-.26-.62-.38-.93Z"/><path class="cls-1" d="M16.49,55.9c.14.31.29.61.44.91l.31-.16c-.15-.29-.29-.59-.43-.9Z"/><path class="cls-1" d="M19.53,61.11l.6.8.28-.21-.6-.8Z"/><path class="cls-1" d="M18.4,59.44c.18.28.36.57.55.84l.29-.19-.54-.84Z"/><path class="cls-1" d="M20.77,62.69c.21.26.44.51.66.76l.26-.23L21,62.47Z"/><path class="cls-1" d="M36.62,58.82a6.36,6.36,0,0,0,.93.42l.12-.33a7.65,7.65,0,0,1-.89-.4Z"/><path class="cls-1" d="M29.85,34.11l.34.09c.09-.32.18-.64.28-1l-.33-.1C30,33.46,29.94,33.78,29.85,34.11Z"/><path class="cls-1" d="M30,35.17l-.34-.08c-.08.32-.15.65-.21,1l.34.07C29.81,35.81,29.87,35.49,30,35.17Z"/><path class="cls-1" d="M29.57,37.12l-.34,0c-.05.33-.1.66-.14,1l.35,0C29.48,37.77,29.52,37.44,29.57,37.12Z"/><path class="cls-1" d="M38.54,59.51a6,6,0,0,0,1,.1v-.35a5.28,5.28,0,0,1-1-.09Z"/><path class="cls-1" d="M30.79,32.31q.16-.47.36-.93l-.33-.13c-.12.31-.25.62-.36.94Z"/><path class="cls-1" d="M32,29.59l-.31-.17c-.16.3-.31.6-.45.91l.31.15C31.69,30.17,31.83,29.88,32,29.59Z"/><path class="cls-1" d="M34.22,26.34,34,26.1c-.22.25-.44.51-.65.78l.28.21C33.79,26.83,34,26.58,34.22,26.34Z"/><path class="cls-1" d="M37.34,24l-.13-.32a7.76,7.76,0,0,0-.91.46l.18.3A6.35,6.35,0,0,1,37.34,24Z"/><path class="cls-1" d="M39.21,23.55l0-.35a5.05,5.05,0,0,0-1,.16l.08.34A5.35,5.35,0,0,1,39.21,23.55Z"/><path class="cls-1" d="M35.67,25l-.22-.28a9.3,9.3,0,0,0-.77.66l.24.26A9.06,9.06,0,0,1,35.67,25Z"/><path class="cls-1" d="M29.26,42.07c0-.22,0-.45,0-.67v-.32H28.9v.31c0,.23,0,.46,0,.69Z"/><path class="cls-1" d="M29,43.09c0,.33,0,.67.08,1l.34,0c0-.33-.05-.66-.07-1Z"/><path class="cls-1" d="M32.47,28.73c.18-.29.35-.57.54-.84l-.29-.2c-.19.27-.37.56-.55.86Z"/><path class="cls-1" d="M29.34,39.09l-.35,0-.06,1h.35C29.29,39.75,29.32,39.42,29.34,39.09Z"/><path class="cls-1" d="M20.31,31.24h0a7.07,7.07,0,0,0,3-13.47c.17-.15.33-.3.51-.44l-.23-.27-.63.56a6.94,6.94,0,0,0-2.66-.53h0a7.08,7.08,0,0,0,0,14.15ZM15.65,19.53a6.58,6.58,0,0,1,4.64-1.94h0a6.58,6.58,0,1,1-4.63,11.23,6.51,6.51,0,0,1-1.94-4.64A6.58,6.58,0,0,1,15.65,19.53Z"/><path class="cls-1" d="M18.23,28.06a.34.34,0,0,0,.17.05.55.55,0,0,0,.23-.07l4.78-2.89a.83.83,0,0,0,.37-.66V21.93a.4.4,0,0,0-.18-.35.37.37,0,0,0-.4,0l-4.78,2.88a.83.83,0,0,0-.37.66v2.56A.37.37,0,0,0,18.23,28.06Zm.39-3.23L23.37,22v2.52a.46.46,0,0,1-.18.32l-4.75,2.86V25.15A.46.46,0,0,1,18.62,24.83Z"/><path class="cls-1" d="M18.33,22.94a.54.54,0,0,0,.27.07.6.6,0,0,0,.29-.08l1.49-.9a.48.48,0,0,0,.26-.41.46.46,0,0,0-.27-.39l-1.63-.92a.49.49,0,0,0-.48,0,.47.47,0,0,0-.21.43v1.74A.56.56,0,0,0,18.33,22.94Zm.13-2.31h0l.07,0,1.64.92a.17.17,0,0,1,.06.05.28.28,0,0,1-.06.06l-1.5.9a.15.15,0,0,1-.15,0,.15.15,0,0,1-.08-.13V20.71A.38.38,0,0,1,18.46,20.63Z"/><path class="cls-1" d="M38.91,52.47a7.08,7.08,0,0,0-7.07-7h0a7,7,0,0,0-2.23.37c0-.25-.07-.5-.11-.75l-.34.05c0,.27.08.55.12.82a7.07,7.07,0,0,0,2.58,13.65h0a7.07,7.07,0,0,0,7-7.09Zm-7.06,6.59h0a6.56,6.56,0,0,1-6.57-6.55,6.57,6.57,0,0,1,6.55-6.59h0a6.57,6.57,0,0,1,0,13.14Z"/><path class="cls-1" d="M35.11,49.9a.39.39,0,0,0-.39,0l-4.78,2.89a.79.79,0,0,0-.37.65V56a.4.4,0,0,0,.19.36.42.42,0,0,0,.16,0,.39.39,0,0,0,.23-.07l4.78-2.88a.85.85,0,0,0,.37-.66V50.26A.39.39,0,0,0,35.11,49.9Zm-.39,3.23L30,56V53.47a.42.42,0,0,1,.17-.31l4.75-2.87v2.53A.39.39,0,0,1,34.72,53.13Z"/><path class="cls-1" d="M29.86,51.26a.53.53,0,0,0,.27.08.47.47,0,0,0,.28-.09l1.5-.9a.45.45,0,0,0,.25-.4.48.48,0,0,0-.26-.4l-1.64-.91a.43.43,0,0,0-.47,0,.46.46,0,0,0-.22.42v1.74A.53.53,0,0,0,29.86,51.26ZM30,49h0a.13.13,0,0,1,.08,0l1.63.91a.16.16,0,0,1,.06.05s0,0-.06.06l-1.49.9a.15.15,0,0,1-.16,0,.14.14,0,0,1-.07-.13V49A.15.15,0,0,1,30,49Z"/>
    </g>
  </symbol>

  <symbol id="roadmap-icon-7" viewBox="0 0 120.83 82.27">
    <g>
      <rect class="cls-1" x="104.4" y="48.14" width="0.36" height="0.5"/><path class="cls-1" d="M98.57,49.51l.36.35a4.1,4.1,0,0,1,.73-.59l-.26-.42A4.38,4.38,0,0,0,98.57,49.51Z"/><rect class="cls-1" x="97.24" y="58.34" width="0.5" height="1"/><rect class="cls-1" x="102.4" y="48.14" width="1" height="0.5"/><path class="cls-1" d="M100.35,48.39l.16.48a3.69,3.69,0,0,1,.92-.2l-.05-.5A4.5,4.5,0,0,0,100.35,48.39Z"/><path class="cls-1" d="M97.47,51.29l.48.16a3.68,3.68,0,0,1,.4-.85l-.43-.26A4.88,4.88,0,0,0,97.47,51.29Z"/><rect class="cls-1" x="97.24" y="54.34" width="0.5" height="1"/><rect class="cls-1" x="97.24" y="56.34" width="0.5" height="1"/><path class="cls-1" d="M97.24,52.76v.58h.5v-.58c0-.13,0-.26,0-.39l-.49,0A3.24,3.24,0,0,0,97.24,52.76Z"/><path class="cls-1" d="M97.24,67.56a4.57,4.57,0,0,1-4.57,4.56H69.86a2.66,2.66,0,0,0,0-.28A2.9,2.9,0,0,0,67.29,69V61.57a2,2,0,0,0,1.73-2V58.29H88.16A4.26,4.26,0,0,0,92.42,54V11.79a4.27,4.27,0,0,0-4.26-4.27H45.92a4.27,4.27,0,0,0-4.27,4.27V54a4.27,4.27,0,0,0,4.27,4.26h19v1.27a2,2,0,0,0,1.8,2V69a2.91,2.91,0,0,0-2.66,2.89,2.66,2.66,0,0,0,0,.28H39.4a6.36,6.36,0,0,1-6.35-6.34V22.71a7.78,7.78,0,0,0-7.76-7.77H21.85a3.32,3.32,0,1,0,.12.5h3.32a7.27,7.27,0,0,1,7.26,7.27V65.78a6.85,6.85,0,0,0,6.85,6.84H64.19a2.89,2.89,0,0,0,5.58,0h22.9a5.07,5.07,0,0,0,5.07-5.06V60.67h-.5ZM21.51,15.87a2.5,2.5,0,1,1-.05-.48v0h0A3,3,0,0,1,21.51,15.87ZM42.65,16H91.42v36.1H42.65Zm3.27-7.43H88.16a3.26,3.26,0,0,1,3.26,3.27v3.66H42.65V11.79A3.27,3.27,0,0,1,45.92,8.52ZM42.65,54V52.55H91.42V54a3.26,3.26,0,0,1-3.26,3.26H45.92A3.27,3.27,0,0,1,42.65,54Zm22.78,5.53V58.29h3.09v1.27a1.55,1.55,0,0,1-3.09,0ZM67,74.25a2.41,2.41,0,1,1,2.41-2.41A2.41,2.41,0,0,1,67,74.25Z"/><path class="cls-1" d="M48.37,13.76A1.72,1.72,0,1,0,46.66,12,1.72,1.72,0,0,0,48.37,13.76Zm0-2.93A1.22,1.22,0,1,1,47.16,12,1.22,1.22,0,0,1,48.37,10.83Z"/><path class="cls-1" d="M53.5,13.76A1.72,1.72,0,1,0,51.78,12,1.72,1.72,0,0,0,53.5,13.76Zm0-2.93A1.22,1.22,0,1,1,52.28,12,1.21,1.21,0,0,1,53.5,10.83Z"/><path class="cls-1" d="M58.62,13.76A1.72,1.72,0,1,0,56.91,12,1.72,1.72,0,0,0,58.62,13.76Zm0-2.93A1.22,1.22,0,1,1,57.41,12,1.21,1.21,0,0,1,58.62,10.83Z"/><polygon class="cls-1" points="59.83 19.48 59.83 30.22 64.77 30.22 64.77 29.72 60.33 29.72 60.33 19.98 87.73 19.98 87.73 29.72 66.65 29.72 66.65 30.22 88.23 30.22 88.23 19.48 59.83 19.48"/><rect class="cls-1" x="46.27" y="29.72" width="5.76" height="0.5"/><rect class="cls-1" x="46.27" y="24.6" width="5.76" height="0.5"/><rect class="cls-1" x="46.27" y="19.47" width="5.76" height="0.5"/><rect class="cls-1" x="55.4" y="18.99" width="0.5" height="30"/>
    </g>
  </symbol>

  <symbol id="roadmap-icon-8" viewBox="0 0 120.83 82.27">
    <g>
      <path class="cls-1" d="M26.93,33.61l-.49.09a8.64,8.64,0,0,0,.26,1l.48-.16A6.41,6.41,0,0,1,26.93,33.61Z"/><path class="cls-1" d="M27.17,29.78l-.48-.15a8.6,8.6,0,0,0-.25,1l.49.09A8.1,8.1,0,0,1,27.17,29.78Z"/><rect class="cls-1" x="27.21" y="35.53" width="0.5" height="1" transform="translate(-10.9 11.94) rotate(-20.56)"/><path class="cls-1" d="M30.8,25.43,30.56,25a7.94,7.94,0,0,0-.87.55l.29.4A8.63,8.63,0,0,1,30.8,25.43Z"/><path class="cls-1" d="M29.23,26.55l-.34-.36a8.39,8.39,0,0,0-.71.75l.39.32A6.31,6.31,0,0,1,29.23,26.55Z"/><path class="cls-1" d="M28,28l-.43-.27a7.84,7.84,0,0,0-.49.9l.45.22A6.36,6.36,0,0,1,28,28Z"/><rect class="cls-1" x="30.72" y="44.89" width="0.5" height="1" transform="translate(-13.97 13.77) rotate(-20.56)"/><polygon class="cls-1" points="32.62 24.68 32.44 24.21 31.5 24.56 31.72 25.01 32.62 24.68"/><rect class="cls-1" x="31.42" y="46.76" width="0.5" height="1" transform="translate(-14.58 14.13) rotate(-20.56)"/><rect class="cls-1" x="32.13" y="48.64" width="0.5" height="1" transform="translate(-15.19 14.5) rotate(-20.56)"/><rect class="cls-1" x="29.32" y="41.15" width="0.5" height="1" transform="translate(-12.74 13.03) rotate(-20.56)"/><rect class="cls-1" x="28.61" y="39.27" width="0.5" height="1" transform="translate(-12.13 12.67) rotate(-20.56)"/><rect class="cls-1" x="27.91" y="37.4" width="0.5" height="1" transform="translate(-11.51 12.3) rotate(-20.56)"/><rect class="cls-1" x="30.02" y="43.02" width="0.5" height="1" transform="translate(-13.35 13.4) rotate(-20.56)"/><path class="cls-1" d="M68.69,19.28c-.11-.28-.24-.57-.38-.85l-.44.23a8.08,8.08,0,0,1,.35.8Z"/><path class="cls-1" d="M62.75,14.2a9,9,0,0,0-1-.15l0,.5a6.35,6.35,0,0,1,1,.14Z"/><path class="cls-1" d="M64.7,14.88a7.1,7.1,0,0,0-1-.4l-.17.47a6.4,6.4,0,0,1,.89.37Z"/><rect class="cls-1" x="33.43" y="23.67" width="1" height="0.5" transform="translate(-6.24 13.44) rotate(-20.56)"/><rect class="cls-1" x="32.83" y="50.51" width="0.5" height="1" transform="translate(-15.8 14.86) rotate(-20.56)"/><path class="cls-1" d="M58.42,15l.4-.13-.14-.48-.43.14-.53.2.18.47Z"/><path class="cls-1" d="M67.78,17.54a8,8,0,0,0-.63-.81l-.38.34a6.26,6.26,0,0,1,.6.76Z"/><path class="cls-1" d="M66.41,16a9.79,9.79,0,0,0-.82-.62l-.28.42a6.2,6.2,0,0,1,.77.58Z"/><path class="cls-1" d="M60.73,14.53l0-.5a8.83,8.83,0,0,0-1,.11l.09.5A6,6,0,0,1,60.73,14.53Z"/><rect class="cls-1" x="55.91" y="15.24" width="1" height="0.5" transform="translate(-1.85 20.79) rotate(-20.56)"/><rect class="cls-1" x="50.29" y="17.35" width="1" height="0.5" transform="translate(-2.95 18.95) rotate(-20.56)"/><rect class="cls-1" x="35.31" y="22.97" width="1" height="0.5" transform="translate(-5.87 14.05) rotate(-20.56)"/><rect class="cls-1" x="37.18" y="22.26" width="1" height="0.5" transform="translate(-5.51 14.66) rotate(-20.56)"/><rect class="cls-1" x="52.16" y="16.65" width="1" height="0.5" transform="translate(-2.58 19.57) rotate(-20.56)"/><rect class="cls-1" x="54.03" y="15.95" width="1" height="0.5" transform="translate(-2.21 20.18) rotate(-20.56)"/><path class="cls-1" d="M26.79,32.16c0-.16,0-.32,0-.48l-.49,0a4.35,4.35,0,0,0,0,.51c0,.17,0,.35,0,.52l.5,0C26.8,32.48,26.79,32.32,26.79,32.16Z"/><rect class="cls-1" x="48.41" y="18.05" width="1" height="0.5" transform="translate(-3.31 18.34) rotate(-20.56)"/><rect class="cls-1" x="33.53" y="52.38" width="0.5" height="1" transform="translate(-16.42 15.23) rotate(-20.56)"/><rect class="cls-1" x="48.87" y="65.12" width="1" height="0.5" transform="translate(-19.81 21.5) rotate(-20.56)"/><rect class="cls-1" x="50.74" y="64.42" width="1" height="0.5" transform="translate(-19.44 22.11) rotate(-20.56)"/><path class="cls-1" d="M45.06,66.42l0,.49a6,6,0,0,0,1-.15L46,66.27A7.52,7.52,0,0,1,45.06,66.42Z"/><rect class="cls-1" x="46.54" y="18.75" width="1" height="0.5" transform="translate(-3.68 17.7) rotate(-20.52)"/><rect class="cls-1" x="54.49" y="63.01" width="1" height="0.5" transform="translate(-18.71 23.33) rotate(-20.56)"/><rect class="cls-1" x="60.1" y="60.91" width="1" height="0.5" transform="translate(-17.61 25.17) rotate(-20.56)"/><rect class="cls-1" x="61.98" y="60.2" width="1" height="0.5" transform="translate(-17.25 25.79) rotate(-20.56)"/><rect class="cls-1" x="58.23" y="61.61" width="1" height="0.5" transform="translate(-17.98 24.56) rotate(-20.56)"/><rect class="cls-1" x="52.61" y="63.71" width="1" height="0.5" transform="translate(-19.08 22.72) rotate(-20.56)"/><rect class="cls-1" x="56.36" y="62.31" width="1" height="0.5" transform="translate(-18.35 23.95) rotate(-20.56)"/><rect class="cls-1" x="44.67" y="19.46" width="1" height="0.5" transform="translate(-4.04 17.09) rotate(-20.52)"/><polygon class="cls-1" points="46.94 66.01 47.11 66.48 48.05 66.13 47.88 65.66 46.94 66.01"/><rect class="cls-1" x="36.34" y="59.87" width="0.5" height="1" transform="translate(-18.87 16.69) rotate(-20.56)"/><path class="cls-1" d="M43,66.82a8.77,8.77,0,0,0,1,.12l0-.5a7.62,7.62,0,0,1-1-.11Z"/><rect class="cls-1" x="35.64" y="58" width="0.5" height="1" transform="translate(-18.26 16.33) rotate(-20.56)"/><path class="cls-1" d="M37.89,63.67a8.34,8.34,0,0,0,.67.78l.36-.35a8.93,8.93,0,0,1-.63-.73Z"/><rect class="cls-1" x="34.23" y="54.25" width="0.5" height="1" transform="translate(-17.03 15.59) rotate(-20.56)"/><rect class="cls-1" x="34.93" y="56.13" width="0.5" height="1" transform="translate(-17.64 15.96) rotate(-20.56)"/><path class="cls-1" d="M36.89,61.87a6.57,6.57,0,0,0,.44.93l.44-.24a7.1,7.1,0,0,1-.42-.88Z"/><rect class="cls-1" x="39.05" y="21.56" width="1" height="0.5" transform="translate(-5.14 15.25) rotate(-20.52)"/><rect class="cls-1" x="42.8" y="20.16" width="1" height="0.5" transform="translate(-4.41 16.49) rotate(-20.54)"/><path class="cls-1" d="M41.07,66.22a8.72,8.72,0,0,0,1,.36l.15-.47a9,9,0,0,1-.91-.34Z"/><path class="cls-1" d="M39.32,65.15a8.41,8.41,0,0,0,.84.59l.26-.43a8.57,8.57,0,0,1-.79-.55Z"/><rect class="cls-1" x="40.92" y="20.86" width="1" height="0.5" transform="translate(-4.77 15.86) rotate(-20.52)"/><path class="cls-1" d="M53.72,37.54a3.42,3.42,0,0,0,1.7,4.53,3.47,3.47,0,0,0,1.41.3A3.36,3.36,0,0,0,58,42.15a3.42,3.42,0,1,0-4.32-4.61Zm2.09-1.32a2.81,2.81,0,0,1,1-.19,3,3,0,0,1,1.2.26,2.92,2.92,0,1,1-3.86,1.45A2.87,2.87,0,0,1,55.81,36.22Z"/><path class="cls-1" d="M99.71,44A12.28,12.28,0,0,0,87.44,31.71a12.15,12.15,0,0,0-6.75,2L76.24,21.87,74,22.71l-3.49-9.3a7,7,0,0,0-9-4.11L25.68,22.72a7,7,0,0,0-4.11,9L35,67.55a7,7,0,0,0,9,4.11L64.6,64a12.26,12.26,0,0,0,11.92,9.46,12.28,12.28,0,0,0,9.73-4.77,12.26,12.26,0,0,0,1.52-12.42A12.26,12.26,0,0,0,99.71,44ZM79.85,34.36a12.35,12.35,0,0,0-4.15,6.07L60.37,46.18a8,8,0,0,1-10.24-4.66l-.1-.26A8,8,0,0,1,54.69,31l21-7.86ZM43.68,70.73a6,6,0,0,1-7.75-3.53L22.51,31.41A6,6,0,0,1,26,23.66L61.82,10.24a6,6,0,0,1,7.76,3.52l3.48,9.3-18.73,7a9,9,0,0,0-5.24,11.52l.1.27a9,9,0,0,0,11.53,5.24l14.69-5.51a12.15,12.15,0,0,0,.81,7.27A10.53,10.53,0,0,0,75,49,12.24,12.24,0,0,0,64.4,59.47l-.61.22.18.47.36-.13a12.57,12.57,0,0,0,0,2.67c0,.09,0,.17,0,.25ZM85.45,68A11.26,11.26,0,1,1,75.11,50a11.88,11.88,0,0,1,1.45-.09A11.26,11.26,0,0,1,85.45,68Zm2-12.79h-.16A12,12,0,0,0,84,51.44a12.17,12.17,0,0,0-6.69-2.54A11,11,0,0,1,76.18,44,11.27,11.27,0,1,1,87.44,55.24Z"/><path class="cls-1" d="M92.47,39.66l-8.26,5a1.34,1.34,0,0,0-.59,1v4.42a.55.55,0,0,0,.26.52.42.42,0,0,0,.24.07.71.71,0,0,0,.35-.11l8.26-5a1.34,1.34,0,0,0,.59-1V40.14a.59.59,0,0,0-.27-.53A.56.56,0,0,0,92.47,39.66Zm.35,4.9a.86.86,0,0,1-.35.62l-8.26,5-.08,0a.41.41,0,0,1,0-.09V45.66a.83.83,0,0,1,.35-.62l8.26-5,.08,0a.41.41,0,0,1,0,.09Z"/><path class="cls-1" d="M84.08,41.77a.91.91,0,0,0,.42.11.86.86,0,0,0,.44-.12l2.59-1.55a.71.71,0,0,0,.39-.61.72.72,0,0,0-.41-.61L84.7,37.4a.74.74,0,0,0-.73,0,.72.72,0,0,0-.32.66v3A.85.85,0,0,0,84.08,41.77ZM84.15,38c0-.11,0-.2.07-.22l.06,0a.35.35,0,0,1,.17.06l2.82,1.59c.09,0,.15.12.15.17s-.06.12-.15.18l-2.58,1.55a.36.36,0,0,1-.54-.31Z"/><path class="cls-1" d="M83.16,60.8,73.6,59.67a1.33,1.33,0,0,0-1.12.47l-2.7,3.49a.6.6,0,0,0-.11.58.58.58,0,0,0,.49.33l9.56,1.13h.11a1.36,1.36,0,0,0,1-.47h0l2.7-3.5a.6.6,0,0,0,.11-.58A.59.59,0,0,0,83.16,60.8Zm0,.6-2.7,3.49h0a.87.87,0,0,1-.66.28L70.22,64l-.09,0h0a.28.28,0,0,1,.05-.08l2.7-3.5a.83.83,0,0,1,.66-.27L83.1,61.3a.17.17,0,0,1,.09,0A.59.59,0,0,1,83.14,61.4Z"/><path class="cls-1" d="M75.92,57.86l3,.35H79A.68.68,0,0,0,79.6,58a.7.7,0,0,0,0-.72l-1.25-3h0a.73.73,0,0,0-.55-.47.71.71,0,0,0-.66.32l-1.84,2.38a.84.84,0,0,0-.11.85A.85.85,0,0,0,75.92,57.86Zm-.18-1.07,1.84-2.38a.28.28,0,0,1,.18-.13h0s.11.08.16.18l1.25,3a.24.24,0,0,1,0,.23.28.28,0,0,1-.23,0l-3-.36a.34.34,0,0,1-.29-.21A.36.36,0,0,1,75.74,56.79Z"/>
    </g>
  </symbol>

  <symbol id="roadmap-icon-9" viewBox="0 0 120.83 82.27">
    <g>
      <rect class="cls-1" x="65.94" y="23.46" width="5.81" height="0.5"/><path class="cls-1" d="M28.52,16.78a2.16,2.16,0,1,0,2.16,2.16A2.16,2.16,0,0,0,28.52,16.78Zm0,3.82a1.66,1.66,0,1,1,1.66-1.66A1.67,1.67,0,0,1,28.52,20.6Z"/><path class="cls-1" d="M35.2,16.78a2.16,2.16,0,1,0,2.16,2.16A2.16,2.16,0,0,0,35.2,16.78Zm0,3.82a1.66,1.66,0,1,1,1.66-1.66A1.67,1.67,0,0,1,35.2,20.6Z"/><path class="cls-1" d="M41.88,16.78A2.16,2.16,0,1,0,44,18.94,2.16,2.16,0,0,0,41.88,16.78Zm0,3.82a1.66,1.66,0,1,1,1.66-1.66A1.66,1.66,0,0,1,41.88,20.6Z"/><path class="cls-1" d="M95.45,52.51c0-.17,0-.34,0-.51a7.7,7.7,0,0,0-7.69-7.69,7.55,7.55,0,0,0-2,.26V17.86a4.68,4.68,0,0,0-4.67-4.67H24.58a4.68,4.68,0,0,0-4.67,4.67V60.58a4.68,4.68,0,0,0,4.67,4.67h20v3.33a.5.5,0,0,0,.5.5H54a.5.5,0,0,0,.5-.5V66.9a7.89,7.89,0,0,0,1.82.23h16a.5.5,0,0,0,.5-.5.5.5,0,0,0-.5-.5h-16a6.46,6.46,0,0,1-6.44-6.7,6.55,6.55,0,0,1,4.26-5.78,6.15,6.15,0,0,1,3.58-.25.48.48,0,0,0,.4-.09.49.49,0,0,0,.2-.37A4.45,4.45,0,0,1,66,50.21a.49.49,0,0,0,.6.1.5.5,0,0,0,.26-.54,7.43,7.43,0,1,1,14.69-2.06.48.48,0,0,0,.35.44.49.49,0,0,0,.54-.18,6.69,6.69,0,0,1,12,4,7.54,7.54,0,0,1-.06.83.29.29,0,0,0,0,.13,4.61,4.61,0,0,0-4.59,2.44,4.17,4.17,0,0,0-.3.86.25.25,0,0,0,.19.3h0a.26.26,0,0,0,.25-.2,4.26,4.26,0,0,1,.26-.76,4.39,4.39,0,0,1,5.9-1.68.29.29,0,0,0,.16,0,6.43,6.43,0,0,1-2.86,12.19H76.78a.5.5,0,0,0-.5.5.5.5,0,0,0,.5.5h16.7a7.44,7.44,0,0,0,2-14.62Zm-38.09-.19a7.15,7.15,0,0,0-3.6.39,7.58,7.58,0,0,0-4.91,6.68,7.41,7.41,0,0,0,2.08,5.46,7.24,7.24,0,0,0,2.54,1.72v1.51H45.53V54.26a.5.5,0,0,0-.5-.5H39.52a.49.49,0,0,1-.45-.69l9.54-13.16a1,1,0,0,1,.89-.51,1.06,1.06,0,0,1,.92.55l7.66,10.47A5.54,5.54,0,0,0,57.36,52.32Zm25-5.79a8.43,8.43,0,0,0-16.52.16,8.26,8.26,0,0,0-.14,2,5.51,5.51,0,0,0-3-.89,5.4,5.4,0,0,0-4,1.81L51.25,39.41a2,2,0,0,0-1.75-1h0a2,2,0,0,0-1.73,1L38.23,52.53a1.49,1.49,0,0,0,1.29,2.23h5v9.49h-20a3.68,3.68,0,0,1-3.67-3.67V24H63v-.5H20.91v-5.6a3.68,3.68,0,0,1,3.67-3.67H81.14a3.68,3.68,0,0,1,3.67,3.67v5.6H76.59V24h8.22V44.9A7.75,7.75,0,0,0,82.38,46.53Z"/><path class="cls-1" d="M72.77,51.09a4.73,4.73,0,0,0-5.2,4.19,2.44,2.44,0,0,0,0,.27,3.39,3.39,0,0,0-1.76-.64,3.14,3.14,0,0,0-3.28,2.25,3.74,3.74,0,0,0-.66-.09,4.16,4.16,0,0,0-4.59,3.69.26.26,0,0,0,.24.27h0a.25.25,0,0,0,.25-.23,3.7,3.7,0,0,1,4.06-3.24,4.85,4.85,0,0,1,.82.14.26.26,0,0,0,.21,0A.25.25,0,0,0,63,57.5a2.59,2.59,0,0,1,2.8-2.09,2.77,2.77,0,0,1,1.89.91.25.25,0,0,0,.3.06.24.24,0,0,0,.14-.26,4.4,4.4,0,0,1,0-.81,4.26,4.26,0,0,1,4.68-3.73h0a.26.26,0,0,0,.25-.24A.24.24,0,0,0,72.77,51.09Z"/>
    </g>
  </symbol>
</svg>