<svg xmlns="http://www.w3.org/2000/svg" viewBox="0 0 120.83 82.27"><defs><style>.cls-1{fill:#6812d8;}</style></defs><title>icon11Paratii_</title><g id="Warstwa_2" data-name="Warstwa 2"><rect class="cls-1" x="65.94" y="23.46" width="5.81" height="0.5"/><path class="cls-1" d="M28.52,16.78a2.16,2.16,0,1,0,2.16,2.16A2.16,2.16,0,0,0,28.52,16.78Zm0,3.82a1.66,1.66,0,1,1,1.66-1.66A1.67,1.67,0,0,1,28.52,20.6Z"/><path class="cls-1" d="M35.2,16.78a2.16,2.16,0,1,0,2.16,2.16A2.16,2.16,0,0,0,35.2,16.78Zm0,3.82a1.66,1.66,0,1,1,1.66-1.66A1.67,1.67,0,0,1,35.2,20.6Z"/><path class="cls-1" d="M41.88,16.78A2.16,2.16,0,1,0,44,18.94,2.16,2.16,0,0,0,41.88,16.78Zm0,3.82a1.66,1.66,0,1,1,1.66-1.66A1.66,1.66,0,0,1,41.88,20.6Z"/><path class="cls-1" d="M95.45,52.51c0-.17,0-.34,0-.51a7.7,7.7,0,0,0-7.69-7.69,7.55,7.55,0,0,0-2,.26V17.86a4.68,4.68,0,0,0-4.67-4.67H24.58a4.68,4.68,0,0,0-4.67,4.67V60.58a4.68,4.68,0,0,0,4.67,4.67h20v3.33a.5.5,0,0,0,.5.5H54a.5.5,0,0,0,.5-.5V66.9a7.89,7.89,0,0,0,1.82.23h16a.5.5,0,0,0,.5-.5.5.5,0,0,0-.5-.5h-16a6.46,6.46,0,0,1-6.44-6.7,6.55,6.55,0,0,1,4.26-5.78,6.15,6.15,0,0,1,3.58-.25.48.48,0,0,0,.4-.09.49.49,0,0,0,.2-.37A4.45,4.45,0,0,1,66,50.21a.49.49,0,0,0,.6.1.5.5,0,0,0,.26-.54,7.43,7.43,0,1,1,14.69-2.06.48.48,0,0,0,.35.44.49.49,0,0,0,.54-.18,6.69,6.69,0,0,1,12,4,7.54,7.54,0,0,1-.06.83.29.29,0,0,0,0,.13,4.61,4.61,0,0,0-4.59,2.44,4.17,4.17,0,0,0-.3.86.25.25,0,0,0,.19.3h0a.26.26,0,0,0,.25-.2,4.26,4.26,0,0,1,.26-.76,4.39,4.39,0,0,1,5.9-1.68.29.29,0,0,0,.16,0,6.43,6.43,0,0,1-2.86,12.19H76.78a.5.5,0,0,0-.5.5.5.5,0,0,0,.5.5h16.7a7.44,7.44,0,0,0,2-14.62Zm-38.09-.19a7.15,7.15,0,0,0-3.6.39,7.58,7.58,0,0,0-4.91,6.68,7.41,7.41,0,0,0,2.08,5.46,7.24,7.24,0,0,0,2.54,1.72v1.51H45.53V54.26a.5.5,0,0,0-.5-.5H39.52a.49.49,0,0,1-.45-.69l9.54-13.16a1,1,0,0,1,.89-.51,1.06,1.06,0,0,1,.92.55l7.66,10.47A5.54,5.54,0,0,0,57.36,52.32Zm25-5.79a8.43,8.43,0,0,0-16.52.16,8.26,8.26,0,0,0-.14,2,5.51,5.51,0,0,0-3-.89,5.4,5.4,0,0,0-4,1.81L51.25,39.41a2,2,0,0,0-1.75-1h0a2,2,0,0,0-1.73,1L38.23,52.53a1.49,1.49,0,0,0,1.29,2.23h5v9.49h-20a3.68,3.68,0,0,1-3.67-3.67V24H63v-.5H20.91v-5.6a3.68,3.68,0,0,1,3.67-3.67H81.14a3.68,3.68,0,0,1,3.67,3.67v5.6H76.59V24h8.22V44.9A7.75,7.75,0,0,0,82.38,46.53Z"/><path class="cls-1" d="M72.77,51.09a4.73,4.73,0,0,0-5.2,4.19,2.44,2.44,0,0,0,0,.27,3.39,3.39,0,0,0-1.76-.64,3.14,3.14,0,0,0-3.28,2.25,3.74,3.74,0,0,0-.66-.09,4.16,4.16,0,0,0-4.59,3.69.26.26,0,0,0,.24.27h0a.25.25,0,0,0,.25-.23,3.7,3.7,0,0,1,4.06-3.24,4.85,4.85,0,0,1,.82.14.26.26,0,0,0,.21,0A.25.25,0,0,0,63,57.5a2.59,2.59,0,0,1,2.8-2.09,2.77,2.77,0,0,1,1.89.91.25.25,0,0,0,.3.06.24.24,0,0,0,.14-.26,4.4,4.4,0,0,1,0-.81,4.26,4.26,0,0,1,4.68-3.73h0a.26.26,0,0,0,.25-.24A.24.24,0,0,0,72.77,51.09Z"/></g></svg>