<svg xmlns="http://www.w3.org/2000/svg" viewBox="0 0 120.83 82.27"><defs><style>.cls-1{fill:#6812d8;}</style></defs><title>icon4Paratii_</title><g id="Warstwa_2" data-name="Warstwa 2"><path class="cls-1" d="M96.55,39.1l-5.33-8.86V24.55a3.63,3.63,0,0,0-3.63-3.62h-2l-1.87-3.1a.5.5,0,0,0-.43-.24H44.89a.51.51,0,0,0-.43.24l-1.86,3.1h-2A3.62,3.62,0,0,0,37,24.55v5.69L31.65,39.1a.56.56,0,0,0-.07.26V44c-.3.16-.59.32-.88.5a.5.5,0,0,0-.19.64,2.89,2.89,0,0,1-3.92,4,.51.51,0,0,0-.64.2,14.36,14.36,0,0,0-1.73,4.26.5.5,0,0,0,.32.58,2.89,2.89,0,0,1,0,5.55.5.5,0,0,0-.3.59,14.48,14.48,0,0,0,1.78,4.22.51.51,0,0,0,.63.19,2.9,2.9,0,0,1,3.94,3.89.49.49,0,0,0,.2.62,14.09,14.09,0,0,0,4.24,1.73l.1,0a.56.56,0,0,0,.47-.3l.06-.12a2.88,2.88,0,0,1,2.63-2,2.82,2.82,0,0,1,2.77,1.88.65.65,0,0,0,.84.41,14.22,14.22,0,0,0,3.86-1.59l.2-.13a.49.49,0,0,0,.18-.62,2.78,2.78,0,0,1,.34-3.19,2.81,2.81,0,0,1,3.59-.71.5.5,0,0,0,.62-.2c.13-.2.24-.41.35-.61H91.36a5.37,5.37,0,0,0,5.26-5.45v-19A.46.46,0,0,0,96.55,39.1Zm-1.31-.24h-4V32.18Zm-42.55,0H37.49V33.79a3.12,3.12,0,0,1,3.12-3.12h47a3.13,3.13,0,0,1,3.13,3.12v5.07H75.52a.5.5,0,0,0-.5.5v5.3a4.71,4.71,0,0,1-4.57,4.83H57.75a4.71,4.71,0,0,1-4.56-4.83v-5.3A.5.5,0,0,0,52.69,38.86Zm38-6.87a3.61,3.61,0,0,0-3.13-1.82h-47A3.58,3.58,0,0,0,37.49,32V29.17a3.12,3.12,0,0,1,3.12-3.12h47a3.13,3.13,0,0,1,3.13,3.12ZM45.17,18.59H83l1.41,2.34H43.76Zm-7.68,6a3.12,3.12,0,0,1,3.12-3.12h47a3.13,3.13,0,0,1,3.13,3.12v2.82a3.61,3.61,0,0,0-3.13-1.82h-47a3.58,3.58,0,0,0-3.12,1.82ZM37,32.18v6.68H33ZM50.08,63.52a3.73,3.73,0,0,0-4.33,1.14,3.68,3.68,0,0,0-.65,3.84,13.76,13.76,0,0,1-3.19,1.32,3.84,3.84,0,0,0-3.6-2.27,3.9,3.9,0,0,0-3.42,2.28,13,13,0,0,1-3.19-1.3,3.87,3.87,0,0,0-5-5,13.25,13.25,0,0,1-1.33-3.16,3.86,3.86,0,0,0-.05-7.08,13.11,13.11,0,0,1,1.29-3.18,3.86,3.86,0,0,0,5-5,13.28,13.28,0,0,1,3.17-1.33,3.72,3.72,0,0,0,3.89,2.35,3.68,3.68,0,0,0,3.24-2.37,13.19,13.19,0,0,1,3.18,1.32,3.86,3.86,0,0,0,5,5,14.18,14.18,0,0,1,1.31,3.18,3.85,3.85,0,0,0,0,7.07A13.15,13.15,0,0,1,50.08,63.52Zm45.23-5.18A4.37,4.37,0,0,1,91,62.79H51.58a14.65,14.65,0,0,0,.9-2.61.5.5,0,0,0-.3-.59,2.89,2.89,0,0,1,0-5.54.52.52,0,0,0,.32-.52,12.58,12.58,0,0,0-1.82-4.38.51.51,0,0,0-.59-.12,2.89,2.89,0,0,1-3.91-4,.51.51,0,0,0-.2-.64,14.54,14.54,0,0,0-4.26-1.76.51.51,0,0,0-.59.33,2.77,2.77,0,0,1-2.53,2.12A2.8,2.8,0,0,1,35.54,43,.5.5,0,0,0,35,42.7a14,14,0,0,0-2.05.67V39.86H52.19v4.8a5.7,5.7,0,0,0,5.56,5.83h12.7A5.71,5.71,0,0,0,76,44.66v-4.8H95.31Z"/><path class="cls-1" d="M38.39,53.9h0a2.92,2.92,0,0,0-2,.84,2.87,2.87,0,0,0-.85,2,2.83,2.83,0,0,0,.84,2,2.9,2.9,0,0,0,2.05.86h0a2.9,2.9,0,0,0,2.9-2.81,2.9,2.9,0,0,0-2.86-3Zm0,4.79A1.9,1.9,0,0,1,37,58.13a1.9,1.9,0,0,1,1.35-3.23h0a1.88,1.88,0,0,1,1.34.58,1.85,1.85,0,0,1,.53,1.37A1.9,1.9,0,0,1,38.35,58.69Z"/><path class="cls-1" d="M38.35,48.86a7.94,7.94,0,1,0,7.94,7.93A7.94,7.94,0,0,0,38.35,48.86Zm0,15.37a7.44,7.44,0,1,1,7.44-7.44A7.45,7.45,0,0,1,38.35,64.23Z"/></g></svg>