<?xml version="1.0" encoding="utf-8"?>
<!-- Generator: Adobe Illustrator 22.0.1, SVG Export Plug-In . SVG Version: 6.00 Build 0)  -->
<svg version="1.1" id="Warstwa_1" xmlns="http://www.w3.org/2000/svg" xmlns:xlink="http://www.w3.org/1999/xlink" x="0px" y="0px"
	 viewBox="0 0 553.6 374.8" style="enable-background:new 0 0 553.6 374.8;" xml:space="preserve">
<style type="text/css">
	.st0{opacity:0.2;}
	.st1{fill:#6812D8;}
	.st2{opacity:0.19;}
	.st3{fill:#FFFFFF;}
	.st4{opacity:0.15;fill:#6812D8;}
	.st5{opacity:0.15;}
	.st6{opacity:0.17;}
	.st7{fill:#E72061;}
	.st8{opacity:0.15;fill:#E72061;}
	.st9{fill:url(#SVGID_1_);}
	.st10{fill:#E81F76;}
	.st11{fill:url(#SVGID_2_);}
	.st12{fill:url(#SVGID_3_);}
</style>
<title>Obszar roboczy 15Paratii_</title>
<g class="st0">
	<g>
		<path class="st1" d="M226.5,162.1H91.1c-3,0-5.5-2.5-5.5-5.5V87.4c0-3,2.5-5.5,5.5-5.5h135.4c3,0,5.5,2.5,5.5,5.5v69.2
			C232,159.6,229.6,162.1,226.5,162.1z M91.1,82.9c-2.5,0-4.5,2-4.5,4.5v69.2c0,2.5,2,4.5,4.5,4.5h135.4c2.5,0,4.5-2,4.5-4.5V87.4
			c0-2.5-2-4.5-4.5-4.5H91.1z"/>
	</g>
	<path class="st1" d="M91.7,130.1c-0.7,0-1.3-0.6-1.3-1.3v-13.7c0-0.7,0.6-1.3,1.3-1.3c0.7,0,1.3,0.6,1.3,1.3v13.7
		C93,129.5,92.4,130.1,91.7,130.1z M91.7,114.4c-0.4,0-0.8,0.3-0.8,0.8v13.7c0,0.4,0.3,0.8,0.8,0.8s0.8-0.3,0.8-0.8v-13.7
		C92.5,114.7,92.2,114.4,91.7,114.4z"/>
	<path class="st1" d="M220.5,127.7c-3.1,0-5.7-2.5-5.7-5.7c0-3.1,2.5-5.7,5.7-5.7c3.1,0,5.7,2.5,5.7,5.7
		C226.2,125.1,223.6,127.7,220.5,127.7z M220.5,116.8c-2.8,0-5.2,2.3-5.2,5.2s2.3,5.2,5.2,5.2s5.2-2.3,5.2-5.2
		S223.4,116.8,220.5,116.8z"/>
</g>
<g class="st2">
	<g>
		<path class="st1" d="M489.8,189.3H304.9c-3,0-5.5-2.5-5.5-5.5V55.6c0-3,2.5-5.5,5.5-5.5h184.9c3,0,5.5,2.5,5.5,5.5v128.1
			C495.3,186.8,492.8,189.3,489.8,189.3z M304.9,51.1c-2.5,0-4.5,2-4.5,4.5v128.1c0,2.5,2,4.5,4.5,4.5h184.9c2.5,0,4.5-2,4.5-4.5
			V55.6c0-2.5-2-4.5-4.5-4.5H304.9z"/>
	</g>
	<g>
		<line class="st3" x1="300.6" y1="172.9" x2="494.1" y2="172.9"/>
		<path class="st1" d="M494.1,173.2H300.6c-0.1,0-0.2-0.1-0.2-0.2s0.1-0.2,0.2-0.2h193.5c0.1,0,0.2,0.1,0.2,0.2
			S494.3,173.2,494.1,173.2z"/>
	</g>
	<g>
		<path class="st1" d="M444.4,212.1h-94v-4c0-0.9,0.4-1.8,1.1-2.4l0.1-0.1l0.1,0l30.1-5.2v-12.2h31v12.2l30.3,5.2l0.1,0.1
			c0.7,0.6,1.1,1.4,1.1,2.4V212.1z M351.3,211.1h92v-3c0-0.6-0.2-1.1-0.7-1.5l-30.8-5.3v-12.1h-29v12.1l-30.8,5.3
			c-0.4,0.4-0.7,0.9-0.7,1.5V211.1z"/>
	</g>
	<g>
		<g>
			<line class="st3" x1="409" y1="201.1" x2="412.5" y2="201.1"/>
			<path class="st1" d="M412.5,201.3H409c-0.1,0-0.2-0.1-0.2-0.2s0.1-0.2,0.2-0.2h3.6c0.1,0,0.2,0.1,0.2,0.2
				S412.7,201.3,412.5,201.3z"/>
		</g>
		<g>
			<line class="st3" x1="382.2" y1="201.1" x2="405.4" y2="201.1"/>
			<path class="st1" d="M405.4,201.3h-23.2c-0.1,0-0.2-0.1-0.2-0.2s0.1-0.2,0.2-0.2h23.2c0.1,0,0.2,0.1,0.2,0.2
				S405.5,201.3,405.4,201.3z"/>
		</g>
	</g>
	<g>
		<path class="st1" d="M311.1,184c-1.8,0-3.2-1.5-3.2-3.2s1.5-3.2,3.2-3.2s3.2,1.5,3.2,3.2S312.9,184,311.1,184z M311.1,178.5
			c-1.2,0-2.2,1-2.2,2.2s1,2.2,2.2,2.2s2.2-1,2.2-2.2S312.4,178.5,311.1,178.5z"/>
	</g>
</g>
<g>
	<g>
		<path class="st1" d="M475.4,163.2H319.3c-4.6,0-8.3-3.7-8.3-8.3V67.3c0-4.6,3.7-8.3,8.3-8.3h156.1c4.6,0,8.3,3.7,8.3,8.3v87.7
			C483.7,159.5,480,163.2,475.4,163.2z M319.3,60c-4,0-7.3,3.3-7.3,7.3v87.7c0,4,3.3,7.3,7.3,7.3h156.1c4,0,7.3-3.3,7.3-7.3V67.3
			c0-4-3.3-7.3-7.3-7.3H319.3z"/>
	</g>
	<path class="st4" d="M316.1,141.8v11.3c0,2.9,2.3,5.2,5.2,5.2h152.1c2.9,0,5.2-2.3,5.2-5.2v-11.3H316.1z"/>
	<path class="st1" d="M473.4,158.6H321.3c-3,0-5.5-2.5-5.5-5.5V133c0-0.1,0.1-0.2,0.2-0.2s0.2,0.1,0.2,0.2v20.2c0,2.7,2.2,5,5,5
		h152.1c2.7,0,5-2.2,5-5c0-0.1,0.1-0.2,0.2-0.2s0.2,0.1,0.2,0.2C478.9,156.2,476.4,158.6,473.4,158.6z"/>
	<g>
		<line class="st3" x1="478.6" y1="138.1" x2="478.6" y2="142.8"/>
		<path class="st1" d="M478.6,143.1c-0.1,0-0.2-0.1-0.2-0.2v-4.7c0-0.1,0.1-0.2,0.2-0.2s0.2,0.1,0.2,0.2v4.7
			C478.9,143,478.8,143.1,478.6,143.1z"/>
	</g>
	<g>
		<path class="st1" d="M478.6,130.5c-0.1,0-0.2-0.1-0.2-0.2V69c0-2.7-2.2-5-5-5H321.3c-2.7,0-5,2.2-5,5v9.8c0,0.1-0.1,0.2-0.2,0.2
			s-0.2-0.1-0.2-0.2V69c0-3,2.5-5.5,5.5-5.5h152.1c3,0,5.5,2.5,5.5,5.5v61.2C478.9,130.3,478.8,130.5,478.6,130.5z"/>
	</g>
	<g>
		<line class="st3" x1="316.1" y1="93" x2="316.1" y2="85.9"/>
		<path class="st1" d="M316.1,93.3c-0.1,0-0.2-0.1-0.2-0.2v-7.1c0-0.1,0.1-0.2,0.2-0.2s0.2,0.1,0.2,0.2V93
			C316.3,93.2,316.2,93.3,316.1,93.3z"/>
	</g>
	<g>
		<line class="st3" x1="316.1" y1="97.7" x2="316.1" y2="96"/>
		<path class="st1" d="M316.1,98c-0.1,0-0.2-0.1-0.2-0.2V96c0-0.1,0.1-0.2,0.2-0.2s0.2,0.1,0.2,0.2v1.7
			C316.3,97.9,316.2,98,316.1,98z"/>
	</g>
	<g>
		<path class="st1" d="M465.9,73.2c-0.2,0-0.4-0.2-0.4-0.4v-1.3c0-0.6,0.5-1.1,1.1-1.1h1.2c0.2,0,0.4,0.2,0.4,0.4
			c0,0.2-0.2,0.4-0.4,0.4h-1.2c-0.2,0-0.3,0.1-0.3,0.3v1.3C466.3,73,466.1,73.2,465.9,73.2z"/>
		<path class="st1" d="M471.8,73.1c-0.2,0-0.4-0.2-0.4-0.4v-1.2c0-0.2-0.1-0.3-0.3-0.3h-1.3c-0.2,0-0.4-0.2-0.4-0.4
			c0-0.2,0.2-0.4,0.4-0.4h1.3c0.6,0,1.1,0.5,1.1,1.1v1.2C472.2,73,472.1,73.1,471.8,73.1z"/>
		<path class="st1" d="M471.1,76.9h-1.2c-0.2,0-0.4-0.2-0.4-0.4c0-0.2,0.2-0.4,0.4-0.4h1.2c0.2,0,0.3-0.1,0.3-0.3v-1.3
			c0-0.2,0.2-0.4,0.4-0.4c0.2,0,0.4,0.2,0.4,0.4v1.3C472.2,76.4,471.7,76.9,471.1,76.9z"/>
		<path class="st1" d="M467.9,76.9h-1.3c-0.6,0-1.1-0.5-1.1-1.1v-1.2c0-0.2,0.2-0.4,0.4-0.4c0.2,0,0.4,0.2,0.4,0.4v1.2
			c0,0.2,0.1,0.3,0.3,0.3h1.3c0.2,0,0.4,0.2,0.4,0.4C468.3,76.7,468.1,76.9,467.9,76.9z"/>
	</g>
	<g>
		<path class="st1" d="M331.2,147.6l-1.7,1.2h-0.8c-0.2,0-0.4,0.2-0.4,0.4v0.9c0,0.2,0.2,0.4,0.4,0.4h0.8l1.7,1.2
			c0.2,0.1,0.4,0,0.4-0.2v-3.8C331.5,147.6,331.3,147.5,331.2,147.6z"/>
		<path class="st1" d="M332.1,150.3c0.2-0.1,0.4-0.3,0.4-0.6c0-0.3-0.2-0.5-0.4-0.6c-0.1,0-0.1,0-0.1,0.1v1.1
			C332,150.3,332.1,150.3,332.1,150.3z"/>
		<path class="st1" d="M332.3,147.7c-0.1,0-0.3,0-0.3,0.2c0,0.1,0,0.1,0,0.2c0,0.1,0.1,0.1,0.1,0.1c0.3,0.1,0.6,0.3,0.8,0.7
			c0.5,0.9,0,2-0.8,2.2c-0.1,0-0.2,0.2-0.2,0.3c0,0.1,0.1,0.2,0.2,0.2c0,0,0,0,0.1,0c0.8-0.2,1.3-1.1,1.3-2
			C333.6,148.8,333,148,332.3,147.7z"/>
	</g>
	<path class="st1" d="M357,150.4C357,150.4,357,150.4,357,150.4l-18.1-0.1c-0.2,0-0.4-0.2-0.4-0.4v-0.6c0-0.2,0.2-0.4,0.4-0.4h18.1
		c0.1-0.2,0.2-0.3,0.3-0.5H339c-0.5,0-0.9,0.4-0.9,0.9v0.6c0,0.5,0.4,0.9,0.9,0.9h18.4C357.2,150.8,357.1,150.6,357,150.4z"/>
	<path class="st1" d="M469.5,148.5H360.8c0.1,0.1,0.3,0.3,0.4,0.5h108.4c0.2,0,0.4,0.2,0.4,0.4v0.6c0,0.2-0.2,0.4-0.4,0.4H361.4
		c0,0.1,0,0.2-0.1,0.3c0,0.1-0.1,0.1-0.1,0.2h108.3c0.5,0,0.9-0.4,0.9-0.9v-0.6C470.4,148.9,470,148.5,469.5,148.5z"/>
	<g>
		<path class="st1" d="M359,152.3c-1.5,0-2.6-1.2-2.6-2.6s1.2-2.6,2.6-2.6c1.5,0,2.6,1.2,2.6,2.6S360.5,152.3,359,152.3z M359,147.6
			c-1.2,0-2.1,1-2.1,2.1s1,2.1,2.1,2.1c1.2,0,2.1-1,2.1-2.1S360.2,147.6,359,147.6z"/>
	</g>
	<g>
		<g>
			<g>
				<path class="st1" d="M384.4,121.4c-0.2,0-0.3,0-0.5-0.1c-0.3-0.2-0.5-0.6-0.5-1.1v-11.1c0-0.9,0.6-2,1.4-2.4l20.8-12.5
					c0.4-0.3,0.9-0.3,1.2-0.1c0.3,0.2,0.5,0.6,0.5,1.1v11.1c0,0.9-0.6,2-1.4,2.4l-20.8,12.5C384.9,121.3,384.6,121.4,384.4,121.4z
					 M406.2,94.7c-0.1,0-0.2,0-0.3,0.1l-20.8,12.5c-0.5,0.3-1,1.2-1,1.8v11.1c0,0.2,0.1,0.4,0.2,0.4c0.1,0.1,0.3,0,0.5-0.1
					l20.8-12.5c0.5-0.3,1-1.2,1-1.8V95.2c0-0.2-0.1-0.4-0.2-0.4C406.3,94.7,406.3,94.7,406.2,94.7z"/>
			</g>
			<g>
				<path class="st1" d="M385.3,99.3c-0.3,0-0.6-0.1-0.9-0.3c-0.6-0.3-1-1-1-1.7v-7.6c0-0.7,0.2-1.2,0.7-1.4c0.4-0.3,1-0.2,1.6,0.1
					l7.1,4c0.6,0.3,0.9,0.8,0.9,1.3c0,0.5-0.3,1-0.9,1.3l-6.5,3.9C386,99.2,385.7,99.3,385.3,99.3z M384.8,89c-0.1,0-0.2,0-0.3,0.1
					c-0.2,0.1-0.3,0.4-0.3,0.8v7.6c0,0.4,0.2,0.8,0.6,1c0.4,0.2,0.8,0.2,1.2,0l6.5-3.9c0.3-0.2,0.5-0.4,0.5-0.7
					c0-0.2-0.2-0.5-0.5-0.7l-7.1-4C385.1,89.1,384.9,89,384.8,89z"/>
			</g>
		</g>
		<g class="st5">
			<path class="st1" d="M407.9,107c0,0.8-0.5,1.7-1.2,2.1L386,121.6c-0.7,0.4-1.2,0.1-1.2-0.7v-11.1c0-0.8,0.5-1.7,1.2-2.1
				l20.8-12.5c0.7-0.4,1.2-0.1,1.2,0.7V107z"/>
			<path class="st1" d="M386.6,89.6c-0.9-0.5-1.7-0.1-1.7,1v7.6c0,1.2,1.3,1.9,2.3,1.3l6.5-3.9c0.9-0.6,0.9-1.4,0-2L386.6,89.6z"/>
		</g>
	</g>
	<g>
		<path class="st1" d="M324.9,150c0,0.1-0.1,0.3-0.2,0.3l-3.3,2c-0.1,0.1-0.2,0-0.2-0.1v-1.8c0-0.1,0.1-0.3,0.2-0.3l3.3-2
			c0.1-0.1,0.2,0,0.2,0.1V150z"/>
		<path class="st1" d="M321.5,147.2c-0.1-0.1-0.3,0-0.3,0.2v1.2c0,0.2,0.2,0.3,0.4,0.2l1-0.6c0.1-0.1,0.1-0.2,0-0.3L321.5,147.2z"/>
	</g>
</g>
<g class="st6">
	<g>
		<path class="st7" d="M284.8,271.4c0.3-0.2,0.7-0.3,1-0.5v-71.6c0-7.9-4.8-12.4-13.2-12.4H128.8c-8.4,0-13.2,4.5-13.2,12.4v103.9h1
			V199.3c0-4.3,1.6-11.4,12.2-11.4h143.9c10.6,0,12.2,7.1,12.2,11.4V271.4z"/>
	</g>
	<g>
		<path class="st7" d="M274.5,320.5H121.2c-7.5,0-13.5-4.8-13.5-10.6v-6.2H267c-0.2-0.3-0.3-0.7-0.5-1H106.7v7.2
			c0,6.4,6.5,11.6,14.5,11.6h154.1C275,321.2,274.8,320.9,274.5,320.5z"/>
	</g>
	<path class="st7" d="M202.6,196.6h-6.1c-0.3,0-0.5-0.2-0.5-0.5v-1.6c0-0.3,0.2-0.5,0.5-0.5h6.1c0.3,0,0.5,0.2,0.5,0.5v1.6
		C203.2,196.3,202.9,196.6,202.6,196.6z M196.5,194.3l0,1.7l6.1,0c0,0,0,0,0,0v-1.6L196.5,194.3z"/>
	<path class="st7" d="M209.3,314.6h-17.2c-0.3,0-0.5-0.2-0.5-0.5v-1.6c0-0.3,0.2-0.5,0.5-0.5h17.2c0.3,0,0.5,0.2,0.5,0.5v1.6
		C209.9,314.3,209.6,314.6,209.3,314.6z M192.1,312.4l0,1.7l17.3,0c0,0,0,0,0,0v-1.6L192.1,312.4z"/>
</g>
<g>
	<g>
		<path class="st7" d="M129.3,296.6c-2.2,0-4.1-1.8-4.1-4.1v-84.4c0-2.2,1.8-4.1,4.1-4.1h142.7c2.2,0,4.1,1.8,4.1,4.1v66.4
			c0.3-0.2,0.7-0.3,1-0.5v-65.9c0-2.8-2.3-5.1-5.1-5.1H129.3c-2.8,0-5.1,2.3-5.1,5.1v84.4c0,2.8,2.3,5.1,5.1,5.1H265
			c-0.1-0.3-0.2-0.7-0.3-1H129.3z"/>
	</g>
	<path class="st8" d="M262.6,285.5c0.4-2.3,1.3-4.4,3-6h-137v9.4c0,2.4,1.9,4.3,4.3,4.3h130.5C262.6,290.5,262,288.6,262.6,285.5z"
		/>
	<path class="st7" d="M263.4,293.2H132.9c-2.2,0-4.1-1.8-4.1-4.1v-16.7c0-0.1-0.1-0.2-0.2-0.2s-0.2,0.1-0.2,0.2v16.7
		c0,2.5,2,4.6,4.6,4.6h130.7C263.5,293.6,263.5,293.4,263.4,293.2z"/>
	<g>
		<path class="st7" d="M272.8,270.5c-0.1,0-0.2-0.1-0.2-0.2v-58.8c0-2.2-1.8-4.1-4.1-4.1H132.9c-2.2,0-4.1,1.8-4.1,4.1v16.3
			c0,0.1-0.1,0.2-0.2,0.2s-0.2-0.1-0.2-0.2v-16.3c0-2.5,2-4.6,4.6-4.6h135.7c2.5,0,4.6,2,4.6,4.6v58.8
			C273.1,270.4,273,270.5,272.8,270.5z"/>
	</g>
	<g>
		<line class="st3" x1="128.6" y1="239.5" x2="128.6" y2="233.6"/>
		<path class="st7" d="M128.6,239.8c-0.1,0-0.2-0.1-0.2-0.2v-5.9c0-0.1,0.1-0.2,0.2-0.2s0.2,0.1,0.2,0.2v5.9
			C128.8,239.6,128.7,239.8,128.6,239.8z"/>
	</g>
	<g>
		<line class="st3" x1="128.6" y1="243.4" x2="128.6" y2="242"/>
		<path class="st7" d="M128.6,243.6c-0.1,0-0.2-0.1-0.2-0.2V242c0-0.1,0.1-0.2,0.2-0.2s0.2,0.1,0.2,0.2v1.4
			C128.8,243.5,128.7,243.6,128.6,243.6z"/>
	</g>
	<g>
		<path class="st7" d="M262.3,214.9c-0.2,0-0.3-0.2-0.3-0.3v-1c0-0.5,0.4-0.9,0.9-0.9h1c0.2,0,0.3,0.2,0.3,0.3s-0.2,0.3-0.3,0.3h-1
			c-0.1,0-0.3,0.1-0.3,0.2v1C262.7,214.7,262.5,214.9,262.3,214.9z"/>
		<path class="st7" d="M267.2,214.8c-0.2,0-0.3-0.2-0.3-0.3v-1c0-0.1-0.1-0.3-0.2-0.3h-1c-0.2,0-0.3-0.2-0.3-0.3s0.2-0.3,0.3-0.3h1
			c0.5,0,0.9,0.4,0.9,0.9v1C267.6,214.7,267.4,214.8,267.2,214.8z"/>
		<path class="st7" d="M266.6,217.9h-1c-0.2,0-0.3-0.2-0.3-0.3c0-0.2,0.2-0.3,0.3-0.3h1c0.1,0,0.3-0.1,0.3-0.2v-1
			c0-0.2,0.2-0.3,0.3-0.3s0.3,0.2,0.3,0.3v1C267.6,217.5,267.1,217.9,266.6,217.9z"/>
		<path class="st7" d="M264,217.9h-1c-0.5,0-0.9-0.4-0.9-0.9v-1c0-0.2,0.2-0.3,0.3-0.3s0.3,0.2,0.3,0.3v1c0,0.1,0.1,0.3,0.2,0.3h1
			c0.2,0,0.3,0.2,0.3,0.3C264.3,217.8,264.2,217.9,264,217.9z"/>
	</g>
	<g>
		<path class="st7" d="M141,284.6l-1.4,1H139c-0.2,0-0.3,0.2-0.3,0.3v0.8c0,0.2,0.1,0.3,0.3,0.3h0.7l1.4,1c0.1,0.1,0.3,0,0.3-0.2
			v-3.1C141.3,284.6,141.2,284.5,141,284.6z"/>
		<path class="st7" d="M141.8,286.8c0.2-0.1,0.4-0.3,0.4-0.5s-0.2-0.5-0.4-0.5c-0.1,0-0.1,0-0.1,0.1v0.9
			C141.7,286.8,141.8,286.9,141.8,286.8z"/>
		<path class="st7" d="M141.9,284.7c-0.1,0-0.2,0-0.2,0.2c0,0.1,0,0.1,0,0.2c0,0,0.1,0.1,0.1,0.1c0.3,0.1,0.5,0.3,0.7,0.5
			c0.4,0.8,0,1.6-0.7,1.8c-0.1,0-0.2,0.2-0.1,0.3c0,0.1,0.1,0.2,0.2,0.2c0,0,0,0,0.1,0c0.7-0.2,1.1-0.9,1.1-1.6
			C143,285.6,142.6,284.9,141.9,284.7z"/>
	</g>
	<path class="st7" d="M162.3,286.9h-14.8c-0.2,0-0.4-0.2-0.4-0.4v-0.5c0-0.2,0.2-0.4,0.4-0.4h14.8c0-0.1,0.1-0.2,0.1-0.3h-14.9
		c-0.4,0-0.7,0.3-0.7,0.7v0.5c0,0.4,0.3,0.7,0.7,0.7h15C162.4,287.2,162.4,287,162.3,286.9z"/>
	<path class="st7" d="M165.7,285.4C165.7,285.4,165.7,285.4,165.7,285.4c0.1,0.1,0.1,0.3,0.1,0.3h96.8c0-0.1,0-0.1,0-0.2
		c0,0,0-0.1,0-0.1H165.7z"/>
	<path class="st7" d="M165.5,287.3h96.9c0-0.1,0-0.2,0-0.3h-96.7C165.6,287,165.6,287.2,165.5,287.3z"/>
	<g>
		<path class="st7" d="M164,288.5c-1.2,0-2.1-1-2.1-2.1s1-2.1,2.1-2.1s2.1,1,2.1,2.1S165.2,288.5,164,288.5z M164,284.5
			c-1,0-1.8,0.8-1.8,1.8s0.8,1.8,1.8,1.8s1.8-0.8,1.8-1.8S165,284.5,164,284.5z"/>
	</g>
	<g>
		<g>
			<g>
				<path class="st7" d="M189.3,262.9c-0.2,0-0.3,0-0.5-0.1c-0.3-0.2-0.5-0.6-0.5-1.1v-11.1c0-0.9,0.6-2,1.4-2.4l20.7-12.4
					c0.4-0.3,0.9-0.3,1.2-0.1s0.5,0.6,0.5,1.1v11.1c0,0.9-0.6,2-1.4,2.4L190,262.7C189.8,262.9,189.5,262.9,189.3,262.9z
					 M211.1,236.3c-0.1,0-0.2,0-0.3,0.1L190,248.8c-0.5,0.3-1,1.2-1,1.8v11.1c0,0.2,0.1,0.4,0.2,0.4c0.1,0.1,0.3,0,0.5-0.1
					l20.7-12.4c0.5-0.3,1-1.2,1-1.8v-11.1c0-0.2-0.1-0.4-0.2-0.4C211.2,236.3,211.1,236.3,211.1,236.3z"/>
			</g>
			<g>
				<path class="st7" d="M190.2,240.9c-0.3,0-0.6-0.1-0.9-0.2c-0.6-0.3-1-1-1-1.7v-7.5c0-0.7,0.2-1.2,0.7-1.4c0.4-0.3,1-0.2,1.6,0.1
					l7.1,4c0.6,0.3,0.9,0.8,0.9,1.3c0,0.5-0.3,1-0.9,1.3l-6.5,3.9C190.9,240.8,190.6,240.9,190.2,240.9z M189.7,230.6
					c-0.1,0-0.2,0-0.3,0.1c-0.2,0.1-0.3,0.4-0.3,0.8v7.5c0,0.4,0.2,0.8,0.6,1c0.4,0.2,0.8,0.2,1.2,0l6.5-3.9
					c0.3-0.2,0.5-0.4,0.5-0.7c0-0.2-0.2-0.5-0.5-0.7l-7.1-4C190,230.6,189.8,230.6,189.7,230.6z"/>
			</g>
		</g>
		<g class="st5">
			<path class="st7" d="M212.8,248.6c0,0.8-0.5,1.7-1.2,2.1l-20.7,12.4c-0.7,0.4-1.2,0.1-1.2-0.7v-11.1c0-0.8,0.5-1.7,1.2-2.1
				l20.7-12.4c0.7-0.4,1.2-0.1,1.2,0.7V248.6z"/>
			<path class="st7" d="M191.4,231.2c-0.9-0.5-1.7-0.1-1.7,1v7.5c0,1.2,1.3,1.9,2.3,1.3l6.5-3.9c0.9-0.6,0.9-1.4,0-2L191.4,231.2z"
				/>
		</g>
	</g>
	<g>
		<path class="st7" d="M135.9,286.6c0,0.1-0.1,0.2-0.2,0.3l-2.7,1.6c-0.1,0.1-0.2,0-0.2-0.1v-1.4c0-0.1,0.1-0.2,0.2-0.3l2.7-1.6
			c0.1-0.1,0.2,0,0.2,0.1V286.6z"/>
		<path class="st7" d="M133.1,284.3c-0.1-0.1-0.2,0-0.2,0.1v1c0,0.2,0.2,0.2,0.3,0.2l0.8-0.5c0.1-0.1,0.1-0.2,0-0.3L133.1,284.3z"/>
	</g>
</g>
<g>
	<g>
		<path class="st1" d="M202.7,155.2h-97.6c-3.4,0-6.1-2.7-6.1-6.1V94.9c0-3.4,2.7-6.1,6.1-6.1h97.6c3.4,0,6.1,2.7,6.1,6.1v54.2
			C208.8,152.5,206,155.2,202.7,155.2z M105.1,89.8c-2.8,0-5.1,2.3-5.1,5.1v54.2c0,2.8,2.3,5.1,5.1,5.1h97.6c2.8,0,5.1-2.3,5.1-5.1
			V94.9c0-2.8-2.3-5.1-5.1-5.1H105.1z"/>
	</g>
	<path class="st4" d="M102.4,141.5v7.2c0,1.8,1.5,3.3,3.3,3.3H202c1.8,0,3.3-1.5,3.3-3.3v-7.2H102.4z"/>
	<path class="st1" d="M202,152.2h-96.3c-2,0-3.6-1.6-3.6-3.6v-12.8c0-0.1,0.1-0.2,0.2-0.2s0.2,0.1,0.2,0.2v12.8
		c0,1.7,1.4,3.1,3.1,3.1H202c1.7,0,3.1-1.4,3.1-3.1c0-0.1,0.1-0.2,0.2-0.2s0.2,0.1,0.2,0.2C205.6,150.6,204,152.2,202,152.2z"/>
	<g>
		<path class="st1" d="M205.3,134.3c-0.1,0-0.2-0.1-0.2-0.2V95.4c0-1.7-1.4-3.1-3.1-3.1h-96.3c-1.7,0-3.1,1.4-3.1,3.1v6.2
			c0,0.1-0.1,0.2-0.2,0.2s-0.2-0.1-0.2-0.2v-6.2c0-2,1.6-3.6,3.6-3.6H202c2,0,3.6,1.6,3.6,3.6v38.7
			C205.6,134.2,205.5,134.3,205.3,134.3z"/>
	</g>
	<g>
		<line class="st3" x1="102.4" y1="110.6" x2="102.4" y2="106"/>
		<path class="st1" d="M102.4,110.8c-0.1,0-0.2-0.1-0.2-0.2V106c0-0.1,0.1-0.2,0.2-0.2s0.2,0.1,0.2,0.2v4.5
			C102.7,110.7,102.6,110.8,102.4,110.8z"/>
	</g>
	<g>
		<line class="st3" x1="102.4" y1="113.5" x2="102.4" y2="112.5"/>
		<path class="st1" d="M102.4,113.8c-0.1,0-0.2-0.1-0.2-0.2v-1.1c0-0.1,0.1-0.2,0.2-0.2s0.2,0.1,0.2,0.2v1.1
			C102.7,113.7,102.6,113.8,102.4,113.8z"/>
	</g>
	<g>
		<path class="st1" d="M112,145.1l-1.1,0.8h-0.5c-0.1,0-0.2,0.1-0.2,0.3v0.6c0,0.1,0.1,0.3,0.2,0.3h0.5l1.1,0.8
			c0.1,0.1,0.2,0,0.2-0.1v-2.4C112.2,145.1,112.1,145,112,145.1z"/>
		<path class="st1" d="M112.6,146.8c0.2,0,0.3-0.2,0.3-0.4s-0.1-0.3-0.3-0.4c0,0-0.1,0-0.1,0.1L112.6,146.8
			C112.5,146.8,112.5,146.8,112.6,146.8z"/>
		<path class="st1" d="M112.7,145.2c-0.1,0-0.2,0-0.2,0.1c0,0,0,0.1,0,0.1c0,0,0,0.1,0.1,0.1c0.2,0.1,0.4,0.2,0.5,0.4
			c0.3,0.6,0,1.3-0.5,1.4c-0.1,0-0.1,0.1-0.1,0.2c0,0.1,0.1,0.1,0.1,0.1c0,0,0,0,0,0c0.5-0.2,0.9-0.7,0.9-1.2
			C113.5,145.9,113.2,145.4,112.7,145.2z"/>
	</g>
	<path class="st1" d="M128.4,147.2c-0.1-0.1-0.2-0.3-0.2-0.4h-11.1c-0.2,0-0.3-0.2-0.3-0.3s0.2-0.3,0.3-0.3h11.1
		c0-0.2,0.1-0.4,0.2-0.5h-11.2c-0.5,0-0.8,0.4-0.8,0.8c0,0.5,0.4,0.8,0.8,0.8L128.4,147.2C128.4,147.3,128.4,147.3,128.4,147.2z"/>
	<path class="st1" d="M199.4,145.6h-68.6c0,0,0,0,0,0c0.1,0.1,0.1,0.3,0.1,0.5h68.5c0.2,0,0.3,0.2,0.3,0.3s-0.2,0.3-0.3,0.3h-68.5
		c0,0.2-0.1,0.4-0.2,0.5c0,0,0,0,0,0h68.7c0.5,0,0.8-0.4,0.8-0.8C200.2,146,199.9,145.6,199.4,145.6z"/>
	<g>
		<path class="st1" d="M129.6,148.2c-1,0-1.8-0.8-1.8-1.8c0-1,0.8-1.8,1.8-1.8s1.8,0.8,1.8,1.8C131.4,147.4,130.6,148.2,129.6,148.2
			z M129.6,145.2c-0.7,0-1.3,0.6-1.3,1.3c0,0.7,0.6,1.3,1.3,1.3s1.3-0.6,1.3-1.3C130.9,145.7,130.3,145.2,129.6,145.2z"/>
	</g>
	<g>
		<g>
			<g>
				<path class="st1" d="M145.7,128.7c-0.1,0-0.3,0-0.4-0.1c-0.3-0.1-0.4-0.4-0.4-0.8v-7c0-0.6,0.4-1.3,0.9-1.7l13.2-7.9
					c0.3-0.2,0.6-0.2,0.9-0.1c0.3,0.1,0.4,0.4,0.4,0.8v7c0,0.6-0.4,1.3-0.9,1.7l-13.2,7.9C146,128.6,145.8,128.7,145.7,128.7z
					 M145.6,127.8c0,0.1,0,0.2,0,0.2c0,0,0.1,0,0.2-0.1L159,120c0.3-0.2,0.6-0.7,0.6-1v-7c0-0.1,0-0.2,0-0.2c0,0-0.1,0-0.2,0.1
					l-13.2,7.9c-0.3,0.2-0.6,0.7-0.6,1"/>
			</g>
			<g>
				<path class="st1" d="M146.3,114.7c-0.2,0-0.5-0.1-0.7-0.2c-0.4-0.2-0.7-0.7-0.7-1.2v-4.8c0-0.5,0.2-0.8,0.5-1
					c0.3-0.2,0.7-0.2,1.1,0.1l4.5,2.5c0.4,0.2,0.6,0.6,0.6,0.9c0,0.4-0.2,0.7-0.6,1l-4.1,2.5C146.8,114.6,146.5,114.7,146.3,114.7z
					 M145.9,108.2c0,0-0.1,0-0.1,0c-0.1,0-0.1,0.2-0.1,0.4v4.8c0,0.2,0.1,0.4,0.3,0.5c0.2,0.1,0.4,0.1,0.6,0l4.1-2.5
					c0.2-0.1,0.3-0.2,0.3-0.3c0-0.1-0.1-0.2-0.3-0.3l-4.5-2.5C146.1,108.2,146,108.2,145.9,108.2z"/>
			</g>
		</g>
		<g class="st5">
			<path class="st1" d="M160.6,119.4c0,0.5-0.3,1.1-0.8,1.3l-13.2,7.9c-0.4,0.2-0.8,0.1-0.8-0.4v-7c0-0.5,0.3-1.1,0.8-1.3l13.2-7.9
				c0.4-0.2,0.8-0.1,0.8,0.4V119.4z"/>
			<path class="st1" d="M147.1,108.4c-0.6-0.3-1.1-0.1-1.1,0.6v4.8c0,0.8,0.8,1.2,1.5,0.8l4.1-2.5c0.6-0.4,0.6-0.9,0-1.2
				L147.1,108.4z"/>
		</g>
	</g>
	<g>
		<path class="st1" d="M108,146.7c0,0.1-0.1,0.2-0.1,0.2l-2.1,1.3c-0.1,0-0.1,0-0.1-0.1v-1.1c0-0.1,0.1-0.2,0.1-0.2l2.1-1.3
			c0.1,0,0.1,0,0.1,0.1V146.7z"/>
		<path class="st1" d="M105.8,144.9c-0.1-0.1-0.2,0-0.2,0.1v0.8c0,0.1,0.1,0.2,0.2,0.1l0.7-0.4c0.1-0.1,0.1-0.1,0-0.2L105.8,144.9z"
			/>
	</g>
</g>
<g>
	<g>
		<g>
			<path class="st7" d="M311.6,278.6l-1.5-4.1c-2.4-6.5-9.6-9.7-16.1-7.3l-24.4,9.1c-6.5,2.4-9.7,9.6-7.3,16.1l9.1,24.4
				c1.9,5,6.7,8.1,11.7,8.1c1.5,0,2.9-0.3,4.4-0.8l15.1-5.6c-0.1-0.3-0.1-0.7-0.1-1l-15.3,5.7c-5.9,2.2-12.6-0.8-14.8-6.7l-9.1-24.4
				c-2.2-5.9,0.8-12.6,6.7-14.8l24.4-9.1c1.3-0.5,2.7-0.7,4-0.7c4.7,0,9.1,2.9,10.8,7.5l1.5,4.1C311,278.8,311.3,278.7,311.6,278.6z
				"/>
		</g>
		<path class="st7" d="M282.8,321.2c0-0.2,0.1-0.4,0.3-0.4l0,0c0.2,0,0.4,0.1,0.4,0.3l0,0c0,0.2-0.1,0.4-0.3,0.4l0,0l0,0l0,0
			c0,0,0,0,0,0l0,0C283,321.6,282.8,321.4,282.8,321.2z M281.1,321.4c-0.2,0-0.3-0.2-0.3-0.4l0,0c0-0.2,0.2-0.3,0.4-0.3l0,0
			c0.2,0,0.3,0.2,0.3,0.4l0,0C281.5,321.3,281.4,321.5,281.1,321.4L281.1,321.4C281.2,321.5,281.1,321.5,281.1,321.4z M284.8,320.9
			c-0.1-0.2,0-0.4,0.2-0.5l0,0c0.2-0.1,0.4,0,0.5,0.2l0,0c0.1,0.2,0,0.4-0.2,0.5l0,0l0,0l0,0c0,0-0.1,0-0.1,0l0,0
			C285,321.2,284.8,321.1,284.8,320.9z M279.1,320.8c-0.2-0.1-0.3-0.3-0.2-0.5l0,0c0.1-0.2,0.3-0.3,0.5-0.2l0,0
			c0.2,0.1,0.3,0.3,0.2,0.5l0,0c-0.1,0.1-0.2,0.2-0.3,0.2l0,0C279.2,320.8,279.2,320.8,279.1,320.8z M286.7,320.2
			c-0.1-0.2,0-0.4,0.2-0.5l0,0c0.2-0.1,0.4,0,0.5,0.2l0,0c0.1,0.2,0,0.4-0.2,0.5l0,0c-0.1,0-0.1,0-0.1,0l0,0
			C286.9,320.5,286.7,320.4,286.7,320.2z M288.5,319.5c-0.1-0.2,0-0.4,0.2-0.5l0,0c0.2-0.1,0.4,0,0.5,0.2l0,0c0.1,0.2,0,0.4-0.2,0.5
			l0,0c0,0-0.1,0-0.1,0l0,0C288.7,319.8,288.6,319.7,288.5,319.5z M277.4,319.7c-0.2-0.1-0.2-0.4,0-0.5l0,0c0.1-0.2,0.4-0.2,0.5,0
			l0,0c0.2,0.1,0.2,0.4,0.1,0.5l0,0c-0.1,0.1-0.2,0.1-0.3,0.1l0,0C277.5,319.7,277.5,319.7,277.4,319.7z M290.4,318.8
			c-0.1-0.2,0-0.4,0.2-0.5l0,0c0.2-0.1,0.4,0,0.5,0.2l0,0c0.1,0.2,0,0.4-0.2,0.5l0,0c0,0-0.1,0-0.1,0l0,0
			C290.6,319.1,290.5,319,290.4,318.8z M292.3,318.1c-0.1-0.2,0-0.4,0.2-0.5l0,0c0.2-0.1,0.4,0,0.5,0.2l0,0c0.1,0.2,0,0.4-0.2,0.5
			l0,0c0,0-0.1,0-0.1,0l0,0C292.5,318.4,292.3,318.3,292.3,318.1z M276,318.1c-0.1-0.2-0.1-0.4,0.1-0.5l0,0c0.2-0.1,0.4-0.1,0.5,0.1
			l0,0c0.1,0.2,0.1,0.4-0.1,0.5l0,0c-0.1,0.1-0.1,0.1-0.2,0.1l0,0C276.2,318.3,276.1,318.2,276,318.1z M294.1,317.4
			c-0.1-0.2,0-0.4,0.2-0.5l0,0c0.2-0.1,0.4,0,0.5,0.2l0,0c0.1,0.2,0,0.4-0.2,0.5l0,0c-0.1,0-0.1,0-0.1,0l0,0
			C294.3,317.7,294.2,317.6,294.1,317.4z M296,316.7c-0.1-0.2,0-0.4,0.2-0.5l0,0c0.2-0.1,0.4,0,0.5,0.2l0,0c0.1,0.2,0,0.4-0.2,0.5
			l0,0c0,0-0.1,0-0.1,0l0,0C296.2,317,296.1,316.9,296,316.7z M275,316.2c-0.1-0.2,0-0.4,0.2-0.5l0,0c0.2-0.1,0.4,0,0.5,0.2l0,0
			c0.1,0.2,0,0.4-0.2,0.5l0,0c0,0-0.1,0-0.1,0l0,0C275.2,316.5,275.1,316.4,275,316.2z M297.9,316c-0.1-0.2,0-0.4,0.2-0.5l0,0
			c0.2-0.1,0.4,0,0.5,0.2l0,0c0.1,0.2,0,0.4-0.2,0.5l0,0c0,0-0.1,0-0.1,0l0,0C298.1,316.3,298,316.2,297.9,316z M299.8,315.3
			c-0.1-0.2,0-0.4,0.2-0.5l0,0c0.2-0.1,0.4,0,0.5,0.2l0,0c0.1,0.2,0,0.4-0.2,0.5l0,0c0,0-0.1,0-0.1,0l0,0
			C300,315.6,299.8,315.5,299.8,315.3z M274.3,314.4c-0.1-0.2,0-0.4,0.2-0.5l0,0c0.2-0.1,0.4,0,0.5,0.2l0,0c0.1,0.2,0,0.4-0.2,0.5
			l0,0c0,0-0.1,0-0.1,0l0,0C274.5,314.6,274.4,314.5,274.3,314.4z M273.6,312.5c-0.1-0.2,0-0.4,0.2-0.5l0,0c0.2-0.1,0.4,0,0.5,0.2
			l0,0c0.1,0.2,0,0.4-0.2,0.5l0,0c0,0-0.1,0-0.1,0l0,0C273.8,312.7,273.7,312.7,273.6,312.5z M272.9,310.6c-0.1-0.2,0-0.4,0.2-0.5
			l0,0c0.2-0.1,0.4,0,0.5,0.2l0,0c0.1,0.2,0,0.4-0.2,0.5l0,0c0,0-0.1,0-0.1,0l0,0C273.1,310.9,273,310.8,272.9,310.6z M272.2,308.8
			c-0.1-0.2,0-0.4,0.2-0.5l0,0c0.2-0.1,0.4,0,0.5,0.2l0,0c0.1,0.2,0,0.4-0.2,0.5l0,0c0,0-0.1,0-0.1,0l0,0
			C272.4,309,272.3,308.9,272.2,308.8z M271.5,306.9c-0.1-0.2,0-0.4,0.2-0.5l0,0c0.2-0.1,0.4,0,0.5,0.2l0,0c0.1,0.2,0,0.4-0.2,0.5
			l0,0c0,0-0.1,0-0.1,0l0,0C271.7,307.1,271.6,307,271.5,306.9z M270.8,305c-0.1-0.2,0-0.4,0.2-0.5l0,0c0.2-0.1,0.4,0,0.5,0.2l0,0
			c0.1,0.2,0,0.4-0.2,0.5l0,0c0,0-0.1,0-0.1,0l0,0C271,305.3,270.9,305.2,270.8,305z M270.1,303.1c-0.1-0.2,0-0.4,0.2-0.5l0,0
			c0.2-0.1,0.4,0,0.5,0.2l0,0c0.1,0.2,0,0.4-0.2,0.5l0,0c0,0-0.1,0-0.1,0l0,0C270.3,303.4,270.2,303.3,270.1,303.1z M269.4,301.3
			c-0.1-0.2,0-0.4,0.2-0.5l0,0c0.2-0.1,0.4,0,0.5,0.2l0,0c0.1,0.2,0,0.4-0.2,0.5l0,0c0,0-0.1,0-0.1,0l0,0
			C269.6,301.5,269.5,301.4,269.4,301.3z M268.7,299.4c-0.1-0.2,0-0.4,0.2-0.5l0,0c0.2-0.1,0.4,0,0.5,0.2l0,0c0.1,0.2,0,0.4-0.2,0.5
			l0,0c0,0-0.1,0-0.1,0l0,0C268.9,299.6,268.8,299.5,268.7,299.4z M268,297.5c-0.1-0.2,0-0.4,0.2-0.5l0,0c0.2-0.1,0.4,0,0.5,0.2l0,0
			c0.1,0.2,0,0.4-0.2,0.5l0,0c0,0-0.1,0-0.1,0l0,0C268.2,297.8,268.1,297.7,268,297.5z M267.3,295.6c-0.1-0.2,0-0.4,0.2-0.5l0,0
			c0.2-0.1,0.4,0,0.5,0.2l0,0c0.1,0.2,0,0.4-0.2,0.5l0,0c0,0-0.1,0-0.1,0l0,0C267.5,295.9,267.4,295.8,267.3,295.6z M266.6,293.8
			c-0.1-0.2,0-0.4,0.2-0.5l0,0c0.2-0.1,0.4,0,0.5,0.2l0,0c0.1,0.2,0,0.4-0.2,0.5l0,0c0,0-0.1,0-0.1,0l0,0
			C266.8,294,266.7,293.9,266.6,293.8z M265.9,291.9c-0.1-0.2,0-0.4,0.2-0.5l0,0c0.2-0.1,0.4,0,0.5,0.2l0,0c0.1,0.2,0,0.4-0.2,0.5
			l0,0c0,0-0.1,0-0.1,0l0,0C266.1,292.1,266,292.1,265.9,291.9z M265.2,290L265.2,290L265.2,290c-0.1-0.2,0-0.4,0.2-0.5l0,0
			c0.2-0.1,0.4,0,0.5,0.2l0,0c0.1,0.2,0,0.4-0.2,0.5l0,0c0,0-0.1,0-0.1,0l0,0C265.4,290.3,265.3,290.2,265.2,290z M264.8,288
			c0-0.2,0.1-0.4,0.4-0.4l0,0c0.2,0,0.4,0.1,0.4,0.4l0,0c0,0.2-0.1,0.4-0.4,0.4l0,0c0,0,0,0,0,0l0,0
			C265,288.3,264.8,288.2,264.8,288z M265.3,286.3c-0.2,0-0.3-0.2-0.3-0.5l0,0c0-0.2,0.2-0.3,0.4-0.3l0,0c0.2,0.1,0.3,0.2,0.3,0.5
			l0,0C265.7,286.2,265.5,286.3,265.3,286.3L265.3,286.3C265.3,286.3,265.3,286.3,265.3,286.3z M265.8,284.4
			c-0.2-0.1-0.3-0.3-0.2-0.5l0,0c0.1-0.2,0.3-0.3,0.5-0.2l0,0c0.2,0.1,0.3,0.3,0.2,0.5l0,0c-0.1,0.1-0.2,0.2-0.3,0.2l0,0
			C265.9,284.4,265.9,284.4,265.8,284.4z M266.9,282.7c-0.1-0.1-0.2-0.4,0-0.5l0,0c0.1-0.2,0.4-0.2,0.5,0l0,0c0.2,0.1,0.2,0.4,0,0.5
			l0,0c-0.1,0.1-0.2,0.1-0.3,0.1l0,0C267,282.8,266.9,282.8,266.9,282.7z M268.3,281.3c-0.1-0.2-0.1-0.4,0.1-0.5l0,0
			c0.2-0.1,0.4-0.1,0.5,0.1l0,0c0.1,0.2,0.1,0.4-0.1,0.5l0,0c-0.1,0-0.1,0.1-0.2,0.1l0,0C268.5,281.5,268.4,281.4,268.3,281.3z
			 M270.1,280.4c-0.1-0.2,0-0.4,0.2-0.5l0,0c0.2-0.1,0.4,0,0.5,0.2l0,0c0.1,0.2,0,0.4-0.2,0.5l0,0c0,0-0.1,0-0.1,0l0,0
			C270.3,280.6,270.1,280.5,270.1,280.4z M271.9,279.7c-0.1-0.2,0-0.4,0.2-0.5l0,0c0.2-0.1,0.4,0,0.5,0.2l0,0c0.1,0.2,0,0.4-0.2,0.5
			l0,0c-0.1,0-0.1,0-0.1,0l0,0C272.1,279.9,272,279.8,271.9,279.7z M307.3,279.3c-0.1-0.2,0-0.4,0.2-0.5l0,0c0.2-0.1,0.4,0,0.5,0.2
			l0,0c0.1,0.2,0,0.4-0.2,0.5l0,0c0,0-0.1,0-0.1,0l0,0C307.5,279.5,307.3,279.5,307.3,279.3z M273.8,279c-0.1-0.2,0-0.4,0.2-0.5l0,0
			c0.2-0.1,0.4,0,0.5,0.2l0,0c0.1,0.2,0,0.4-0.2,0.5l0,0c0,0-0.1,0-0.1,0l0,0C274,279.2,273.9,279.1,273.8,279z M275.7,278.2
			c-0.1-0.2,0-0.4,0.2-0.5l0,0c0.2-0.1,0.4,0,0.5,0.2l0,0c0.1,0.2,0,0.4-0.2,0.5l0,0c0,0-0.1,0-0.1,0l0,0
			C275.9,278.5,275.7,278.4,275.7,278.2z M277.5,277.5c-0.1-0.2,0-0.4,0.2-0.5l0,0c0.2-0.1,0.4,0,0.5,0.2l0,0c0.1,0.2,0,0.4-0.2,0.5
			l0,0c-0.1,0-0.1,0-0.1,0l0,0C277.7,277.8,277.6,277.7,277.5,277.5z M306.6,277.4c-0.1-0.2,0-0.4,0.2-0.5l0,0
			c0.2-0.1,0.4,0,0.5,0.2l0,0c0.1,0.2,0,0.4-0.2,0.5l0,0c0,0-0.1,0-0.1,0l0,0C306.8,277.7,306.6,277.6,306.6,277.4z M279.4,276.8
			c-0.1-0.2,0-0.4,0.2-0.5l0,0c0.2-0.1,0.4,0,0.5,0.2l0,0c0.1,0.2,0,0.4-0.2,0.5l0,0c0,0-0.1,0-0.1,0l0,0
			C279.6,277.1,279.5,277,279.4,276.8z M281.3,276.1c-0.1-0.2,0-0.4,0.2-0.5l0,0c0.2-0.1,0.4,0,0.5,0.2l0,0c0.1,0.2,0,0.4-0.2,0.5
			l0,0c0,0-0.1,0-0.1,0l0,0C281.5,276.4,281.3,276.3,281.3,276.1z M305.9,275.6c-0.1-0.2,0-0.4,0.2-0.5l0,0c0.2-0.1,0.4,0,0.5,0.2
			l0,0c0.1,0.2,0,0.4-0.2,0.5l0,0c0,0-0.1,0-0.1,0l0,0C306.1,275.8,305.9,275.7,305.9,275.6z M283.2,275.4c-0.1-0.2,0-0.4,0.2-0.5
			l0,0c0.2-0.1,0.4,0,0.5,0.2l0,0c0.1,0.2,0,0.4-0.2,0.5l0,0c0,0-0.1,0-0.1,0l0,0C283.4,275.7,283.2,275.6,283.2,275.4z M285,274.7
			c-0.1-0.2,0-0.4,0.2-0.5l0,0c0.2-0.1,0.4,0,0.5,0.2l0,0c0.1,0.2,0,0.4-0.2,0.5l0,0c0,0-0.1,0-0.1,0l0,0
			C285.2,275,285.1,274.9,285,274.7z M286.9,274c-0.1-0.2,0-0.4,0.2-0.5l0,0c0.2-0.1,0.4,0,0.5,0.2l0,0c0.1,0.2,0,0.4-0.2,0.5l0,0
			c0,0-0.1,0-0.1,0l0,0C287.1,274.3,287,274.2,286.9,274z M305.1,273.8c-0.1-0.2-0.1-0.4,0.1-0.5l0,0c0.2-0.1,0.4-0.1,0.5,0.1l0,0
			c0.1,0.2,0.1,0.4-0.1,0.5l0,0c-0.1,0-0.1,0.1-0.2,0.1l0,0C305.2,274,305.1,273.9,305.1,273.8z M288.8,273.3
			c-0.1-0.2,0-0.4,0.2-0.5l0,0c0.2-0.1,0.4,0,0.5,0.2l0,0c0.1,0.2,0,0.4-0.2,0.5l0,0c0,0-0.1,0-0.1,0l0,0
			C289,273.6,288.8,273.5,288.8,273.3z M290.7,272.6c-0.1-0.2,0-0.4,0.2-0.5l0,0c0.2-0.1,0.4,0,0.5,0.2l0,0c0.1,0.2,0,0.4-0.2,0.5
			l0,0c0,0-0.1,0-0.1,0l0,0C290.9,272.9,290.7,272.8,290.7,272.6z M303.8,272.4L303.8,272.4c-0.2-0.1-0.2-0.4,0-0.5l0,0
			c0.1-0.2,0.4-0.2,0.5,0l0,0l0,0l0,0c0.2,0.1,0.2,0.4,0,0.5l0,0c-0.1,0.1-0.2,0.1-0.3,0.1l0,0C304,272.5,303.9,272.4,303.8,272.4z
			 M292.5,271.9c-0.1-0.2,0-0.4,0.2-0.5l0,0c0.2-0.1,0.4,0,0.5,0.2l0,0c0.1,0.2,0,0.4-0.2,0.5l0,0c0,0-0.1,0-0.1,0l0,0
			C292.7,272.2,292.6,272.1,292.5,271.9z M294.4,271.2c-0.1-0.2,0-0.4,0.2-0.5l0,0c0.2-0.1,0.4,0,0.5,0.2l0,0c0.1,0.2,0,0.4-0.2,0.5
			l0,0c0,0-0.1,0-0.1,0l0,0C294.6,271.5,294.5,271.4,294.4,271.2z M302.3,271.3L302.3,271.3c-0.2-0.1-0.2-0.3-0.2-0.5l0,0
			c0.1-0.2,0.3-0.2,0.5-0.2l0,0l0,0l0,0c0.2,0.1,0.3,0.3,0.2,0.5l0,0c-0.1,0.1-0.2,0.2-0.3,0.2l0,0
			C302.4,271.3,302.3,271.3,302.3,271.3z M296.3,270.5c-0.1-0.2,0-0.4,0.2-0.5l0,0c0.2-0.1,0.4,0,0.5,0.2l0,0c0.1,0.2,0,0.4-0.2,0.5
			l0,0c0,0-0.1,0-0.1,0l0,0C296.5,270.8,296.3,270.7,296.3,270.5z M300.5,270.6c-0.2-0.1-0.3-0.2-0.3-0.5l0,0c0-0.2,0.2-0.3,0.4-0.3
			l0,0l0,0l0,0c0.2,0,0.3,0.2,0.3,0.4l0,0C300.9,270.5,300.8,270.6,300.5,270.6L300.5,270.6C300.6,270.6,300.5,270.6,300.5,270.6z
			 M298.2,270.1c0-0.2,0.1-0.4,0.4-0.4l0,0c0.2,0,0.4,0.1,0.4,0.4l0,0c0,0.2-0.2,0.4-0.4,0.4l0,0c0,0,0,0,0,0l0,0
			C298.4,270.4,298.2,270.3,298.2,270.1z"/>
		<path class="st7" d="M312.7,292.6L312.7,292.6c0,0-0.1,0-0.1,0l0,0"/>
		<g>
			<path class="st7" d="M313.8,295.3l-15.6,5.9c-1.9,0.7-4,0.6-5.9-0.2c-1.9-0.9-3.3-2.4-4.1-4.3l-0.1-0.3c-0.7-1.9-0.6-4,0.2-5.9
				c0.9-1.9,2.4-3.3,4.3-4.1l20.4-7.7l4.3,11.6c0.3-0.2,0.6-0.4,0.9-0.6l-4.6-12.3l-21.4,8c-2.2,0.8-3.9,2.4-4.9,4.6
				s-1.1,4.5-0.2,6.7l0.1,0.3c0.8,2.2,2.4,3.9,4.6,4.9c1.2,0.5,2.4,0.8,3.6,0.8c1,0,2.1-0.2,3.1-0.6l14.9-5.6
				C313.6,296.1,313.7,295.7,313.8,295.3z"/>
		</g>
		<g>
			<g>
				<path class="st7" d="M295.7,298.8c-0.7,0-1.4-0.2-2.1-0.5c-1.2-0.6-2.2-1.6-2.7-2.9c-1-2.7,0.4-5.6,3-6.6c2.7-1,5.6,0.4,6.6,3
					l0,0c1,2.7-0.4,5.6-3,6.6C296.9,298.7,296.3,298.8,295.7,298.8z M295.7,289c-0.5,0-1.1,0.1-1.6,0.3c-2.4,0.9-3.6,3.6-2.7,6
					c0.4,1.2,1.3,2.1,2.4,2.6c1.1,0.5,2.4,0.6,3.5,0.1c2.4-0.9,3.6-3.6,2.7-6C299.4,290.2,297.6,289,295.7,289z"/>
			</g>
			<path class="st8" d="M294.5,289.5c-2.5,0.9-3.8,3.8-2.9,6.3c0.4,1.1,1.2,2,2.2,2.6c1.1,0.4,2.3,0.4,3.4,0
				c2.5-0.9,3.8-3.8,2.9-6.3c-0.4-1.1-1.2-2-2.2-2.6C296.9,289.1,295.7,289.1,294.5,289.5z"/>
			<g>
				<g>
					<path class="st7" d="M295.3,296.8C295.3,296.8,295.3,296.8,295.3,296.8c-0.1,0-0.2-0.1-0.3-0.2l-0.6-1.7
						c-0.1-0.2,0-0.4,0.1-0.6l2.5-3.1c0.1-0.1,0.2-0.1,0.3-0.1c0.1,0,0.2,0.1,0.2,0.2l0.6,1.7c0.1,0.2,0,0.4-0.1,0.6l-2.5,3.1
						C295.5,296.8,295.4,296.8,295.3,296.8z M297.2,291.5l-2.4,3.1c0,0.1-0.1,0.2,0,0.2l0.6,1.6l2.4-3.1c0-0.1,0.1-0.2,0-0.2
						L297.2,291.5z"/>
				</g>
				<g>
					<path class="st7" d="M294.1,293.4C294.1,293.4,294.1,293.4,294.1,293.4c-0.2,0-0.3-0.1-0.4-0.3l-0.4-1.2c-0.1-0.1,0-0.3,0-0.4
						c0.1-0.1,0.2-0.1,0.4-0.1l1.3,0.2c0.1,0,0.3,0.1,0.3,0.2c0,0.1,0,0.2-0.1,0.4l-0.8,1C294.4,293.3,294.3,293.4,294.1,293.4z
						 M293.6,291.8C293.6,291.8,293.6,291.8,293.6,291.8l0.4,1.2c0,0,0,0,0.1,0c0,0,0,0,0.1,0l0.8-1L293.6,291.8
						C293.6,291.8,293.6,291.8,293.6,291.8z"/>
				</g>
			</g>
		</g>
	</g>
	<g>
		<path class="st7" d="M324.6,311c-6.6,0-12-5.4-12-12s5.4-12,12-12c6.6,0,12,5.4,12,12S331.2,311,324.6,311z M324.6,288.1
			c-6.1,0-11,4.9-11,11c0,6.1,4.9,11,11,11c6.1,0,11-4.9,11-11C335.6,293,330.7,288.1,324.6,288.1z"/>
	</g>
	<path class="st8" d="M325.4,288.8c-6.3,0-11.5,5.1-11.5,11.5c0,2.9,1.1,5.5,2.8,7.5c2,1.7,4.6,2.8,7.5,2.8
		c6.3,0,11.5-5.1,11.5-11.5c0-2.9-1.1-5.5-2.8-7.5C330.9,289.9,328.3,288.8,325.4,288.8z"/>
	<g>
		<g>
			<path class="st7" d="M321.4,305.6c-0.1,0-0.2,0-0.2-0.1c-0.2-0.1-0.3-0.3-0.3-0.5v-4.3c0-0.4,0.3-0.8,0.6-1l8.1-4.8
				c0.2-0.1,0.4-0.1,0.6,0c0.2,0.1,0.3,0.3,0.3,0.5v4.3c0,0.4-0.3,0.8-0.6,1l-8.1,4.8C321.6,305.5,321.5,305.6,321.4,305.6z
				 M329.8,295.2C329.8,295.2,329.8,295.2,329.8,295.2l-8.1,4.9c-0.2,0.1-0.3,0.4-0.3,0.6v4.3c0,0,0,0.1,0,0.1c0,0,0,0,0.1,0
				l8.1-4.8c0.2-0.1,0.3-0.4,0.3-0.6L329.8,295.2C329.9,295.3,329.8,295.2,329.8,295.2z"/>
		</g>
		<g>
			<path class="st7" d="M321.7,297c-0.1,0-0.3,0-0.4-0.1c-0.3-0.2-0.4-0.4-0.4-0.7v-2.9c0-0.3,0.1-0.5,0.3-0.6
				c0.2-0.1,0.5-0.1,0.7,0l2.7,1.6c0.3,0.1,0.4,0.4,0.4,0.6c0,0.2-0.1,0.5-0.4,0.6l-2.5,1.5C322,297,321.9,297,321.7,297z
				 M321.5,293C321.5,293,321.5,293,321.5,293c-0.1,0-0.1,0.1-0.1,0.2v2.9c0,0.1,0.1,0.2,0.2,0.3c0.1,0.1,0.2,0.1,0.3,0l2.5-1.5
				c0.1-0.1,0.1-0.1,0.1-0.2c0,0-0.1-0.1-0.1-0.2l-2.7-1.6C321.6,293,321.6,293,321.5,293z"/>
		</g>
	</g>
	<g>
		<g>
			<path class="st7" d="M325.9,314.3c-0.2-1.2-0.5-2.4-1-3.5c-0.4-0.1-0.8-0.1-1.2-0.2c0.7,1.2,1.1,2.5,1.3,3.9
				c0.4,2.9-0.4,5.8-2.2,8.1c-1.8,2.3-4.4,3.8-7.3,4.2c-2.9,0.4-5.8-0.4-8.1-2.2c-2.3-1.8-3.8-4.4-4.2-7.3c-0.4-2.9,0.4-5.8,2.2-8.1
				s4.4-3.8,7.3-4.2c0.5-0.1,0.9-0.1,1.4-0.1c0.3,0,0.5,0,0.8,0c-0.2-0.3-0.4-0.6-0.6-0.9c0,0,0-0.1,0-0.1c-0.6,0-1.1,0-1.7,0.1
				c-3.2,0.4-6,2-8,4.6c-2,2.5-2.8,5.7-2.4,8.8c0.4,3.2,2,6,4.6,8c2.1,1.6,4.7,2.5,7.3,2.5c0.5,0,1,0,1.5-0.1c3.2-0.4,6-2,8-4.6
				C325.4,320.6,326.3,317.5,325.9,314.3z"/>
		</g>
		<path class="st8" d="M323,310.3c-0.8-0.2-1.6-0.5-2.3-0.8c-1.9-0.5-3.5-1.5-4.9-3.2c-0.1-0.1-0.1-0.2-0.1-0.3
			c-4-0.6-8.2,0.9-10.8,4.3c-1.8,2.3-2.5,5-2.4,7.6c0.5,2.6,2,5,4.2,6.8c5,3.9,12.2,3,16.1-2.1c1.8-2.3,2.5-5,2.4-7.6
			C324.7,313.3,324,311.7,323,310.3z"/>
		<g>
			<g>
				<path class="st7" d="M317.2,320.2c0,0-0.1,0-0.1,0l-9.3-1.1c-0.2,0-0.4-0.1-0.5-0.3c-0.1-0.2,0-0.4,0.1-0.6l2.6-3.4
					c0.2-0.3,0.7-0.5,1.1-0.5l9.3,1.1c0.2,0,0.4,0.1,0.5,0.3c0.1,0.2,0,0.4-0.1,0.6l-2.6,3.4C318,320,317.5,320.2,317.2,320.2z
					 M307.7,318.6C307.7,318.6,307.8,318.6,307.7,318.6l9.4,1.1c0.2,0,0.5-0.1,0.6-0.3l2.6-3.4c0,0,0-0.1,0-0.1h0c0,0,0,0-0.1,0
					l-9.3-1.1c-0.2,0-0.5,0.1-0.6,0.3L307.7,318.6C307.7,318.6,307.7,318.6,307.7,318.6L307.7,318.6z"/>
			</g>
			<g>
				<path class="st7" d="M316.4,313c0,0-0.1,0-0.1,0l-2.9-0.3c-0.3,0-0.6-0.2-0.7-0.5c-0.1-0.3-0.1-0.6,0.1-0.8l1.8-2.3
					c0.2-0.2,0.4-0.3,0.6-0.3c0.2,0,0.4,0.2,0.5,0.5l1.2,2.9c0.1,0.3,0.1,0.5,0,0.7C316.8,312.9,316.6,313,316.4,313z M315.2,309.1
					c0,0-0.1,0-0.2,0.1l-1.8,2.3c-0.1,0.1-0.1,0.2,0,0.3s0.2,0.2,0.3,0.2l2.9,0.3c0.1,0,0.2,0,0.2,0c0,0,0-0.1,0-0.2l-1.2-2.9
					C315.3,309.2,315.2,309.1,315.2,309.1C315.2,309.1,315.2,309.1,315.2,309.1z"/>
			</g>
		</g>
	</g>
</g>
<linearGradient id="SVGID_1_" gradientUnits="userSpaceOnUse" x1="291.2283" y1="236.2225" x2="399.0281" y2="236.2225">
	<stop  offset="0" style="stop-color:#6812D8"/>
	<stop  offset="1" style="stop-color:#E72061"/>
</linearGradient>
<path class="st9" d="M311.2,254.2c0-0.2,0.2-0.4,0.4-0.4l0,0c0.2,0,0.4,0.2,0.4,0.4l0,0c0,0.2-0.2,0.4-0.4,0.4l0,0
	C311.4,254.5,311.2,254.4,311.2,254.2z M309.2,254.2c0-0.2,0.2-0.4,0.4-0.4l0,0c0.2,0,0.4,0.2,0.4,0.4l0,0c0,0.2-0.2,0.4-0.4,0.4
	l0,0C309.4,254.5,309.2,254.4,309.2,254.2z M307.2,254.2c0-0.2,0.2-0.4,0.4-0.4l0,0c0.2,0,0.4,0.2,0.4,0.4l0,0
	c0,0.2-0.2,0.4-0.4,0.4l0,0C307.4,254.5,307.2,254.4,307.2,254.2z M305.2,254.2c0-0.2,0.2-0.4,0.4-0.4l0,0c0.2,0,0.4,0.2,0.4,0.4
	l0,0c0,0.2-0.2,0.4-0.4,0.4l0,0C305.4,254.5,305.2,254.4,305.2,254.2z M303.2,254.2c0-0.2,0.2-0.4,0.4-0.4l0,0
	c0.2,0,0.4,0.2,0.4,0.4l0,0c0,0.2-0.2,0.4-0.4,0.4l0,0C303.4,254.5,303.2,254.4,303.2,254.2z M301.2,254.2c0-0.2,0.2-0.4,0.4-0.4
	l0,0c0.2,0,0.4,0.2,0.4,0.4l0,0c0,0.2-0.2,0.4-0.4,0.4l0,0C301.4,254.5,301.2,254.4,301.2,254.2z M299.2,254.2
	c0-0.2,0.2-0.4,0.4-0.4l0,0c0.2,0,0.4,0.2,0.4,0.4l0,0c0,0.2-0.2,0.4-0.4,0.4l0,0C299.4,254.5,299.2,254.4,299.2,254.2z
	 M297.2,254.2c0-0.2,0.2-0.4,0.4-0.4l0,0c0.2,0,0.4,0.2,0.4,0.4l0,0c0,0.2-0.2,0.4-0.4,0.4l0,0C297.4,254.5,297.2,254.4,297.2,254.2
	z M295.2,254.2c0-0.2,0.2-0.4,0.4-0.4l0,0c0.2,0,0.4,0.2,0.4,0.4l0,0c0,0.2-0.2,0.4-0.4,0.4l0,0
	C295.4,254.5,295.2,254.4,295.2,254.2z M293.2,254.2c0-0.2,0.2-0.4,0.4-0.4l0,0c0.2,0,0.4,0.2,0.4,0.4l0,0c0,0.2-0.2,0.4-0.4,0.4
	l0,0C293.4,254.5,293.2,254.4,293.2,254.2z M291.2,254.2c0-0.2,0.2-0.4,0.4-0.4l0,0c0.2,0,0.4,0.2,0.4,0.4l0,0
	c0,0.2-0.2,0.4-0.4,0.4l0,0C291.4,254.5,291.2,254.4,291.2,254.2z M313.2,254.2c0-0.2,0.1-0.4,0.3-0.4l0,0c0.2,0,0.4,0.1,0.4,0.3
	l0,0c0,0.2-0.1,0.4-0.3,0.4l0,0c0,0,0,0,0,0l0,0C313.4,254.5,313.2,254.4,313.2,254.2z M315.2,253.9c-0.1-0.2,0.1-0.4,0.2-0.5l0,0
	c0.2-0.1,0.4,0.1,0.5,0.2l0,0c0.1,0.2,0,0.4-0.2,0.5l0,0c0,0-0.1,0-0.1,0l0,0C315.4,254.1,315.2,254,315.2,253.9z M317.1,253.2
	c-0.1-0.2,0-0.4,0.2-0.5l0,0c0.2-0.1,0.4,0,0.5,0.1l0,0c0.1,0.2,0,0.4-0.2,0.5l0,0c-0.1,0-0.1,0-0.2,0l0,0
	C317.3,253.4,317.1,253.3,317.1,253.2z M318.8,252.1c-0.1-0.2-0.1-0.4,0-0.5l0,0c0.2-0.1,0.4-0.1,0.5,0l0,0c0.1,0.2,0.1,0.4,0,0.5
	l0,0c-0.1,0.1-0.2,0.1-0.2,0.1l0,0C318.9,252.2,318.8,252.2,318.8,252.1z M320.2,250.7c-0.1-0.2-0.1-0.4,0-0.5l0,0
	c0.1-0.1,0.4-0.1,0.5,0l0,0c0.2,0.1,0.1,0.4,0,0.5l0,0c-0.1,0.1-0.2,0.1-0.3,0.1l0,0C320.4,250.9,320.3,250.8,320.2,250.7z
	 M321.7,249.4c-0.1-0.1-0.1-0.4,0-0.5l0,0c0.1-0.1,0.4-0.1,0.5,0l0,0c0.2,0.2,0.1,0.4,0,0.5l0,0c-0.1,0.1-0.2,0.1-0.2,0.1l0,0
	C321.9,249.5,321.8,249.5,321.7,249.4z M323.2,248c-0.1-0.1-0.1-0.4,0-0.5l0,0c0.1-0.1,0.4-0.1,0.5,0l0,0c0.1,0.1,0.1,0.4,0,0.5l0,0
	c-0.1,0.1-0.2,0.1-0.2,0.1l0,0C323.3,248.1,323.2,248.1,323.2,248z M324.6,246.6c-0.1-0.2-0.1-0.4,0-0.5l0,0c0.2-0.1,0.4-0.1,0.5,0
	l0,0c0.1,0.2,0.1,0.4,0,0.5l0,0c-0.1,0.1-0.2,0.1-0.2,0.1l0,0C324.8,246.8,324.7,246.7,324.6,246.6z M326.2,245.5
	c-0.1-0.2,0-0.4,0.2-0.5l0,0c0.2-0.1,0.4,0,0.5,0.2l0,0c0.1,0.2,0,0.4-0.2,0.5l0,0c0,0-0.1,0-0.2,0l0,0
	C326.4,245.7,326.3,245.6,326.2,245.5z M328.1,244.8c0-0.2,0.1-0.4,0.3-0.4l0,0c0.2,0,0.4,0.1,0.4,0.3l0,0c0,0.2-0.1,0.4-0.3,0.4
	l0,0c0,0-0.1,0-0.1,0l0,0C328.3,245.1,328.1,244.9,328.1,244.8z M394.1,244.6c0-0.2,0.2-0.4,0.4-0.4l0,0c0.2,0,0.4,0.2,0.4,0.4l0,0
	c0,0.2-0.2,0.4-0.4,0.4l0,0C394.3,244.9,394.1,244.8,394.1,244.6z M392.1,244.6c0-0.2,0.2-0.4,0.4-0.4l0,0c0.2,0,0.4,0.2,0.4,0.4
	l0,0c0,0.2-0.2,0.4-0.4,0.4l0,0C392.3,244.9,392.1,244.8,392.1,244.6z M390.1,244.6c0-0.2,0.2-0.4,0.4-0.4l0,0
	c0.2,0,0.4,0.2,0.4,0.4l0,0c0,0.2-0.2,0.4-0.4,0.4l0,0C390.3,244.9,390.1,244.8,390.1,244.6z M388.1,244.6c0-0.2,0.2-0.4,0.4-0.4
	l0,0c0.2,0,0.4,0.2,0.4,0.4l0,0c0,0.2-0.2,0.4-0.4,0.4l0,0C388.3,244.9,388.1,244.8,388.1,244.6z M386.1,244.6
	c0-0.2,0.2-0.4,0.4-0.4l0,0c0.2,0,0.4,0.2,0.4,0.4l0,0c0,0.2-0.2,0.4-0.4,0.4l0,0C386.3,244.9,386.1,244.8,386.1,244.6z
	 M384.1,244.6c0-0.2,0.2-0.4,0.4-0.4l0,0c0.2,0,0.4,0.2,0.4,0.4l0,0c0,0.2-0.2,0.4-0.4,0.4l0,0C384.3,244.9,384.1,244.8,384.1,244.6
	z M382.1,244.6c0-0.2,0.2-0.4,0.4-0.4l0,0c0.2,0,0.4,0.2,0.4,0.4l0,0c0,0.2-0.2,0.4-0.4,0.4l0,0
	C382.3,244.9,382.1,244.8,382.1,244.6z M380.1,244.6c0-0.2,0.2-0.4,0.4-0.4l0,0c0.2,0,0.4,0.2,0.4,0.4l0,0c0,0.2-0.2,0.4-0.4,0.4
	l0,0C380.3,244.9,380.1,244.8,380.1,244.6z M378.1,244.6c0-0.2,0.2-0.4,0.4-0.4l0,0c0.2,0,0.4,0.2,0.4,0.4l0,0
	c0,0.2-0.2,0.4-0.4,0.4l0,0C378.3,244.9,378.1,244.8,378.1,244.6z M376.1,244.6c0-0.2,0.2-0.4,0.4-0.4l0,0c0.2,0,0.4,0.2,0.4,0.4
	l0,0c0,0.2-0.2,0.4-0.4,0.4l0,0C376.3,244.9,376.1,244.8,376.1,244.6z M374.1,244.6c0-0.2,0.2-0.4,0.4-0.4l0,0
	c0.2,0,0.4,0.2,0.4,0.4l0,0c0,0.2-0.2,0.4-0.4,0.4l0,0C374.3,244.9,374.1,244.8,374.1,244.6z M372.1,244.6c0-0.2,0.2-0.4,0.4-0.4
	l0,0c0.2,0,0.4,0.2,0.4,0.4l0,0c0,0.2-0.2,0.4-0.4,0.4l0,0C372.3,244.9,372.1,244.8,372.1,244.6z M370.1,244.6
	c0-0.2,0.2-0.4,0.4-0.4l0,0c0.2,0,0.4,0.2,0.4,0.4l0,0c0,0.2-0.2,0.4-0.4,0.4l0,0C370.3,244.9,370.1,244.8,370.1,244.6z
	 M368.1,244.6c0-0.2,0.2-0.4,0.4-0.4l0,0c0.2,0,0.4,0.2,0.4,0.4l0,0c0,0.2-0.2,0.4-0.4,0.4l0,0C368.3,244.9,368.1,244.8,368.1,244.6
	z M366.1,244.6c0-0.2,0.2-0.4,0.4-0.4l0,0c0.2,0,0.4,0.2,0.4,0.4l0,0c0,0.2-0.2,0.4-0.4,0.4l0,0
	C366.3,244.9,366.1,244.8,366.1,244.6z M364.1,244.6c0-0.2,0.2-0.4,0.4-0.4l0,0c0.2,0,0.4,0.2,0.4,0.4l0,0c0,0.2-0.2,0.4-0.4,0.4
	l0,0C364.3,244.9,364.1,244.8,364.1,244.6z M362.1,244.6c0-0.2,0.2-0.4,0.4-0.4l0,0c0.2,0,0.4,0.2,0.4,0.4l0,0
	c0,0.2-0.2,0.4-0.4,0.4l0,0C362.3,244.9,362.1,244.8,362.1,244.6z M360.1,244.6c0-0.2,0.2-0.4,0.4-0.4l0,0c0.2,0,0.4,0.2,0.4,0.4
	l0,0c0,0.2-0.2,0.4-0.4,0.4l0,0C360.3,244.9,360.1,244.8,360.1,244.6z M358.1,244.6c0-0.2,0.2-0.4,0.4-0.4l0,0
	c0.2,0,0.4,0.2,0.4,0.4l0,0c0,0.2-0.2,0.4-0.4,0.4l0,0C358.3,244.9,358.1,244.8,358.1,244.6z M356.1,244.6c0-0.2,0.2-0.4,0.4-0.4
	l0,0c0.2,0,0.4,0.2,0.4,0.4l0,0c0,0.2-0.2,0.4-0.4,0.4l0,0C356.3,244.9,356.1,244.8,356.1,244.6z M334.1,244.6
	c0-0.2,0.2-0.4,0.4-0.4l0,0c0.2,0,0.4,0.2,0.4,0.4l0,0c0,0.2-0.2,0.4-0.4,0.4l0,0C334.3,244.9,334.1,244.8,334.1,244.6z
	 M332.1,244.6c0-0.2,0.2-0.4,0.4-0.4l0,0c0.2,0,0.4,0.2,0.4,0.4l0,0c0,0.2-0.2,0.4-0.4,0.4l0,0C332.3,244.9,332.1,244.8,332.1,244.6
	z M330.1,244.6c0-0.2,0.2-0.4,0.4-0.4l0,0c0.2,0,0.4,0.2,0.4,0.4l0,0c0,0.2-0.2,0.4-0.4,0.4l0,0
	C330.3,244.9,330.1,244.8,330.1,244.6z M395.6,243.5c-0.2-0.1-0.2-0.4,0-0.5l0,0c0.1-0.2,0.4-0.2,0.5,0l0,0c0.2,0.1,0.2,0.4,0,0.5
	l0,0c-0.1,0.1-0.2,0.1-0.3,0.1l0,0C395.8,243.6,395.7,243.6,395.6,243.5z M396.9,242c-0.2-0.1-0.2-0.4,0-0.5l0,0
	c0.1-0.2,0.4-0.2,0.5,0l0,0c0.1,0.1,0.2,0.4,0,0.5l0,0c-0.1,0.1-0.2,0.1-0.3,0.1l0,0C397.1,242.1,397,242.1,396.9,242z M398.2,240.5
	c-0.2-0.1-0.2-0.4,0-0.5l0,0c0.1-0.1,0.4-0.2,0.5,0l0,0c0.2,0.1,0.2,0.4,0,0.5l0,0c-0.1,0.1-0.2,0.1-0.3,0.1l0,0
	C398.4,240.6,398.3,240.6,398.2,240.5z M398.3,238.3c0-0.2,0.2-0.4,0.4-0.4l0,0c0.2,0,0.4,0.2,0.4,0.4l0,0c0,0.2-0.2,0.4-0.4,0.4
	l0,0C398.4,238.7,398.3,238.5,398.3,238.3z M398.3,236.3c0-0.2,0.2-0.4,0.4-0.4l0,0c0.2,0,0.4,0.2,0.4,0.4l0,0
	c0,0.2-0.2,0.4-0.4,0.4l0,0C398.4,236.7,398.3,236.5,398.3,236.3z M398.3,234.3c0-0.2,0.2-0.4,0.4-0.4l0,0c0.2,0,0.4,0.2,0.4,0.4
	l0,0c0,0.2-0.2,0.4-0.4,0.4l0,0C398.4,234.7,398.3,234.5,398.3,234.3z M398.3,232.3c0-0.2,0.2-0.4,0.4-0.4l0,0
	c0.2,0,0.4,0.2,0.4,0.4l0,0c0,0.2-0.2,0.4-0.4,0.4l0,0C398.4,232.6,398.3,232.5,398.3,232.3z M398.3,230.3c0-0.2,0.2-0.4,0.4-0.4
	l0,0c0.2,0,0.4,0.2,0.4,0.4l0,0c0,0.2-0.2,0.4-0.4,0.4l0,0C398.4,230.6,398.3,230.5,398.3,230.3z M398.3,228.3
	c0-0.2,0.2-0.4,0.4-0.4l0,0c0.2,0,0.4,0.2,0.4,0.4l0,0c0,0.2-0.2,0.4-0.4,0.4l0,0C398.4,228.6,398.3,228.5,398.3,228.3z
	 M398.3,226.3c0-0.2,0.2-0.4,0.4-0.4l0,0c0.2,0,0.4,0.2,0.4,0.4l0,0c0,0.2-0.2,0.4-0.4,0.4l0,0C398.4,226.7,398.3,226.5,398.3,226.3
	z M398.3,224.3c0-0.2,0.2-0.4,0.4-0.4l0,0c0.2,0,0.4,0.2,0.4,0.4l0,0c0,0.2-0.2,0.4-0.4,0.4l0,0
	C398.4,224.7,398.3,224.5,398.3,224.3z M398.3,222.3c0-0.2,0.2-0.4,0.4-0.4l0,0c0.2,0,0.4,0.2,0.4,0.4l0,0c0,0.2-0.2,0.4-0.4,0.4
	l0,0C398.4,222.7,398.3,222.5,398.3,222.3z M398.3,220.3c0-0.2,0.2-0.4,0.4-0.4l0,0c0.2,0,0.4,0.2,0.4,0.4l0,0
	c0,0.2-0.2,0.4-0.4,0.4l0,0C398.4,220.7,398.3,220.5,398.3,220.3z M398.3,218.3c0-0.2,0.2-0.4,0.4-0.4l0,0c0.2,0,0.4,0.2,0.4,0.4
	l0,0c0,0.2-0.2,0.4-0.4,0.4l0,0C398.4,218.7,398.3,218.5,398.3,218.3z"/>
<g>
	<g>
		<g>
			<path class="st7" d="M345.2,244.7C345.2,244.7,345.2,244.7,345.2,244.7l-9.1-5.2c0,0-0.1-0.1-0.1-0.1s0-0.1,0.1-0.1l9-5.2
				c0,0,0.1,0,0.2,0l9,5.2c0,0,0.1,0.1,0.1,0.1s0,0.1-0.1,0.1L345.2,244.7C345.3,244.7,345.2,244.7,345.2,244.7z M336.5,239.3l8.7,5
				l8.7-5l-8.7-5L336.5,239.3z"/>
		</g>
		<g>
			<path class="st7" d="M345.2,255.1C345.2,255.1,345.2,255.1,345.2,255.1l-9.1-5.2c0,0-0.1-0.1-0.1-0.1v-10.4c0-0.1,0-0.1,0.1-0.1
				c0,0,0.1,0,0.2,0l9,5.2c0,0,0.1,0.1,0.1,0.1V255C345.4,255,345.3,255.1,345.2,255.1C345.3,255.1,345.2,255.1,345.2,255.1z
				 M336.3,249.7l8.7,5v-10.1l-8.7-5V249.7z"/>
		</g>
		<g>
			<path class="st7" d="M345.2,255.1C345.2,255.1,345.2,255.1,345.2,255.1c-0.1,0-0.2-0.1-0.2-0.1v-10.4c0-0.1,0-0.1,0.1-0.1l9-5.2
				c0,0,0.1,0,0.2,0c0,0,0.1,0.1,0.1,0.1v10.4c0,0.1,0,0.1-0.1,0.1L345.2,255.1C345.3,255.1,345.2,255.1,345.2,255.1z M345.4,244.6
				v10.1l8.7-5v-10.1L345.4,244.6z"/>
		</g>
		<path class="st7" d="M345.2,255.2c0,0-0.1,0-0.1,0l-9-5.2c-0.1,0-0.1-0.1-0.1-0.2v-10.4c0-0.1,0-0.2,0.1-0.2l9-5.2
			c0.1,0,0.2,0,0.2,0l9,5.2c0.1,0,0.1,0.1,0.1,0.2v10.4c0,0.1,0,0.2-0.1,0.2l-9,5.2C345.3,255.2,345.3,255.2,345.2,255.2z
			 M336.4,249.6l8.8,5.1l8.8-5.1v-10.1l-8.8-5.1l-8.8,5.1V249.6z M354.3,249.8L354.3,249.8L354.3,249.8z"/>
	</g>
</g>
<g>
	<path class="st1" d="M301,250h-7.2c0.1,0.2,0.1,0.3,0.1,0.5h7.1c0.1,0,0.2-0.1,0.2-0.2S301.1,250,301,250z"/>
	<path class="st1" d="M300,251.5c-0.1,0-0.1,0-0.2-0.1c-0.1-0.1-0.1-0.3,0-0.4l1-0.8l-1-0.7c-0.1-0.1-0.1-0.2,0-0.4
		c0.1-0.1,0.2-0.1,0.4,0l1.2,0.9c0.1,0,0.1,0.1,0.1,0.2c0,0.1,0,0.2-0.1,0.2l-1.2,1C300.1,251.5,300,251.5,300,251.5z"/>
	<g>
		<path class="st1" d="M292.8,251.7c-0.8,0-1.4-0.6-1.4-1.4s0.6-1.4,1.4-1.4s1.4,0.6,1.4,1.4S293.5,251.7,292.8,251.7z M292.8,249.4
			c-0.5,0-0.9,0.4-0.9,0.9s0.4,0.9,0.9,0.9c0.5,0,0.9-0.4,0.9-0.9S293.3,249.4,292.8,249.4z"/>
	</g>
</g>
<g>
	<path class="st10" d="M404.2,227.9c-0.1,0-0.2-0.1-0.2-0.2v-7.1c0-0.1,0.1-0.2,0.2-0.2s0.2,0.1,0.2,0.2v7.1
		C404.5,227.8,404.4,227.9,404.2,227.9z"/>
	<path class="st10" d="M404.2,228.1c-0.1,0-0.1,0-0.2-0.1l-1-1.2c-0.1-0.1-0.1-0.3,0-0.4c0.1-0.1,0.3-0.1,0.4,0l0.8,1l0.7-1
		c0.1-0.1,0.2-0.1,0.4,0c0.1,0.1,0.1,0.2,0,0.4l-0.9,1.2C404.4,228.1,404.3,228.1,404.2,228.1C404.3,228.1,404.2,228.1,404.2,228.1z
		"/>
	<path class="st10" d="M404.2,220.9c-0.8,0-1.4-0.6-1.4-1.4s0.6-1.4,1.4-1.4s1.4,0.6,1.4,1.4S405,220.9,404.2,220.9z M404.2,218.6
		c-0.5,0-0.9,0.4-0.9,0.9s0.4,0.9,0.9,0.9c0.5,0,0.9-0.4,0.9-0.9S404.7,218.6,404.2,218.6z"/>
</g>
<linearGradient id="SVGID_2_" gradientUnits="userSpaceOnUse" x1="56.448" y1="194.4525" x2="110.0784" y2="194.4525">
	<stop  offset="0" style="stop-color:#6812D8"/>
	<stop  offset="1" style="stop-color:#E72061"/>
</linearGradient>
<path class="st11" d="M109.3,264.7c0-0.2,0.2-0.4,0.4-0.4l0,0c0.2,0,0.4,0.2,0.4,0.4l0,0c0,0.2-0.2,0.4-0.4,0.4l0,0
	C109.5,265,109.3,264.9,109.3,264.7z M107.3,264.7c0-0.2,0.2-0.4,0.4-0.4l0,0c0.2,0,0.4,0.2,0.4,0.4l0,0c0,0.2-0.2,0.4-0.4,0.4l0,0
	C107.5,265,107.3,264.9,107.3,264.7z M105.3,264.7c0-0.2,0.2-0.4,0.4-0.4l0,0c0.2,0,0.4,0.2,0.4,0.4l0,0c0,0.2-0.2,0.4-0.4,0.4l0,0
	C105.5,265,105.3,264.9,105.3,264.7z M103.3,264.7c0-0.2,0.2-0.4,0.4-0.4l0,0c0.2,0,0.4,0.2,0.4,0.4l0,0c0,0.2-0.2,0.4-0.4,0.4l0,0
	C103.5,265,103.3,264.9,103.3,264.7z M101.3,264.7c0-0.2,0.2-0.4,0.4-0.4l0,0c0.2,0,0.4,0.2,0.4,0.4l0,0c0,0.2-0.2,0.4-0.4,0.4l0,0
	C101.5,265,101.3,264.9,101.3,264.7z M99.3,264.7c0-0.2,0.2-0.4,0.4-0.4l0,0c0.2,0,0.4,0.2,0.4,0.4l0,0c0,0.2-0.2,0.4-0.4,0.4l0,0
	C99.5,265,99.3,264.9,99.3,264.7z M97.3,264.7c0-0.2,0.2-0.4,0.4-0.4l0,0c0.2,0,0.4,0.2,0.4,0.4l0,0c0,0.2-0.2,0.4-0.4,0.4l0,0
	C97.5,265,97.3,264.9,97.3,264.7z M95.3,264.7c0-0.2,0.2-0.4,0.4-0.4l0,0c0.2,0,0.4,0.2,0.4,0.4l0,0c0,0.2-0.2,0.4-0.4,0.4l0,0
	C95.5,265,95.3,264.9,95.3,264.7z M93.3,264.7c0-0.2,0.2-0.4,0.4-0.4l0,0c0.2,0,0.4,0.2,0.4,0.4l0,0c0,0.2-0.2,0.4-0.4,0.4l0,0
	C93.5,265,93.3,264.9,93.3,264.7z M91.3,264.7c0-0.2,0.2-0.4,0.4-0.4l0,0c0.2,0,0.4,0.2,0.4,0.4l0,0c0,0.2-0.2,0.4-0.4,0.4l0,0
	C91.5,265,91.3,264.9,91.3,264.7z M89.3,264.7c0-0.2,0.2-0.4,0.4-0.4l0,0c0.2,0,0.4,0.2,0.4,0.4l0,0c0,0.2-0.2,0.4-0.4,0.4l0,0
	C89.5,265,89.3,264.9,89.3,264.7z M87.3,264.7c0-0.2,0.2-0.4,0.4-0.4l0,0c0.2,0,0.4,0.2,0.4,0.4l0,0c0,0.2-0.2,0.4-0.4,0.4l0,0
	C87.5,265,87.3,264.9,87.3,264.7z M85.3,264.7c0-0.2,0.2-0.4,0.4-0.4l0,0c0.2,0,0.4,0.2,0.4,0.4l0,0c0,0.2-0.2,0.4-0.4,0.4l0,0
	C85.5,265,85.3,264.9,85.3,264.7z M83.3,264.7c0-0.2,0.2-0.4,0.4-0.4l0,0c0.2,0,0.4,0.2,0.4,0.4l0,0c0,0.2-0.2,0.4-0.4,0.4l0,0
	C83.5,265,83.3,264.9,83.3,264.7z M81.3,264.7c0-0.2,0.2-0.4,0.4-0.4l0,0c0.2,0,0.4,0.2,0.4,0.4l0,0c0,0.2-0.2,0.4-0.4,0.4l0,0
	C81.5,265,81.3,264.9,81.3,264.7z M79.3,264.7c0-0.2,0.2-0.4,0.4-0.4l0,0c0.2,0,0.4,0.2,0.4,0.4l0,0c0,0.2-0.2,0.4-0.4,0.4l0,0
	C79.5,265,79.3,264.9,79.3,264.7z M77.3,264.7c0-0.2,0.2-0.4,0.4-0.4l0,0c0.2,0,0.4,0.2,0.4,0.4l0,0c0,0.2-0.2,0.4-0.4,0.4l0,0
	C77.5,265,77.3,264.9,77.3,264.7z M75.3,264.7c0-0.2,0.2-0.4,0.4-0.4l0,0c0.2,0,0.4,0.2,0.4,0.4l0,0c0,0.2-0.2,0.4-0.4,0.4l0,0
	C75.5,265,75.3,264.9,75.3,264.7z M73.3,264.7c0-0.2,0.2-0.4,0.4-0.4l0,0c0.2,0,0.4,0.2,0.4,0.4l0,0c0,0.2-0.2,0.4-0.4,0.4l0,0
	C73.5,265,73.3,264.9,73.3,264.7z M71.6,264.7L71.6,264.7L71.6,264.7c-0.2-0.1-0.3-0.3-0.2-0.5l0,0c0.1-0.2,0.3-0.3,0.5-0.2l0,0
	c0.2,0.1,0.3,0.3,0.2,0.5l0,0c0,0.2-0.2,0.3-0.4,0.3l0,0C71.7,264.7,71.7,264.7,71.6,264.7z M69.7,263.7c-0.2-0.1-0.2-0.4-0.1-0.5
	l0,0c0.1-0.2,0.4-0.2,0.5-0.1l0,0c0.2,0.1,0.2,0.4,0.1,0.5l0,0c-0.1,0.1-0.2,0.1-0.3,0.1l0,0C69.9,263.8,69.8,263.8,69.7,263.7z
	 M68.3,262.3c-0.1-0.1-0.1-0.4,0-0.5l0,0c0.1-0.1,0.4-0.1,0.5,0l0,0c0.1,0.1,0.1,0.4,0,0.5l0,0c-0.1,0.1-0.2,0.1-0.3,0.1l0,0
	C68.4,262.4,68.3,262.4,68.3,262.3z M66.8,260.9c-0.1-0.1-0.1-0.4,0-0.5l0,0c0.1-0.1,0.4-0.1,0.5,0l0,0c0.2,0.1,0.2,0.4,0,0.5l0,0
	c-0.1,0.1-0.2,0.1-0.3,0.1l0,0C67,261,66.9,261,66.8,260.9z M65.4,259.5c-0.1-0.1-0.1-0.4,0-0.5l0,0c0.1-0.1,0.4-0.1,0.5,0l0,0
	c0.1,0.1,0.1,0.4,0,0.5l0,0c-0.1,0.1-0.2,0.1-0.3,0.1l0,0C65.6,259.6,65.5,259.6,65.4,259.5z M64,258.1c-0.1-0.1-0.1-0.4,0-0.5l0,0
	c0.1-0.2,0.4-0.2,0.5,0l0,0c0.1,0.1,0.1,0.4,0,0.5l0,0c-0.1,0.1-0.2,0.1-0.3,0.1l0,0C64.2,258.2,64.1,258.2,64,258.1z M62.6,256.7
	c-0.1-0.1-0.1-0.4,0-0.5l0,0c0.2-0.1,0.4-0.1,0.5,0l0,0c0.1,0.2,0.1,0.4,0,0.5l0,0c-0.1,0.1-0.2,0.1-0.3,0.1l0,0
	C62.8,256.8,62.7,256.7,62.6,256.7z M61.2,255.3c-0.1-0.1-0.1-0.4,0-0.5l0,0c0.2-0.2,0.4-0.2,0.5,0l0,0c0.1,0.1,0.1,0.4,0,0.5l0,0
	c-0.1,0.1-0.2,0.1-0.3,0.1l0,0C61.3,255.4,61.3,255.3,61.2,255.3z M59.8,253.8c-0.2-0.1-0.2-0.4,0-0.5l0,0c0.1-0.1,0.4-0.1,0.5,0
	l0,0c0.1,0.1,0.1,0.4,0,0.5l0,0c-0.1,0.1-0.2,0.1-0.3,0.1l0,0C59.9,254,59.8,253.9,59.8,253.8z M58.4,252.4c-0.1-0.1-0.1-0.4,0-0.5
	l0,0c0.1-0.1,0.4-0.1,0.5,0l0,0c0.1,0.1,0.1,0.4,0,0.5l0,0c-0.1,0.1-0.2,0.1-0.3,0.1l0,0C58.5,252.5,58.4,252.5,58.4,252.4z
	 M57.1,250.7L57.1,250.7L57.1,250.7c-0.1-0.2,0-0.4,0.2-0.5l0,0c0.2-0.1,0.4,0,0.5,0.2l0,0c0.1,0.2,0,0.4-0.2,0.5l0,0
	c0,0-0.1,0-0.2,0l0,0C57.3,251,57.1,250.9,57.1,250.7z M56.5,248.7c0-0.2,0.1-0.4,0.3-0.4l0,0c0.2,0,0.4,0.1,0.4,0.3l0,0
	c0,0.2-0.1,0.4-0.3,0.4l0,0c0,0,0,0,0,0l0,0C56.7,249,56.5,248.9,56.5,248.7z M56.4,246.7c0-0.2,0.2-0.4,0.4-0.4l0,0
	c0.2,0,0.4,0.2,0.4,0.4l0,0c0,0.2-0.2,0.4-0.4,0.4l0,0C56.6,247,56.4,246.9,56.4,246.7z M56.4,244.7c0-0.2,0.2-0.4,0.4-0.4l0,0
	c0.2,0,0.4,0.2,0.4,0.4l0,0c0,0.2-0.2,0.4-0.4,0.4l0,0C56.6,245,56.4,244.9,56.4,244.7z M56.4,242.7c0-0.2,0.2-0.4,0.4-0.4l0,0
	c0.2,0,0.4,0.2,0.4,0.4l0,0c0,0.2-0.2,0.4-0.4,0.4l0,0C56.6,243,56.4,242.9,56.4,242.7z M56.4,240.7c0-0.2,0.2-0.4,0.4-0.4l0,0
	c0.2,0,0.4,0.2,0.4,0.4l0,0c0,0.2-0.2,0.4-0.4,0.4l0,0C56.6,241,56.4,240.9,56.4,240.7z M56.4,238.7c0-0.2,0.2-0.4,0.4-0.4l0,0
	c0.2,0,0.4,0.2,0.4,0.4l0,0c0,0.2-0.2,0.4-0.4,0.4l0,0C56.6,239,56.4,238.9,56.4,238.7z M56.4,236.7c0-0.2,0.2-0.4,0.4-0.4l0,0
	c0.2,0,0.4,0.2,0.4,0.4l0,0c0,0.2-0.2,0.4-0.4,0.4l0,0C56.6,237,56.4,236.9,56.4,236.7z M56.4,234.7c0-0.2,0.2-0.4,0.4-0.4l0,0
	c0.2,0,0.4,0.2,0.4,0.4l0,0c0,0.2-0.2,0.4-0.4,0.4l0,0C56.6,235,56.4,234.9,56.4,234.7z M56.4,232.7c0-0.2,0.2-0.4,0.4-0.4l0,0
	c0.2,0,0.4,0.2,0.4,0.4l0,0c0,0.2-0.2,0.4-0.4,0.4l0,0C56.6,233,56.4,232.9,56.4,232.7z M56.4,230.7c0-0.2,0.2-0.4,0.4-0.4l0,0
	c0.2,0,0.4,0.2,0.4,0.4l0,0c0,0.2-0.2,0.4-0.4,0.4l0,0C56.6,231,56.4,230.9,56.4,230.7z M56.4,228.7c0-0.2,0.2-0.4,0.4-0.4l0,0
	c0.2,0,0.4,0.2,0.4,0.4l0,0c0,0.2-0.2,0.4-0.4,0.4l0,0C56.6,229,56.4,228.9,56.4,228.7z M56.4,226.7c0-0.2,0.2-0.4,0.4-0.4l0,0
	c0.2,0,0.4,0.2,0.4,0.4l0,0c0,0.2-0.2,0.4-0.4,0.4l0,0C56.6,227,56.4,226.9,56.4,226.7z M56.4,224.7c0-0.2,0.2-0.4,0.4-0.4l0,0
	c0.2,0,0.4,0.2,0.4,0.4l0,0c0,0.2-0.2,0.4-0.4,0.4l0,0C56.6,225,56.4,224.9,56.4,224.7z M56.4,222.7c0-0.2,0.2-0.4,0.4-0.4l0,0
	c0.2,0,0.4,0.2,0.4,0.4l0,0c0,0.2-0.2,0.4-0.4,0.4l0,0C56.6,223,56.4,222.9,56.4,222.7z M56.4,220.7c0-0.2,0.2-0.4,0.4-0.4l0,0
	c0.2,0,0.4,0.2,0.4,0.4l0,0c0,0.2-0.2,0.4-0.4,0.4l0,0C56.6,221,56.4,220.9,56.4,220.7z M56.4,218.7c0-0.2,0.2-0.4,0.4-0.4l0,0
	c0.2,0,0.4,0.2,0.4,0.4l0,0c0,0.2-0.2,0.4-0.4,0.4l0,0C56.6,219,56.4,218.9,56.4,218.7z M56.4,216.7c0-0.2,0.2-0.4,0.4-0.4l0,0
	c0.2,0,0.4,0.2,0.4,0.4l0,0c0,0.2-0.2,0.4-0.4,0.4l0,0C56.6,217,56.4,216.9,56.4,216.7z M56.4,214.7c0-0.2,0.2-0.4,0.4-0.4l0,0
	c0.2,0,0.4,0.2,0.4,0.4l0,0c0,0.2-0.2,0.4-0.4,0.4l0,0C56.6,215,56.4,214.9,56.4,214.7z M56.4,212.7c0-0.2,0.2-0.4,0.4-0.4l0,0
	c0.2,0,0.4,0.2,0.4,0.4l0,0c0,0.2-0.2,0.4-0.4,0.4l0,0C56.6,213,56.4,212.9,56.4,212.7z M56.4,210.7c0-0.2,0.2-0.4,0.4-0.4l0,0
	c0.2,0,0.4,0.2,0.4,0.4l0,0c0,0.2-0.2,0.4-0.4,0.4l0,0C56.6,211,56.4,210.9,56.4,210.7z M56.4,208.7c0-0.2,0.2-0.4,0.4-0.4l0,0
	c0.2,0,0.4,0.2,0.4,0.4l0,0c0,0.2-0.2,0.4-0.4,0.4l0,0C56.6,209,56.4,208.9,56.4,208.7z M56.4,206.7c0-0.2,0.2-0.4,0.4-0.4l0,0
	c0.2,0,0.4,0.2,0.4,0.4l0,0c0,0.2-0.2,0.4-0.4,0.4l0,0C56.6,207,56.4,206.9,56.4,206.7z M56.4,204.7c0-0.2,0.2-0.4,0.4-0.4l0,0
	c0.2,0,0.4,0.2,0.4,0.4l0,0c0,0.2-0.2,0.4-0.4,0.4l0,0C56.6,205,56.4,204.9,56.4,204.7z M56.4,180.7c0-0.2,0.2-0.4,0.4-0.4l0,0
	c0.2,0,0.4,0.2,0.4,0.4l0,0c0,0.2-0.2,0.4-0.4,0.4l0,0C56.6,181,56.4,180.9,56.4,180.7z M56.4,178.7c0-0.2,0.2-0.4,0.4-0.4l0,0
	c0.2,0,0.4,0.2,0.4,0.4l0,0c0,0.2-0.2,0.4-0.4,0.4l0,0C56.6,179,56.4,178.9,56.4,178.7z M56.4,176.7c0-0.2,0.2-0.4,0.4-0.4l0,0
	c0.2,0,0.4,0.2,0.4,0.4l0,0c0,0.2-0.2,0.4-0.4,0.4l0,0C56.6,177,56.4,176.9,56.4,176.7z M56.4,174.7c0-0.2,0.2-0.4,0.4-0.4l0,0
	c0.2,0,0.4,0.2,0.4,0.4l0,0c0,0.2-0.2,0.4-0.4,0.4l0,0C56.6,175,56.4,174.9,56.4,174.7z M56.4,172.7c0-0.2,0.2-0.4,0.4-0.4l0,0
	c0.2,0,0.4,0.2,0.4,0.4l0,0c0,0.2-0.2,0.4-0.4,0.4l0,0C56.6,173,56.4,172.9,56.4,172.7z M56.4,170.7c0-0.2,0.2-0.4,0.4-0.4l0,0
	c0.2,0,0.4,0.2,0.4,0.4l0,0c0,0.2-0.2,0.4-0.4,0.4l0,0C56.6,171,56.4,170.9,56.4,170.7z M56.4,168.7c0-0.2,0.2-0.4,0.4-0.4l0,0
	c0.2,0,0.4,0.2,0.4,0.4l0,0c0,0.2-0.2,0.4-0.4,0.4l0,0C56.6,169,56.4,168.9,56.4,168.7z M56.4,166.7c0-0.2,0.2-0.4,0.4-0.4l0,0
	c0.2,0,0.4,0.2,0.4,0.4l0,0c0,0.2-0.2,0.4-0.4,0.4l0,0C56.6,167,56.4,166.9,56.4,166.7z M56.4,164.7c0-0.2,0.2-0.4,0.4-0.4l0,0
	c0.2,0,0.4,0.2,0.4,0.4l0,0c0,0.2-0.2,0.4-0.4,0.4l0,0C56.6,165,56.4,164.9,56.4,164.7z M56.4,162.7c0-0.2,0.2-0.4,0.4-0.4l0,0
	c0.2,0,0.4,0.2,0.4,0.4l0,0c0,0.2-0.2,0.4-0.4,0.4l0,0C56.6,163,56.4,162.9,56.4,162.7z M56.4,160.7c0-0.2,0.2-0.4,0.4-0.4l0,0
	c0.2,0,0.4,0.2,0.4,0.4l0,0c0,0.2-0.2,0.4-0.4,0.4l0,0C56.6,161,56.4,160.9,56.4,160.7z M56.4,158.7c0-0.2,0.2-0.4,0.4-0.4l0,0
	c0.2,0,0.4,0.2,0.4,0.4l0,0c0,0.2-0.2,0.4-0.4,0.4l0,0C56.6,159,56.4,158.9,56.4,158.7z M56.4,156.7c0-0.2,0.2-0.4,0.4-0.4l0,0
	c0.2,0,0.4,0.2,0.4,0.4l0,0c0,0.2-0.2,0.4-0.4,0.4l0,0C56.6,157,56.4,156.9,56.4,156.7z M56.4,154.7c0-0.2,0.2-0.4,0.4-0.4l0,0
	c0.2,0,0.4,0.2,0.4,0.4l0,0c0,0.2-0.2,0.4-0.4,0.4l0,0C56.6,155,56.4,154.9,56.4,154.7z M56.4,152.7c0-0.2,0.2-0.4,0.4-0.4l0,0
	c0.2,0,0.4,0.2,0.4,0.4l0,0c0,0.2-0.2,0.4-0.4,0.4l0,0C56.6,153,56.4,152.9,56.4,152.7z M56.4,150.7c0-0.2,0.2-0.4,0.4-0.4l0,0
	c0.2,0,0.4,0.2,0.4,0.4l0,0c0,0.2-0.2,0.4-0.4,0.4l0,0C56.6,151,56.4,150.9,56.4,150.7z M56.4,148.7c0-0.2,0.2-0.4,0.4-0.4l0,0
	c0.2,0,0.4,0.2,0.4,0.4l0,0c0,0.2-0.2,0.4-0.4,0.4l0,0C56.6,149,56.4,148.9,56.4,148.7z M56.4,146.7c0-0.2,0.2-0.4,0.4-0.4l0,0
	c0.2,0,0.4,0.2,0.4,0.4l0,0c0,0.2-0.2,0.4-0.4,0.4l0,0C56.6,147,56.4,146.9,56.4,146.7z M56.4,144.7c0-0.2,0.2-0.4,0.4-0.4l0,0
	c0.2,0,0.4,0.2,0.4,0.4l0,0c0,0.2-0.2,0.4-0.4,0.4l0,0C56.6,145,56.4,144.9,56.4,144.7z M56.4,142.7c0-0.2,0.2-0.4,0.4-0.4l0,0
	c0.2,0,0.4,0.2,0.4,0.4l0,0c0,0.2-0.2,0.4-0.4,0.4l0,0C56.6,143,56.4,142.9,56.4,142.7z M56.4,140.7c0-0.2,0.2-0.4,0.4-0.4l0,0
	c0.2,0,0.4,0.2,0.4,0.4l0,0c0,0.2-0.2,0.4-0.4,0.4l0,0C56.6,141,56.4,140.9,56.4,140.7z M56.4,138.7c0-0.2,0.2-0.4,0.4-0.4l0,0
	c0.2,0,0.4,0.2,0.4,0.4l0,0c0,0.2-0.2,0.4-0.4,0.4l0,0C56.6,139,56.4,138.9,56.4,138.7z M56.9,137c-0.2,0-0.3-0.2-0.3-0.5l0,0
	c0-0.2,0.2-0.3,0.4-0.3l0,0c0.2,0.1,0.3,0.3,0.3,0.5l0,0c0,0.2-0.2,0.3-0.4,0.3l0,0C57,137.1,56.9,137.1,56.9,137z M57.6,135.2
	c-0.2-0.1-0.2-0.4-0.1-0.5l0,0c0.1-0.2,0.3-0.2,0.5-0.1l0,0c0.2,0.1,0.2,0.4,0.1,0.5l0,0c-0.1,0.1-0.2,0.2-0.3,0.2l0,0
	C57.8,135.3,57.7,135.2,57.6,135.2z M58.9,133.7c-0.1-0.1-0.1-0.4,0-0.5l0,0c0.2-0.1,0.4-0.1,0.5,0l0,0c0.1,0.1,0.1,0.4,0,0.5l0,0
	c-0.1,0.1-0.2,0.1-0.3,0.1l0,0C59.1,133.8,59,133.8,58.9,133.7z M60.3,132.3c-0.1-0.2-0.1-0.4,0-0.5l0,0c0.1-0.1,0.4-0.1,0.5,0l0,0
	c0.1,0.1,0.1,0.4,0,0.5l0,0c-0.1,0.1-0.2,0.1-0.3,0.1l0,0C60.5,132.4,60.4,132.3,60.3,132.3z M61.8,130.8c-0.1-0.1-0.1-0.4,0-0.5
	l0,0c0.1-0.1,0.4-0.1,0.5,0l0,0c0.1,0.1,0.1,0.4,0,0.5l0,0c-0.1,0.1-0.2,0.1-0.3,0.1l0,0C61.9,131,61.8,130.9,61.8,130.8z
	 M63.2,129.4c-0.1-0.1-0.1-0.4,0-0.5l0,0c0.1-0.1,0.4-0.1,0.5,0l0,0c0.1,0.2,0.1,0.4,0,0.5l0,0c-0.1,0.1-0.2,0.1-0.3,0.1l0,0
	C63.3,129.5,63.2,129.5,63.2,129.4z M64.6,128c-0.1-0.1-0.1-0.4,0-0.5l0,0c0.1-0.2,0.4-0.2,0.5,0l0,0c0.2,0.1,0.2,0.4,0,0.5l0,0
	c-0.1,0.1-0.2,0.1-0.3,0.1l0,0C64.8,128.1,64.7,128.1,64.6,128z M66,126.6c-0.1-0.1-0.1-0.4,0-0.5l0,0c0.1-0.1,0.4-0.1,0.5,0l0,0
	c0.1,0.2,0.1,0.4,0,0.5l0,0c-0.1,0.1-0.2,0.1-0.3,0.1l0,0C66.2,126.7,66.1,126.7,66,126.6z M67.5,125.2c-0.1-0.2,0-0.4,0.1-0.5l0,0
	c0.2-0.1,0.4,0,0.5,0.1l0,0c0.1,0.2,0,0.4-0.1,0.5l0,0c-0.1,0-0.1,0-0.2,0l0,0C67.7,125.4,67.5,125.4,67.5,125.2z M69.3,124.4
	c0-0.2,0.1-0.4,0.3-0.4l0,0c0.2,0,0.4,0.1,0.4,0.3l0,0c0.1,0.2-0.1,0.4-0.3,0.4l0,0c0,0,0,0-0.1,0l0,0
	C69.5,124.7,69.3,124.6,69.3,124.4z M75.3,124.2c0-0.2,0.2-0.4,0.4-0.4l0,0c0.2,0,0.4,0.2,0.4,0.4l0,0c0,0.2-0.2,0.4-0.4,0.4l0,0
	C75.4,124.6,75.3,124.4,75.3,124.2z M73.3,124.2c0-0.2,0.2-0.4,0.4-0.4l0,0c0.2,0,0.4,0.2,0.4,0.4l0,0c0,0.2-0.2,0.4-0.4,0.4l0,0
	C73.4,124.6,73.3,124.4,73.3,124.2z M71.3,124.2c0-0.2,0.2-0.4,0.4-0.4l0,0c0.2,0,0.4,0.2,0.4,0.4l0,0c0,0.2-0.2,0.4-0.4,0.4l0,0
	C71.4,124.6,71.3,124.4,71.3,124.2z"/>
<g>
	<g>
		<g>
			<path class="st1" d="M56.8,193.2C56.8,193.2,56.8,193.2,56.8,193.2l-9.1-5.2c0,0-0.1-0.1-0.1-0.1s0-0.1,0.1-0.1l9-5.2
				c0,0,0.1,0,0.2,0l9,5.2c0,0,0.1,0.1,0.1,0.1s0,0.1-0.1,0.1L56.8,193.2C56.9,193.2,56.9,193.2,56.8,193.2z M48.1,187.8l8.7,5
				l8.7-5l-8.7-5L48.1,187.8z"/>
		</g>
		<g>
			<path class="st1" d="M56.8,203.6C56.8,203.6,56.8,203.6,56.8,203.6l-9.1-5.2c0,0-0.1-0.1-0.1-0.1v-10.4c0-0.1,0-0.1,0.1-0.1
				c0,0,0.1,0,0.2,0l9,5.2c0,0,0.1,0.1,0.1,0.1v10.4C57,203.5,56.9,203.6,56.8,203.6C56.9,203.6,56.9,203.6,56.8,203.6z M47.9,198.2
				l8.7,5v-10.1l-8.7-5V198.2z"/>
		</g>
		<g>
			<path class="st1" d="M56.8,203.6C56.8,203.6,56.8,203.6,56.8,203.6c-0.1,0-0.1-0.1-0.1-0.1v-10.4c0-0.1,0-0.1,0.1-0.1l9-5.2
				c0,0,0.1,0,0.2,0c0,0,0.1,0.1,0.1,0.1v10.4c0,0.1,0,0.1-0.1,0.1L56.8,203.6C56.9,203.6,56.9,203.6,56.8,203.6z M57,193.1v10.1
				l8.7-5v-10.1L57,193.1z"/>
		</g>
		<path class="st1" d="M56.8,203.7c0,0-0.1,0-0.1,0l-9-5.2c-0.1,0-0.1-0.1-0.1-0.2v-10.4c0-0.1,0-0.2,0.1-0.2l9-5.2
			c0.1,0,0.2,0,0.2,0l9,5.2c0.1,0,0.1,0.1,0.1,0.2v10.4c0,0.1,0,0.2-0.1,0.2l-9,5.2C56.9,203.7,56.9,203.7,56.8,203.7z M48,198.1
			l8.8,5.1l8.8-5.1V188l-8.8-5.1L48,188V198.1z M65.9,198.3L65.9,198.3L65.9,198.3z"/>
	</g>
</g>
<g>
	<path class="st10" d="M108.3,256.7h-7.1c-0.1,0-0.2-0.1-0.2-0.2s0.1-0.2,0.2-0.2h7.1c0.1,0,0.2,0.1,0.2,0.2
		S108.4,256.7,108.3,256.7z"/>
	<path class="st10" d="M102.3,257.6c-0.1,0-0.1,0-0.2-0.1l-1.2-0.9c-0.1,0-0.1-0.1-0.1-0.2c0-0.1,0-0.2,0.1-0.2l1.2-1
		c0.1-0.1,0.3-0.1,0.4,0c0.1,0.1,0.1,0.3,0,0.4l-1,0.8l1,0.7c0.1,0.1,0.1,0.2,0,0.4C102.4,257.6,102.3,257.6,102.3,257.6z"/>
	<path class="st10" d="M109.5,257.8c-0.8,0-1.4-0.6-1.4-1.4c0-0.8,0.6-1.4,1.4-1.4s1.4,0.6,1.4,1.4
		C110.9,257.2,110.2,257.8,109.5,257.8z M109.5,255.5c-0.5,0-0.9,0.4-0.9,0.9c0,0.5,0.4,0.9,0.9,0.9s0.9-0.4,0.9-0.9
		C110.4,255.9,110,255.5,109.5,255.5z"/>
</g>
<g>
	<path class="st1" d="M72.9,118.3h-7.2c-0.1,0-0.2,0.1-0.2,0.2s0.1,0.2,0.2,0.2h7.2C72.8,118.7,72.8,118.5,72.9,118.3z"/>
	<path class="st1" d="M66.7,119.8c-0.1,0-0.1,0-0.2-0.1l-1.2-0.9c-0.1,0-0.1-0.1-0.1-0.2c0-0.1,0-0.2,0.1-0.2l1.2-1
		c0.1-0.1,0.3-0.1,0.4,0c0.1,0.1,0.1,0.3,0,0.4l-1,0.8l1,0.7c0.1,0.1,0.1,0.2,0,0.4C66.9,119.8,66.8,119.8,66.7,119.8z"/>
	<g>
		<path class="st1" d="M73.9,120c-0.8,0-1.4-0.6-1.4-1.4s0.6-1.4,1.4-1.4c0.8,0,1.4,0.6,1.4,1.4S74.7,120,73.9,120z M73.9,117.7
			c-0.5,0-0.9,0.4-0.9,0.9s0.4,0.9,0.9,0.9s0.9-0.4,0.9-0.9S74.4,117.7,73.9,117.7z"/>
	</g>
</g>
<linearGradient id="SVGID_3_" gradientUnits="userSpaceOnUse" x1="291.9285" y1="131.7628" x2="238.3782" y2="131.7628">
	<stop  offset="0" style="stop-color:#E72061"/>
	<stop  offset="1" style="stop-color:#6812D8"/>
</linearGradient>
<path class="st12" d="M291.2,149.4c0-0.2,0.2-0.4,0.4-0.4l0,0c0.2,0,0.4,0.2,0.4,0.4l0,0c0,0.2-0.2,0.4-0.4,0.4l0,0
	C291.3,149.8,291.2,149.6,291.2,149.4z M289.2,149.4c0-0.2,0.2-0.4,0.4-0.4l0,0c0.2,0,0.4,0.2,0.4,0.4l0,0c0,0.2-0.2,0.4-0.4,0.4
	l0,0C289.3,149.8,289.2,149.6,289.2,149.4z M268.5,149.5c-0.2-0.1-0.3-0.2-0.3-0.5l0,0c0-0.2,0.3-0.3,0.5-0.3l0,0
	c0.2,0,0.3,0.2,0.3,0.5l0,0c-0.1,0.2-0.2,0.3-0.4,0.3l0,0C268.5,149.6,268.5,149.5,268.5,149.5z M266.5,148.7
	c-0.2-0.1-0.2-0.4-0.1-0.5l0,0c0.1-0.2,0.3-0.2,0.5-0.1l0,0l0,0l0,0c0.2,0.1,0.2,0.3,0.1,0.5l0,0c-0.1,0.1-0.2,0.2-0.3,0.2l0,0
	C266.7,148.8,266.6,148.7,266.5,148.7z M265,147.3c-0.1-0.2-0.1-0.4,0.1-0.5l0,0c0.2-0.1,0.4-0.1,0.5,0.1l0,0
	c0.1,0.2,0.1,0.4-0.1,0.5l0,0c-0.1,0.1-0.2,0.1-0.2,0.1l0,0C265.2,147.4,265,147.4,265,147.3z M264,145.4c-0.1-0.2,0-0.4,0.2-0.5
	l0,0c0.2-0.1,0.4,0,0.5,0.2l0,0l0,0l0,0c0.1,0.2,0,0.4-0.2,0.5l0,0c0,0-0.1,0-0.1,0l0,0C264.1,145.7,264,145.6,264,145.4z
	 M263.6,143.3c0-0.2,0.2-0.4,0.4-0.4l0,0c0.2,0,0.4,0.2,0.4,0.4l0,0c0,0.2-0.2,0.4-0.4,0.4l0,0C263.8,143.7,263.6,143.5,263.6,143.3
	z M263.6,141.3c0-0.2,0.2-0.4,0.4-0.4l0,0c0.2,0,0.4,0.2,0.4,0.4l0,0c0,0.2-0.2,0.4-0.4,0.4l0,0
	C263.8,141.7,263.6,141.5,263.6,141.3z M263.6,139.3c0-0.2,0.2-0.4,0.4-0.4l0,0c0.2,0,0.4,0.2,0.4,0.4l0,0c0,0.2-0.2,0.4-0.4,0.4
	l0,0C263.8,139.7,263.6,139.5,263.6,139.3z M263.6,137.3c0-0.2,0.2-0.4,0.4-0.4l0,0c0.2,0,0.4,0.2,0.4,0.4l0,0
	c0,0.2-0.2,0.4-0.4,0.4l0,0C263.8,137.7,263.6,137.5,263.6,137.3z M263.6,135.3c0-0.2,0.2-0.4,0.4-0.4l0,0c0.2,0,0.4,0.2,0.4,0.4
	l0,0c0,0.2-0.2,0.4-0.4,0.4l0,0C263.8,135.7,263.6,135.5,263.6,135.3z M263.6,133.3c0-0.2,0.2-0.4,0.4-0.4l0,0
	c0.2,0,0.4,0.2,0.4,0.4l0,0c0,0.2-0.2,0.4-0.4,0.4l0,0C263.8,133.7,263.6,133.5,263.6,133.3z M263.6,131.3c0-0.2,0.2-0.4,0.4-0.4
	l0,0c0.2,0,0.4,0.2,0.4,0.4l0,0c0,0.2-0.2,0.4-0.4,0.4l0,0C263.8,131.7,263.6,131.5,263.6,131.3z M263.6,129.3
	c0-0.2,0.2-0.4,0.4-0.4l0,0c0.2,0,0.4,0.2,0.4,0.4l0,0c0,0.2-0.2,0.4-0.4,0.4l0,0C263.8,129.7,263.6,129.5,263.6,129.3z
	 M263.6,127.3c0-0.2,0.2-0.4,0.4-0.4l0,0c0.2,0,0.4,0.2,0.4,0.4l0,0c0,0.2-0.2,0.4-0.4,0.4l0,0C263.8,127.7,263.6,127.5,263.6,127.3
	z M263.6,125.3c0-0.2,0.2-0.4,0.4-0.4l0,0c0.2,0,0.4,0.2,0.4,0.4l0,0c0,0.2-0.2,0.4-0.4,0.4l0,0
	C263.8,125.7,263.6,125.5,263.6,125.3z M263.6,123.3c0-0.2,0.2-0.4,0.4-0.4l0,0c0.2,0,0.4,0.2,0.4,0.4l0,0c0,0.2-0.2,0.4-0.4,0.4
	l0,0C263.8,123.7,263.6,123.5,263.6,123.3z M263.6,121.3c0-0.2,0.2-0.4,0.4-0.4l0,0c0.2,0,0.4,0.2,0.4,0.4l0,0
	c0,0.2-0.2,0.4-0.4,0.4l0,0C263.8,121.7,263.6,121.5,263.6,121.3z M263.6,119.4c0-0.2,0.1-0.4,0.3-0.4l0,0c0.2,0,0.4,0.1,0.4,0.4
	l0,0c0,0.2-0.1,0.4-0.3,0.4l0,0c0,0,0,0,0,0l0,0C263.8,119.7,263.6,119.6,263.6,119.4z M263.1,117.6c-0.1-0.2,0-0.4,0.2-0.5l0,0
	c0.2-0.1,0.4,0,0.5,0.2l0,0l0,0l0,0c0.1,0.2,0,0.4-0.2,0.5l0,0c-0.1,0-0.1,0-0.2,0l0,0C263.3,117.8,263.2,117.7,263.1,117.6z
	 M262.1,116.1L262.1,116.1c-0.2-0.1-0.2-0.4,0-0.5l0,0c0.1-0.1,0.4-0.2,0.5,0l0,0c0.1,0.1,0.1,0.4,0,0.5l0,0
	c-0.1,0.1-0.2,0.1-0.3,0.1l0,0C262.2,116.2,262.1,116.1,262.1,116.1z M260.5,115c-0.2-0.1-0.3-0.3-0.2-0.5l0,0
	c0.1-0.2,0.3-0.3,0.5-0.2l0,0c0.2,0.1,0.3,0.3,0.2,0.5l0,0c-0.1,0.1-0.2,0.2-0.3,0.2l0,0C260.6,115.1,260.6,115,260.5,115z
	 M258.7,114.5c-0.2,0-0.4-0.2-0.3-0.4l0,0c0-0.2,0.2-0.4,0.4-0.3l0,0c0.2,0,0.3,0.2,0.3,0.4l0,0
	C259.1,114.4,258.9,114.5,258.7,114.5L258.7,114.5C258.7,114.5,258.7,114.5,258.7,114.5z M256.4,114.1c0-0.2,0.2-0.4,0.4-0.4l0,0
	c0.2,0,0.4,0.2,0.4,0.4l0,0c0,0.2-0.2,0.4-0.4,0.4l0,0C256.5,114.5,256.4,114.4,256.4,114.1z M254.4,114.1c0-0.2,0.2-0.4,0.4-0.4
	l0,0c0.2,0,0.4,0.2,0.4,0.4l0,0c0,0.2-0.2,0.4-0.4,0.4l0,0C254.5,114.5,254.4,114.4,254.4,114.1z M252.4,114.1
	c0-0.2,0.2-0.4,0.4-0.4l0,0c0.2,0,0.4,0.2,0.4,0.4l0,0c0,0.2-0.2,0.4-0.4,0.4l0,0C252.5,114.5,252.4,114.4,252.4,114.1z
	 M250.4,114.1c0-0.2,0.2-0.4,0.4-0.4l0,0c0.2,0,0.4,0.2,0.4,0.4l0,0c0,0.2-0.2,0.4-0.4,0.4l0,0C250.5,114.5,250.4,114.4,250.4,114.1
	z M248.4,114.1c0-0.2,0.2-0.4,0.4-0.4l0,0c0.2,0,0.4,0.2,0.4,0.4l0,0c0,0.2-0.2,0.4-0.4,0.4l0,0
	C248.5,114.5,248.4,114.4,248.4,114.1z M246.4,114.1c0-0.2,0.2-0.4,0.4-0.4l0,0c0.2,0,0.4,0.2,0.4,0.4l0,0c0,0.2-0.2,0.4-0.4,0.4
	l0,0C246.5,114.5,246.4,114.4,246.4,114.1z M244.4,114.1c0-0.2,0.2-0.4,0.4-0.4l0,0c0.2,0,0.4,0.2,0.4,0.4l0,0
	c0,0.2-0.2,0.4-0.4,0.4l0,0C244.5,114.5,244.4,114.4,244.4,114.1z M242.4,114.1c0-0.2,0.2-0.4,0.4-0.4l0,0c0.2,0,0.4,0.2,0.4,0.4
	l0,0c0,0.2-0.2,0.4-0.4,0.4l0,0C242.5,114.5,242.4,114.4,242.4,114.1z M240.4,114.1c0-0.2,0.2-0.4,0.4-0.4l0,0
	c0.2,0,0.4,0.2,0.4,0.4l0,0c0,0.2-0.2,0.4-0.4,0.4l0,0C240.5,114.5,240.4,114.4,240.4,114.1z M238.4,114.1c0-0.2,0.2-0.4,0.4-0.4
	l0,0c0.2,0,0.4,0.2,0.4,0.4l0,0c0,0.2-0.2,0.4-0.4,0.4l0,0C238.5,114.5,238.4,114.4,238.4,114.1z"/>
<g>
	<g>
		<g>
			<path class="st7" d="M278.9,148.9C278.9,148.9,278.8,148.9,278.9,148.9l-9.1-5.2c0,0-0.1-0.1-0.1-0.1s0-0.1,0.1-0.1l9-5.2
				c0,0,0.1,0,0.2,0l9,5.2c0,0,0.1,0.1,0.1,0.1s0,0.1-0.1,0.1L278.9,148.9C278.9,148.9,278.9,148.9,278.9,148.9z M270.2,143.5l8.7,5
				l8.7-5l-8.7-5L270.2,143.5z"/>
		</g>
		<g>
			<path class="st7" d="M278.9,159.3C278.9,159.3,278.8,159.3,278.9,159.3l-9.1-5.2c0,0-0.1-0.1-0.1-0.1v-10.4c0-0.1,0-0.1,0.1-0.1
				c0,0,0.1,0,0.2,0l9,5.2c0,0,0.1,0.1,0.1,0.1v10.4C279,159.2,279,159.3,278.9,159.3C278.9,159.3,278.9,159.3,278.9,159.3z
				 M270,153.9l8.7,5v-10.1l-8.7-5V153.9z"/>
		</g>
		<g>
			<path class="st7" d="M278.9,159.3C278.9,159.3,278.8,159.3,278.9,159.3c-0.1,0-0.1-0.1-0.1-0.1v-10.4c0-0.1,0-0.1,0.1-0.1l9-5.2
				c0,0,0.1,0,0.2,0c0,0,0.1,0.1,0.1,0.1V154c0,0.1,0,0.1-0.1,0.1L278.9,159.3C278.9,159.3,278.9,159.3,278.9,159.3z M279,148.8
				v10.1l8.7-5v-10.1L279,148.8z"/>
		</g>
		<path class="st7" d="M278.9,159.4c0,0-0.1,0-0.1,0l-9-5.2c-0.1,0-0.1-0.1-0.1-0.2v-10.4c0-0.1,0-0.2,0.1-0.2l9-5.2
			c0.1,0,0.2,0,0.2,0l9,5.2c0.1,0,0.1,0.1,0.1,0.2V154c0,0.1,0,0.2-0.1,0.2l-9,5.2C279,159.4,278.9,159.4,278.9,159.4z M270.1,153.8
			l8.8,5.1l8.8-5.1v-10.1l-8.8-5.1l-8.8,5.1V153.8z M287.9,154L287.9,154L287.9,154z"/>
	</g>
</g>
<g>
	<path class="st10" d="M281.4,131.5h-7.1c-0.1,0-0.2,0.1-0.2,0.2s0.1,0.2,0.2,0.2h7C281.3,131.8,281.3,131.7,281.4,131.5z"/>
	<path class="st10" d="M275.3,133c-0.1,0-0.1,0-0.2-0.1l-1.2-0.9c-0.1,0-0.1-0.1-0.1-0.2c0-0.1,0-0.2,0.1-0.2l1.2-1
		c0.1-0.1,0.3-0.1,0.4,0c0.1,0.1,0.1,0.3,0,0.4l-1,0.8l1,0.7c0.1,0.1,0.1,0.2,0,0.4C275.5,132.9,275.4,133,275.3,133z"/>
	<g>
		<path class="st10" d="M282.5,133.2c-0.8,0-1.4-0.6-1.4-1.4s0.6-1.4,1.4-1.4c0.8,0,1.4,0.6,1.4,1.4S283.3,133.2,282.5,133.2z
			 M282.5,130.9c-0.5,0-0.9,0.4-0.9,0.9s0.4,0.9,0.9,0.9s0.9-0.4,0.9-0.9S283,130.9,282.5,130.9z"/>
	</g>
</g>
<g>
	<path class="st1" d="M248.1,108.2h-7.2c0,0.2,0,0.3,0,0.5h7.2c0.1,0,0.2-0.1,0.2-0.2S248.3,108.2,248.1,108.2z"/>
	<path class="st1" d="M247.1,109.7c-0.1,0-0.1,0-0.2-0.1c-0.1-0.1-0.1-0.3,0-0.4l1-0.8l-1-0.7c-0.1-0.1-0.1-0.2,0-0.4
		c0.1-0.1,0.2-0.1,0.4,0l1.2,0.9c0.1,0,0.1,0.1,0.1,0.2c0,0.1,0,0.2-0.1,0.2l-1.2,1C247.2,109.6,247.2,109.7,247.1,109.7z"/>
	<g>
		<path class="st1" d="M239.9,109.8c-0.8,0-1.4-0.6-1.4-1.4s0.6-1.4,1.4-1.4s1.4,0.6,1.4,1.4S240.7,109.8,239.9,109.8z M239.9,107.5
			c-0.5,0-0.9,0.4-0.9,0.9s0.4,0.9,0.9,0.9s0.9-0.4,0.9-0.9S240.4,107.5,239.9,107.5z"/>
	</g>
</g>
</svg>
