<svg xmlns="http://www.w3.org/2000/svg" viewBox="0 0 120.83 82.27"><defs><style>.cls-1{fill:#6812d8;}</style></defs><title>icon10Paratii_</title><g id="Warstwa_2" data-name="Warstwa 2"><path class="cls-1" d="M26.93,33.61l-.49.09a8.64,8.64,0,0,0,.26,1l.48-.16A6.41,6.41,0,0,1,26.93,33.61Z"/><path class="cls-1" d="M27.17,29.78l-.48-.15a8.6,8.6,0,0,0-.25,1l.49.09A8.1,8.1,0,0,1,27.17,29.78Z"/><rect class="cls-1" x="27.21" y="35.53" width="0.5" height="1" transform="translate(-10.9 11.94) rotate(-20.56)"/><path class="cls-1" d="M30.8,25.43,30.56,25a7.94,7.94,0,0,0-.87.55l.29.4A8.63,8.63,0,0,1,30.8,25.43Z"/><path class="cls-1" d="M29.23,26.55l-.34-.36a8.39,8.39,0,0,0-.71.75l.39.32A6.31,6.31,0,0,1,29.23,26.55Z"/><path class="cls-1" d="M28,28l-.43-.27a7.84,7.84,0,0,0-.49.9l.45.22A6.36,6.36,0,0,1,28,28Z"/><rect class="cls-1" x="30.72" y="44.89" width="0.5" height="1" transform="translate(-13.97 13.77) rotate(-20.56)"/><polygon class="cls-1" points="32.62 24.68 32.44 24.21 31.5 24.56 31.72 25.01 32.62 24.68"/><rect class="cls-1" x="31.42" y="46.76" width="0.5" height="1" transform="translate(-14.58 14.13) rotate(-20.56)"/><rect class="cls-1" x="32.13" y="48.64" width="0.5" height="1" transform="translate(-15.19 14.5) rotate(-20.56)"/><rect class="cls-1" x="29.32" y="41.15" width="0.5" height="1" transform="translate(-12.74 13.03) rotate(-20.56)"/><rect class="cls-1" x="28.61" y="39.27" width="0.5" height="1" transform="translate(-12.13 12.67) rotate(-20.56)"/><rect class="cls-1" x="27.91" y="37.4" width="0.5" height="1" transform="translate(-11.51 12.3) rotate(-20.56)"/><rect class="cls-1" x="30.02" y="43.02" width="0.5" height="1" transform="translate(-13.35 13.4) rotate(-20.56)"/><path class="cls-1" d="M68.69,19.28c-.11-.28-.24-.57-.38-.85l-.44.23a8.08,8.08,0,0,1,.35.8Z"/><path class="cls-1" d="M62.75,14.2a9,9,0,0,0-1-.15l0,.5a6.35,6.35,0,0,1,1,.14Z"/><path class="cls-1" d="M64.7,14.88a7.1,7.1,0,0,0-1-.4l-.17.47a6.4,6.4,0,0,1,.89.37Z"/><rect class="cls-1" x="33.43" y="23.67" width="1" height="0.5" transform="translate(-6.24 13.44) rotate(-20.56)"/><rect class="cls-1" x="32.83" y="50.51" width="0.5" height="1" transform="translate(-15.8 14.86) rotate(-20.56)"/><path class="cls-1" d="M58.42,15l.4-.13-.14-.48-.43.14-.53.2.18.47Z"/><path class="cls-1" d="M67.78,17.54a8,8,0,0,0-.63-.81l-.38.34a6.26,6.26,0,0,1,.6.76Z"/><path class="cls-1" d="M66.41,16a9.79,9.79,0,0,0-.82-.62l-.28.42a6.2,6.2,0,0,1,.77.58Z"/><path class="cls-1" d="M60.73,14.53l0-.5a8.83,8.83,0,0,0-1,.11l.09.5A6,6,0,0,1,60.73,14.53Z"/><rect class="cls-1" x="55.91" y="15.24" width="1" height="0.5" transform="translate(-1.85 20.79) rotate(-20.56)"/><rect class="cls-1" x="50.29" y="17.35" width="1" height="0.5" transform="translate(-2.95 18.95) rotate(-20.56)"/><rect class="cls-1" x="35.31" y="22.97" width="1" height="0.5" transform="translate(-5.87 14.05) rotate(-20.56)"/><rect class="cls-1" x="37.18" y="22.26" width="1" height="0.5" transform="translate(-5.51 14.66) rotate(-20.56)"/><rect class="cls-1" x="52.16" y="16.65" width="1" height="0.5" transform="translate(-2.58 19.57) rotate(-20.56)"/><rect class="cls-1" x="54.03" y="15.95" width="1" height="0.5" transform="translate(-2.21 20.18) rotate(-20.56)"/><path class="cls-1" d="M26.79,32.16c0-.16,0-.32,0-.48l-.49,0a4.35,4.35,0,0,0,0,.51c0,.17,0,.35,0,.52l.5,0C26.8,32.48,26.79,32.32,26.79,32.16Z"/><rect class="cls-1" x="48.41" y="18.05" width="1" height="0.5" transform="translate(-3.31 18.34) rotate(-20.56)"/><rect class="cls-1" x="33.53" y="52.38" width="0.5" height="1" transform="translate(-16.42 15.23) rotate(-20.56)"/><rect class="cls-1" x="48.87" y="65.12" width="1" height="0.5" transform="translate(-19.81 21.5) rotate(-20.56)"/><rect class="cls-1" x="50.74" y="64.42" width="1" height="0.5" transform="translate(-19.44 22.11) rotate(-20.56)"/><path class="cls-1" d="M45.06,66.42l0,.49a6,6,0,0,0,1-.15L46,66.27A7.52,7.52,0,0,1,45.06,66.42Z"/><rect class="cls-1" x="46.54" y="18.75" width="1" height="0.5" transform="translate(-3.68 17.7) rotate(-20.52)"/><rect class="cls-1" x="54.49" y="63.01" width="1" height="0.5" transform="translate(-18.71 23.33) rotate(-20.56)"/><rect class="cls-1" x="60.1" y="60.91" width="1" height="0.5" transform="translate(-17.61 25.17) rotate(-20.56)"/><rect class="cls-1" x="61.98" y="60.2" width="1" height="0.5" transform="translate(-17.25 25.79) rotate(-20.56)"/><rect class="cls-1" x="58.23" y="61.61" width="1" height="0.5" transform="translate(-17.98 24.56) rotate(-20.56)"/><rect class="cls-1" x="52.61" y="63.71" width="1" height="0.5" transform="translate(-19.08 22.72) rotate(-20.56)"/><rect class="cls-1" x="56.36" y="62.31" width="1" height="0.5" transform="translate(-18.35 23.95) rotate(-20.56)"/><rect class="cls-1" x="44.67" y="19.46" width="1" height="0.5" transform="translate(-4.04 17.09) rotate(-20.52)"/><polygon class="cls-1" points="46.94 66.01 47.11 66.48 48.05 66.13 47.88 65.66 46.94 66.01"/><rect class="cls-1" x="36.34" y="59.87" width="0.5" height="1" transform="translate(-18.87 16.69) rotate(-20.56)"/><path class="cls-1" d="M43,66.82a8.77,8.77,0,0,0,1,.12l0-.5a7.62,7.62,0,0,1-1-.11Z"/><rect class="cls-1" x="35.64" y="58" width="0.5" height="1" transform="translate(-18.26 16.33) rotate(-20.56)"/><path class="cls-1" d="M37.89,63.67a8.34,8.34,0,0,0,.67.78l.36-.35a8.93,8.93,0,0,1-.63-.73Z"/><rect class="cls-1" x="34.23" y="54.25" width="0.5" height="1" transform="translate(-17.03 15.59) rotate(-20.56)"/><rect class="cls-1" x="34.93" y="56.13" width="0.5" height="1" transform="translate(-17.64 15.96) rotate(-20.56)"/><path class="cls-1" d="M36.89,61.87a6.57,6.57,0,0,0,.44.93l.44-.24a7.1,7.1,0,0,1-.42-.88Z"/><rect class="cls-1" x="39.05" y="21.56" width="1" height="0.5" transform="translate(-5.14 15.25) rotate(-20.52)"/><rect class="cls-1" x="42.8" y="20.16" width="1" height="0.5" transform="translate(-4.41 16.49) rotate(-20.54)"/><path class="cls-1" d="M41.07,66.22a8.72,8.72,0,0,0,1,.36l.15-.47a9,9,0,0,1-.91-.34Z"/><path class="cls-1" d="M39.32,65.15a8.41,8.41,0,0,0,.84.59l.26-.43a8.57,8.57,0,0,1-.79-.55Z"/><rect class="cls-1" x="40.92" y="20.86" width="1" height="0.5" transform="translate(-4.77 15.86) rotate(-20.52)"/><path class="cls-1" d="M53.72,37.54a3.42,3.42,0,0,0,1.7,4.53,3.47,3.47,0,0,0,1.41.3A3.36,3.36,0,0,0,58,42.15a3.42,3.42,0,1,0-4.32-4.61Zm2.09-1.32a2.81,2.81,0,0,1,1-.19,3,3,0,0,1,1.2.26,2.92,2.92,0,1,1-3.86,1.45A2.87,2.87,0,0,1,55.81,36.22Z"/><path class="cls-1" d="M99.71,44A12.28,12.28,0,0,0,87.44,31.71a12.15,12.15,0,0,0-6.75,2L76.24,21.87,74,22.71l-3.49-9.3a7,7,0,0,0-9-4.11L25.68,22.72a7,7,0,0,0-4.11,9L35,67.55a7,7,0,0,0,9,4.11L64.6,64a12.26,12.26,0,0,0,11.92,9.46,12.28,12.28,0,0,0,9.73-4.77,12.26,12.26,0,0,0,1.52-12.42A12.26,12.26,0,0,0,99.71,44ZM79.85,34.36a12.35,12.35,0,0,0-4.15,6.07L60.37,46.18a8,8,0,0,1-10.24-4.66l-.1-.26A8,8,0,0,1,54.69,31l21-7.86ZM43.68,70.73a6,6,0,0,1-7.75-3.53L22.51,31.41A6,6,0,0,1,26,23.66L61.82,10.24a6,6,0,0,1,7.76,3.52l3.48,9.3-18.73,7a9,9,0,0,0-5.24,11.52l.1.27a9,9,0,0,0,11.53,5.24l14.69-5.51a12.15,12.15,0,0,0,.81,7.27A10.53,10.53,0,0,0,75,49,12.24,12.24,0,0,0,64.4,59.47l-.61.22.18.47.36-.13a12.57,12.57,0,0,0,0,2.67c0,.09,0,.17,0,.25ZM85.45,68A11.26,11.26,0,1,1,75.11,50a11.88,11.88,0,0,1,1.45-.09A11.26,11.26,0,0,1,85.45,68Zm2-12.79h-.16A12,12,0,0,0,84,51.44a12.17,12.17,0,0,0-6.69-2.54A11,11,0,0,1,76.18,44,11.27,11.27,0,1,1,87.44,55.24Z"/><path class="cls-1" d="M92.47,39.66l-8.26,5a1.34,1.34,0,0,0-.59,1v4.42a.55.55,0,0,0,.26.52.42.42,0,0,0,.24.07.71.71,0,0,0,.35-.11l8.26-5a1.34,1.34,0,0,0,.59-1V40.14a.59.59,0,0,0-.27-.53A.56.56,0,0,0,92.47,39.66Zm.35,4.9a.86.86,0,0,1-.35.62l-8.26,5-.08,0a.41.41,0,0,1,0-.09V45.66a.83.83,0,0,1,.35-.62l8.26-5,.08,0a.41.41,0,0,1,0,.09Z"/><path class="cls-1" d="M84.08,41.77a.91.91,0,0,0,.42.11.86.86,0,0,0,.44-.12l2.59-1.55a.71.71,0,0,0,.39-.61.72.72,0,0,0-.41-.61L84.7,37.4a.74.74,0,0,0-.73,0,.72.72,0,0,0-.32.66v3A.85.85,0,0,0,84.08,41.77ZM84.15,38c0-.11,0-.2.07-.22l.06,0a.35.35,0,0,1,.17.06l2.82,1.59c.09,0,.15.12.15.17s-.06.12-.15.18l-2.58,1.55a.36.36,0,0,1-.54-.31Z"/><path class="cls-1" d="M83.16,60.8,73.6,59.67a1.33,1.33,0,0,0-1.12.47l-2.7,3.49a.6.6,0,0,0-.11.58.58.58,0,0,0,.49.33l9.56,1.13h.11a1.36,1.36,0,0,0,1-.47h0l2.7-3.5a.6.6,0,0,0,.11-.58A.59.59,0,0,0,83.16,60.8Zm0,.6-2.7,3.49h0a.87.87,0,0,1-.66.28L70.22,64l-.09,0h0a.28.28,0,0,1,.05-.08l2.7-3.5a.83.83,0,0,1,.66-.27L83.1,61.3a.17.17,0,0,1,.09,0A.59.59,0,0,1,83.14,61.4Z"/><path class="cls-1" d="M75.92,57.86l3,.35H79A.68.68,0,0,0,79.6,58a.7.7,0,0,0,0-.72l-1.25-3h0a.73.73,0,0,0-.55-.47.71.71,0,0,0-.66.32l-1.84,2.38a.84.84,0,0,0-.11.85A.85.85,0,0,0,75.92,57.86Zm-.18-1.07,1.84-2.38a.28.28,0,0,1,.18-.13h0s.11.08.16.18l1.25,3a.24.24,0,0,1,0,.23.28.28,0,0,1-.23,0l-3-.36a.34.34,0,0,1-.29-.21A.36.36,0,0,1,75.74,56.79Z"/></g></svg>