<svg xmlns="http://www.w3.org/2000/svg" viewBox="0 0 120.83 82.27"><defs><style>.cls-1{fill:#6812d8;}</style></defs><title>icon12Paratii_</title><g id="Warstwa_2" data-name="Warstwa 2"><path class="cls-1" d="M30.12,55a6.72,6.72,0,0,1-1.75-1.48,6.39,6.39,0,0,0-2.52-1.77,2.78,2.78,0,0,0-1.08-.22,2.4,2.4,0,0,0-1.75.75,1.8,1.8,0,0,0-.6-.1h-.1a2.42,2.42,0,0,0-.2-.33,1.74,1.74,0,0,0-1.39-.75,1.37,1.37,0,0,0-1.26.78h0a1.62,1.62,0,0,0-.5.21l-.46.15a7,7,0,0,1-1.11.31,2,2,0,0,0-1.49.78h-.08a1.61,1.61,0,0,0-1.09.52l-.06.06c-.22.22-.47.47-.71.76l-.05-.09a1.59,1.59,0,0,0-1.37-.84,1.65,1.65,0,0,0-.92.3,2.34,2.34,0,0,0-.53.46l-.15,0-.26,0h-.31a1,1,0,0,0-.74.34,1,1,0,0,0-.27.77v0a1.54,1.54,0,0,0,.2.89c.18.28.37.55.56.82l.37.54.26.39.37.54a1.31,1.31,0,0,0-1.2,1A1.65,1.65,0,0,0,9.13,62a2.75,2.75,0,0,0,2.56,1.9v0a2.63,2.63,0,0,0,1.65,2A2.22,2.22,0,0,0,12,67.53a2,2,0,0,1-.66,1,2,2,0,0,0-.58.91,4.09,4.09,0,0,0,.34,2.89,1.54,1.54,0,0,0,1.37.87,1.77,1.77,0,0,0,.95-.3,2.43,2.43,0,0,0,.58-.58.94.94,0,0,1,.09-.12l.22-.29.13-.17a3.73,3.73,0,0,0,2-2.78,1.44,1.44,0,0,0,.07-.23,8.15,8.15,0,0,1,.35-1,5,5,0,0,0,.5-2.89,7.22,7.22,0,0,0,.92-.17,3.63,3.63,0,0,1,.45-.1h.33l.17,0a3.53,3.53,0,0,0,.52,0,1.69,1.69,0,0,0,.56-.09.22.22,0,0,1,.11,0,2.4,2.4,0,0,1,.38.06,4.79,4.79,0,0,0,1.16.16,3.33,3.33,0,0,0,.56,0,1.54,1.54,0,0,0,1.16-.86,1.42,1.42,0,0,0,.12-.65,2.44,2.44,0,0,0,1.16-.8,1.93,1.93,0,0,0,1.81-1.65l.62,0a1.49,1.49,0,0,0,1.52-1.69c0-.1.08-.22.27-.41l.22.08h.06a2.39,2.39,0,0,0,.69.12,1.53,1.53,0,0,0,1.24-.63,1.76,1.76,0,0,0-.08-2.2A4.25,4.25,0,0,0,30.12,55Zm.46,2.69a.49.49,0,0,1-.4.2,2,2,0,0,1-.47-.09,2.56,2.56,0,0,0-.63-.2.44.44,0,0,0-.33.14,1.86,1.86,0,0,0-.86,1.47c0,.44-.17.56-.54.58l-1.45.09c0,.19-.06.4-.09.61-.12.72-.34.92-1.06,1a.68.68,0,0,0-.47.22,1.76,1.76,0,0,1-1.56.74l-.33,0,.26.46c.25.4.17.78-.29.86a1.5,1.5,0,0,1-.37,0,4.07,4.07,0,0,1-.92-.12,2.81,2.81,0,0,0-.62-.09,1.28,1.28,0,0,0-.46.08.71.71,0,0,1-.21,0c-.2,0-.42-.07-.62-.08l-.39,0-.18,0c-.45.07-.88.23-1.33.26-.67.05-.9.23-.93.9,0,0,0,.09,0,.13.37,1.34-.5,2.42-.79,3.61,0,.1-.08.19-.09.29a2.73,2.73,0,0,1-1.58,2.09,2.92,2.92,0,0,0-.58.67,2.4,2.4,0,0,1-.45.5.68.68,0,0,1-.37.12.48.48,0,0,1-.44-.3,3,3,0,0,1-.25-2.16.81.81,0,0,1,.26-.38,3.1,3.1,0,0,0,1-1.53,1.17,1.17,0,0,1,1-1,1.18,1.18,0,0,0,.91-1.24.48.48,0,0,0-.24-.3,6.28,6.28,0,0,0-.76-.29,1.6,1.6,0,0,1-1.16-1.31c-.15-.81-.21-.81-.91-.88a1.77,1.77,0,0,1-1.68-1.19c-.2-.61-.1-.85.49-1.06.22-.07.31-.16.27-.4s.08-.37.34-.37l.34,0c.68-.05.95-.41.67-1a11.57,11.57,0,0,0-.93-1.49c-.3-.45-.63-.88-.92-1.34-.06-.11,0-.28,0-.43h.4a.75.75,0,0,1,.28.11.54.54,0,0,0,.27.09c.15,0,.27-.11.38-.3a1.3,1.3,0,0,1,.46-.5.7.7,0,0,1,.35-.12.57.57,0,0,1,.48.33L14.11,57a3.14,3.14,0,0,1,1.32-2.41.56.56,0,0,1,.35-.22c.12,0,.2.13.28.4s.07.72.6,1a10,10,0,0,0,0-1.11c-.08-.78.09-.93.85-1a12.56,12.56,0,0,0,1.79-.51,3.78,3.78,0,0,1,.35-.17.89.89,0,0,0,.76-.55.34.34,0,0,1,.33-.22.7.7,0,0,1,.54.32,3.39,3.39,0,0,1,.29.53l.25.5a.91.91,0,0,1,.61-.27,1.08,1.08,0,0,1,.47.13.79.79,0,0,0,.32.08.54.54,0,0,0,.44-.28,1.34,1.34,0,0,1,1.12-.58,1.88,1.88,0,0,1,.68.14,5.46,5.46,0,0,1,2.12,1.49,7.73,7.73,0,0,0,2,1.7,3.63,3.63,0,0,1,.93.86A.74.74,0,0,1,30.58,57.66Z"/><path class="cls-1" d="M16.61,41.84a4.14,4.14,0,0,0,1.33-.23.39.39,0,0,1,0,.14,2.3,2.3,0,0,0,.16,1.89.93.93,0,0,1,.05.13c0,.2,0,.41,0,.62s0,.53,0,.79a1.77,1.77,0,0,0,1.38,1.69,6.2,6.2,0,0,0,1.26.13h.39a2.36,2.36,0,0,0,2.44-1.83L24,43.83a.55.55,0,0,1,.27-.41,1.8,1.8,0,0,1,.94-.3h.26a2.48,2.48,0,0,1,1.08.17,1.83,1.83,0,0,0,.79.17,1.92,1.92,0,0,0,1.16-.35c.65-.47.76-1.2.34-2.14q-.18-.4-.33-.78c-.09-.22-.18-.44-.28-.65l-.06-.16a3.39,3.39,0,0,0-.46-.84c-.19-.24-.18-.33-.17-.4a1.46,1.46,0,0,0-1.37-1.63h-.05l-.21,0a4,4,0,0,0-1.67-.62,2.44,2.44,0,0,0-1.6-2,2.47,2.47,0,0,0-1-.3c-1.11,0-1.26,1.09-1.33,1.61v0a1.91,1.91,0,0,0-1.29,1.23,1.83,1.83,0,0,0-.7.85h-.11a2.23,2.23,0,0,0-.92.17,2.22,2.22,0,0,1-.87.22,1.18,1.18,0,0,1-.77-.3A1.69,1.69,0,0,0,14.51,37a2,2,0,0,0-1.61.82,1.89,1.89,0,0,0,.37,2.44A5,5,0,0,0,16.61,41.84Zm-2.84-3.43a.94.94,0,0,1,.74-.37.7.7,0,0,1,.42.13,2.19,2.19,0,0,0,1.41.52,3.31,3.31,0,0,0,1.29-.3,1.17,1.17,0,0,1,.5-.08h.36a.6.6,0,0,0,.62-.4c.12-.3.2-.64.62-.69.06,0,.13-.18.15-.28a.91.91,0,0,1,.71-.78c.49-.11.62-.44.67-.86s.11-.72.3-.72a1.93,1.93,0,0,1,.63.22,1.41,1.41,0,0,1,1,1.51c-.1.39.14.56.53.57a3,3,0,0,1,1.66.51,1.57,1.57,0,0,0,.66.17c.31,0,.48.18.45.5a1.55,1.55,0,0,0,.39,1.14,3.41,3.41,0,0,1,.39.76c.2.47.39.95.6,1.42.13.31.31.68,0,.9a.91.91,0,0,1-.54.15.79.79,0,0,1-.32-.06,3.89,3.89,0,0,0-1.71-.29h-.1a2.78,2.78,0,0,0-1.48.46,1.61,1.61,0,0,0-.76,1.1c-.08.43-.17.87-.26,1.3-.14.64-.56,1-1.5,1h-.31a5.27,5.27,0,0,1-1.05-.11.76.76,0,0,1-.55-.75c0-.46,0-.94,0-1.4a1.37,1.37,0,0,0-.16-.52A1.24,1.24,0,0,1,19,42.07a1.56,1.56,0,0,0-.53-1.52.7.7,0,0,0-.33-.07.88.88,0,0,0-.29.05,3,3,0,0,1-1.21.27A3.93,3.93,0,0,1,14,39.5.85.85,0,0,1,13.77,38.41Z"/><path class="cls-1" d="M35.51,51.89a4.53,4.53,0,0,1-.26-.91,1.91,1.91,0,0,0-1.07-1.57l-.55-.29c-.3-.17-.6-.33-.9-.47A1.78,1.78,0,0,0,32,48.5a2,2,0,0,0-.42,0A1.55,1.55,0,0,0,30.26,50a1.89,1.89,0,0,0-1,.82,1.66,1.66,0,0,0,.77,2.26l.05,0,.24.17a1.5,1.5,0,0,0,1.45,1.13l.39,0h.85l.52,0h.1a2.31,2.31,0,0,0,.37,0,1.63,1.63,0,0,0,1.35-.66,1.8,1.8,0,0,0,.14-1.8Zm-.95,1.25a.57.57,0,0,1-.51.23l-.38,0-.61,0h-.91l-.33,0c-.3,0-.33-.13-.52-.58-.1-.25-.41-.43-.66-.59s-.59-.57-.42-.87a.81.81,0,0,1,.5-.38c.49,0,.56-.33.56-.7s.11-.61.47-.68l.24,0a.73.73,0,0,1,.3.06c.48.22.94.5,1.42.74a.9.9,0,0,1,.51.77,5.66,5.66,0,0,0,.31,1.14C34.64,52.55,34.78,52.84,34.56,53.14Z"/><path class="cls-1" d="M30.21,39.56a6.11,6.11,0,0,0,.22.71,1.54,1.54,0,0,0,1.43,1,1.43,1.43,0,0,0,.29,0,1.35,1.35,0,0,0,2.08-.36l0-.06a1.6,1.6,0,0,0,.79-1.91,1.69,1.69,0,0,0-1.68-1.34h-.06l-.28,0h-.11a1.78,1.78,0,0,0-1.1-.44,1.42,1.42,0,0,0-.67.17,2.06,2.06,0,0,0-1,1.68,1.15,1.15,0,0,0,0,.41Zm1.44-1.34a.41.41,0,0,1,.18,0,.87.87,0,0,1,.51.28.94.94,0,0,0,.47.16h.12l.39,0h0a.67.67,0,0,1,.7.55c.1.4,0,.57-.36.8a1.16,1.16,0,0,0-.32.34c-.11.15-.21.24-.32.24a.41.41,0,0,1-.26-.12.82.82,0,0,0-.55-.25.75.75,0,0,0-.24,0l-.14,0a.5.5,0,0,1-.46-.34c-.11-.27-.17-.57-.24-.79A1.05,1.05,0,0,1,31.65,38.22Z"/><path class="cls-1" d="M102.88,20.22,111.74,8a.46.46,0,0,0,0-.49.47.47,0,0,0-.42-.26H84.94L84.1,3.05a.48.48,0,0,0-.47-.38H62.86a.47.47,0,0,0-.47.48V23.94a7.9,7.9,0,0,0-1-.26l-.26,0a1.71,1.71,0,0,0-1.46.74l0,0-.1,0a2,2,0,0,0-.35,0l-.28,0h-.14v0a2.53,2.53,0,0,0-2.27-1.32,1.72,1.72,0,0,0-1.29.64,2.06,2.06,0,0,0-.35,1.4h-.13a1.36,1.36,0,0,0-1.24.82,2.52,2.52,0,0,1-1.11-.32,3.12,3.12,0,0,0-1.47-.44,2.42,2.42,0,0,0-2.07,1.66s0,0,0,0a2.17,2.17,0,0,0-1.14,1,1.66,1.66,0,0,0-.83-.22,1.62,1.62,0,0,0-1,.34A1.71,1.71,0,0,0,45.1,30a2.15,2.15,0,0,0,.15.38,2.86,2.86,0,0,0-.58.13l-.16,0-.42-.06a7.58,7.58,0,0,0-1-.09H43a2.28,2.28,0,0,0-2,1.1h-.2a2.15,2.15,0,0,0-1,.25l-.11.05a14.18,14.18,0,0,1-1.52.61,1.6,1.6,0,0,0-1.18,2.14c.09.32.21.62.32.91s.16.43.23.65l0,.06-.07,0a2.94,2.94,0,0,0-1.06,3.77,3.48,3.48,0,0,0,.3.5,2.09,2.09,0,0,0-.24.28,2,2,0,0,0-.27,1.76A6.22,6.22,0,0,0,37,44a7.27,7.27,0,0,0-.44.63l-.08.13a1.37,1.37,0,0,0-.14,1.32,1.3,1.3,0,0,0,.72.69.27.27,0,0,0-.07.08,2.12,2.12,0,0,0-.16,2.27c.27.53.26.77.16,1a1.84,1.84,0,0,0,1,2.44L39,53a11.86,11.86,0,0,0,.18,3,3.51,3.51,0,0,0,2.67,2.91,12.54,12.54,0,0,0,1.58.23l.18,0c.23,0,.24.06.28.2a6.36,6.36,0,0,0,.44,1.06A2,2,0,0,0,46,61.54,2,2,0,0,0,47.43,61a.77.77,0,0,1,.52-.23,2,2,0,0,0,1.92-2.15c0-.19,0-.39,0-.58s0-.2,0-.3l.61-.18c.32.2.63.39.91.59l0,.11c0,.07-.08.21-.28.4a4.68,4.68,0,0,0-1.45,4A7.09,7.09,0,0,1,49,66.07a8.37,8.37,0,0,0-.71,3.63,1.38,1.38,0,0,0,1.43,1.42h.12a2.5,2.5,0,0,0,2-1.23,3,3,0,0,1,.4-.45l.21-.22c.18-.2.35-.37.51-.53a2.19,2.19,0,0,0,.36,0,2.88,2.88,0,0,0,1.71-.66,2.06,2.06,0,0,1,1.1-.37,2.91,2.91,0,0,0,1.52-.61c.14-.1.17-.1.2-.1h.13a2,2,0,0,0,1.87-1.14.53.53,0,0,1,.4-.32,5,5,0,0,0,0,.55,1.58,1.58,0,0,0,1.57,1.49,1.72,1.72,0,0,0,.94-.28,2.1,2.1,0,0,0,.7-.69,2.71,2.71,0,0,0,.77.78,2.08,2.08,0,0,1,.73.65,2.84,2.84,0,0,0,2.43,1.64,1.14,1.14,0,0,1,1,.49,3.16,3.16,0,0,0,2.49,1.19l.46,0a2.93,2.93,0,0,0,1.82,2.22,3.44,3.44,0,0,0,.93,1.81c.15.17.14.22.13.27a1.84,1.84,0,0,0,1.12,2.09,13.12,13.12,0,0,0,1.42.56,1.8,1.8,0,0,1,1,.6,1.83,1.83,0,0,0,1.28.61h.77a5,5,0,0,0,.5,0,1.93,1.93,0,0,0,1.72-1c.26-.41.37-.5.46-.5a4.11,4.11,0,0,0,2.55-1h0l0,0a2.17,2.17,0,0,1,.57.56,2.78,2.78,0,0,0,1.59,1.26c.73.21,1.49.43,2.26.63a2.42,2.42,0,0,0,.67.1,1.87,1.87,0,0,0,1.68-1.22c.13-.25.26-.49.4-.73s.33-.59.48-.89a3.82,3.82,0,0,0,.35-1.22,2.69,2.69,0,0,0,0-.77l.35,0a2.77,2.77,0,0,0,.42,0,1.77,1.77,0,0,0,1.35-1A1.81,1.81,0,0,0,95,72.08l-.2-.27-.09-.12a.45.45,0,0,1,0-.45.32.32,0,0,1,.26-.19h.18a4.6,4.6,0,0,1,.71.07l.41,0h.18a2.53,2.53,0,0,0,2-1.21,2.29,2.29,0,0,0,.37-2.13,2.39,2.39,0,0,0-.49-.77,3.19,3.19,0,0,0-.68-.53.56.56,0,0,1-.33-.41,2.38,2.38,0,0,0-.64-1.19,7.75,7.75,0,0,0-.8-.66l-.39-.3,0,0-.33-.67a12.69,12.69,0,0,1-1.57-4.61,1.8,1.8,0,0,0-.11-.48l0-.05c0-.11,0-.24-.08-.37A4.31,4.31,0,0,1,93.2,57a3,3,0,0,0-2.35-2.93l-.15,0,0-.18c0-.18,0-.36-.08-.54s-.09-.54-.13-.82-.08-.62-.11-.93-.1-.86-.16-1.28a4.34,4.34,0,0,0-.17-.67c0-.08,0-.17-.07-.26-.07-.31-.15-.62-.22-.93-.14-.62-.28-1.26-.46-1.89a4.09,4.09,0,0,0-1.69-2.36,8.93,8.93,0,0,1-.87-.71.66.66,0,0,1-.24-.57,2.87,2.87,0,0,1,1.22-2.4,6,6,0,0,1,2.53-1,15,15,0,0,1,2.62-.29,6.22,6.22,0,0,1,2.08.32,2,2,0,0,0,.65.12c.72,0,1.23-.44,1.51-1.31.15-.45.28-.91.41-1.37a15.43,15.43,0,0,1,1-2.82,2.8,2.8,0,0,0,.27-1h12.58a.47.47,0,0,0,.42-.26.46.46,0,0,0,0-.49ZM84.09,7.85a.46.46,0,0,0,.46.38h25.88l-4.87,6.7H87.63a.23.23,0,0,0-.23.23.23.23,0,0,0,.23.24h17.59l-3.31,4.54a.48.48,0,0,0,0,.56L104.42,24H83V15.4h2.2a.24.24,0,0,0,.24-.24.23.23,0,0,0-.24-.23H83V3.62h.29ZM82.23,32.21l-.87-4.36a.46.46,0,0,0-.46-.38h0l-12.72.09h0V20.73H82.47V32.21Zm-14.3-3.67V56.11a2.31,2.31,0,0,1-3.06,2.17A2.36,2.36,0,0,1,63.34,56V28.54ZM63.34,11.48H67.7v8.78H63.34ZM82.47,11H68.18V3.62H82.47Zm0,.47v8.78H68.18V11.48ZM67.7,20.73v6.82h0l-4.37,0V20.73Zm0-17.11V11H63.34V3.62ZM97.59,33.68A26.83,26.83,0,0,0,96.09,38c-.13.41-.27.6-.52.6a.8.8,0,0,1-.31-.07,7.51,7.51,0,0,0-2.42-.38,15,15,0,0,0-2.81.32,6.93,6.93,0,0,0-3,1.2,4,4,0,0,0-1.64,3.22A1.68,1.68,0,0,0,86,44.28a10.45,10.45,0,0,0,1,.79,3.15,3.15,0,0,1,1.28,1.78c.25.92.44,1.86.67,2.79.06.27.17.54.21.82.11.74.18,1.48.28,2.21.06.46.14.92.21,1.38,0,.29.08.59.13.91.25,0,.53.08.81.15a2,2,0,0,1,1.58,2,7.87,7.87,0,0,0,.24,1.25c0,.12.09.25.1.37a15.62,15.62,0,0,0,2,5.7,1,1,0,0,0,.3.36c.37.3.78.57,1.13.9a1.38,1.38,0,0,1,.34.67,1.65,1.65,0,0,0,.83,1.09,2.07,2.07,0,0,1,.44.34,1.23,1.23,0,0,1,.28.43,1.7,1.7,0,0,1-1.4,1.91h-.08c-.4,0-.81-.12-1.22-.12a1.62,1.62,0,0,0-.31,0,1.43,1.43,0,0,0-1,2.23c.08.14.19.26.27.39a.67.67,0,0,1-.48,1.09l-.24,0a3.42,3.42,0,0,1-.44,0l-.26,0c-.51,0-.75.31-.72.92a3.73,3.73,0,0,1,.06.81,2.81,2.81,0,0,1-.25.9c-.27.54-.6,1.06-.87,1.61s-.41.63-.75.63a1.69,1.69,0,0,1-.41-.06c-.75-.19-1.49-.41-2.23-.62a1.71,1.71,0,0,1-1-.83,3.44,3.44,0,0,0-.83-.83,1,1,0,0,0-1.35.05,3,3,0,0,1-1.92.74,1.68,1.68,0,0,0-1.27,1,.91.91,0,0,1-.84.48l-.34,0H79.2c-.21,0-.49-.06-.59-.2a2.86,2.86,0,0,0-1.49-1,12.41,12.41,0,0,1-1.32-.51.8.8,0,0,1-.51-.94,1.29,1.29,0,0,0-.39-1.17,2.47,2.47,0,0,1-.7-1.49.73.73,0,0,0-.43-.51,2,2,0,0,1-1.41-1.77c0-.52-.13-.69-.45-.69a2.23,2.23,0,0,0-.45.06,3.29,3.29,0,0,1-.54,0,2.09,2.09,0,0,1-1.69-.83,2.19,2.19,0,0,0-1.74-.86h0c-.77,0-1.19-.56-1.55-1.14a3.08,3.08,0,0,0-1.05-1,1.75,1.75,0,0,1-.6-.74,1.43,1.43,0,0,0-1.11-.81h0c-.33,0-.37.23-.35.48a1,1,0,0,1-.49,1,.79.79,0,0,1-.39.12.55.55,0,0,1-.53-.55,6.44,6.44,0,0,1,0-1c0-.43-.1-.6-.48-.6h-.1a1.89,1.89,0,0,0-1.85,1,.94.94,0,0,1-.93.54h-.13a1.28,1.28,0,0,0-.84.32,1.89,1.89,0,0,1-1,.39,3.12,3.12,0,0,0-1.64.57,1.92,1.92,0,0,1-1.09.46,1.16,1.16,0,0,1-.5-.11h0a.81.81,0,0,0-.37.22,8.27,8.27,0,0,0-.72.73,5.64,5.64,0,0,0-.73.82,1.46,1.46,0,0,1-1.23.75h-.06c-.27,0-.37-.12-.39-.42A7.27,7.27,0,0,1,50,66.48a8.06,8.06,0,0,0,.67-3.94,3.68,3.68,0,0,1,1.12-3.17,1.42,1.42,0,0,0,.57-1.45,1.14,1.14,0,0,0-.32-.58,14,14,0,0,0-1.37-.89.32.32,0,0,0-.14,0,.58.58,0,0,0-.19,0c-.39.1-.77.21-1.15.34a.71.71,0,0,0-.44.77c0,.34.07.68.07,1a1,1,0,0,1-1,1.1,1.79,1.79,0,0,0-1.15.51,1,1,0,0,1-.68.31,1,1,0,0,1-.8-.58,4.79,4.79,0,0,1-.36-.88,1.23,1.23,0,0,0-1.16-.92c-.56-.06-1.12-.12-1.66-.23a2.53,2.53,0,0,1-1.87-2.12,10.74,10.74,0,0,1-.14-2.94.59.59,0,0,0-.39-.64c-.39-.17-.78-.36-1.17-.54S37.76,51,38,50.54a2.2,2.2,0,0,0-.2-1.89,1.07,1.07,0,0,1,.07-1.18,1.83,1.83,0,0,1,.57-.4c.13-.07.35-.06.42-.16a1.46,1.46,0,0,1,1.33-.56c.22,0,.46,0,.68,0,.5,0,.68-.26.66-.8,0,0-.05,0-.07,0h0l-3.35.36-.28,0-.19,0c-.31-.05-.42-.24-.24-.52a5,5,0,0,1,.63-.87c.28-.28.27-.46,0-.79a5.13,5.13,0,0,1-.75-1.52,1,1,0,0,1,1-1.3h.78a.93.93,0,0,0,.77-1.27l-.57.39a1.36,1.36,0,0,1-.78.27,1.18,1.18,0,0,1-1.06-.77A1.9,1.9,0,0,1,38.12,37c.67-.44.72-.55.48-1.3-.17-.52-.4-1-.55-1.54s0-.69.5-.85a15.15,15.15,0,0,0,1.62-.64,1.69,1.69,0,0,1,.64-.22.58.58,0,0,1,.41.18,1.65,1.65,0,0,0,.19.1,7.66,7.66,0,0,0,.44-.67,1.23,1.23,0,0,1,1.19-.7h0c.44,0,.88.1,1.31.15.12,0,.25,0,.36,0l.15,0a1.75,1.75,0,0,1,.77-.16,4.94,4.94,0,0,1,.92.12l.34,0c-.17-.38-.29-.68-.43-1s-.31-.58-.41-.89a.74.74,0,0,1,.37-.81.54.54,0,0,1,.33-.12.8.8,0,0,1,.42.15,3.88,3.88,0,0,0,.48.3.75.75,0,0,0,.36.11c.25,0,.42-.18.43-.5a1,1,0,0,1,.73-1,1.11,1.11,0,0,0,.54-.55c.32-.71.65-1.05,1.12-1.05a2.18,2.18,0,0,1,1,.32,3.67,3.67,0,0,0,1.68.45h0a.72.72,0,0,0,.78-.49c.09-.23.21-.34.35-.34a.61.61,0,0,1,.35.15,2.63,2.63,0,0,0,.33.2,1.3,1.3,0,0,0,.47.18.34.34,0,0,0,.29-.19c.17-.27.32-.57-.05-.87A1.24,1.24,0,0,1,56,24.35a.68.68,0,0,1,.46-.23h0a1.46,1.46,0,0,1,1.36.76,1,1,0,0,0,.95.58h.14l.26,0,.13,0a2.35,2.35,0,0,0,.35,0,1,1,0,0,0,.9-.57.72.72,0,0,1,.55-.22h.09a10.22,10.22,0,0,1,1.21.31V56a3.32,3.32,0,0,0,2.18,3.17,3.24,3.24,0,0,0,4.3-3.07V28.5l11.64-.08.87,4.36a.48.48,0,0,0,.47.38H97.74A1.83,1.83,0,0,1,97.59,33.68ZM83,32.21V24.42h21.82l5.66,7.79Z"/></g></svg>