<svg version="1.1" id="Warstwa_2" xmlns="http://www.w3.org/2000/svg" xmlns:xlink="http://www.w3.org/1999/xlink" x="0px" y="0px"
	 viewBox="0 0 304 209.7">
	<style type="text/css">
		.st0{fill:#FFFFFF;stroke:#9C9C9C;stroke-miterlimit:10;}
		.st1{fill:#F0F0F0;}
		.st2{fill:none;stroke:#9C9C9C;stroke-width:0.5;stroke-linecap:round;stroke-linejoin:round;stroke-miterlimit:10;}
		.st3{opacity:0.12;}
		.st4{fill:#FFFFFF;stroke:#9C9C9C;stroke-width:0.5;stroke-linecap:round;stroke-linejoin:round;stroke-miterlimit:10;}
		.st5{fill:#9C9C9C;}
		.st6{fill:#FFFFFF;}
		.st7{fill:#FFFFFF;stroke:#9C9C9C;stroke-width:0.5;stroke-miterlimit:10;}
		.st8{fill:#ECECEC;}
		.st9{fill:none;stroke:#9C9C9C;stroke-width:0.75;stroke-miterlimit:10;}
	</style>
	<path class="st0" d="M190.5,199.6L13.8,64.7c-4.2-3.2-4.8-7.3-1.3-9l91.8-47.6c3.4-1.8,9.7-0.6,13.9,2.5l176.8,134.8
		c4.2,3.2,4.8,7.3,1.3,9l-91.8,47.6C200.9,203.9,194.7,202.8,190.5,199.6z"/>
	<path class="st1" d="M30.5,52.9l-10.4,5.4c-2.6,1.4-2.2,4.5,1,6.9l170,129.7c3.2,2.4,8,3.3,10.6,2l10.4-5.4L30.5,52.9z"/>
	<path class="st2" d="M201.8,196.9c-2.6,1.4-7.4,0.5-10.6-2L21.1,65.2c-3.2-2.4-3.7-5.6-1-6.9l18.6-9.6"/>
	<g class="st3">
		<defs>
			<path id="SVGID_1_" class="st3" d="M34.3,51.2l71.8-37.3c3-1.6,8.2-0.9,11.4,1.6l170,129.7c3.2,2.4,3.3,5.7,0.3,7.3l-71.8,37.2
				l-3.6,1.9L30.4,52.7L34.3,51.2z"/>
		</defs>
		<clipPath id="SVGID_2_">
			<use xlink:href="#SVGID_1_"  style="overflow:visible;"/>
		</clipPath>
	</g>
	<line class="st4" x1="215.6" y1="189.7" x2="206.1" y2="194.7"/>
	<path class="st2" d="M88.6,22.8l18.2-9.5c2.6-1.4,7.4-0.5,10.6,2l170,129.7c3.2,2.4,3.7,5.6,1,6.9l-62.4,32.4l-3.2,1.6"/>
	<line class="st4" x1="75.5" y1="29.6" x2="82.1" y2="26.1"/>
	<line class="st4" x1="71.2" y1="31.8" x2="72.7" y2="31"/>
	<g>
		<path class="st5" d="M270.5,143c-0.3-0.2-0.3-0.4-0.1-0.5l1.2-0.6c0.6-0.3,1.6-0.1,2.3,0.4l1.4,1c0.3,0.2,0.3,0.4,0.1,0.5
			c-0.2,0.1-0.6,0-0.8-0.2l-1.4-1c-0.2-0.1-0.5-0.2-0.6-0.1l-1.2,0.6C271.1,143.3,270.7,143.2,270.5,143z"/>
		<path class="st5" d="M277.1,148.1c-0.3-0.2-0.3-0.4-0.1-0.5l1.1-0.6c0.2-0.1,0.1-0.3-0.1-0.4l-1.4-1.1c-0.3-0.2-0.3-0.4-0.1-0.5
			c0.2-0.1,0.6,0,0.8,0.2l1.4,1.1c0.7,0.5,0.8,1.2,0.2,1.5l-1.1,0.6C277.7,148.3,277.4,148.3,277.1,148.1z"/>
		<path class="st5" d="M272.8,149.3l-1.4-1c-0.3-0.2-0.3-0.4-0.1-0.5c0.2-0.1,0.6,0,0.8,0.2l1.4,1c0.2,0.1,0.5,0.2,0.6,0.1l1.2-0.6
			c0.2-0.1,0.6,0,0.8,0.2s0.3,0.4,0.1,0.5l-1.2,0.6C274.6,150,273.5,149.8,272.8,149.3z"/>
		<path class="st5" d="M269.2,146.5l-1.4-1.1c-0.7-0.5-0.8-1.2-0.2-1.5l1.1-0.6c0.2-0.1,0.6,0,0.8,0.2c0.3,0.2,0.3,0.4,0.1,0.5
			l-1.1,0.6c-0.2,0.1-0.1,0.3,0.1,0.4l1.4,1.1c0.3,0.2,0.3,0.4,0.1,0.5C269.9,146.8,269.5,146.7,269.2,146.5z"/>
	</g>
	<g>
		<path class="st5" d="M42.1,68.5l-3-0.9L38.2,67c-0.2-0.2-0.6-0.2-0.8-0.1l-0.8,0.4c-0.2,0.1-0.2,0.3,0,0.5l0.9,0.7l0.8,2
			c0.1,0.2,0.4,0.3,0.6,0.2l3.5-1.8C42.5,68.8,42.4,68.6,42.1,68.5z"/>
		<path class="st5" d="M40.7,70.6c0.3,0.2,0.8,0.2,1.1,0.1c0.3-0.1,0.3-0.4,0.1-0.7c-0.1-0.1-0.2-0.1-0.2-0.1l-1,0.5
			C40.6,70.5,40.6,70.6,40.7,70.6z"/>
		<path class="st5" d="M43.2,69.5c-0.1-0.1-0.3-0.2-0.5-0.2c-0.1,0-0.1,0.1-0.2,0.1c0,0.1,0,0.1,0,0.2c0.2,0.3,0.4,0.7,0.3,1
			c-0.3,0.9-1.8,1-2.9,0.4c-0.2-0.1-0.4-0.1-0.5,0c-0.1,0.1,0,0.2,0.1,0.3c0,0,0.1,0,0.1,0.1c1.1,0.6,2.5,0.6,3.3,0.2
			C43.7,71.1,43.8,70.3,43.2,69.5z"/>
	</g>
	<path class="st6" d="M71.7,92.5l-22-16.8c-0.4-0.3-1-0.4-1.3-0.2l-0.6,0.3c-0.3,0.2-0.3,0.5,0.1,0.8l22,16.8L71.7,92.5z"/>
	<path class="st2" d="M194.1,188L47.9,76.5c-0.3-0.3-0.4-0.6-0.1-0.7l0.7-0.4c0.3-0.1,0.8-0.1,1.1,0.2l146.2,111.5
		c0.3,0.3,0.4,0.6,0.1,0.7l-0.7,0.4C194.9,188.4,194.4,188.3,194.1,188z"/>
	<ellipse transform="matrix(0.3577 -0.9339 0.9339 0.3577 -41.2887 126.4739)" class="st7" cx="71.3" cy="93.3" rx="2.1" ry="3.6"/>
	<g>
		<path class="st8" d="M115.3,25.2c-1.3,0.7-3.5,0.3-4.9-0.7c-0.7-0.5-1-1-1-1.5l-2.2,1.1l-1.6-1.2l6.1-3.2l1.6,1.2l-0.4,0.2
			c0.7,0.1,1.4,0.4,2.1,0.9C116.5,23.1,116.7,24.5,115.3,25.2z M113.8,24c0.7-0.3,0.5-1-0.2-1.5c-0.7-0.6-1.7-0.8-2.3-0.4
			c-0.7,0.3-0.5,1,0.2,1.5C112.2,24.1,113.1,24.3,113.8,24z"/>
		<path class="st8" d="M123.6,28.7l-4.4,2.3l-1.6-1.2l0.4-0.2c-0.7-0.1-1.4-0.4-2.1-0.9c-1.4-1.1-1.5-2.5-0.2-3.1
			c1.3-0.7,3.5-0.3,4.9,0.7c0.7,0.5,1,1,1,1.5l0.4-0.2L123.6,28.7z M119.8,28.6c0.7-0.3,0.5-1-0.2-1.5c-0.7-0.6-1.7-0.8-2.3-0.4
			c-0.7,0.3-0.5,1,0.2,1.5C118.2,28.7,119.2,28.9,119.8,28.6z"/>
		<path class="st8" d="M127.8,31.8l-1.5,0.8c-0.6-0.5-1.7-1.1-2.6-0.7l-2,1l-1.6-1.2l4.4-2.3l1.6,1.2l-0.8,0.4
			C126.2,30.9,127.1,31.3,127.8,31.8z"/>
		<path class="st8" d="M133.7,36.4l-4.4,2.3l-1.6-1.2l0.4-0.2c-0.7-0.1-1.4-0.4-2.1-0.9c-1.4-1.1-1.5-2.5-0.2-3.1
			c1.3-0.7,3.5-0.3,4.9,0.7c0.7,0.5,1,1,1,1.5l0.4-0.2L133.7,36.4z M129.9,36.3c0.7-0.3,0.5-1-0.2-1.5c-0.7-0.6-1.7-0.8-2.3-0.4
			c-0.7,0.3-0.5,1,0.2,1.5C128.3,36.5,129.3,36.6,129.9,36.3z"/>
		<path class="st8" d="M135.6,39.4l-1.6,0.8c-0.4,0.2,0,0.5,0.7,1l-1.2,0.6c-2.3-1.5-2.3-2.2-1.1-2.9l1.6-0.8l-0.9-0.6l1.3-0.7
			l0.9,0.6l0.8-0.4l2,1l-1.2,0.6l1.9,1.4l-1.3,0.7L135.6,39.4z"/>
		<path class="st8" d="M139.7,39.5c0.4-0.2,1.2-0.1,1.7,0.3c0.5,0.4,0.6,0.9,0.2,1.1c-0.4,0.2-1.2,0.1-1.7-0.3S139.3,39.7,139.7,39.5
			z M138.7,40.2l1.6,1.2l-4.4,2.3l-1.6-1.2L138.7,40.2z"/>
		<path class="st8" d="M142.3,41.4c0.4-0.2,1.2-0.1,1.7,0.3s0.6,0.9,0.2,1.1c-0.4,0.2-1.2,0.1-1.7-0.3
			C141.9,42.1,141.8,41.6,142.3,41.4z M141.3,42.1l1.6,1.2l-4.4,2.3l-1.6-1.2L141.3,42.1z"/>
	</g>
	<line class="st4" x1="204.6" y1="195.5" x2="203.7" y2="195.9"/>
	<line class="st4" x1="41.9" y1="47" x2="41" y2="47.5"/>
	<g>
		<g>
			<path class="st1" d="M174,112.3c-0.7,0.4-2.2,0.4-3.3,0L136,100.5c-1.1-0.4-1.4-1-0.7-1.3l10.2-5.3c0.7-0.4,2.2-0.4,3.3,0
				l34.7,11.8c1.1,0.4,1.4,1,0.7,1.3L174,112.3z"/>
			<path class="st1" d="M166.2,85.7c-0.6-1.1-1.8-1.5-2.8-1l-7,3.6c-1.1,0.6-0.3,2,1.4,2.6l10.9,3.7c1.5,0.5,2.3,0.1,1.8-1
				L166.2,85.7z"/>
		</g>
		<g>
			<path class="st9" d="M173.5,111c-0.7,0.4-2.2,0.4-3.3,0l-34.7-11.8c-1.1-0.4-1.4-1-0.7-1.3l10.2-5.3c0.7-0.4,2.2-0.4,3.3,0
				l34.7,11.8c1.1,0.4,1.4,1,0.7,1.3L173.5,111z"/>
			<path class="st9" d="M165.7,84.4c-0.6-1.1-1.8-1.5-2.8-1l-7,3.6c-1.1,0.6-0.3,2,1.4,2.6l10.9,3.7c1.5,0.5,2.3,0.1,1.8-1
				L165.7,84.4z"/>
		</g>
	</g>
	<g>
		<path class="st5" d="M32.7,64.1c-0.1,0.1-0.3,0.1-0.5,0l-5.5-1.9c-0.2-0.1-0.2-0.2-0.1-0.2l1.6-0.8c0.1-0.1,0.3-0.1,0.5,0l5.5,1.9
			c0.2,0.1,0.2,0.2,0.1,0.2L32.7,64.1z"/>
		<path class="st5" d="M31.5,59.8c-0.1-0.2-0.3-0.2-0.5-0.2l-1.1,0.6c-0.2,0.1-0.1,0.3,0.2,0.4l1.7,0.6c0.2,0.1,0.4,0,0.3-0.2
			L31.5,59.8z"/>
	</g>
	<path class="st5" d="M260.7,135.5c0.1,0,0.1,0,0.2,0.1c0.1,0,0.2,0.1,0.4,0.1c0.1,0,0.1,0,0.2,0c0.1,0,0.2,0,0.3,0
		c0.1,0,0.2-0.1,0.4-0.1c0.1,0,0.1-0.1,0.2-0.2c0.1-0.1,0.1-0.2,0.2-0.3c0-0.1,0.2-0.1,0.3-0.1c0.1,0,0.3,0,0.4,0
		c0.1,0,0.3,0.1,0.3,0.1c0.1,0.1,0.1,0.2,0.2,0.3c0,0,0.1,0.1,0.1,0.1c0.1,0.1,0.2,0.1,0.3,0.1c0.1,0,0.3,0.1,0.4,0.1
		c0.1,0,0.2,0,0.2,0c0.2,0,0.3-0.1,0.5-0.2c0.1,0,0.3,0,0.4,0c0.1,0.1,0.2,0.1,0.3,0.2c0.1,0.1,0.1,0.1,0.1,0.2
		c-0.1,0.1-0.1,0.2-0.2,0.3c0,0.1-0.1,0.1-0.1,0.2c0,0,0,0.1,0,0.1c0,0.1,0.1,0.2,0.2,0.2c0,0,0.1,0.1,0.1,0.1
		c0.2,0.1,0.3,0.1,0.5,0.1c0.1,0,0.1,0,0.2,0c0.1,0,0.2,0.1,0.2,0.2c0,0.1,0,0.2,0,0.3c0,0.1-0.1,0.2-0.2,0.2c-0.2,0-0.4,0.1-0.6,0.1
		c0,0-0.1,0-0.1,0c-0.1,0-0.2,0.1-0.2,0.2c-0.1,0.1-0.1,0.2-0.1,0.3c0,0.1,0,0.1,0.1,0.2c0.1,0.1,0.2,0.2,0.2,0.3
		c0.1,0.1,0,0.2-0.1,0.2c-0.1,0.1-0.2,0.1-0.3,0.2c-0.1,0.1-0.2,0.1-0.4,0c-0.1,0-0.3-0.1-0.4-0.1c-0.1,0-0.2,0-0.3,0
		c-0.1,0-0.2,0-0.3,0c-0.1,0-0.2,0.1-0.3,0.1c-0.1,0-0.2,0.1-0.2,0.2c-0.1,0.1-0.1,0.2-0.2,0.3c0,0.1-0.2,0.2-0.3,0.2
		c-0.1,0-0.3,0-0.4,0c-0.1,0-0.3-0.1-0.3-0.2c-0.1-0.1-0.1-0.2-0.2-0.4c-0.1-0.1-0.3-0.2-0.5-0.2c-0.1,0-0.1,0-0.2,0
		c-0.1,0-0.2,0-0.3,0c-0.2,0-0.3,0.1-0.5,0.2c-0.1,0-0.3,0-0.3,0c-0.1-0.1-0.2-0.1-0.3-0.2c-0.1-0.1-0.1-0.2-0.1-0.2
		c0.1-0.1,0.1-0.2,0.2-0.3c0-0.1,0.1-0.1,0.1-0.2c0-0.1,0-0.1,0-0.2c0-0.1-0.1-0.2-0.2-0.3c-0.1-0.1-0.2-0.1-0.2-0.1
		c-0.2,0-0.3-0.1-0.5-0.1c-0.1,0-0.2-0.1-0.2-0.2c0-0.1,0-0.2,0-0.3c0-0.1,0.1-0.1,0.2-0.2c0.2,0,0.3-0.1,0.5-0.1
		c0.1,0,0.1,0,0.2-0.1c0.1,0,0.1-0.1,0.1-0.1c0.1-0.1,0.1-0.2,0.2-0.3c0-0.1,0-0.1-0.1-0.2c-0.1-0.1-0.1-0.2-0.2-0.3
		c-0.1-0.1,0-0.2,0.1-0.2c0.1-0.1,0.2-0.1,0.3-0.2C260.5,135.5,260.6,135.5,260.7,135.5z M263,138.3c0.7,0,1.2-0.4,1.2-0.8
		c0-0.4-0.5-0.8-1.2-0.8c-0.7,0-1.2,0.3-1.2,0.8C261.8,137.9,262.3,138.3,263,138.3z"/>
</svg>
