<svg xmlns="http://www.w3.org/2000/svg" xmlns:xlink="http://www.w3.org/1999/xlink" viewBox="0 0 553.6 374.76"><defs><style>.cls-1,.cls-2{fill:#e72061;}.cls-2,.cls-3,.cls-5{opacity:0.15;}.cls-4,.cls-5{fill:#6812d8;}.cls-6{fill:url(#Gradient_bez_nazwy_7);}.cls-7{fill:url(#Gradient_bez_nazwy_8);}.cls-8{fill:url(#Gradient_bez_nazwy_8-2);}.cls-9{fill:#e81f76;}.cls-10{opacity:0.18;}</style><linearGradient id="Gradient_bez_nazwy_7" x1="407.96" y1="100.81" x2="325.12" y2="100.81" gradientUnits="userSpaceOnUse"><stop offset="0" stop-color="#e72061"/><stop offset="1" stop-color="#6812d8"/></linearGradient><linearGradient id="Gradient_bez_nazwy_8" x1="96.61" y1="195.71" x2="150.23" y2="195.71" gradientUnits="userSpaceOnUse"><stop offset="0" stop-color="#6812d8"/><stop offset="1" stop-color="#e72061"/></linearGradient><linearGradient id="Gradient_bez_nazwy_8-2" x1="292.29" y1="243.53" x2="400.09" y2="243.53" xlink:href="#Gradient_bez_nazwy_8"/></defs><title>Obszar roboczy 15Paratii_</title><g id="Warstwa_2" data-name="Warstwa 2"><path class="cls-1" d="M281.82,210.68H160.32a5.08,5.08,0,0,0-5.07,5.07v77a5.07,5.07,0,0,0,5.07,5.07h87.11c-.14-.33-.27-.66-.4-1H160.32a4.08,4.08,0,0,1-4.07-4.07v-77a4.08,4.08,0,0,1,4.07-4.07h121.5a4.08,4.08,0,0,1,4.08,4.07v43.4a.49.49,0,0,1,.16.25c.23.94.55,1.84.84,2.76V215.75A5.09,5.09,0,0,0,281.82,210.68Z"/><path class="cls-2" d="M243.72,288.2H216.51a.42.42,0,0,1-.29-.1H193.38a1.42,1.42,0,0,1-.19.39,1.59,1.59,0,0,1-2.74-.23.94.94,0,0,1-.07-.22H176.65a.42.42,0,0,1-.42-.52.55.55,0,0,1,.49-.77h13.64c0-.09.06-.19.11-.28a2.21,2.21,0,0,1,1.45-1,.41.41,0,0,1,.54.41h.07a1,1,0,0,1,.91.78l.09,0h22.83a.28.28,0,0,1,.13,0h26.58c-.75-1.77-1.55-3.52-2.46-5.21a.45.45,0,0,1-.05-.29H159.25v8.62a4,4,0,0,0,4,4h82.62C245.14,291.89,244.45,290,243.72,288.2Z"/><path class="cls-1" d="M245.86,293.79H163.22a3.73,3.73,0,0,1-3.72-3.73V274.71a.25.25,0,0,0-.25-.25.25.25,0,0,0-.25.25v15.35a4.23,4.23,0,0,0,4.22,4.23h82.83Z"/><path class="cls-1" d="M282.65,256.42a2.73,2.73,0,0,1,.5.36V218.47a4.22,4.22,0,0,0-4.22-4.22H163.22a4.22,4.22,0,0,0-4.22,4.22v15a.25.25,0,0,0,.25.25.25.25,0,0,0,.25-.25v-15a3.73,3.73,0,0,1,3.72-3.72H278.93a3.73,3.73,0,0,1,3.72,3.72Z"/><path class="cls-1" d="M159.25,244.58a.25.25,0,0,1-.25-.25V238.9a.25.25,0,0,1,.25-.25.25.25,0,0,1,.25.25v5.43A.25.25,0,0,1,159.25,244.58Z"/><path class="cls-1" d="M159.25,248.16a.25.25,0,0,1-.25-.25V246.6a.25.25,0,0,1,.25-.25.26.26,0,0,1,.25.25v1.31A.26.26,0,0,1,159.25,248.16Z"/><path class="cls-1" d="M273.23,221.63a.31.31,0,0,1-.31-.31v-1a.86.86,0,0,1,.86-.85h.92a.32.32,0,0,1,0,.63h-.92a.23.23,0,0,0-.24.22v1A.31.31,0,0,1,273.23,221.63Z"/><path class="cls-1" d="M277.73,221.59a.3.3,0,0,1-.31-.31v-.92a.23.23,0,0,0-.23-.23h-1a.32.32,0,0,1,0-.63h1a.86.86,0,0,1,.85.86v.92A.31.31,0,0,1,277.73,221.59Z"/><path class="cls-1" d="M277.18,224.47h-.92a.31.31,0,0,1-.31-.31.3.3,0,0,1,.31-.31h.92a.24.24,0,0,0,.24-.23v-1a.31.31,0,0,1,.31-.31.31.31,0,0,1,.31.31v1A.86.86,0,0,1,277.18,224.47Z"/><path class="cls-1" d="M274.74,224.47h-1a.86.86,0,0,1-.85-.86v-.92a.31.31,0,1,1,.62,0v.92a.24.24,0,0,0,.23.24h1a.31.31,0,0,1,.31.31A.31.31,0,0,1,274.74,224.47Z"/><path class="cls-1" d="M170.72,285.83l-1.29.94h-.62a.31.31,0,0,0-.28.32v.69a.3.3,0,0,0,.28.32h.62l1.29.94a.18.18,0,0,0,.27-.16V286A.18.18,0,0,0,170.72,285.83Z"/><path class="cls-1" d="M171.46,287.91a.51.51,0,0,0,0-1,.08.08,0,0,0-.1.08v.8A.07.07,0,0,0,171.46,287.91Z"/><path class="cls-1" d="M171.54,286a.17.17,0,0,0-.22.14.19.19,0,0,0,0,.15.15.15,0,0,0,.1.09,1.15,1.15,0,0,1,.62.51,1.18,1.18,0,0,1-.61,1.69.22.22,0,0,0-.12.26.19.19,0,0,0,.17.15h.06a1.6,1.6,0,0,0,0-3Z"/><path class="cls-1" d="M190.19,288H176.71a.37.37,0,0,1-.36-.37v-.34a.36.36,0,0,1,.36-.37h13.42a2.06,2.06,0,0,1,.12-.35H176.71a.71.71,0,0,0-.71.72v.34a.72.72,0,0,0,.71.72h13.7A1.59,1.59,0,0,1,190.19,288Z"/><path class="cls-1" d="M193.57,286.9h49.6c0-.12-.09-.24-.14-.35H193.4a.69.69,0,0,1,.11.13A1.8,1.8,0,0,1,193.57,286.9Z"/><path class="cls-1" d="M243.62,288h-50a1,1,0,0,1-.17.35h50.34Z"/><path class="cls-1" d="M191.91,289.42a2,2,0,1,1,2-2A2,2,0,0,1,191.91,289.42Zm0-3.62a1.64,1.64,0,1,0,1.63,1.64A1.64,1.64,0,0,0,191.91,285.8Z"/><path class="cls-1" d="M210.54,265.93a.93.93,0,0,1-.46-.12,1.13,1.13,0,0,1-.51-1V254.56a2.87,2.87,0,0,1,1.28-2.26l19.09-11.45a1,1,0,0,1,1.67.94V252a2.87,2.87,0,0,1-1.28,2.25l-19.09,11.46A1.41,1.41,0,0,1,210.54,265.93Zm20.1-24.54a.62.62,0,0,0-.31.1L211.24,253a2.14,2.14,0,0,0-.92,1.61v10.22c0,.19.05.33.14.38a.48.48,0,0,0,.39-.08l19.09-11.46a2.15,2.15,0,0,0,.92-1.61V241.79c0-.19-.05-.34-.13-.38A.15.15,0,0,0,230.64,241.39Z"/><path class="cls-1" d="M211.42,245.62a1.7,1.7,0,0,1-.87-.24,1.75,1.75,0,0,1-.91-1.54v-7a1.48,1.48,0,0,1,.65-1.33,1.5,1.5,0,0,1,1.48.09h0l6.51,3.68a1.32,1.32,0,0,1,0,2.45l-6,3.59A1.81,1.81,0,0,1,211.42,245.62Zm-.52-9.48a.41.41,0,0,0-.23.06.74.74,0,0,0-.28.68v7a1,1,0,0,0,1.56.88l6-3.59c.28-.17.45-.38.44-.58s-.17-.41-.46-.58l-6.51-3.67h0A1,1,0,0,0,210.9,236.14Z"/><g class="cls-3"><path class="cls-1" d="M232.2,252.69a2.5,2.5,0,0,1-1.1,1.94L212,266.08c-.6.36-1.1.09-1.1-.62V255.25a2.52,2.52,0,0,1,1.1-1.94l19.09-11.45c.61-.37,1.1-.09,1.1.62Z"/><path class="cls-1" d="M212.55,236.66c-.86-.49-1.57-.08-1.57.91v7a1.41,1.41,0,0,0,2.13,1.21l6-3.59a1,1,0,0,0,0-1.81Z"/></g><path class="cls-1" d="M166,287.66a.35.35,0,0,1-.14.25l-2.47,1.48c-.08.05-.14,0-.14-.08V288a.32.32,0,0,1,.14-.25l2.47-1.48a.09.09,0,0,1,.14.08Z"/><path class="cls-1" d="M163.46,285.59c-.11-.06-.2,0-.2.12v.9a.18.18,0,0,0,.27.15l.77-.46c.11-.07.11-.17,0-.23Z"/><path class="cls-4" d="M311,190.66H129.33a8.31,8.31,0,0,1-8.3-8.31V67.85a8.31,8.31,0,0,1,8.3-8.31H311a8.32,8.32,0,0,1,8.31,8.31v114.5A8.32,8.32,0,0,1,311,190.66ZM129.33,60.54a7.32,7.32,0,0,0-7.3,7.31v114.5a7.32,7.32,0,0,0,7.3,7.31H311a7.32,7.32,0,0,0,7.31-7.31V67.85A7.32,7.32,0,0,0,311,60.54Z"/><path class="cls-5" d="M126.81,166.14v13a6,6,0,0,0,6,6H307.53a6,6,0,0,0,6-6v-13Zm176.87,9.5a.45.45,0,0,1-.44.41.53.53,0,0,1-.26.07H283.59a.44.44,0,0,1-.23.06H253.63a.37.37,0,0,1-.25-.08H227.94a.53.53,0,0,1-.18,0H199.22a.55.55,0,0,1-.44,0s0,0,0,0h0l-.1,0H183.68l-.11,0h-4.93a3.38,3.38,0,0,1-2.95,1.65.43.43,0,0,1-.37-.25,2.18,2.18,0,0,1-1.62-1.4H153l-.09,0a.43.43,0,0,1-.43-.4c0-.25-.07-.49-.09-.75a.85.85,0,0,1,.57-.76h20.73a2.72,2.72,0,0,1,2.49-1.66,2.44,2.44,0,0,1,2.3,1.66h4.9a.51.51,0,0,1,.33-.12h15.44a.38.38,0,0,1,.31.14h28l.09,0h0l.17,0h25.84a.4.4,0,0,1,.28.11h29.31a.82.82,0,0,1,.22,0h.06a.5.5,0,0,1,.27-.08h19.44a.39.39,0,0,1,.42.46.41.41,0,0,1,.07.28C303.7,175.14,303.71,175.39,303.68,175.64Z"/><path class="cls-4" d="M307.53,185.4H132.81a6.25,6.25,0,0,1-6.25-6.24V156a.25.25,0,1,1,.5,0v23.19a5.76,5.76,0,0,0,5.75,5.74H307.53a5.76,5.76,0,0,0,5.75-5.74.25.25,0,1,1,.5,0A6.25,6.25,0,0,1,307.53,185.4Z"/><path class="cls-4" d="M313.53,167.54a.25.25,0,0,1-.25-.25v-5.38a.25.25,0,1,1,.5,0v5.38A.25.25,0,0,1,313.53,167.54Z"/><path class="cls-4" d="M313.53,153.05a.25.25,0,0,1-.25-.25V71a5.76,5.76,0,0,0-5.75-5.75H132.81A5.76,5.76,0,0,0,127.06,71V93.76a.25.25,0,0,1-.5,0V71a6.26,6.26,0,0,1,6.25-6.25H307.53A6.26,6.26,0,0,1,313.78,71V152.8A.25.25,0,0,1,313.53,153.05Z"/><path class="cls-4" d="M126.81,110.35a.25.25,0,0,1-.25-.25v-8.21a.25.25,0,1,1,.5,0v8.21A.25.25,0,0,1,126.81,110.35Z"/><path class="cls-4" d="M126.81,115.75a.25.25,0,0,1-.25-.25v-2a.25.25,0,0,1,.5,0v2A.25.25,0,0,1,126.81,115.75Z"/><path class="cls-4" d="M298.93,75.81a.47.47,0,0,1-.47-.47V73.89a1.3,1.3,0,0,1,1.3-1.29h1.39a.47.47,0,1,1,0,.94h-1.39a.36.36,0,0,0-.36.35v1.45A.47.47,0,0,1,298.93,75.81Z"/><path class="cls-4" d="M305.72,75.76a.47.47,0,0,1-.47-.47V73.9a.36.36,0,0,0-.35-.36h-1.45a.47.47,0,0,1,0-.94h1.45a1.3,1.3,0,0,1,1.29,1.3v1.39A.47.47,0,0,1,305.72,75.76Z"/><path class="cls-4" d="M304.89,80.1H303.5a.47.47,0,0,1,0-.94h1.39a.35.35,0,0,0,.36-.34V77.36a.47.47,0,1,1,.94,0v1.46A1.29,1.29,0,0,1,304.89,80.1Z"/><path class="cls-4" d="M301.2,80.1h-1.45a1.29,1.29,0,0,1-1.29-1.29v-1.4a.47.47,0,1,1,.94,0v1.4a.35.35,0,0,0,.35.35h1.45a.47.47,0,1,1,0,.94Z"/><path class="cls-4" d="M144.14,172.77l-1.95,1.42h-.93a.46.46,0,0,0-.44.47v1.05a.47.47,0,0,0,.44.48h.93l1.95,1.42a.26.26,0,0,0,.41-.24V173A.26.26,0,0,0,144.14,172.77Z"/><path class="cls-4" d="M145.25,175.91a.75.75,0,0,0,.49-.72.74.74,0,0,0-.49-.72.11.11,0,0,0-.14.11v1.21A.12.12,0,0,0,145.25,175.91Z"/><path class="cls-4" d="M145.38,172.93a.3.3,0,0,0-.35.22.34.34,0,0,0,0,.24.25.25,0,0,0,.14.13,1.76,1.76,0,0,1,0,3.32.32.32,0,0,0-.2.38.29.29,0,0,0,.27.23h.08a2.42,2.42,0,0,0,0-4.51Z"/><path class="cls-4" d="M173.61,176H153a.37.37,0,0,1-.37-.38v-.9a.37.37,0,0,1,.37-.38h20.65a4.16,4.16,0,0,1,.16-.5H153a.87.87,0,0,0-.87.88v.9a.88.88,0,0,0,.87.88h20.87A2.13,2.13,0,0,1,173.61,176Z"/><path class="cls-4" d="M303.19,173.86H178.38a2.28,2.28,0,0,1,.36.5H303.19a.38.38,0,0,1,.38.38v.9a.38.38,0,0,1-.38.38H178.88c0,.08-.07.17-.12.25a1.79,1.79,0,0,1-.23.25H303.19a.88.88,0,0,0,.88-.88v-.9A.87.87,0,0,0,303.19,173.86Z"/><path class="cls-4" d="M176.13,178.17a3,3,0,1,1,3-3A3,3,0,0,1,176.13,178.17Zm0-5.47a2.49,2.49,0,1,0,2.49,2.49A2.5,2.5,0,0,0,176.13,172.7Z"/><path class="cls-4" d="M205.26,138.05a1,1,0,0,1-.52-.13,1.33,1.33,0,0,1-.6-1.21V123.94a3.51,3.51,0,0,1,1.56-2.74l23.85-14.31a1.19,1.19,0,0,1,1.94,1.09v12.77a3.5,3.5,0,0,1-1.55,2.74L206.08,137.8A1.59,1.59,0,0,1,205.26,138.05Zm25.11-30.67a.86.86,0,0,0-.43.15l-23.86,14.31a2.78,2.78,0,0,0-1.19,2.1v12.77a.63.63,0,0,0,.22.56.64.64,0,0,0,.58-.11l23.86-14.32a2.72,2.72,0,0,0,1.19-2.09V108a.64.64,0,0,0-.21-.56A.42.42,0,0,0,230.37,107.38Z"/><path class="cls-4" d="M206.36,112.67a2.14,2.14,0,0,1-2.13-2.13v-8.69a1.57,1.57,0,0,1,2.52-1.46l8.14,4.59a1.56,1.56,0,0,1,0,2.9l-7.46,4.48A2.08,2.08,0,0,1,206.36,112.67Zm-.65-11.84a.64.64,0,0,0-.34.09,1,1,0,0,0-.39.93v8.69a1.38,1.38,0,0,0,2.09,1.18l7.47-4.48a1,1,0,0,0,.6-.81,1,1,0,0,0-.62-.8L206.38,101A1.36,1.36,0,0,0,205.71,100.83Z"/><g class="cls-3"><path class="cls-4" d="M232.32,121.61A3.11,3.11,0,0,1,231,124l-23.86,14.32c-.75.45-1.36.1-1.36-.78V124.8a3.13,3.13,0,0,1,1.36-2.42L231,108.06c.76-.45,1.37-.1,1.37.78Z"/><path class="cls-4" d="M207.77,101.57c-1.08-.61-2-.09-2,1.14v8.69a1.76,1.76,0,0,0,2.66,1.5l7.47-4.48a1.2,1.2,0,0,0,0-2.26Z"/></g><path class="cls-4" d="M136.92,175.58a.49.49,0,0,1-.22.38l-3.81,2.29c-.12.07-.22,0-.22-.12v-2a.51.51,0,0,1,.22-.39l3.81-2.29c.12-.07.22,0,.22.12Z"/><path class="cls-4" d="M133,172.37c-.17-.09-.32,0-.32.18v1.39a.28.28,0,0,0,.43.24l1.19-.71a.19.19,0,0,0,0-.36Z"/><path class="cls-6" d="M401,129.41a.4.4,0,0,1,0-.54h0a.39.39,0,0,1,.53,0h0a.38.38,0,0,1,0,.54h0a.38.38,0,0,1-.26.11h0A.39.39,0,0,1,401,129.41Zm1.42-1.42a.37.37,0,0,1,0-.53h0a.36.36,0,0,1,.52,0h0a.37.37,0,0,1,0,.53h0a.37.37,0,0,1-.26.12h0A.39.39,0,0,1,402.41,128Zm1.41-1.41a.36.36,0,0,1,0-.52h0a.35.35,0,0,1,.53,0h0a.36.36,0,0,1,0,.52h0a.38.38,0,0,1-.26.11h0A.39.39,0,0,1,403.82,126.58Zm1.42-1.4a.38.38,0,0,1,0-.53h0a.35.35,0,0,1,.53,0h0a.38.38,0,0,1,0,.53h0a.37.37,0,0,1-.28.13h0A.45.45,0,0,1,405.24,125.18Zm1.2-1.61a.38.38,0,0,1-.16-.51h0a.38.38,0,0,1,.51-.15h0a.36.36,0,0,1,.15.5h0a.35.35,0,0,1-.33.2h0A.25.25,0,0,1,406.44,123.57Zm.79-1.83a.38.38,0,0,1-.27-.46h0a.37.37,0,0,1,.46-.26h0a.37.37,0,0,1,.27.46h0a.39.39,0,0,1-.37.27h-.09Zm.35-2a.37.37,0,0,1-.37-.37h0a.39.39,0,0,1,.38-.38h0a.37.37,0,0,1,.37.38h0a.37.37,0,0,1-.37.37h0Zm-.36-2.37a.37.37,0,0,1,.37-.38h0a.37.37,0,0,1,.37.38h0a.36.36,0,0,1-.37.37h0A.36.36,0,0,1,407.22,117.4Zm0-2a.37.37,0,0,1,.37-.38h0a.37.37,0,0,1,.37.38h0a.36.36,0,0,1-.37.37h0A.36.36,0,0,1,407.22,115.4Zm0-2a.37.37,0,0,1,.37-.38h0a.37.37,0,0,1,.37.38h0a.36.36,0,0,1-.37.37h0A.36.36,0,0,1,407.22,113.4Zm0-2a.37.37,0,0,1,.37-.38h0a.37.37,0,0,1,.37.38h0a.36.36,0,0,1-.37.37h0A.36.36,0,0,1,407.22,111.4Zm0-2a.37.37,0,0,1,.37-.38h0a.37.37,0,0,1,.37.38h0a.36.36,0,0,1-.37.37h0A.36.36,0,0,1,407.22,109.4Zm0-2a.37.37,0,0,1,.37-.38h0a.37.37,0,0,1,.37.38h0a.36.36,0,0,1-.37.37h0A.36.36,0,0,1,407.22,107.4Zm0-24a.37.37,0,0,1,.37-.38h0a.37.37,0,0,1,.37.38h0a.36.36,0,0,1-.37.37h0A.36.36,0,0,1,407.22,83.4Zm0-2a.37.37,0,0,1,.37-.38h0a.37.37,0,0,1,.37.38h0a.36.36,0,0,1-.37.37h0A.36.36,0,0,1,407.22,81.4Zm0-2a.38.38,0,0,1,.37-.38h0a.38.38,0,0,1,.38.38h0a.36.36,0,0,1-.37.37h0A.38.38,0,0,1,407.21,79.4Zm0,0Zm-.29-1.86a.38.38,0,0,1,.25-.47h0a.38.38,0,0,1,.47.25h0a.36.36,0,0,1-.25.46h0a.17.17,0,0,1-.11,0h0A.38.38,0,0,1,406.92,77.54Zm-.81-1.71a.37.37,0,0,1,.11-.51h0a.37.37,0,0,1,.52.11h0a.36.36,0,0,1-.11.51h0a.36.36,0,0,1-.2.06h0A.37.37,0,0,1,406.11,75.83Zm-1.25-1.4a.37.37,0,0,1,0-.53h0a.37.37,0,0,1,.52,0h0a.38.38,0,0,1,.05.53h0a.37.37,0,0,1-.29.13h0A.42.42,0,0,1,404.86,74.43Zm-1.6-1a.37.37,0,0,1-.19-.49h0a.37.37,0,0,1,.5-.2h0a.38.38,0,0,1,.19.49h0a.38.38,0,0,1-.35.22h0Zm-1.81-.52h0a.37.37,0,0,1-.32-.42h0a.37.37,0,0,1,.43-.31h0a.37.37,0,0,1,.33.42h0a.38.38,0,0,1-.38.31h0Zm-2.33-.43a.37.37,0,0,1,.38-.37h0a.37.37,0,0,1,.37.37h0a.38.38,0,0,1-.37.38h0A.38.38,0,0,1,399.12,72.48Zm-2,0a.37.37,0,0,1,.38-.37h0a.37.37,0,0,1,.37.37h0a.38.38,0,0,1-.37.38h0A.38.38,0,0,1,397.12,72.48Zm-2,0a.37.37,0,0,1,.38-.37h0a.37.37,0,0,1,.37.37h0a.38.38,0,0,1-.37.38h0A.38.38,0,0,1,395.12,72.48Zm-2,0a.37.37,0,0,1,.38-.37h0a.37.37,0,0,1,.37.37h0a.38.38,0,0,1-.37.38h0A.38.38,0,0,1,393.12,72.48Zm-2,0a.37.37,0,0,1,.38-.37h0a.37.37,0,0,1,.37.37h0a.38.38,0,0,1-.37.38h0A.38.38,0,0,1,391.12,72.48Zm-2,0a.37.37,0,0,1,.38-.37h0a.36.36,0,0,1,.37.37h0a.37.37,0,0,1-.37.38h0A.38.38,0,0,1,389.12,72.48Zm-2,0a.37.37,0,0,1,.38-.37h0a.37.37,0,0,1,.37.37h0a.38.38,0,0,1-.37.38h0A.38.38,0,0,1,387.12,72.48Zm-2,0a.37.37,0,0,1,.38-.37h0a.36.36,0,0,1,.37.37h0a.37.37,0,0,1-.37.38h0A.38.38,0,0,1,385.12,72.48Zm-2,0a.37.37,0,0,1,.38-.37h0a.37.37,0,0,1,.37.37h0a.38.38,0,0,1-.37.38h0A.38.38,0,0,1,383.12,72.48Zm-2,0a.37.37,0,0,1,.38-.37h0a.36.36,0,0,1,.37.37h0a.37.37,0,0,1-.37.38h0A.38.38,0,0,1,381.12,72.48Zm-2,0a.37.37,0,0,1,.38-.37h0a.37.37,0,0,1,.37.37h0a.38.38,0,0,1-.37.38h0A.38.38,0,0,1,379.12,72.48Zm-2,0a.37.37,0,0,1,.38-.37h0a.37.37,0,0,1,.37.37h0a.38.38,0,0,1-.37.38h0A.38.38,0,0,1,377.12,72.48Zm-2,0a.37.37,0,0,1,.38-.37h0a.37.37,0,0,1,.37.37h0a.38.38,0,0,1-.37.38h0A.38.38,0,0,1,375.12,72.48Zm-2,0a.37.37,0,0,1,.38-.37h0a.37.37,0,0,1,.37.37h0a.38.38,0,0,1-.37.38h0A.38.38,0,0,1,373.12,72.48Zm-2,0a.37.37,0,0,1,.38-.37h0a.37.37,0,0,1,.37.37h0a.38.38,0,0,1-.37.38h0A.38.38,0,0,1,371.12,72.48Zm-2,0a.37.37,0,0,1,.38-.37h0a.37.37,0,0,1,.37.37h0a.38.38,0,0,1-.37.38h0A.38.38,0,0,1,369.12,72.48Zm-2,0a.37.37,0,0,1,.38-.37h0a.37.37,0,0,1,.37.37h0a.38.38,0,0,1-.37.38h0A.38.38,0,0,1,367.12,72.48Zm-2,0a.37.37,0,0,1,.38-.37h0a.37.37,0,0,1,.37.37h0a.38.38,0,0,1-.37.38h0A.38.38,0,0,1,365.12,72.48Zm-2,0a.37.37,0,0,1,.38-.37h0a.37.37,0,0,1,.37.37h0a.38.38,0,0,1-.37.38h0A.38.38,0,0,1,363.12,72.48Zm-2,0a.37.37,0,0,1,.38-.37h0a.37.37,0,0,1,.37.37h0a.38.38,0,0,1-.37.38h0A.38.38,0,0,1,361.12,72.48Zm-2,0a.37.37,0,0,1,.38-.37h0a.37.37,0,0,1,.37.37h0a.38.38,0,0,1-.37.38h0A.38.38,0,0,1,359.12,72.48Zm-2,0a.37.37,0,0,1,.38-.37h0a.37.37,0,0,1,.37.37h0a.38.38,0,0,1-.37.38h0A.38.38,0,0,1,357.12,72.48Zm-2,0a.37.37,0,0,1,.38-.37h0a.37.37,0,0,1,.37.37h0a.38.38,0,0,1-.37.38h0A.38.38,0,0,1,355.12,72.48Zm-2,0a.37.37,0,0,1,.38-.37h0a.37.37,0,0,1,.37.37h0a.38.38,0,0,1-.37.38h0A.38.38,0,0,1,353.12,72.48Zm-2,0a.37.37,0,0,1,.38-.37h0a.37.37,0,0,1,.37.37h0a.38.38,0,0,1-.37.38h0A.38.38,0,0,1,351.12,72.48Zm-2,0a.37.37,0,0,1,.38-.37h0a.37.37,0,0,1,.37.37h0a.38.38,0,0,1-.37.38h0A.38.38,0,0,1,349.12,72.48Zm-2,0a.37.37,0,0,1,.38-.37h0a.36.36,0,0,1,.37.37h0a.37.37,0,0,1-.37.38h0A.38.38,0,0,1,347.12,72.48Zm-2,0a.37.37,0,0,1,.38-.37h0a.37.37,0,0,1,.37.37h0a.38.38,0,0,1-.37.38h0A.38.38,0,0,1,345.12,72.48Zm-2,0a.37.37,0,0,1,.38-.37h0a.36.36,0,0,1,.37.37h0a.37.37,0,0,1-.37.38h0A.38.38,0,0,1,343.12,72.48Zm-2,0a.37.37,0,0,1,.38-.37h0a.37.37,0,0,1,.37.37h0a.38.38,0,0,1-.37.38h0A.38.38,0,0,1,341.12,72.48Zm-2,0a.37.37,0,0,1,.38-.37h0a.36.36,0,0,1,.37.37h0a.37.37,0,0,1-.37.38h0A.38.38,0,0,1,339.12,72.48Zm-2,0a.37.37,0,0,1,.38-.37h0a.37.37,0,0,1,.37.37h0a.38.38,0,0,1-.37.38h0A.38.38,0,0,1,337.12,72.48Zm-2,0a.37.37,0,0,1,.38-.37h0a.37.37,0,0,1,.37.37h0a.38.38,0,0,1-.37.38h0A.38.38,0,0,1,335.12,72.48Zm-2,0a.37.37,0,0,1,.38-.37h0a.37.37,0,0,1,.37.37h0a.38.38,0,0,1-.37.38h0A.38.38,0,0,1,333.12,72.48Zm-2,0a.37.37,0,0,1,.38-.37h0a.37.37,0,0,1,.37.37h0a.38.38,0,0,1-.37.38h0A.38.38,0,0,1,331.12,72.48Zm-2,0a.37.37,0,0,1,.38-.37h0a.37.37,0,0,1,.37.37h0a.38.38,0,0,1-.37.38h0A.38.38,0,0,1,329.12,72.48Zm-2,0a.37.37,0,0,1,.38-.37h0a.37.37,0,0,1,.37.37h0a.38.38,0,0,1-.37.38h0A.38.38,0,0,1,327.12,72.48Zm-2,0a.37.37,0,0,1,.38-.37h0a.37.37,0,0,1,.37.37h0a.38.38,0,0,1-.37.38h0A.38.38,0,0,1,325.12,72.48Z"/><path class="cls-1" d="M407.59,96l-.07,0-9-5.22a.16.16,0,0,1,0-.26l9-5.22a.19.19,0,0,1,.15,0l9,5.22a.16.16,0,0,1,0,.26l-9,5.22Zm-8.73-5.37,8.73,5,8.73-5-8.73-5Z"/><path class="cls-1" d="M407.59,106.42l-.07,0-9-5.22a.14.14,0,0,1-.07-.13V90.62a.17.17,0,0,1,.07-.13.14.14,0,0,1,.15,0l9,5.22a.14.14,0,0,1,.07.13v10.43a.17.17,0,0,1-.07.13ZM398.71,101l8.73,5V95.92l-8.73-5Z"/><path class="cls-1" d="M407.59,106.42l-.07,0a.16.16,0,0,1-.08-.13V95.84a.13.13,0,0,1,.08-.13l9-5.22a.14.14,0,0,1,.15,0,.15.15,0,0,1,.07.13v10.43a.13.13,0,0,1-.07.13l-9,5.22Zm.15-10.5V106l8.73-5V90.88Z"/><path class="cls-1" d="M407.59,106.52a.17.17,0,0,1-.12,0l-9-5.21a.25.25,0,0,1-.12-.22V90.62a.25.25,0,0,1,.12-.22l9-5.21a.23.23,0,0,1,.25,0l9,5.21a.25.25,0,0,1,.12.22v10.43a.25.25,0,0,1-.12.22l-9,5.21A.22.22,0,0,1,407.59,106.52Zm-8.78-5.61,8.78,5.07,8.78-5.07V90.77l-8.78-5.08-8.78,5.08Zm17.81.14h0Z"/><path class="cls-7" d="M149.48,265.94a.38.38,0,0,1,.38-.38h0a.37.37,0,0,1,.37.38h0a.37.37,0,0,1-.37.37h0A.38.38,0,0,1,149.48,265.94Zm-2,0a.38.38,0,0,1,.38-.38h0a.37.37,0,0,1,.37.38h0a.37.37,0,0,1-.37.37h0A.38.38,0,0,1,147.48,265.94Zm-2,0a.38.38,0,0,1,.38-.38h0a.37.37,0,0,1,.37.38h0a.37.37,0,0,1-.37.37h0A.38.38,0,0,1,145.48,265.94Zm-2,0a.38.38,0,0,1,.38-.38h0a.37.37,0,0,1,.37.38h0a.37.37,0,0,1-.37.37h0A.38.38,0,0,1,143.48,265.94Zm-2,0a.38.38,0,0,1,.38-.38h0a.37.37,0,0,1,.37.38h0a.37.37,0,0,1-.37.37h0A.38.38,0,0,1,141.48,265.94Zm-2,0a.38.38,0,0,1,.38-.38h0a.37.37,0,0,1,.37.38h0a.37.37,0,0,1-.37.37h0A.38.38,0,0,1,139.48,265.94Zm-2,0a.38.38,0,0,1,.38-.38h0a.37.37,0,0,1,.37.38h0a.37.37,0,0,1-.37.37h0A.38.38,0,0,1,137.48,265.94Zm-2,0a.38.38,0,0,1,.38-.38h0a.37.37,0,0,1,.37.38h0a.37.37,0,0,1-.37.37h0A.38.38,0,0,1,135.48,265.94Zm-2,0a.38.38,0,0,1,.38-.38h0a.37.37,0,0,1,.37.38h0a.37.37,0,0,1-.37.37h0A.38.38,0,0,1,133.48,265.94Zm-2,0a.38.38,0,0,1,.38-.38h0a.37.37,0,0,1,.37.38h0a.37.37,0,0,1-.37.37h0A.38.38,0,0,1,131.48,265.94Zm-2,0a.38.38,0,0,1,.38-.38h0a.37.37,0,0,1,.37.38h0a.37.37,0,0,1-.37.37h0A.38.38,0,0,1,129.48,265.94Zm-2,0a.38.38,0,0,1,.38-.38h0a.37.37,0,0,1,.37.38h0a.37.37,0,0,1-.37.37h0A.38.38,0,0,1,127.48,265.94Zm-2,0a.38.38,0,0,1,.38-.38h0a.37.37,0,0,1,.37.38h0a.37.37,0,0,1-.37.37h0A.38.38,0,0,1,125.48,265.94Zm-2,0a.38.38,0,0,1,.38-.38h0a.37.37,0,0,1,.37.38h0a.37.37,0,0,1-.37.37h0A.38.38,0,0,1,123.48,265.94Zm-2,0a.37.37,0,0,1,.37-.38h0a.38.38,0,0,1,.38.38h0a.38.38,0,0,1-.38.37h0A.37.37,0,0,1,121.49,265.94Zm-2,0a.37.37,0,0,1,.37-.38h0a.38.38,0,0,1,.38.38h0a.38.38,0,0,1-.38.37h0A.37.37,0,0,1,119.49,265.94Zm-2,0a.37.37,0,0,1,.37-.38h0a.38.38,0,0,1,.38.38h0a.38.38,0,0,1-.38.37h0A.37.37,0,0,1,117.49,265.94Zm-2,0a.37.37,0,0,1,.37-.38h0a.38.38,0,0,1,.38.38h0a.38.38,0,0,1-.38.37h0A.37.37,0,0,1,115.49,265.94Zm-2,0a.37.37,0,0,1,.37-.38h0a.38.38,0,0,1,.38.38h0a.38.38,0,0,1-.38.37h0A.37.37,0,0,1,113.49,265.94Zm-1.71,0a.39.39,0,0,1-.25-.48h0a.38.38,0,0,1,.48-.23h0a.37.37,0,0,1,.24.47h0a.38.38,0,0,1-.36.26h0Zm-1.88-1a.36.36,0,0,1-.07-.51h0a.37.37,0,0,1,.53-.08h0a.39.39,0,0,1,.07.53h0a.41.41,0,0,1-.3.14h0A.3.3,0,0,1,109.9,265Zm-1.49-1.39a.38.38,0,0,1,0-.54h0a.37.37,0,0,1,.53,0h0a.38.38,0,0,1,0,.54h0a.42.42,0,0,1-.26.1h0A.43.43,0,0,1,108.41,263.6ZM107,262.18a.37.37,0,0,1,0-.53h0a.35.35,0,0,1,.53,0h0a.39.39,0,0,1,0,.53h0a.39.39,0,0,1-.27.1h0A.37.37,0,0,1,107,262.18Zm-1.42-1.41a.4.4,0,0,1,0-.54h0a.37.37,0,0,1,.53,0h0a.38.38,0,0,1,0,.54h0a.42.42,0,0,1-.26.1h0A.45.45,0,0,1,105.58,260.77Zm-1.41-1.42a.37.37,0,0,1,0-.53h0a.39.39,0,0,1,.53,0h0a.37.37,0,0,1,0,.53h0a.35.35,0,0,1-.27.11h0A.34.34,0,0,1,104.17,259.35Zm-1.42-1.41a.4.4,0,0,1,0-.54h0a.37.37,0,0,1,.53,0h0a.38.38,0,0,1,0,.54h0a.4.4,0,0,1-.26.1h0A.45.45,0,0,1,102.75,257.94Zm-1.41-1.42a.37.37,0,0,1,0-.53h0a.39.39,0,0,1,.53,0h0a.37.37,0,0,1,0,.53h0a.35.35,0,0,1-.26.12h0A.36.36,0,0,1,101.34,256.52Zm-1.41-1.41a.38.38,0,0,1,0-.54h0a.41.41,0,0,1,.53,0h0a.4.4,0,0,1,0,.54h0a.35.35,0,0,1-.27.1h0A.33.33,0,0,1,99.93,255.11Zm-1.42-1.42a.37.37,0,0,1,0-.53h0a.39.39,0,0,1,.53,0h0a.37.37,0,0,1,0,.53h0a.35.35,0,0,1-.26.12h0A.37.37,0,0,1,98.51,253.69ZM97.24,252a.39.39,0,0,1,.17-.52h0a.37.37,0,0,1,.5.18h0a.38.38,0,0,1-.16.5h0l-.17,0h0A.37.37,0,0,1,97.24,252Zm-.6-2h0a.38.38,0,0,1,.33-.42h0a.39.39,0,0,1,.42.34h0a.38.38,0,0,1-.34.41h0A.38.38,0,0,1,96.64,250Zm0-2a.37.37,0,0,1,.37-.38h0a.38.38,0,0,1,.38.38h0a.37.37,0,0,1-.38.37h0A.36.36,0,0,1,96.61,247.94Zm0-2a.37.37,0,0,1,.37-.38h0a.38.38,0,0,1,.38.38h0a.37.37,0,0,1-.38.37h0A.36.36,0,0,1,96.61,245.94Zm0-2a.37.37,0,0,1,.37-.38h0a.38.38,0,0,1,.38.38h0a.37.37,0,0,1-.38.37h0A.36.36,0,0,1,96.61,243.94Zm0-2a.37.37,0,0,1,.37-.38h0a.38.38,0,0,1,.38.38h0a.37.37,0,0,1-.38.37h0A.36.36,0,0,1,96.61,241.94Zm0-2a.37.37,0,0,1,.37-.38h0a.38.38,0,0,1,.38.38h0a.37.37,0,0,1-.38.37h0A.36.36,0,0,1,96.61,239.94Zm0-2a.37.37,0,0,1,.37-.38h0a.38.38,0,0,1,.38.38h0a.37.37,0,0,1-.38.37h0A.36.36,0,0,1,96.61,237.94Zm0-2a.37.37,0,0,1,.37-.38h0a.38.38,0,0,1,.38.38h0a.37.37,0,0,1-.38.37h0A.36.36,0,0,1,96.61,235.94Zm0-2a.37.37,0,0,1,.37-.38h0a.38.38,0,0,1,.38.38h0a.37.37,0,0,1-.38.37h0A.36.36,0,0,1,96.61,233.94Zm0-2a.37.37,0,0,1,.37-.38h0a.38.38,0,0,1,.38.38h0a.37.37,0,0,1-.38.37h0A.36.36,0,0,1,96.61,231.94Zm0-2a.37.37,0,0,1,.37-.38h0a.38.38,0,0,1,.38.38h0a.37.37,0,0,1-.38.37h0A.36.36,0,0,1,96.61,229.94Zm0-2a.37.37,0,0,1,.37-.38h0a.38.38,0,0,1,.38.38h0a.37.37,0,0,1-.38.37h0A.36.36,0,0,1,96.61,227.94Zm0-2a.37.37,0,0,1,.37-.38h0a.38.38,0,0,1,.38.38h0a.37.37,0,0,1-.38.37h0A.36.36,0,0,1,96.61,225.94Zm0-2a.37.37,0,0,1,.37-.38h0a.38.38,0,0,1,.38.38h0a.37.37,0,0,1-.38.37h0A.36.36,0,0,1,96.61,223.94Zm0-2a.37.37,0,0,1,.37-.38h0a.38.38,0,0,1,.38.38h0a.37.37,0,0,1-.38.37h0A.36.36,0,0,1,96.61,221.94Zm0-2a.37.37,0,0,1,.37-.38h0a.38.38,0,0,1,.38.38h0a.37.37,0,0,1-.38.37h0A.36.36,0,0,1,96.61,219.94Zm0-2a.37.37,0,0,1,.37-.38h0a.38.38,0,0,1,.38.38h0a.37.37,0,0,1-.38.37h0A.36.36,0,0,1,96.61,217.94Zm0-2a.37.37,0,0,1,.37-.38h0a.38.38,0,0,1,.38.38h0a.37.37,0,0,1-.38.37h0A.36.36,0,0,1,96.61,215.94Zm0-2a.37.37,0,0,1,.37-.38h0a.38.38,0,0,1,.38.38h0a.37.37,0,0,1-.38.37h0A.36.36,0,0,1,96.61,213.94Zm0-2a.37.37,0,0,1,.37-.38h0a.38.38,0,0,1,.38.38h0a.37.37,0,0,1-.38.37h0A.36.36,0,0,1,96.61,211.94Zm0-2a.37.37,0,0,1,.37-.38h0a.38.38,0,0,1,.38.38h0a.37.37,0,0,1-.38.37h0A.36.36,0,0,1,96.61,209.94Zm0-2a.37.37,0,0,1,.37-.38h0a.38.38,0,0,1,.38.38h0a.37.37,0,0,1-.38.37h0A.36.36,0,0,1,96.61,207.94Zm0-2a.37.37,0,0,1,.37-.38h0a.38.38,0,0,1,.38.38h0a.37.37,0,0,1-.38.37h0A.36.36,0,0,1,96.61,205.94Zm0-24a.37.37,0,0,1,.37-.38h0a.38.38,0,0,1,.38.38h0a.37.37,0,0,1-.38.37h0A.36.36,0,0,1,96.61,181.94Zm0-2a.37.37,0,0,1,.37-.38h0a.38.38,0,0,1,.38.38h0a.37.37,0,0,1-.38.37h0A.36.36,0,0,1,96.61,179.94Zm0-2a.37.37,0,0,1,.37-.38h0a.38.38,0,0,1,.38.38h0a.37.37,0,0,1-.38.37h0A.36.36,0,0,1,96.61,177.94Zm0-2a.37.37,0,0,1,.37-.38h0a.38.38,0,0,1,.38.38h0a.37.37,0,0,1-.38.37h0A.36.36,0,0,1,96.61,175.94Zm0-2a.37.37,0,0,1,.37-.38h0a.38.38,0,0,1,.38.38h0a.37.37,0,0,1-.38.37h0A.36.36,0,0,1,96.61,173.94Zm0-2a.37.37,0,0,1,.37-.38h0a.38.38,0,0,1,.38.38h0a.37.37,0,0,1-.38.37h0A.36.36,0,0,1,96.61,171.94Zm0-2a.37.37,0,0,1,.37-.38h0a.38.38,0,0,1,.38.38h0a.37.37,0,0,1-.38.37h0A.36.36,0,0,1,96.61,169.94Zm0-2a.37.37,0,0,1,.37-.38h0a.38.38,0,0,1,.38.38h0a.37.37,0,0,1-.38.37h0A.36.36,0,0,1,96.61,167.94Zm0-2a.37.37,0,0,1,.37-.38h0a.38.38,0,0,1,.38.38h0a.37.37,0,0,1-.38.37h0A.36.36,0,0,1,96.61,165.94Zm0-2a.37.37,0,0,1,.37-.38h0a.38.38,0,0,1,.38.38h0a.37.37,0,0,1-.38.37h0A.36.36,0,0,1,96.61,163.94Zm0-2a.37.37,0,0,1,.37-.38h0a.38.38,0,0,1,.38.38h0a.37.37,0,0,1-.38.37h0A.36.36,0,0,1,96.61,161.94Zm0-2a.37.37,0,0,1,.37-.38h0a.38.38,0,0,1,.38.38h0a.37.37,0,0,1-.38.37h0A.36.36,0,0,1,96.61,159.94Zm0-2a.37.37,0,0,1,.37-.38h0a.38.38,0,0,1,.38.38h0a.37.37,0,0,1-.38.37h0A.36.36,0,0,1,96.61,157.94Zm0-2a.37.37,0,0,1,.37-.38h0a.38.38,0,0,1,.38.38h0a.37.37,0,0,1-.38.37h0A.36.36,0,0,1,96.61,155.94Zm0-2a.37.37,0,0,1,.37-.38h0a.38.38,0,0,1,.38.38h0a.37.37,0,0,1-.38.37h0A.36.36,0,0,1,96.61,153.94Zm0-2a.37.37,0,0,1,.37-.38h0a.38.38,0,0,1,.38.38h0a.37.37,0,0,1-.38.37h0A.36.36,0,0,1,96.61,151.94Zm0-2a.37.37,0,0,1,.37-.38h0a.38.38,0,0,1,.38.38h0a.37.37,0,0,1-.38.37h0A.36.36,0,0,1,96.61,149.94Zm0-2a.37.37,0,0,1,.37-.38h0a.38.38,0,0,1,.38.38h0a.37.37,0,0,1-.38.37h0A.36.36,0,0,1,96.61,147.94Zm0-2a.37.37,0,0,1,.37-.38h0a.38.38,0,0,1,.38.38h0a.37.37,0,0,1-.38.37h0A.36.36,0,0,1,96.61,145.94Zm0-2a.37.37,0,0,1,.37-.38h0a.38.38,0,0,1,.38.38h0a.37.37,0,0,1-.38.37h0A.36.36,0,0,1,96.61,143.94Zm0-2a.37.37,0,0,1,.37-.38h0a.38.38,0,0,1,.38.38h0a.37.37,0,0,1-.38.37h0A.36.36,0,0,1,96.61,141.94Zm0-2a.37.37,0,0,1,.37-.38h0a.38.38,0,0,1,.38.38h0a.37.37,0,0,1-.38.37h0A.36.36,0,0,1,96.61,139.94Zm.46-1.63a.37.37,0,0,1-.27-.45h0a.38.38,0,0,1,.46-.28h0a.39.39,0,0,1,.27.46h0a.38.38,0,0,1-.37.28h-.09Zm.71-1.86a.36.36,0,0,1-.09-.51h0a.38.38,0,0,1,.53-.09h0a.36.36,0,0,1,.09.51h0a.4.4,0,0,1-.31.16h0A.44.44,0,0,1,97.78,136.45Zm1.31-1.51a.37.37,0,0,1,0-.53h0a.39.39,0,0,1,.53,0h0a.39.39,0,0,1,0,.53h0a.37.37,0,0,1-.27.12h0A.35.35,0,0,1,99.09,134.94Zm1.41-1.41a.4.4,0,0,1,0-.54h0a.41.41,0,0,1,.53,0h0a.38.38,0,0,1,0,.54h0a.34.34,0,0,1-.26.11h0A.36.36,0,0,1,100.5,133.53Zm1.42-1.42a.37.37,0,0,1,0-.53h0a.37.37,0,0,1,.52,0h0a.37.37,0,0,1,0,.53h0a.34.34,0,0,1-.26.12h0A.35.35,0,0,1,101.92,132.11Zm1.41-1.41a.36.36,0,0,1,0-.52h0a.35.35,0,0,1,.53,0h0a.36.36,0,0,1,0,.52h0a.38.38,0,0,1-.26.11h0A.39.39,0,0,1,103.33,130.7Zm1.42-1.42a.37.37,0,0,1,0-.53h0a.39.39,0,0,1,.53,0h0a.39.39,0,0,1,0,.53h0a.37.37,0,0,1-.27.12h0A.34.34,0,0,1,104.75,129.28Zm1.41-1.41a.36.36,0,0,1,0-.52h0a.35.35,0,0,1,.53,0h0a.37.37,0,0,1,0,.52h0a.39.39,0,0,1-.27.11h0A.38.38,0,0,1,106.16,127.87Zm1.47-1.35a.39.39,0,0,1,.12-.53h0a.4.4,0,0,1,.52.13h0a.4.4,0,0,1-.13.53h0a.35.35,0,0,1-.2,0h0A.39.39,0,0,1,107.63,126.52Zm1.8-.84a.39.39,0,0,1,.3-.45h0a.38.38,0,0,1,.44.3h0a.38.38,0,0,1-.3.45h-.06A.39.39,0,0,1,109.43,125.68Zm6-.18a.38.38,0,0,1,.38-.38h0a.38.38,0,0,1,.37.38h0a.37.37,0,0,1-.37.37h0A.37.37,0,0,1,115.42,125.5Zm-2,0a.38.38,0,0,1,.37-.38h0a.38.38,0,0,1,.38.38h0a.37.37,0,0,1-.38.37h0A.37.37,0,0,1,113.42,125.5Zm-2,0a.38.38,0,0,1,.37-.38h0a.38.38,0,0,1,.38.38h0a.37.37,0,0,1-.38.37h0A.37.37,0,0,1,111.42,125.5Z"/><path class="cls-4" d="M97,194.48a.1.1,0,0,1-.07,0l-9-5.21a.17.17,0,0,1-.07-.13.14.14,0,0,1,.07-.13l9-5.22a.14.14,0,0,1,.15,0l9,5.22a.13.13,0,0,1,.08.13.16.16,0,0,1-.08.13l-9,5.21A.11.11,0,0,1,97,194.48Zm-8.73-5.36,8.73,5,8.74-5L97,184.07Z"/><path class="cls-4" d="M97,204.91a.1.1,0,0,1-.07,0l-9-5.21a.17.17,0,0,1-.07-.13V189.12a.14.14,0,0,1,.07-.13.14.14,0,0,1,.15,0l9,5.21a.17.17,0,0,1,.07.13v10.43a.14.14,0,0,1-.07.13A.11.11,0,0,1,97,204.91Zm-8.88-5.45,8.73,5V194.42l-8.73-5Z"/><path class="cls-4" d="M97,204.91a.1.1,0,0,1-.07,0,.13.13,0,0,1-.08-.13V194.33a.16.16,0,0,1,.08-.13l9-5.21a.14.14,0,0,1,.15,0,.13.13,0,0,1,.08.13v10.43a.16.16,0,0,1-.08.13l-9,5.21A.11.11,0,0,1,97,204.91Zm.15-10.49V204.5l8.74-5V189.38Z"/><path class="cls-4" d="M97,205a.27.27,0,0,1-.12,0l-9-5.22a.24.24,0,0,1-.12-.21V189.12a.26.26,0,0,1,.12-.22l9-5.22a.28.28,0,0,1,.25,0l9,5.22a.25.25,0,0,1,.13.22v10.43a.23.23,0,0,1-.13.21l-9,5.22A.28.28,0,0,1,97,205ZM88.2,199.4,97,204.47l8.79-5.07V189.26L97,184.19l-8.78,5.07Zm17.82.15Z"/><path class="cls-8" d="M312.29,261.48a.36.36,0,0,1,.37-.37h0a.37.37,0,0,1,.38.37h0a.38.38,0,0,1-.38.38h0A.37.37,0,0,1,312.29,261.48Zm-2,0a.36.36,0,0,1,.37-.37h0a.37.37,0,0,1,.38.37h0a.38.38,0,0,1-.38.38h0A.37.37,0,0,1,310.29,261.48Zm-2,0a.36.36,0,0,1,.37-.37h0a.37.37,0,0,1,.38.37h0a.38.38,0,0,1-.38.38h0A.37.37,0,0,1,308.29,261.48Zm-2,0a.36.36,0,0,1,.37-.37h0a.37.37,0,0,1,.38.37h0a.38.38,0,0,1-.38.38h0A.37.37,0,0,1,306.29,261.48Zm-2,0a.36.36,0,0,1,.37-.37h0a.36.36,0,0,1,.37.37h0a.37.37,0,0,1-.37.38h0A.37.37,0,0,1,304.29,261.48Zm-2,0a.36.36,0,0,1,.37-.37h0a.36.36,0,0,1,.37.37h0a.37.37,0,0,1-.37.38h0A.37.37,0,0,1,302.29,261.48Zm-2,0a.36.36,0,0,1,.37-.37h0a.36.36,0,0,1,.37.37h0a.37.37,0,0,1-.37.38h0A.37.37,0,0,1,300.29,261.48Zm-2,0a.36.36,0,0,1,.37-.37h0a.37.37,0,0,1,.38.37h0a.38.38,0,0,1-.38.38h0A.37.37,0,0,1,298.29,261.48Zm-2,0a.36.36,0,0,1,.37-.37h0a.37.37,0,0,1,.38.37h0a.38.38,0,0,1-.38.38h0A.37.37,0,0,1,296.29,261.48Zm-2,0a.36.36,0,0,1,.37-.37h0a.37.37,0,0,1,.38.37h0a.38.38,0,0,1-.38.38h0A.37.37,0,0,1,294.29,261.48Zm-2,0a.37.37,0,0,1,.37-.37h0a.37.37,0,0,1,.38.37h0a.38.38,0,0,1-.38.38h0A.38.38,0,0,1,292.29,261.48Zm22,0a.37.37,0,0,1,.33-.4h0a.37.37,0,0,1,.41.34h0a.38.38,0,0,1-.33.41h0A.38.38,0,0,1,314.29,261.46Zm2-.31a.36.36,0,0,1,.25-.46h0a.37.37,0,0,1,.47.25h0a.37.37,0,0,1-.25.46h0l-.11,0h0A.39.39,0,0,1,316.26,261.15Zm1.87-.7a.37.37,0,0,1,.16-.5h0a.37.37,0,0,1,.51.16h0a.37.37,0,0,1-.15.5h0a.28.28,0,0,1-.17,0h0A.38.38,0,0,1,318.13,260.45Zm1.7-1.05a.37.37,0,0,1,0-.53h0a.38.38,0,0,1,.53.05h0a.38.38,0,0,1,0,.53h0a.43.43,0,0,1-.24.08h0A.36.36,0,0,1,319.83,259.4Zm1.47-1.34a.39.39,0,0,1,0-.54h0a.38.38,0,0,1,.53,0h0a.37.37,0,0,1,0,.53h0a.31.31,0,0,1-.25.1h0A.48.48,0,0,1,321.3,258.06Zm1.46-1.37a.39.39,0,0,1,0-.54h0a.38.38,0,0,1,.53,0h0a.38.38,0,0,1,0,.53h0a.32.32,0,0,1-.26.1h0A.43.43,0,0,1,322.76,256.69Zm1.46-1.38a.37.37,0,0,1,0-.53h0a.37.37,0,0,1,.52,0h0a.37.37,0,0,1,0,.53h0a.34.34,0,0,1-.26.11h0A.36.36,0,0,1,324.22,255.31Zm1.45-1.37a.4.4,0,0,1,0-.54h0a.38.38,0,0,1,.53,0h0a.37.37,0,0,1,0,.53h0a.43.43,0,0,1-.24.08h0A.38.38,0,0,1,325.67,253.94Zm1.62-1.17a.39.39,0,0,1,.18-.5h0a.39.39,0,0,1,.5.18h0a.37.37,0,0,1-.17.5h0a.34.34,0,0,1-.16,0h0A.39.39,0,0,1,327.29,252.77Zm1.87-.7a.36.36,0,0,1,.3-.43h0v0h0a.41.41,0,0,1,.44.31h0a.38.38,0,0,1-.3.44h-.07A.38.38,0,0,1,329.16,252.07Zm66-.21a.37.37,0,0,1,.37-.38h0a.38.38,0,0,1,.38.38h0a.38.38,0,0,1-.38.37h0A.37.37,0,0,1,395.15,251.86Zm-2,0a.37.37,0,0,1,.37-.38h0a.38.38,0,0,1,.38.38h0a.38.38,0,0,1-.38.37h0A.37.37,0,0,1,393.15,251.86Zm-2,0a.37.37,0,0,1,.37-.38h0a.38.38,0,0,1,.38.38h0a.38.38,0,0,1-.38.37h0A.37.37,0,0,1,391.15,251.86Zm-2,0a.38.38,0,0,1,.37-.38h0a.38.38,0,0,1,.38.38h0a.38.38,0,0,1-.38.37h0A.38.38,0,0,1,389.15,251.86Zm-2,0a.38.38,0,0,1,.37-.38h0a.38.38,0,0,1,.38.38h0a.38.38,0,0,1-.38.37h0A.38.38,0,0,1,387.15,251.86Zm-2,0a.38.38,0,0,1,.37-.38h0a.38.38,0,0,1,.38.38h0a.38.38,0,0,1-.38.37h0A.38.38,0,0,1,385.15,251.86Zm-2,0a.37.37,0,0,1,.37-.38h0a.38.38,0,0,1,.38.38h0a.38.38,0,0,1-.38.37h0A.37.37,0,0,1,383.15,251.86Zm-2,0a.37.37,0,0,1,.37-.38h0a.38.38,0,0,1,.38.38h0a.38.38,0,0,1-.38.37h0A.37.37,0,0,1,381.15,251.86Zm-2,0a.37.37,0,0,1,.37-.38h0a.38.38,0,0,1,.38.38h0a.38.38,0,0,1-.38.37h0A.37.37,0,0,1,379.15,251.86Zm-2,0a.37.37,0,0,1,.37-.38h0a.38.38,0,0,1,.38.38h0a.38.38,0,0,1-.38.37h0A.37.37,0,0,1,377.15,251.86Zm-2,0a.37.37,0,0,1,.37-.38h0a.38.38,0,0,1,.38.38h0a.38.38,0,0,1-.38.37h0A.37.37,0,0,1,375.15,251.86Zm-2,0a.37.37,0,0,1,.37-.38h0a.38.38,0,0,1,.38.38h0a.38.38,0,0,1-.38.37h0A.37.37,0,0,1,373.15,251.86Zm-2,0a.37.37,0,0,1,.37-.38h0a.38.38,0,0,1,.38.38h0a.38.38,0,0,1-.38.37h0A.37.37,0,0,1,371.15,251.86Zm-2,0a.37.37,0,0,1,.37-.38h0a.38.38,0,0,1,.38.38h0a.38.38,0,0,1-.38.37h0A.37.37,0,0,1,369.15,251.86Zm-2,0a.37.37,0,0,1,.37-.38h0a.38.38,0,0,1,.38.38h0a.38.38,0,0,1-.38.37h0A.37.37,0,0,1,367.15,251.86Zm-2,0a.37.37,0,0,1,.37-.38h0a.38.38,0,0,1,.38.38h0a.38.38,0,0,1-.38.37h0A.37.37,0,0,1,365.15,251.86Zm-2,0a.37.37,0,0,1,.37-.38h0a.38.38,0,0,1,.38.38h0a.38.38,0,0,1-.38.37h0A.37.37,0,0,1,363.15,251.86Zm-2,0a.37.37,0,0,1,.37-.38h0a.38.38,0,0,1,.38.38h0a.38.38,0,0,1-.38.37h0A.37.37,0,0,1,361.15,251.86Zm-2,0a.37.37,0,0,1,.37-.38h0a.38.38,0,0,1,.38.38h0a.38.38,0,0,1-.38.37h0A.37.37,0,0,1,359.15,251.86Zm-2,0a.37.37,0,0,1,.37-.38h0a.38.38,0,0,1,.38.38h0a.38.38,0,0,1-.38.37h0A.37.37,0,0,1,357.15,251.86Zm-22,0a.37.37,0,0,1,.37-.38h0a.38.38,0,0,1,.38.38h0a.38.38,0,0,1-.38.37h0A.37.37,0,0,1,335.15,251.86Zm-2,0a.37.37,0,0,1,.37-.38h0a.38.38,0,0,1,.38.38h0a.38.38,0,0,1-.38.37h0A.37.37,0,0,1,333.15,251.86Zm-2,0a.37.37,0,0,1,.37-.38h0a.38.38,0,0,1,.38.38h0a.38.38,0,0,1-.38.37h0A.37.37,0,0,1,331.15,251.86Zm65.52-1.05a.38.38,0,0,1,0-.53h0a.39.39,0,0,1,.53,0h0a.38.38,0,0,1,0,.53h0a.36.36,0,0,1-.28.12h0A.4.4,0,0,1,396.67,250.81Zm1.32-1.5a.38.38,0,0,1,0-.53h0a.38.38,0,0,1,.53,0h0a.38.38,0,0,1,0,.53h0a.37.37,0,0,1-.28.13h0A.38.38,0,0,1,398,249.31Zm1.31-1.5a.4.4,0,0,1,0-.54h0a.39.39,0,0,1,.54,0h0a.39.39,0,0,1,0,.54h0a.35.35,0,0,1-.28.13h0A.45.45,0,0,1,399.3,247.81Zm0-2.24a.38.38,0,0,1,.38-.37h0a.38.38,0,0,1,.38.37h0a.38.38,0,0,1-.38.38h0A.38.38,0,0,1,399.33,245.57Zm0-2a.38.38,0,0,1,.38-.37h0a.38.38,0,0,1,.38.37h0a.38.38,0,0,1-.38.38h0A.38.38,0,0,1,399.33,243.57Zm0-2a.38.38,0,0,1,.38-.37h0a.38.38,0,0,1,.38.37h0a.38.38,0,0,1-.38.38h0A.38.38,0,0,1,399.33,241.57Zm0-2a.37.37,0,0,1,.38-.37h0a.37.37,0,0,1,.38.37h0a.38.38,0,0,1-.38.38h0A.38.38,0,0,1,399.33,239.57Zm0-2a.37.37,0,0,1,.38-.37h0a.37.37,0,0,1,.38.37h0a.38.38,0,0,1-.38.38h0A.38.38,0,0,1,399.33,237.57Zm0-2a.37.37,0,0,1,.38-.37h0a.37.37,0,0,1,.38.37h0a.38.38,0,0,1-.38.38h0A.38.38,0,0,1,399.33,235.57Zm0-2a.38.38,0,0,1,.38-.37h0a.38.38,0,0,1,.38.37h0a.38.38,0,0,1-.38.38h0A.38.38,0,0,1,399.33,233.57Zm0-2a.38.38,0,0,1,.38-.37h0a.38.38,0,0,1,.38.37h0a.38.38,0,0,1-.38.38h0A.38.38,0,0,1,399.33,231.57Zm0-2a.38.38,0,0,1,.38-.37h0a.38.38,0,0,1,.38.37h0a.38.38,0,0,1-.38.38h0A.38.38,0,0,1,399.33,229.57Zm0-2a.38.38,0,0,1,.38-.37h0a.38.38,0,0,1,.38.37h0a.38.38,0,0,1-.38.38h0A.38.38,0,0,1,399.33,227.57Zm0-2a.38.38,0,0,1,.38-.37h0a.38.38,0,0,1,.38.37h0a.38.38,0,0,1-.38.38h0A.38.38,0,0,1,399.33,225.57Z"/><path class="cls-1" d="M346.27,252l-.07,0-9-5.22a.16.16,0,0,1,0-.26l9-5.21a.14.14,0,0,1,.15,0l9,5.21a.15.15,0,0,1,0,.26l-9,5.22Zm-8.73-5.37,8.73,5,8.74-5-8.74-5Z"/><path class="cls-1" d="M346.27,262.44l-.07,0-9-5.22a.14.14,0,0,1-.07-.13V246.64a.17.17,0,0,1,.07-.13.15.15,0,0,1,.16,0l9,5.22a.13.13,0,0,1,.07.13v10.43a.15.15,0,0,1-.07.13ZM337.39,257l8.73,5V251.94l-8.73-5Z"/><path class="cls-1" d="M346.27,262.44l-.07,0a.16.16,0,0,1-.08-.13V251.86a.13.13,0,0,1,.08-.13l9-5.22a.14.14,0,0,1,.15,0,.16.16,0,0,1,.08.13v10.43a.13.13,0,0,1-.08.13l-9,5.22Zm.15-10.5V262l8.74-5V246.9Z"/><path class="cls-1" d="M346.27,262.54l-.12,0-9-5.22a.26.26,0,0,1-.13-.22V246.64a.26.26,0,0,1,.13-.22l9-5.21a.23.23,0,0,1,.25,0l9,5.21a.26.26,0,0,1,.13.22v10.43a.26.26,0,0,1-.13.22l-9,5.22A.28.28,0,0,1,346.27,262.54Zm-8.78-5.61,8.78,5.07,8.79-5.07V246.79l-8.79-5.08-8.78,5.08Zm17.82.14Z"/><path class="cls-9" d="M412.11,117.63a.25.25,0,0,1-.25-.24v-6.91a.25.25,0,0,1,.5,0v6.91A.25.25,0,0,1,412.11,117.63Z"/><path class="cls-9" d="M411.14,111.77a.2.2,0,0,1-.15-.06.24.24,0,0,1-.05-.35l.94-1.24a.26.26,0,0,1,.19-.1.35.35,0,0,1,.2.1l1,1.24a.25.25,0,0,1,0,.35.26.26,0,0,1-.36,0l-.8-1-.74,1A.28.28,0,0,1,411.14,111.77Z"/><path class="cls-9" d="M412.11,120.11a1.4,1.4,0,1,1,1.4-1.4A1.41,1.41,0,0,1,412.11,120.11Zm0-2.3a.9.9,0,1,0,.9.9A.9.9,0,0,0,412.11,117.81Z"/><path class="cls-4" d="M333.9,68.27H327a.25.25,0,0,1,0-.5h6.94a.25.25,0,0,1,0,.5Z"/><path class="cls-4" d="M332.86,69.24a.25.25,0,0,1-.16-.44l1-.8-1-.75a.25.25,0,0,1,.3-.4l1.24.94a.26.26,0,0,1,.1.2.27.27,0,0,1-.09.2l-1.25,1A.27.27,0,0,1,332.86,69.24Z"/><path class="cls-4" d="M325.66,69.42a1.4,1.4,0,1,1,1.41-1.4A1.4,1.4,0,0,1,325.66,69.42Zm0-2.3a.9.9,0,1,0,.91.9A.9.9,0,0,0,325.66,67.12Z"/><path class="cls-4" d="M302.05,257.84h-7a.24.24,0,0,1-.23-.25.24.24,0,0,1,.23-.25h7a.25.25,0,0,1,.24.25A.25.25,0,0,1,302.05,257.84Z"/><path class="cls-4" d="M301,258.81a.26.26,0,0,1-.19-.1.25.25,0,0,1,0-.35l1-.8-1-.75a.25.25,0,1,1,.3-.39l1.24.94a.24.24,0,0,1,.1.19.25.25,0,0,1-.09.2l-1.24,1A.25.25,0,0,1,301,258.81Z"/><path class="cls-4" d="M293.82,259a1.41,1.41,0,1,1,1.4-1.4A1.41,1.41,0,0,1,293.82,259Zm0-2.31a.91.91,0,1,0,.9.91A.91.91,0,0,0,293.82,256.68Z"/><path class="cls-9" d="M405.28,235.23A.25.25,0,0,1,405,235v-7.06a.25.25,0,0,1,.25-.25.25.25,0,0,1,.25.25V235A.25.25,0,0,1,405.28,235.23Z"/><path class="cls-9" d="M405.31,235.45a.25.25,0,0,1-.2-.09l-1-1.24a.26.26,0,0,1,0-.36.25.25,0,0,1,.35,0l.8,1,.75-1a.25.25,0,1,1,.4.3l-.94,1.24A.42.42,0,0,1,405.31,235.45Z"/><path class="cls-9" d="M405.28,228.17a1.41,1.41,0,1,1,1.4-1.41A1.41,1.41,0,0,1,405.28,228.17Zm0-2.31a.91.91,0,1,0,.9.9A.91.91,0,0,0,405.28,225.86Z"/><path class="cls-9" d="M148.47,257.93H141.4a.25.25,0,0,1,0-.5h7.07a.25.25,0,0,1,0,.5Z"/><path class="cls-9" d="M142.42,258.9a.23.23,0,0,1-.15,0l-1.24-.94a.26.26,0,0,1-.1-.2.23.23,0,0,1,.09-.19l1.25-1a.25.25,0,1,1,.31.38l-1,.8,1,.75a.25.25,0,0,1,.05.35A.23.23,0,0,1,142.42,258.9Z"/><path class="cls-9" d="M149.62,259.08a1.4,1.4,0,1,1,1.4-1.4A1.4,1.4,0,0,1,149.62,259.08Zm0-2.3a.9.9,0,1,0,.9.9A.9.9,0,0,0,149.62,256.78Z"/><path class="cls-4" d="M113.2,120.11h-7.36a.25.25,0,0,1-.25-.25.25.25,0,0,1,.25-.25h7.36a.25.25,0,0,1,.25.25A.25.25,0,0,1,113.2,120.11Z"/><path class="cls-4" d="M106.87,121.08a.2.2,0,0,1-.15,0l-1.25-.94a.23.23,0,0,1-.09-.19.22.22,0,0,1,.09-.2l1.24-1a.25.25,0,0,1,.31.39l-1,.8,1,.75a.25.25,0,0,1,0,.35A.27.27,0,0,1,106.87,121.08Z"/><path class="cls-4" d="M114.06,121.27a1.41,1.41,0,1,1,1.41-1.41A1.41,1.41,0,0,1,114.06,121.27Zm0-2.31a.91.91,0,1,0,.91.9A.91.91,0,0,0,114.06,119Z"/><g class="cls-10"><path class="cls-4" d="M139.71,74.58a2.74,2.74,0,0,1-2.61,2.88,2.07,2.07,0,0,1-1.63-.66v2.7h-1.63V71.85h1.63v.51a2.07,2.07,0,0,1,1.63-.66A2.74,2.74,0,0,1,139.71,74.58Zm-1.64,0a1.3,1.3,0,1,0-1.3,1.33A1.24,1.24,0,0,0,138.07,74.58Z"/><path class="cls-4" d="M146,71.85v5.46h-1.64V76.8a2.07,2.07,0,0,1-1.63.66,2.89,2.89,0,0,1,0-5.76,2.07,2.07,0,0,1,1.63.66v-.51Zm-1.64,2.73a1.3,1.3,0,1,0-1.3,1.33A1.25,1.25,0,0,0,144.32,74.58Z"/><path class="cls-4" d="M150.19,71.74V73.6a1.29,1.29,0,0,0-1.64,1.24v2.47h-1.64V71.85h1.64v1A1.64,1.64,0,0,1,150.19,71.74Z"/><path class="cls-4" d="M156.35,71.85v5.46h-1.64V76.8a2.07,2.07,0,0,1-1.63.66,2.89,2.89,0,0,1,0-5.76,2.07,2.07,0,0,1,1.63.66v-.51Zm-1.64,2.73a1.3,1.3,0,1,0-1.3,1.33A1.25,1.25,0,0,0,154.71,74.58Z"/><path class="cls-4" d="M159.56,73.42v1.94c0,.47.4.51,1.12.47v1.48c-2.14.22-2.76-.42-2.76-2V73.42h-.87V71.85h.87v-1l1.64-.49v1.53h1.95v1.57Z"/><path class="cls-4" d="M161.33,70.39a1,1,0,1,1,1,1A1,1,0,0,1,161.33,70.39Zm.16,1.46h1.64v5.46h-1.64Z"/><path class="cls-4" d="M163.92,70.39a1,1,0,1,1,1,1A1,1,0,0,1,163.92,70.39Zm.16,1.46h1.64v5.46h-1.64Z"/></g><path class="cls-1" d="M460.82,218.85H339.32a5.07,5.07,0,0,1-5.07-5.07v-77a5.08,5.08,0,0,1,5.07-5.07h121.5a5.09,5.09,0,0,1,5.08,5.07v77A5.08,5.08,0,0,1,460.82,218.85Zm-121.5-86.17a4.08,4.08,0,0,0-4.07,4.07v77a4.08,4.08,0,0,0,4.07,4.07h121.5a4.08,4.08,0,0,0,4.08-4.07v-77a4.08,4.08,0,0,0-4.08-4.07Z"/><path class="cls-2" d="M338.25,202.15v8.62a4,4,0,0,0,4,4H457.93a4,4,0,0,0,4-4v-8.62Zm115.76,7c-.05,0-.07,0-.11,0a.43.43,0,0,1-.17,0H424.82a.46.46,0,0,1-.21,0h-29.1a.42.42,0,0,1-.29-.1H372.38a1.42,1.42,0,0,1-.19.39,1.59,1.59,0,0,1-2.74-.23.94.94,0,0,1-.07-.22H355.65a.42.42,0,0,1-.42-.52.55.55,0,0,1,.49-.77h13.64c0-.09.06-.19.11-.28a2.21,2.21,0,0,1,1.45-1,.41.41,0,0,1,.54.41h.07a1,1,0,0,1,.91.78l.09,0h22.83a.28.28,0,0,1,.13,0H425a.4.4,0,0,1,.26.08h28.56l0,0,.1,0c.55,0,1.43-.08,1.39.72C455.36,209.08,454.51,209.24,454,209.16Z"/><path class="cls-1" d="M457.93,215.29H342.22a4.23,4.23,0,0,1-4.22-4.23V195.71a.25.25,0,0,1,.25-.25.25.25,0,0,1,.25.25v15.35a3.73,3.73,0,0,0,3.72,3.73H457.93a3.73,3.73,0,0,0,3.72-3.73.25.25,0,0,1,.5,0A4.23,4.23,0,0,1,457.93,215.29Z"/><path class="cls-1" d="M461.9,203.46a.25.25,0,0,1-.25-.25v-3.56a.25.25,0,1,1,.5,0v3.56A.25.25,0,0,1,461.9,203.46Z"/><path class="cls-1" d="M461.9,193.86a.25.25,0,0,1-.25-.25V139.47a3.73,3.73,0,0,0-3.72-3.72H342.22a3.73,3.73,0,0,0-3.72,3.72v15a.25.25,0,0,1-.25.25.25.25,0,0,1-.25-.25v-15a4.22,4.22,0,0,1,4.22-4.22H457.93a4.22,4.22,0,0,1,4.22,4.22v54.14A.25.25,0,0,1,461.9,193.86Z"/><path class="cls-1" d="M338.25,165.58a.25.25,0,0,1-.25-.25V159.9a.25.25,0,0,1,.25-.25.25.25,0,0,1,.25.25v5.43A.25.25,0,0,1,338.25,165.58Z"/><path class="cls-1" d="M338.25,169.16a.25.25,0,0,1-.25-.25V167.6a.25.25,0,0,1,.25-.25.26.26,0,0,1,.25.25v1.31A.26.26,0,0,1,338.25,169.16Z"/><path class="cls-1" d="M452.23,142.63a.31.31,0,0,1-.31-.31v-1a.86.86,0,0,1,.86-.85h.92a.32.32,0,0,1,0,.63h-.92a.23.23,0,0,0-.24.22v1A.31.31,0,0,1,452.23,142.63Z"/><path class="cls-1" d="M456.73,142.59a.3.3,0,0,1-.31-.31v-.92a.23.23,0,0,0-.23-.23h-1a.32.32,0,0,1,0-.63h1a.86.86,0,0,1,.85.86v.92A.31.31,0,0,1,456.73,142.59Z"/><path class="cls-1" d="M456.18,145.47h-.92a.31.31,0,0,1-.31-.31.3.3,0,0,1,.31-.31h.92a.24.24,0,0,0,.24-.23v-1a.31.31,0,0,1,.31-.31.31.31,0,0,1,.31.31v1A.86.86,0,0,1,456.18,145.47Z"/><path class="cls-1" d="M453.74,145.47h-1a.86.86,0,0,1-.85-.86v-.92a.31.31,0,1,1,.62,0v.92a.24.24,0,0,0,.23.24h1a.31.31,0,0,1,.31.31A.31.31,0,0,1,453.74,145.47Z"/><path class="cls-1" d="M349.72,206.83l-1.29.94h-.62a.31.31,0,0,0-.28.32v.69a.3.3,0,0,0,.28.32h.62l1.29.94a.18.18,0,0,0,.27-.16V207A.18.18,0,0,0,349.72,206.83Z"/><path class="cls-1" d="M350.46,208.91a.51.51,0,0,0,0-.95.08.08,0,0,0-.1.08v.8A.07.07,0,0,0,350.46,208.91Z"/><path class="cls-1" d="M350.54,207a.17.17,0,0,0-.22.14.19.19,0,0,0,0,.15.15.15,0,0,0,.1.09,1.15,1.15,0,0,1,.62.51,1.18,1.18,0,0,1-.61,1.69.22.22,0,0,0-.12.26.19.19,0,0,0,.17.15h.06a1.6,1.6,0,0,0,0-3Z"/><path class="cls-1" d="M369.19,209H355.71a.37.37,0,0,1-.36-.37v-.34a.36.36,0,0,1,.36-.37h13.42a2.06,2.06,0,0,1,.12-.35H355.71a.71.71,0,0,0-.71.72v.34a.72.72,0,0,0,.71.72h13.7A1.59,1.59,0,0,1,369.19,209Z"/><path class="cls-1" d="M454.93,207.55H372.4a.69.69,0,0,1,.11.13,1.8,1.8,0,0,1,.06.22h82.36a.37.37,0,0,1,.37.37v.34a.38.38,0,0,1-.37.37H372.6a1,1,0,0,1-.17.35h82.5a.73.73,0,0,0,.72-.72v-.34A.72.72,0,0,0,454.93,207.55Z"/><path class="cls-1" d="M370.91,210.42a2,2,0,1,1,2-2A2,2,0,0,1,370.91,210.42Zm0-3.62a1.64,1.64,0,1,0,1.63,1.64A1.64,1.64,0,0,0,370.91,206.8Z"/><path class="cls-1" d="M389.54,186.93a.93.93,0,0,1-.46-.12,1.13,1.13,0,0,1-.51-1V175.56a2.87,2.87,0,0,1,1.28-2.26l19.09-11.45a1,1,0,0,1,1.67.94V173a2.87,2.87,0,0,1-1.28,2.25l-19.09,11.46A1.41,1.41,0,0,1,389.54,186.93Zm20.1-24.54a.62.62,0,0,0-.31.1L390.24,174a2.14,2.14,0,0,0-.92,1.61v10.22c0,.19.05.33.14.38a.48.48,0,0,0,.39-.08l19.09-11.46a2.15,2.15,0,0,0,.92-1.61V162.79c0-.19-.05-.34-.13-.38A.15.15,0,0,0,409.64,162.39Z"/><path class="cls-1" d="M390.42,166.62a1.7,1.7,0,0,1-.87-.24,1.75,1.75,0,0,1-.91-1.54v-7a1.48,1.48,0,0,1,.65-1.33,1.5,1.5,0,0,1,1.48.09h0l6.51,3.68a1.32,1.32,0,0,1,0,2.45l-6,3.59A1.81,1.81,0,0,1,390.42,166.62Zm-.52-9.48a.41.41,0,0,0-.23.06.74.74,0,0,0-.28.68v7a1,1,0,0,0,1.56.88l6-3.59c.28-.17.45-.38.44-.58s-.17-.41-.46-.58l-6.51-3.67h0A1,1,0,0,0,389.9,157.14Z"/><g class="cls-3"><path class="cls-1" d="M411.2,173.69a2.5,2.5,0,0,1-1.1,1.94L391,187.08c-.6.36-1.1.09-1.1-.62V176.25a2.52,2.52,0,0,1,1.1-1.94l19.09-11.45c.61-.37,1.1-.09,1.1.62Z"/><path class="cls-1" d="M391.55,157.66c-.86-.49-1.57-.08-1.57.91v7a1.41,1.41,0,0,0,2.13,1.21l6-3.59a1,1,0,0,0,0-1.81Z"/></g><path class="cls-1" d="M345,208.66a.35.35,0,0,1-.14.25l-2.47,1.48c-.08.05-.14,0-.14-.08V209a.32.32,0,0,1,.14-.25l2.47-1.48a.09.09,0,0,1,.14.08Z"/><path class="cls-1" d="M342.46,206.59c-.11-.06-.2,0-.2.12v.9a.18.18,0,0,0,.27.15l.77-.46c.11-.07.11-.17,0-.23Z"/><path class="cls-1" d="M280.28,304.77l-15.56,5.83a11.52,11.52,0,0,1-14.8-6.73l-9.14-24.37a11.53,11.53,0,0,1,6.73-14.81l24.37-9.13a11.38,11.38,0,0,1,4-.73,11.59,11.59,0,0,1,4.77,1,11.46,11.46,0,0,1,6,6.42l1.68,4.49,0,0a.41.41,0,0,1,.25-.08h0a3.5,3.5,0,0,1,.53-.31l.08,0-1.65-4.39a12.53,12.53,0,0,0-16.09-7.32l-24.37,9.14a12.54,12.54,0,0,0-7.31,16.09L249,304.22a12.5,12.5,0,0,0,16.1,7.31l15.29-5.73A3.53,3.53,0,0,1,280.28,304.77Z"/><path class="cls-1" d="M260.36,308.66a.38.38,0,0,1,.34-.41h0a.4.4,0,0,1,.41.36h0a.37.37,0,0,1-.35.39h0A.36.36,0,0,1,260.36,308.66Zm-1.69.23a.39.39,0,0,1-.3-.45h0a.38.38,0,0,1,.44-.29h0a.38.38,0,0,1,.3.43h0a.38.38,0,0,1-.37.32h-.07Zm3.66-.53a.39.39,0,0,1,.23-.49h0a.38.38,0,0,1,.48.24h0a.37.37,0,0,1-.23.47h0a.27.27,0,0,1-.12,0h0A.39.39,0,0,1,262.33,308.36Zm-5.64-.13a.37.37,0,0,1-.18-.5h0a.36.36,0,0,1,.5-.17h0a.37.37,0,0,1,.17.5h0a.36.36,0,0,1-.33.21h0A.42.42,0,0,1,256.69,308.23Zm7.52-.58a.35.35,0,0,1,.22-.47h0a.37.37,0,0,1,.48.22h0a.37.37,0,0,1-.22.47h0a.21.21,0,0,1-.13,0h0A.36.36,0,0,1,264.21,307.65Zm1.87-.7a.37.37,0,0,1,.22-.47h0a.36.36,0,0,1,.48.21h0a.38.38,0,0,1-.22.49h0l-.13,0h0A.37.37,0,0,1,266.08,307Zm-11.15.15h0a.38.38,0,0,1,0-.54h0a.38.38,0,0,1,.53,0h0a.4.4,0,0,1,0,.54h0a.39.39,0,0,1-.28.13h0A.45.45,0,0,1,254.93,307.1Zm13-.85a.38.38,0,0,1,.22-.48h0a.36.36,0,0,1,.48.22h0a.38.38,0,0,1-.21.49h-.14A.38.38,0,0,1,268,306.25Zm1.87-.69a.39.39,0,0,1,.23-.49h0a.37.37,0,0,1,.48.22h0a.38.38,0,0,1-.22.48h0l-.13,0h0A.39.39,0,0,1,269.82,305.56Zm-16.29,0h0a.36.36,0,0,1,.1-.52h0a.37.37,0,0,1,.52.09h0a.38.38,0,0,1-.1.53h0a.32.32,0,0,1-.21.06h0A.36.36,0,0,1,253.53,305.54Zm18.17-.69a.38.38,0,0,1,.22-.49h0a.39.39,0,0,1,.48.22h0a.39.39,0,0,1-.22.49h0l-.13,0h0A.38.38,0,0,1,271.7,304.85Zm1.87-.7a.39.39,0,0,1,.22-.49h0a.38.38,0,0,1,.48.23h0a.36.36,0,0,1-.22.47h0a.22.22,0,0,1-.13,0h0A.4.4,0,0,1,273.57,304.15Zm-21-.46a.39.39,0,0,1,.22-.5h0a.39.39,0,0,1,.48.22h0a.37.37,0,0,1-.22.49h0l-.13,0h0A.39.39,0,0,1,252.58,303.69Zm22.86-.25a.38.38,0,0,1,.22-.48h0a.37.37,0,0,1,.48.23h0a.35.35,0,0,1-.22.47h0a.19.19,0,0,1-.13,0h0A.37.37,0,0,1,275.44,303.44Zm1.88-.7a.35.35,0,0,1,.22-.47h0a.36.36,0,0,1,.48.21h0a.37.37,0,0,1-.22.48h0a.3.3,0,0,1-.13,0h0A.35.35,0,0,1,277.32,302.74Zm1.87-.7a.37.37,0,0,1,.22-.48h0a.37.37,0,0,1,.48.21h0a.4.4,0,0,1-.22.5h-.13A.38.38,0,0,1,279.19,302Zm-27.31-.23a.37.37,0,0,1,.22-.49h0a.39.39,0,0,1,.48.22h0a.38.38,0,0,1-.22.49h0l-.13,0h0A.38.38,0,0,1,251.88,301.81Zm-.7-1.87a.37.37,0,0,1,.21-.49h0a.39.39,0,0,1,.49.23h0a.37.37,0,0,1-.22.47h0a.21.21,0,0,1-.13,0h0A.38.38,0,0,1,251.18,299.94Zm-.71-1.88a.38.38,0,0,1,.22-.48h0a.38.38,0,0,1,.49.23h0a.37.37,0,0,1-.22.47h0a.24.24,0,0,1-.14,0h0A.39.39,0,0,1,250.47,298.06Zm-.7-1.87a.39.39,0,0,1,.22-.49h0a.38.38,0,0,1,.48.23h0a.37.37,0,0,1-.22.48h0a.28.28,0,0,1-.13,0h0A.37.37,0,0,1,249.77,296.19Zm-.7-1.87a.38.38,0,0,1,.22-.49h0a.38.38,0,0,1,.48.23h0a.36.36,0,0,1-.22.47h0a.21.21,0,0,1-.13,0h0A.39.39,0,0,1,249.07,294.32Zm-.7-1.88a.36.36,0,0,1,.22-.48h0a.37.37,0,0,1,.48.23h0a.37.37,0,0,1-.22.47h0a.21.21,0,0,1-.13,0h0A.36.36,0,0,1,248.37,292.44Zm-.7-1.87a.35.35,0,0,1,.21-.47h0a.37.37,0,0,1,.49.21h0a.37.37,0,0,1-.22.48h0a.32.32,0,0,1-.13,0h0A.35.35,0,0,1,247.67,290.57ZM247,288.7a.39.39,0,0,1,.22-.49h0a.39.39,0,0,1,.49.23h0a.39.39,0,0,1-.23.49h-.13A.36.36,0,0,1,247,288.7Zm-.7-1.88a.37.37,0,0,1,.22-.47h0a.37.37,0,0,1,.48.21h0a.36.36,0,0,1-.22.48h0a.31.31,0,0,1-.13,0h0A.37.37,0,0,1,246.26,286.82Zm-.7-1.87a.36.36,0,0,1,.22-.47h0a.36.36,0,0,1,.48.21h0a.39.39,0,0,1-.22.49h-.13A.35.35,0,0,1,245.56,285Zm-.7-1.87a.35.35,0,0,1,.22-.47h0a.35.35,0,0,1,.48.21h0a.39.39,0,0,1-.22.49h-.13A.37.37,0,0,1,244.86,283.08Zm45.58-1.37a.37.37,0,0,1,.22-.48h0a.39.39,0,0,1,.48.22h0a.38.38,0,0,1-.22.49h0l-.13,0h0A.36.36,0,0,1,290.44,281.71Zm-46.28-.5a.36.36,0,0,1,.21-.48h0a.37.37,0,0,1,.49.21h0a.4.4,0,0,1-.22.5h-.13A.37.37,0,0,1,244.16,281.21Zm45.57-1.36a.39.39,0,0,1,.22-.49h0a.39.39,0,0,1,.49.22h0a.38.38,0,0,1-.22.48h0a.33.33,0,0,1-.13,0h0A.42.42,0,0,1,289.73,279.85Zm-46.28-.52a.37.37,0,0,1,.22-.47h0a.39.39,0,0,1,.49.21h0a.39.39,0,0,1-.22.49h0l-.14,0h0A.39.39,0,0,1,243.45,279.33ZM289,278a.39.39,0,0,1,.22-.49h0a.37.37,0,0,1,.48.21h0a.37.37,0,0,1-.21.49h0l-.14,0h0A.38.38,0,0,1,289,278Zm-46.28-.54h0A.36.36,0,0,1,243,277h0a.36.36,0,0,1,.47.23h0a.38.38,0,0,1-.24.48h-.11A.36.36,0,0,1,242.75,277.44Zm45.58-1.34a.39.39,0,0,1,.22-.49h0a.38.38,0,0,1,.48.22h0a.37.37,0,0,1-.22.49h0l-.13,0h0A.39.39,0,0,1,288.33,276.1Zm-46-.7a.39.39,0,0,1,.36-.41h0a.39.39,0,0,1,.39.37h0a.37.37,0,0,1-.35.38h0A.37.37,0,0,1,242.36,275.4Zm45.27-1.17a.38.38,0,0,1,.22-.49h0a.39.39,0,0,1,.48.22h0a.37.37,0,0,1-.22.48h0a.33.33,0,0,1-.13,0h0A.4.4,0,0,1,287.63,274.23Zm-44.82-.48a.39.39,0,0,1-.29-.44h0A.38.38,0,0,1,243,273h0a.36.36,0,0,1,.29.43h0a.37.37,0,0,1-.37.3h-.08Zm44.12-1.39a.37.37,0,0,1,.22-.49h0a.37.37,0,0,1,.48.23h0a.37.37,0,0,1-.22.47h0a.21.21,0,0,1-.13,0h0A.38.38,0,0,1,286.93,272.36Zm-43.55-.53a.37.37,0,0,1-.17-.5h0a.38.38,0,0,1,.5-.17h0a.37.37,0,0,1,.17.5h0a.38.38,0,0,1-.34.21h0A.32.32,0,0,1,243.38,271.83Zm42.84-1.35a.39.39,0,0,1,.22-.49h0a.39.39,0,0,1,.49.24h0a.37.37,0,0,1-.22.47h0a.7.7,0,0,1-.14,0h0A.37.37,0,0,1,286.22,270.48Zm-41.81-.36a.37.37,0,0,1,0-.52h0a.38.38,0,0,1,.53,0h0a.39.39,0,0,1,0,.54h0a.39.39,0,0,1-.28.13h0A.36.36,0,0,1,244.41,270.12Zm1.44-1.38a.37.37,0,0,1,.11-.51h0a.36.36,0,0,1,.52.1h0a.39.39,0,0,1-.11.53h0a.36.36,0,0,1-.21.05h0A.35.35,0,0,1,245.85,268.74Zm39.67-.13a.39.39,0,0,1,.22-.49h0a.38.38,0,0,1,.48.23h0a.35.35,0,0,1-.22.47h0a.2.2,0,0,1-.13,0h0A.37.37,0,0,1,285.52,268.61Zm-37.91-.82a.37.37,0,0,1,.21-.48h0a.38.38,0,0,1,.49.21h0a.4.4,0,0,1-.22.5H248A.36.36,0,0,1,247.61,267.79Zm1.87-.69a.37.37,0,0,1,.22-.49h0a.37.37,0,0,1,.48.21h0a.38.38,0,0,1-.22.49h0l-.13,0h0A.37.37,0,0,1,249.48,267.1Zm35.34-.37a.38.38,0,0,1,.22-.48h0a.38.38,0,0,1,.48.23h0a.35.35,0,0,1-.22.47h0a.21.21,0,0,1-.13,0h0A.37.37,0,0,1,284.82,266.73Zm-33.47-.34a.38.38,0,0,1,.22-.49h0a.38.38,0,0,1,.48.22h0a.38.38,0,0,1-.22.49h0l-.13,0h0A.4.4,0,0,1,251.35,266.39Zm1.87-.7a.39.39,0,0,1,.22-.49h0a.38.38,0,0,1,.49.23h0a.37.37,0,0,1-.22.47h0a.24.24,0,0,1-.14,0h0A.39.39,0,0,1,253.22,265.69Zm1.87-.71a.38.38,0,0,1,.22-.48h0a.38.38,0,0,1,.49.23h0a.37.37,0,0,1-.22.47h0a.7.7,0,0,1-.14,0h0A.37.37,0,0,1,255.09,265Zm29-.12a.36.36,0,0,1,.22-.47h0a.36.36,0,0,1,.48.22h0a.36.36,0,0,1-.22.47h0a.21.21,0,0,1-.13,0h0A.36.36,0,0,1,284.12,264.86ZM257,264.28a.37.37,0,0,1,.22-.49h0a.38.38,0,0,1,.48.23h0a.38.38,0,0,1-.22.48h0a.3.3,0,0,1-.13,0h0A.35.35,0,0,1,257,264.28Zm1.87-.71a.37.37,0,0,1,.22-.47h0a.37.37,0,0,1,.48.21h0a.35.35,0,0,1-.22.48h0a.31.31,0,0,1-.13,0h0A.37.37,0,0,1,258.84,263.57Zm24.58-.58a.38.38,0,0,1,.21-.49h0a.39.39,0,0,1,.49.23h0a.37.37,0,0,1-.22.48h0a.32.32,0,0,1-.13,0h0A.35.35,0,0,1,283.42,263Zm-22.71-.12a.37.37,0,0,1,.22-.47h0a.38.38,0,0,1,.49.21h0a.39.39,0,0,1-.23.49h0l-.13,0h0A.39.39,0,0,1,260.71,262.87Zm1.88-.69a.38.38,0,0,1,.21-.49h0a.38.38,0,0,1,.49.22h0a.39.39,0,0,1-.22.49h-.13A.36.36,0,0,1,262.59,262.18Zm1.87-.7a.37.37,0,0,1,.22-.49h0a.37.37,0,0,1,.48.22h0a.37.37,0,0,1-.22.48h0l-.13,0h0A.37.37,0,0,1,264.46,261.48Zm18.14-.23a.37.37,0,0,1,.11-.51h0a.37.37,0,0,1,.52.12h0a.37.37,0,0,1-.11.51h0a.44.44,0,0,1-.2.07h0A.37.37,0,0,1,282.6,261.25Zm-16.27-.48a.39.39,0,0,1,.22-.49h0a.38.38,0,0,1,.48.22h0a.37.37,0,0,1-.22.49h0a.5.5,0,0,1-.13,0h0A.37.37,0,0,1,266.33,260.77Zm1.87-.7a.39.39,0,0,1,.22-.49h0a.39.39,0,0,1,.49.23h0a.37.37,0,0,1-.22.47h0a.24.24,0,0,1-.14,0h0A.39.39,0,0,1,268.2,260.07Zm13.18-.26a.39.39,0,0,1,0-.54h0a.39.39,0,0,1,.54,0h0a.38.38,0,0,1,0,.53h0a.39.39,0,0,1-.28.12h0A.38.38,0,0,1,281.38,259.81Zm-11.3-.45a.35.35,0,0,1,.22-.47h0a.36.36,0,0,1,.48.22h0a.37.37,0,0,1-.22.47h0a.21.21,0,0,1-.13,0h0A.36.36,0,0,1,270.08,259.36Zm1.87-.7a.36.36,0,0,1,.22-.47h0a.36.36,0,0,1,.48.21h0a.38.38,0,0,1-.22.49h-.13A.38.38,0,0,1,272,258.66Zm7.88,0a.36.36,0,0,1-.16-.5h0a.35.35,0,0,1,.5-.15h0a.36.36,0,0,1,.16.5h0a.39.39,0,0,1-.33.21h0A.35.35,0,0,1,279.83,258.71Zm-6-.76a.38.38,0,0,1,.25-.47h0a.39.39,0,0,1,.47.25h0a.37.37,0,0,1-.25.47h-.11A.38.38,0,0,1,273.82,258Zm4.23.11h0a.38.38,0,0,1-.28-.45h0a.38.38,0,0,1,.45-.29h0a.39.39,0,0,1,.29.45h0a.38.38,0,0,1-.37.3h-.08Zm-2.28-.54a.36.36,0,0,1,.36-.38h0a.36.36,0,0,1,.39.35h0a.39.39,0,0,1-.36.4h0A.37.37,0,0,1,275.77,257.52Z"/><path class="cls-1" d="M269.81,288.42a7.69,7.69,0,0,1-4.05-4.33l-.1-.26a7.76,7.76,0,0,1,4.54-10l20.44-7.67,4.26,11.35a.47.47,0,0,1,.06-.09,2.29,2.29,0,0,1,.77-.54l-4.5-12-21.39,8a8.78,8.78,0,0,0-5.12,11.26l.1.26a8.69,8.69,0,0,0,4.58,4.89,8.86,8.86,0,0,0,3.63.79,8.71,8.71,0,0,0,3.05-.56l14.69-5.51a5.08,5.08,0,0,1,.41-1.21l-15.45,5.79A7.7,7.7,0,0,1,269.81,288.42Z"/><path class="cls-1" d="M273.27,286.25a5.14,5.14,0,1,1,2.12-9.81,5,5,0,0,1,2.68,2.87h0a5.14,5.14,0,0,1-4.8,6.94Zm0-9.78a4.61,4.61,0,0,0-1.63.3,4.63,4.63,0,1,0,6,2.71h0a4.65,4.65,0,0,0-4.33-3Z"/><path class="cls-2" d="M272.07,276.92a4.64,4.64,0,1,0,5.63,2.56,4.1,4.1,0,0,0-5.63-2.56Z"/><path class="cls-1" d="M272.88,284.28h0a.32.32,0,0,1-.24-.21l-.64-1.72a.61.61,0,0,1,.09-.57l2.48-3.12a.32.32,0,0,1,.29-.13.3.3,0,0,1,.24.21l.64,1.71a.61.61,0,0,1-.09.57l-2.49,3.13A.31.31,0,0,1,272.88,284.28Zm1.88-5.34L272.32,282a.31.31,0,0,0,0,.23l.62,1.64,2.44-3.07a.25.25,0,0,0,0-.22h0Z"/><path class="cls-1" d="M271.69,280.82h-.07a.41.41,0,0,1-.33-.27l-.44-1.17a.37.37,0,0,1,0-.37.38.38,0,0,1,.35-.11l1.33.2a.41.41,0,0,1,.3.22.37.37,0,0,1-.08.37l-.77,1A.46.46,0,0,1,271.69,280.82Zm-.52-1.59h0l.46,1.19a.06.06,0,0,0,.06.05.07.07,0,0,0,.07,0l.78-1-1.33-.23Z"/><path class="cls-1" d="M302.15,274.51a12,12,0,0,0-10.78,17.17l.47,0,.05,0h.6a10.84,10.84,0,0,1-1.32-5.19,11,11,0,1,1,11,11c-.16,0-.32,0-.49,0a9.39,9.39,0,0,1,.57,1,12,12,0,0,0-.08-23.95Z"/><path class="cls-2" d="M310.47,279.07a11.48,11.48,0,0,0-19,8.69,11.3,11.3,0,0,0,.7,3.92,23.05,23.05,0,0,1,6.8,2.66,7.24,7.24,0,0,1,3,3.7,11.47,11.47,0,0,0,8.49-19Z"/><path class="cls-1" d="M298.91,293a.46.46,0,0,1-.23-.06.56.56,0,0,1-.27-.52v-4.31a1.32,1.32,0,0,1,.59-1l8.05-4.83a.53.53,0,0,1,.85.47v4.31a1.32,1.32,0,0,1-.59,1l-8.06,4.83A.61.61,0,0,1,298.91,293Zm8.47-10.36-.07,0-8.06,4.83a.84.84,0,0,0-.34.6v4.31c0,.05,0,.08,0,.08a.13.13,0,0,0,.07,0l8.05-4.83a.84.84,0,0,0,.35-.61v-4.31A.13.13,0,0,0,307.38,282.66Z"/><path class="cls-1" d="M299.29,284.45a.88.88,0,0,1-.42-.11.83.83,0,0,1-.43-.73v-2.94a.65.65,0,0,1,1-.6l2.75,1.55a.72.72,0,0,1,.4.59.69.69,0,0,1-.39.6l-2.52,1.52A.85.85,0,0,1,299.29,284.45Zm-.22-4H299a.27.27,0,0,0-.07.21v2.94a.33.33,0,0,0,.18.29.32.32,0,0,0,.34,0l2.52-1.51c.11-.07.15-.13.15-.17s0-.1-.15-.16l-2.75-1.55A.32.32,0,0,0,299.07,280.45Z"/><path class="cls-1" d="M291.49,315.22a12,12,0,1,1,9.51-4.66h0a11.91,11.91,0,0,1-8,4.56A11.63,11.63,0,0,1,291.49,315.22Zm0-23A11,11,0,1,0,300.21,310h0a11,11,0,0,0-8.68-17.69Z"/><path class="cls-2" d="M298.41,295.66a9.64,9.64,0,1,0,4.22,6.8A11.49,11.49,0,0,0,298.41,295.66Z"/><path class="cls-1" d="M294.73,307.66h-.11l-9.33-1.1a.54.54,0,0,1-.38-.9l2.64-3.41a1.35,1.35,0,0,1,1.09-.46L298,302.9a.55.55,0,0,1,.48.32.59.59,0,0,1-.11.57l-2.64,3.41A1.33,1.33,0,0,1,294.73,307.66ZM285.27,306l.08,0,9.33,1.1a.83.83,0,0,0,.64-.27h0l2.63-3.41s0-.06,0-.07h0l-.07,0-9.33-1.1a.76.76,0,0,0-.64.27L285.31,306s0,.06,0,.07Z"/><path class="cls-1" d="M294,300.4h-.12l-2.92-.35a.84.84,0,0,1-.57-1.35l1.8-2.32a.65.65,0,0,1,1.18.15l1.23,2.91a.73.73,0,0,1,0,.72A.68.68,0,0,1,294,300.4Zm-1.24-3.85a.28.28,0,0,0-.18.13L290.74,299a.35.35,0,0,0-.05.34.38.38,0,0,0,.28.21l2.92.34c.1,0,.19,0,.22,0a.25.25,0,0,0,0-.22l-1.23-2.91c0-.1-.09-.16-.14-.17Z"/></g></svg>