<svg xmlns="http://www.w3.org/2000/svg" viewBox="0 0 120.83 82.27"><defs><style>.cls-1{fill:#6812d8;}</style></defs><title>icon5Paratii_</title><g id="Warstwa_2" data-name="Warstwa 2"><path class="cls-1" d="M97.35,12.27,36.25,2.94a.71.71,0,0,0-.8.59l-3.21,21A9.88,9.88,0,0,0,24,27.48,3.6,3.6,0,0,0,23,31l5.62,17.23L26.13,64.62a.69.69,0,0,0,.58.8l7.94,1.21.41,1.27c.39,1.19,3.1,4.23,6.61,8.09,1.16,1.27,2.16,2.37,2.62,2.94a1.08,1.08,0,0,0,.85.4,1,1,0,0,0,.34,0l.39-.13A1.27,1.27,0,0,0,46.76,78c0-.87.21-2.44.41-4.26s.38-3.63.51-5.12l40.13,6.13h.11a.7.7,0,0,0,.69-.6l9.33-61.1A.7.7,0,0,0,97.35,12.27ZM24.79,28.15a8.2,8.2,0,0,1,3.58-2.22,8.21,8.21,0,0,1,4.2-.32,2.65,2.65,0,0,1,2.14,1.54l.81,2.49L34.37,30a.26.26,0,0,0-.16.32.27.27,0,0,0,.24.17h.08l1.15-.38.48,1.48-10.74,3.5-.48-1.47,8.29-2.7a.26.26,0,0,0,.16-.32.25.25,0,0,0-.31-.16l-8.3,2.7L24,30.65A2.65,2.65,0,0,1,24.79,28.15ZM41.44,44.57,52,46.18l-2.43,16a.24.24,0,0,0,0,.14l-2.55-.39ZM50.1,62.23l2.44-16,16.34,2.5-2.44,16a.37.37,0,0,0,0,.14L50,62.35A.37.37,0,0,0,50.1,62.23Zm2.51-16.46,2.5-16.35,16.34,2.5L69,48.26Zm14.33,19,2.43-16,16.1,2.46L83,67.38l-6.1-.93-10-1.53A.37.37,0,0,0,66.94,64.8Zm18.6-14L75,49.18h0l-5.48-.84L72,32l16,2.43h0s.07,0,.1,0ZM88.1,34a.24.24,0,0,0-.12-.07L72,31.5l2.44-16a.23.23,0,0,0,0-.14l16.15,2.47ZM74,15.46l-2.43,16-16.35-2.5,2.44-16a.23.23,0,0,0,0-.14L74,15.34S74,15.41,74,15.46ZM57.12,12.89l-2.43,16-16-2.44a.22.22,0,0,0-.14,0l2.46-16.14L57.2,12.77S57.13,12.84,57.12,12.89Zm-18.59,14a.19.19,0,0,0,.12.07l16,2.44L52.12,45.69,41.27,44l-3.65-11.2Zm-1.34,7.9-10.74,3.5-.88-2.68,10.74-3.5Zm-9.57,29.4,2-13,4.56,14Zm-1-25.23,10.74-3.5L46.73,64,36,67.52Zm19.1,39a.28.28,0,0,1-.2.25l-.49.1c-.48-.59-1.48-1.69-2.64-3l3.69-1.2C45.94,75.76,45.8,77.14,45.76,78Zm.42-4.36-4.12,1.34a77,77,0,0,1-5.75-6.78l10.53-3.43A81.28,81.28,0,0,1,46.18,73.59Zm41.15-.33-39.55-6a11.49,11.49,0,0,0-.08-3.44l-.43-1.35,29.57,4.51,6.34,1h0a.26.26,0,0,0,.25-.22L86,51.12h0l5.1-33.43a.24.24,0,0,0,0-.18.23.23,0,0,0-.16-.1l-50-7.63a.25.25,0,0,0-.28.2l-3.33,21.8-1.61-4.94a3.19,3.19,0,0,0-2-1.95L36.73,4.43l59.72,9.11Z"/></g></svg>