<svg id="Warstwa_2_1_" xmlns="http://www.w3.org/2000/svg" viewBox="0 0 326.8 251.2">
  <style>.st0{fill:#fff}.st1{fill:#9c9c9c}.st2{fill:#f0f0f0}.st3{fill:#ececec}.st4{fill:#6812d8}.st5{fill:#e72061}</style>
  <path class="st0" d="M202.5 241.1L25.8 106.2c-4.2-3.2-4.8-7.3-1.3-9l91.8-47.6c3.4-1.8 9.7-.6 13.9 2.5L307 186.9c4.2 3.2 4.8 7.3 1.3 9l-91.8 47.6c-3.6 1.9-9.8.8-14-2.4z"/>
  <path class="st1" d="M212.2 244.9c-3.3 0-7.1-1.2-10-3.4L25.5 106.6c-2.6-2-4-4.4-3.8-6.5.1-1.4 1-2.6 2.5-3.4L116 49.1c3.5-1.9 10-.7 14.4 2.5l176.8 134.8c2.6 2 4 4.4 3.8 6.5-.1 1.4-1 2.6-2.5 3.4l-91.8 47.6c-1.2.7-2.8 1-4.5 1zm-9.4-4.2c4 3.1 10.1 4.1 13.5 2.4l91.8-47.6c1.2-.6 1.9-1.5 2-2.6.2-1.8-1.1-3.8-3.4-5.6L129.9 52.5c-4.1-3-10.2-4.1-13.4-2.5L24.7 97.6c-1.2.6-1.9 1.5-2 2.6-.2 1.8 1.1 3.8 3.4 5.6l176.7 134.9z"/>
  <path class="st2" d="M42.5 94.4l-10.4 5.4c-2.6 1.4-2.2 4.5 1 6.9l170 129.7c3.2 2.4 8 3.3 10.6 2l10.4-5.4L42.5 94.4z"/>
  <path class="st1" d="M210.7 239.3c-2.5 0-5.5-1-7.7-2.7L32.9 106.9c-1.9-1.4-3-3.3-2.8-4.8.1-1.1.8-2 1.9-2.5L50.6 90c.1-.1.3 0 .3.1.1.1 0 .3-.1.3L32.2 100c-1 .5-1.5 1.2-1.6 2.1-.1 1.4.8 3.1 2.6 4.4l170.1 129.7c3.1 2.4 7.8 3.3 10.3 2 .1-.1.3 0 .3.1.1.1 0 .3-.1.3-.8.5-1.9.7-3.1.7zM218.1 236.5c-.1 0-.2 0-.2-.1-.1-.1 0-.3.1-.3l9.5-5c.1-.1.3 0 .3.1.1.1 0 .3-.1.3l-9.5 5c0-.1-.1 0-.1 0zM234.8 227.7c-.1 0-.2-.1-.2-.1-.1-.1 0-.3.1-.3l3.2-1.6 62.4-32.4c1-.5 1.5-1.2 1.6-2.1.1-1.4-.8-3.1-2.6-4.4L129.2 57c-3.1-2.4-7.8-3.3-10.3-2l-18.2 9.5c-.1.1-.3 0-.3-.1s0-.3.1-.3l18.2-9.5c2.7-1.5 7.6-.5 10.9 2l170 129.7c1.9 1.4 3 3.3 2.8 4.8-.1 1.1-.8 2-1.9 2.5L238.1 226l-3.2 1.6-.1.1zM87.5 71.4c-.1 0-.2 0-.2-.1-.1-.1 0-.3.1-.3l6.6-3.5c.1-.1.3 0 .3.1s0 .3-.1.3l-6.6 3.5c0-.1-.1 0-.1 0zM83.2 73.5c-.1 0-.2 0-.2-.1-.1-.1 0-.3.1-.3l1.5-.8c.1-.1.3 0 .3.1s0 .3-.1.3l-1.5.8h-.1z"/>
  <path class="st1" d="M282.5 184.5c-.3-.2-.3-.4-.1-.5l1.2-.6c.6-.3 1.6-.1 2.3.4l1.4 1c.3.2.3.4.1.5-.2.1-.6 0-.8-.2l-1.4-1c-.2-.1-.5-.2-.6-.1l-1.2.6c-.3.2-.7.1-.9-.1zM289.1 189.6c-.3-.2-.3-.4-.1-.5l1.1-.6c.2-.1.1-.3-.1-.4l-1.4-1.1c-.3-.2-.3-.4-.1-.5.2-.1.6 0 .8.2l1.4 1.1c.7.5.8 1.2.2 1.5l-1.1.6c-.1-.1-.4-.1-.7-.3zM284.8 190.8l-1.4-1c-.3-.2-.3-.4-.1-.5.2-.1.6 0 .8.2l1.4 1c.2.1.5.2.6.1l1.2-.6c.2-.1.6 0 .8.2s.3.4.1.5l-1.2.6c-.4.2-1.5 0-2.2-.5zM281.2 188l-1.4-1.1c-.7-.5-.8-1.2-.2-1.5l1.1-.6c.2-.1.6 0 .8.2.3.2.3.4.1.5l-1.1.6c-.2.1-.1.3.1.4l1.4 1.1c.3.2.3.4.1.5-.2.2-.6.1-.9-.1zM54.1 110l-3-.9-.9-.6c-.2-.2-.6-.2-.8-.1l-.8.4c-.2.1-.2.3 0 .5l.9.7.8 2c.1.2.4.3.6.2l3.5-1.8c.1-.1 0-.3-.3-.4zM52.7 112.1c.3.2.8.2 1.1.1s.3-.4.1-.7c-.1-.1-.2-.1-.2-.1l-1 .5c-.1.1-.1.2 0 .2z"/>
  <path class="st1" d="M55.2 111c-.1-.1-.3-.2-.5-.2-.1 0-.1.1-.2.1v.2c.2.3.4.7.3 1-.3.9-1.8 1-2.9.4-.2-.1-.4-.1-.5 0s0 .2.1.3c0 0 .1 0 .1.1 1.1.6 2.5.6 3.3.2.8-.5.9-1.3.3-2.1z"/>
  <path class="st0" d="M83.7 134l-22-16.8c-.4-.3-1-.4-1.3-.2l-.6.3c-.3.2-.3.5.1.8l22 16.8 1.8-.9z"/>
  <path class="st1" d="M206.8 230.1c-.3 0-.6-.1-.9-.4L59.7 118.2c-.3-.3-.4-.6-.4-.8 0-.1.1-.3.3-.3l.7-.4c.4-.2 1-.1 1.4.2L208 228.4c.3.3.4.6.4.8 0 .1-.1.3-.3.3l-.7.4c-.2.1-.4.2-.6.2zM59.9 117.5s.1.1.2.3l146.2 111.5c.2.2.6.3.8.2l.7-.4.2.2-.2-.2s-.1-.1-.2-.3L61.4 117.3c-.3-.3-.7-.2-.9-.2l-.6.4z"/>
  <ellipse transform="rotate(-69.04 83.35560916 134.76682627)" class="st0" cx="83.3" cy="134.8" rx="2.1" ry="3.6"/>
  <path class="st1" d="M84.6 137.4c-.6 0-1.3-.1-2.1-.4-.9-.4-1.7-.9-2.3-1.6-.6-.7-.7-1.4-.5-2 .2-.6.8-1 1.7-1.2.8-.1 1.8 0 2.7.3 2 .8 3.2 2.3 2.8 3.6-.3.8-1.2 1.3-2.3 1.3zm-2.5-4.7h-.6c-.7.1-1.2.4-1.3.9-.2.4 0 1 .4 1.5.5.6 1.2 1.1 2.1 1.4 1.7.6 3.4.4 3.8-.5.4-.9-.8-2.3-2.5-2.9-.6-.3-1.3-.4-1.9-.4z"/>
  <path class="st3" d="M127.3 66.7c-1.3.7-3.5.3-4.9-.7-.7-.5-1-1-1-1.5l-2.2 1.1-1.6-1.2 6.1-3.2 1.6 1.2-.4.2c.7.1 1.4.4 2.1.9 1.5 1.1 1.7 2.5.3 3.2zm-1.5-1.2c.7-.3.5-1-.2-1.5-.7-.6-1.7-.8-2.3-.4-.7.3-.5 1 .2 1.5s1.6.7 2.3.4zM135.6 70.2l-4.4 2.3-1.6-1.2.4-.2c-.7-.1-1.4-.4-2.1-.9-1.4-1.1-1.5-2.5-.2-3.1 1.3-.7 3.5-.3 4.9.7.7.5 1 1 1 1.5l.4-.2 1.6 1.1zm-3.8-.1c.7-.3.5-1-.2-1.5-.7-.6-1.7-.8-2.3-.4-.7.3-.5 1 .2 1.5s1.7.7 2.3.4zM139.8 73.3l-1.5.8c-.6-.5-1.7-1.1-2.6-.7l-2 1-1.6-1.2 4.4-2.3 1.6 1.2-.8.4c.9-.1 1.8.3 2.5.8zM145.7 77.9l-4.4 2.3-1.6-1.2.4-.2c-.7-.1-1.4-.4-2.1-.9-1.4-1.1-1.5-2.5-.2-3.1 1.3-.7 3.5-.3 4.9.7.7.5 1 1 1 1.5l.4-.2 1.6 1.1zm-3.8-.1c.7-.3.5-1-.2-1.5-.7-.6-1.7-.8-2.3-.4-.7.3-.5 1 .2 1.5.7.6 1.7.7 2.3.4zM147.6 80.9l-1.6.8c-.4.2 0 .5.7 1l-1.2.6c-2.3-1.5-2.3-2.2-1.1-2.9l1.6-.8-.9-.6 1.3-.7.9.6.8-.4 2 1-1.2.6 1.9 1.4-1.3.7-1.9-1.3zM151.7 81c.4-.2 1.2-.1 1.7.3s.6.9.2 1.1c-.4.2-1.2.1-1.7-.3s-.6-.9-.2-1.1zm-1 .7l1.6 1.2-4.4 2.3-1.6-1.2 4.4-2.3zM154.3 82.9c.4-.2 1.2-.1 1.7.3s.6.9.2 1.1c-.4.2-1.2.1-1.7-.3-.6-.4-.7-.9-.2-1.1zm-1 .7l1.6 1.2-4.4 2.3-1.6-1.2 4.4-2.3z"/>
  <path class="st1" d="M215.7 237.7c-.1 0-.2-.1-.2-.1-.1-.1 0-.3.1-.3l.9-.4c.1-.1.3 0 .3.1.1.1 0 .3-.1.3l-.9.4c0-.1-.1 0-.1 0zM53 89.2c-.1 0-.2 0-.2-.1-.1-.1 0-.3.1-.3l.9-.5c.1-.1.3 0 .3.1.1.1 0 .3-.1.3l-.9.5H53z"/>
  <g>
    <path class="st2" d="M186 153.8c-.7.4-2.2.4-3.3 0L148 142c-1.1-.4-1.4-1-.7-1.3l10.2-5.3c.7-.4 2.2-.4 3.3 0l34.7 11.8c1.1.4 1.4 1 .7 1.3l-10.2 5.3zM178.2 127.2c-.6-1.1-1.8-1.5-2.8-1l-7 3.6c-1.1.6-.3 2 1.4 2.6l10.9 3.7c1.5.5 2.3.1 1.8-1l-4.3-7.9z"/>
    <g>
      <path class="st1" d="M184 153.2c-.6 0-1.3-.1-1.9-.3l-34.7-11.8c-.8-.3-1.3-.7-1.3-1.2 0-.2.1-.6.6-.8l10.2-5.3c.8-.4 2.4-.5 3.6 0l34.7 11.8c.8.3 1.3.7 1.3 1.2 0 .2-.1.6-.6.8l-10.2 5.3c-.4.2-1 .3-1.7.3zm-25.5-19c-.5 0-1 .1-1.3.3l-10.2 5.3-.2.1s.2.3.8.5l34.7 11.8c1 .4 2.4.4 3 0l10.2-5.3.2-.1s-.2-.3-.8-.5l-34.7-11.8c-.5-.2-1.2-.3-1.7-.3zM181.3 135.4c-.3 0-.8-.1-1.2-.2l-10.9-3.7c-1.2-.4-2.1-1.3-2.2-2.1 0-.5.2-.9.7-1.2l7-3.6c1.2-.6 2.6-.1 3.3 1.2l4.3 7.9c.3.8.2 1.2 0 1.4-.2.2-.6.3-1 .3zm-5.5-10.3c-.2 0-.5.1-.7.2l-7 3.6c-.3.2-.3.3-.3.5 0 .4.6 1.1 1.7 1.4l10.9 3.7c.9.3 1.3.2 1.4.1.1-.1 0-.3-.1-.6l-4.3-7.9c-.4-.7-1-1-1.6-1z"/>
    </g>
  </g>
  <g>
    <path class="st1" d="M44.7 105.6c-.1.1-.3.1-.5 0l-5.5-1.9c-.2-.1-.2-.2-.1-.2l1.6-.8c.1-.1.3-.1.5 0l5.5 1.9c.2.1.2.2.1.2l-1.6.8zM43.5 101.3c-.1-.2-.3-.2-.5-.2l-1.1.6c-.2.1-.1.3.2.4l1.7.6c.2.1.4 0 .3-.2l-.6-1.2z"/>
  </g>
  <path class="st1" d="M272.7 177c.1 0 .1 0 .2.1.1 0 .2.1.4.1h.5c.1 0 .2-.1.4-.1.1 0 .1-.1.2-.2s.1-.2.2-.3c0-.1.2-.1.3-.1h.4c.1 0 .3.1.3.1.1.1.1.2.2.3l.1.1c.1.1.2.1.3.1.1 0 .3.1.4.1h.2c.2 0 .3-.1.5-.2h.4c.1.1.2.1.3.2.1.1.1.1.1.2-.1.1-.1.2-.2.3 0 .1-.1.1-.1.2v.1c0 .1.1.2.2.2l.1.1c.2.1.3.1.5.1h.2c.1 0 .2.1.2.2v.3c0 .1-.1.2-.2.2-.2 0-.4.1-.6.1h-.1c-.1 0-.2.1-.2.2-.1.1-.1.2-.1.3s0 .1.1.2.2.2.2.3c.1.1 0 .2-.1.2-.1.1-.2.1-.3.2-.1.1-.2.1-.4 0-.1 0-.3-.1-.4-.1h-.6c-.1 0-.2.1-.3.1-.1 0-.2.1-.2.2-.1.1-.1.2-.2.3 0 .1-.2.2-.3.2h-.4c-.1 0-.3-.1-.3-.2-.1-.1-.1-.2-.2-.4-.1-.1-.3-.2-.5-.2h-.5c-.2 0-.3.1-.5.2h-.3c-.1-.1-.2-.1-.3-.2-.1-.1-.1-.2-.1-.2.1-.1.1-.2.2-.3 0-.1.1-.1.1-.2v-.2c0-.1-.1-.2-.2-.3s-.2-.1-.2-.1c-.2 0-.3-.1-.5-.1-.1 0-.2-.1-.2-.2v-.3c0-.1.1-.1.2-.2.2 0 .3-.1.5-.1.1 0 .1 0 .2-.1.1 0 .1-.1.1-.1.1-.1.1-.2.2-.3 0-.1 0-.1-.1-.2s-.1-.2-.2-.3 0-.2.1-.2c.1-.1.2-.1.3-.1-.2 0-.1 0 0 0zm2.3 2.8c.7 0 1.2-.4 1.2-.8s-.5-.8-1.2-.8-1.2.3-1.2.8c0 .4.5.8 1.2.8z"/>
  <path class="st4" d="M214.3 229.7c-.2 0-.3-.1-.3-.3V197c0-1-.5-1.8-1.4-2.3-.9-.4-1.9-.4-2.6.2l-57 31.2c-.2.1-.4 0-.4-.1-.1-.2 0-.4.1-.4l57-31.2c.9-.7 2.2-.8 3.3-.3 1.1.5 1.7 1.6 1.7 2.8v32.4c-.1.2-.3.4-.4.4z"/>
  <path class="st4" d="M151.3 229.3c-1.2 0-2.2-1-2.2-2.2s1-2.2 2.2-2.2 2.2 1 2.2 2.2-1 2.2-2.2 2.2zm0-3.7c-.8 0-1.5.7-1.5 1.5s.7 1.5 1.5 1.5 1.5-.7 1.5-1.5-.6-1.5-1.5-1.5zM214.3 230.1c-.1 0-.2 0-.3-.1l-1.6-2c-.1-.1-.1-.3 0-.5.1-.1.3-.1.5 0l1.3 1.7 1.3-1.7c.1-.1.3-.2.5-.1.1.1.2.3.1.5l-1.5 2c-.1.2-.2.2-.3.2zM91.2 134.6c-.2 0-.3-.1-.3-.3v-32.4c0-1-.5-1.8-1.4-2.3-.9-.4-1.9-.4-2.6.2l-57 31.2c-.2.1-.4 0-.4-.1-.1-.2 0-.4.1-.4l57-31.2c.9-.7 2.2-.8 3.3-.3 1.1.5 1.7 1.6 1.7 2.8v32.4c-.1.2-.2.4-.4.4z"/>
  <path class="st4" d="M28.3 134.2c-1.2 0-2.2-1-2.2-2.2 0-1.2 1-2.2 2.2-2.2 1.2 0 2.2 1 2.2 2.2 0 1.2-1 2.2-2.2 2.2zm0-3.7c-.8 0-1.5.7-1.5 1.5s.7 1.5 1.5 1.5 1.5-.7 1.5-1.5-.7-1.5-1.5-1.5zM91.3 135c-.1 0-.2 0-.3-.1l-1.6-2c-.1-.1-.1-.3 0-.5.1-.1.3-.1.5 0l1.3 1.7 1.3-1.7c.1-.1.3-.2.5-.1.1.1.2.3.1.5l-1.5 2c-.1.1-.2.2-.3.2z"/>
  <g>
    <path class="st4" d="M58.9 96.9c-.2 0-.3-.1-.3-.3V57.1c0-1.5-.7-2.8-1.9-3.6L8 21.4c-.1-.1-.2-.3-.1-.5.1-.1.3-.2.5-.1l48.6 32c1.4.9 2.2 2.5 2.2 4.2v39.5c0 .3-.1.4-.3.4z"/>
    <path class="st4" d="M58.9 97.4c-.1 0-.2 0-.3-.1l-1.5-2c-.1-.1-.1-.3.1-.5.1-.1.3-.1.5.1l1.3 1.7 1.3-1.7c.1-.1.3-.2.5 0s.2.3 0 .5l-1.6 2c-.1-.1-.2 0-.3 0zM6.5 22.2c-1.2 0-2.2-1-2.2-2.2s1-2.2 2.2-2.2 2.2 1 2.2 2.2-1 2.2-2.2 2.2zm0-3.7c-.8 0-1.5.7-1.5 1.5s.7 1.5 1.5 1.5S8 20.8 8 20s-.7-1.5-1.5-1.5z"/>
  </g>
  <g>
    <path class="st5" d="M131.6 78.8c-.2 0-.3-.1-.3-.3V39c0-1.7.8-3.2 2.2-4.2l48.7-28.1c.2-.1.4 0 .4.1.1.2 0 .4-.1.4l-48.6 28c-1.2.8-1.9 2.1-1.9 3.6v39.5c0 .4-.2.5-.4.5z"/>
    <path class="st5" d="M131.7 79.3c-.1 0-.2 0-.3-.1l-1.6-2c-.1-.1-.1-.3 0-.5.1-.1.3-.1.5 0l1.3 1.7 1.3-1.7c.1-.1.3-.2.5-.1.1.1.2.3.1.5l-1.5 2c-.1.1-.2.2-.3.2zM184.1 8.1c-1.2 0-2.2-1-2.2-2.2 0-1.2 1-2.2 2.2-2.2s2.2 1 2.2 2.2c-.1 1.2-1 2.2-2.2 2.2zm0-3.7c-.8 0-1.5.7-1.5 1.5s.7 1.5 1.5 1.5 1.5-.7 1.5-1.5-.7-1.5-1.5-1.5z"/>
  </g>
  <g>
    <path class="st4" d="M271 172.3c-.2 0-.3-.1-.3-.3v-39.5c0-1.7.8-3.2 2.2-4.2l48.7-28.1c.2-.1.4 0 .4.1.1.2 0 .4-.1.4l-48.6 28c-1.2.8-1.9 2.1-1.9 3.6V172c-.1.2-.2.3-.4.3z"/>
    <path class="st4" d="M271 172.8c-.1 0-.2 0-.3-.1l-1.6-2c-.1-.1-.1-.3 0-.5.1-.1.3-.1.5 0l1.3 1.7 1.3-1.7c.1-.1.3-.2.5-.1.1.1.2.3.1.5l-1.5 2c-.1.1-.1.2-.3.2zM323.4 101.6c-1.2 0-2.2-1-2.2-2.2 0-1.2 1-2.2 2.2-2.2 1.2 0 2.2 1 2.2 2.2 0 1.2-1 2.2-2.2 2.2zm0-3.7c-.8 0-1.5.7-1.5 1.5s.7 1.5 1.5 1.5 1.5-.7 1.5-1.5-.6-1.5-1.5-1.5z"/>
  </g>
  <g>
    <path class="st4" d="M188.9 136.9c-.2 0-.3-.1-.3-.3V97c0-1.7.8-3.2 2.2-4.2l48.7-28.1c.2-.1.4 0 .4.1.1.2 0 .4-.1.4l-48.6 28c-1.2.8-1.9 2.1-1.9 3.6v39.5c-.1.4-.2.6-.4.6z"/>
    <path class="st4" d="M188.9 137.3c-.1 0-.2 0-.3-.1l-1.6-2c-.1-.1-.1-.3 0-.5.1-.1.3-.1.5 0l1.3 1.7 1.3-1.7c.1-.1.3-.2.5-.1.1.1.2.3.1.5l-1.5 2c-.1.2-.2.2-.3.2zM241.3 66.1c-1.2 0-2.2-1-2.2-2.2s1-2.2 2.2-2.2 2.2 1 2.2 2.2-1 2.2-2.2 2.2zm0-3.7c-.8 0-1.5.7-1.5 1.5s.7 1.5 1.5 1.5 1.5-.7 1.5-1.5-.6-1.5-1.5-1.5z"/>
  </g>
</svg>
