
<svg version="1.1" xmlns="http://www.w3.org/2000/svg" xmlns:xlink="http://www.w3.org/1999/xlink" viewBox="0 0 238.4 87.3">
	<g>
		<path d="M107.3,37.6c0,6.8-4.9,12-10.9,12c-3,0-5.3-1-6.8-2.8v11.2h-6.8V26.2h6.8v2.1c1.5-1.7,3.7-2.8,6.8-2.8
			C102.4,25.6,107.3,30.8,107.3,37.6z M100.5,37.6c0-3.4-2.3-5.6-5.4-5.6c-3.1,0-5.4,2.1-5.4,5.6c0,3.4,2.3,5.6,5.4,5.6
			C98.2,43.2,100.5,41,100.5,37.6z"/>
		<path d="M133.4,26.2V49h-6.8v-2.1c-1.5,1.7-3.7,2.8-6.8,2.8c-6,0-10.9-5.2-10.9-12c0-6.8,4.9-12,10.9-12
			c3,0,5.3,1,6.8,2.8v-2.1H133.4z M126.5,37.6c0-3.4-2.3-5.6-5.4-5.6c-3.1,0-5.4,2.1-5.4,5.6c0,3.4,2.3,5.6,5.4,5.6
			C124.3,43.2,126.5,41,126.5,37.6z"/>
		<path d="M151,25.8v7.7c-2.8-0.5-6.8,0.7-6.8,5.2V49h-6.8V26.2h6.8v4.1C145.1,27.2,148.1,25.8,151,25.8z"/>
		<path d="M176.7,26.2V49h-6.8v-2.1c-1.5,1.7-3.7,2.8-6.8,2.8c-6,0-10.9-5.2-10.9-12c0-6.8,4.9-12,10.9-12
			c3,0,5.3,1,6.8,2.8v-2.1H176.7z M169.8,37.6c0-3.4-2.3-5.6-5.4-5.6c-3.1,0-5.4,2.1-5.4,5.6c0,3.4,2.3,5.6,5.4,5.6
			C167.6,43.2,169.8,41,169.8,37.6z"/>
		<path d="M190,32.8v8.1c0,2,1.7,2.1,4.7,2V49c-8.9,0.9-11.5-1.8-11.5-8.1v-8.1h-3.6v-6.6h3.6v-4.3l6.8-2v6.4h8.1v6.6
			H190z"/>
		<path d="M197.4,20.1c0-2.2,1.9-4.1,4.1-4.1s4.1,1.9,4.1,4.1s-1.9,4.1-4.1,4.1S197.4,22.4,197.4,20.1z M198.1,26.2h6.8
			V49h-6.8V26.2z"/>
		<path d="M208.2,20.1c0-2.2,1.9-4.1,4.1-4.1c2.2,0,4.1,1.9,4.1,4.1s-1.9,4.1-4.1,4.1C210.1,24.2,208.2,22.4,208.2,20.1z
			 M208.9,26.2h6.8V49h-6.8V26.2z"/>
		<path d="M60.3,46.9c0,1.3-0.9,2.8-2,3.5L24,71c-1.1,0.7-2,0.1-2-1.1V51.5c0-1.3,0.9-2.8,2-3.5l34.4-20.6
			c1.1-0.7,2-0.1,2,1.1V46.9z"/>
		<path d="M24.9,18.1c-1.5-0.9-2.8-0.1-2.8,1.6v12.5c0,2,2.1,3.2,3.8,2.2l10.8-6.5c1.5-0.9,1.5-2.4,0-3.3L24.9,18.1z"/>
	</g>
</svg>
